<svg xmlns="http://www.w3.org/2000/svg" width="122" height="121" viewBox="0 0 122 121" fill="none">
<path d="M45.0231 107.021C44.4869 106.752 44.1028 106.333 43.8709 105.767C43.6391 105.2 43.6092 104.619 43.7813 104.024C43.9367 103.486 44.2086 103.049 44.5969 102.713C44.9729 102.385 45.4439 102.177 46.0101 102.091C46.5763 102.005 47.2004 102.06 47.8825 102.257L52.2202 103.51L49.3143 113.569L45.164 112.37C44.4819 112.173 43.9278 111.893 43.5017 111.531C43.066 111.166 42.7801 110.75 42.6441 110.284C42.4985 109.815 42.4979 109.331 42.6422 108.831C42.8115 108.245 43.1115 107.801 43.5424 107.499C43.9636 107.194 44.4572 107.034 45.0231 107.021ZM48.4958 108.836L46.6512 108.303C46.1709 108.164 45.7705 108.163 45.45 108.3C45.1268 108.446 44.9069 108.72 44.7903 109.124C44.6738 109.527 44.7133 109.877 44.9088 110.173C45.1044 110.469 45.4423 110.686 45.9227 110.825L47.7673 111.358L48.4958 108.836ZM47.6962 103.983C47.2062 103.842 46.7934 103.848 46.4578 104C46.1126 104.151 45.8789 104.437 45.7568 104.86C45.6319 105.292 45.6789 105.67 45.8977 105.993C46.1138 106.326 46.4668 106.564 46.9567 106.705L48.9454 107.28L49.7281 104.57L47.6962 103.983Z" fill="#011C1A"/>
<path d="M31.8319 104.35L33.3066 102.179L30.3904 100.199L31.3258 98.8211L34.242 100.801L35.8009 98.5057L32.5125 96.2726L33.4732 94.8579L38.4989 98.2708L32.6085 106.945L27.5828 103.532L28.5434 102.117L31.8319 104.35Z" fill="#011C1A"/>
<path d="M26.3881 87.4648C26.8351 88.042 27.1403 88.6403 27.3039 89.2599C27.4614 89.8715 27.4584 90.4556 27.295 91.0122C27.1315 91.5688 26.7999 92.047 26.3 92.4468L24.9224 90.6678C25.244 90.3808 25.4209 90.054 25.4533 89.6875C25.4795 89.3131 25.3457 88.9361 25.0518 88.5566C24.7518 88.1691 24.4251 87.9352 24.0718 87.8546C23.7107 87.7802 23.3798 87.8593 23.0794 88.0919C22.8343 88.2817 22.6908 88.513 22.649 88.7857C22.6072 89.0583 22.6316 89.343 22.7222 89.6396C22.7988 89.9345 22.9348 90.3224 23.1302 90.8035C23.3885 91.4636 23.5741 92.0218 23.6871 92.4781C23.7862 92.9326 23.7764 93.4018 23.6579 93.8857C23.5253 94.3678 23.1981 94.8109 22.6763 95.215C22.1861 95.5946 21.6642 95.8027 21.1107 95.8392C20.5572 95.8758 20.0141 95.7462 19.4815 95.4503C18.941 95.1606 18.4503 94.7312 18.0095 94.1619C17.3482 93.308 17.022 92.4539 17.0308 91.5997C17.0256 90.7437 17.3732 90.0002 18.0735 89.3693L19.4879 91.1957C19.2155 91.432 19.0771 91.7351 19.0728 92.1052C19.0545 92.4736 19.1892 92.8435 19.477 93.2151C19.7281 93.5393 20.0131 93.7359 20.3322 93.805C20.6452 93.8662 20.9598 93.7743 21.2761 93.5294C21.4975 93.358 21.6282 93.1429 21.6682 92.8843C21.6942 92.6239 21.6719 92.3502 21.6015 92.0632C21.517 91.7745 21.381 91.3865 21.1935 90.8994C20.9353 90.2393 20.7536 89.678 20.6484 89.2156C20.5433 88.7532 20.5539 88.2769 20.6804 87.7869C20.8068 87.2969 21.127 86.8529 21.641 86.4549C22.0837 86.1121 22.5836 85.9083 23.1407 85.8437C23.6978 85.7791 24.2624 85.8794 24.8345 86.1446C25.3988 86.416 25.9167 86.856 26.3881 87.4648Z" fill="#011C1A"/>
<path d="M8.27321 74.7683L9.87546 74.2153L10.7858 76.8526L19.0806 73.9896L19.7657 75.9746L11.4709 78.8377L12.3812 81.475L10.779 82.028L8.27321 74.7683Z" fill="#011C1A"/>
<path d="M15.8593 53.6434L16.4196 50.2392L18.0625 50.5096L17.1611 55.9859L6.83015 54.2854L7.17122 52.2133L15.8593 53.6434Z" fill="#011C1A"/>
<path d="M20.9978 37.937L19.0779 41.6388L20.5312 43.1698L19.516 45.1272L11.9418 36.9576L13.0675 34.7872L24.1085 36.2723L23.0864 38.243L20.9978 37.937ZM19.244 37.6695L14.6583 36.9978L17.8489 40.3593L19.244 37.6695Z" fill="#011C1A"/>
<path d="M32.2153 14.1102L36.4811 24.1091L34.5499 25.657L28.3541 21.069L31.4132 28.1712L29.5031 29.7215L20.7451 23.3039L22.5007 21.8967L29.025 27.0865L25.6024 19.4106L27.4282 17.9471L34.0531 22.9986L30.4479 15.5268L32.2153 14.1102Z" fill="#011C1A"/>
<path d="M50.2761 7.4443L48.6869 14.9667L49.66 18.4794L47.6363 19.0401L46.6631 15.5274L41.4149 9.89929L43.6989 9.26652L47.1448 13.2771L48.0211 8.06906L50.2761 7.4443Z" fill="#011C1A"/>
<path d="M61.9736 8.35782L61.8554 10.9802L65.3768 11.1389L65.3019 12.8022L61.7804 12.6435L61.6555 15.4157L65.6264 15.5947L65.5494 17.3029L59.4806 17.0294L59.9527 6.555L66.0216 6.82855L65.9446 8.53682L61.9736 8.35782Z" fill="#011C1A"/>
<path d="M77.1655 20.4184L76.4425 15.7859L75.5161 15.4368L74.0774 19.2547L72.1123 18.5143L75.8042 8.71674L79.4817 10.1025C80.2397 10.3881 80.8343 10.7671 81.2654 11.2395C81.7 11.7025 81.962 12.2126 82.0512 12.7699C82.1533 13.3213 82.0986 13.8777 81.8871 14.4392C81.6438 15.0849 81.2362 15.5992 80.6644 15.9822C80.0962 16.3558 79.4054 16.5016 78.5921 16.4196L79.4394 21.2752L77.1655 20.4184ZM76.0714 13.963L77.7137 14.5818C78.2471 14.7828 78.6924 14.8063 79.0496 14.6524C79.4104 14.4891 79.6771 14.1782 79.8499 13.7197C80.0192 13.2705 80.0186 12.8749 79.8483 12.5329C79.6815 12.1815 79.3314 11.9053 78.798 11.7043L77.1557 11.0855L76.0714 13.963Z" fill="#011C1A"/>
<path d="M104.259 28.8585L102.955 29.9406L100.168 26.5809L98.1015 28.295L100.237 30.8696L98.9554 31.9326L96.8199 29.3579L93.414 32.1828L92.0733 30.5664L100.132 23.8824L104.259 28.8585Z" fill="#011C1A"/>
<path d="M101.143 45.4534C100.803 44.5344 100.706 43.6105 100.853 42.6818C100.999 41.7531 101.369 40.9231 101.962 40.1917C102.564 39.4569 103.349 38.9106 104.314 38.553C105.271 38.1989 106.212 38.1063 107.139 38.2752C108.074 38.4406 108.9 38.828 109.616 39.4373C110.332 40.0465 110.861 40.8107 111.201 41.7297C111.545 42.6581 111.641 43.582 111.491 44.5013C111.344 45.43 110.968 46.2571 110.362 46.9826C109.769 47.7139 108.995 48.2567 108.038 48.6108C107.072 48.9685 106.121 49.0645 105.186 48.8991C104.263 48.7396 103.444 48.3552 102.728 47.7459C102.011 47.1366 101.483 46.3724 101.143 45.4534ZM102.901 44.8024C103.12 45.3932 103.444 45.8651 103.873 46.218C104.312 46.5675 104.827 46.7768 105.417 46.846C106.008 46.9152 106.632 46.8283 107.288 46.5852C107.945 46.3422 108.47 46.0038 108.864 45.57C109.267 45.1328 109.517 44.6405 109.613 44.0932C109.709 43.5458 109.647 42.9767 109.428 42.3859C109.21 41.7951 108.884 41.3186 108.451 40.9563C108.022 40.6033 107.512 40.3923 106.921 40.3231C106.34 40.2504 105.721 40.3356 105.064 40.5787C104.408 40.8217 103.878 41.1618 103.475 41.599C103.072 42.0363 102.817 42.5303 102.712 43.0811C102.619 43.6378 102.683 44.2116 102.901 44.8024Z" fill="#011C1A"/>
<path d="M103.975 62.3054L108.068 60.019L108.074 59.029L103.994 59.0054L104.006 56.9055L114.476 56.966L114.453 60.8959C114.448 61.7059 114.299 62.3951 114.006 62.9634C113.723 63.5317 113.335 63.9545 112.844 64.2317C112.362 64.5189 111.821 64.6608 111.221 64.6573C110.531 64.6533 109.908 64.4497 109.35 64.0465C108.802 63.6433 108.426 63.0461 108.22 62.2549L103.961 64.7353L103.975 62.3054ZM109.649 59.0381L109.639 60.7931C109.635 61.3631 109.768 61.7889 110.036 62.0704C110.315 62.352 110.699 62.4942 111.189 62.4971C111.669 62.4999 112.04 62.362 112.301 62.0835C112.573 61.8051 112.71 61.3809 112.714 60.8109L112.724 59.0559L109.649 59.0381Z" fill="#011C1A"/>
<path d="M104.333 92.3842L100.341 85.8136L97.2261 83.9198L98.3172 82.1255L101.432 84.0193L109.11 84.5276L107.879 86.5527L102.621 85.9891L105.549 90.3848L104.333 92.3842Z" fill="#011C1A"/>
<path d="M87.3136 94.7264C88.0853 94.1224 88.9358 93.7488 89.865 93.6056C90.7942 93.4624 91.6975 93.5618 92.5747 93.9038C93.4581 94.2537 94.2172 94.8341 94.8521 95.6452C95.4808 96.4484 95.8558 97.3169 95.977 98.2506C96.1045 99.1922 95.9871 100.097 95.6249 100.964C95.2627 101.832 94.6958 102.568 93.9241 103.172C93.1445 103.782 92.294 104.156 91.3726 104.293C90.4434 104.436 89.541 104.33 88.6655 103.974C87.7882 103.632 87.0353 103.059 86.4066 102.256C85.7717 101.445 85.3906 100.568 85.2631 99.6267C85.134 98.6992 85.2505 97.8016 85.6127 96.9339C85.9749 96.0663 86.5418 95.3304 87.3136 94.7264ZM88.4692 96.2029C87.9731 96.5912 87.6224 97.0435 87.417 97.5599C87.2178 98.0841 87.1752 98.6381 87.2892 99.2219C87.4033 99.8056 87.676 100.373 88.1075 100.924C88.5389 101.476 89.0212 101.873 89.5544 102.116C90.0936 102.367 90.6386 102.455 91.1891 102.379C91.7397 102.304 92.263 102.072 92.7591 101.684C93.2552 101.295 93.6099 100.84 93.8232 100.317C94.0286 99.8011 94.0743 99.251 93.9602 98.6672C93.8523 98.0913 93.5826 97.5278 93.1512 96.9766C92.7197 96.4253 92.2344 96.0243 91.6951 95.7733C91.1558 95.5224 90.6078 95.4307 90.0511 95.4981C89.4926 95.5797 88.9653 95.8146 88.4692 96.2029Z" fill="#011C1A"/>
<path d="M78.3388 111.606L76.4704 105.401C76.2657 104.721 75.9314 104.252 75.4675 103.995C75.0065 103.748 74.4553 103.72 73.8137 103.914C73.1626 104.11 72.7133 104.438 72.4657 104.899C72.221 105.37 72.201 105.945 72.4057 106.625L74.2741 112.83L72.249 113.439L70.3848 107.249C70.1282 106.397 70.0972 105.618 70.2919 104.911C70.4799 104.218 70.8404 103.629 71.3734 103.145C71.8968 102.663 72.5367 102.309 73.2932 102.081C74.0401 101.856 74.7646 101.8 75.4668 101.912C76.1594 102.027 76.7708 102.323 77.301 102.801C77.8341 103.288 78.2289 103.957 78.4855 104.81L80.3496 111L78.3388 111.606Z" fill="#011C1A"/>
</svg>