<svg width="857" height="814" viewBox="0 0 857 814" fill="none" xmlns="http://www.w3.org/2000/svg">
<path d="M79.0371 791.304C76.6045 789.219 71.1904 782.616 75.379 774.952C76.8971 772.135 80.1529 770.745 83.0977 769.465C86.1266 768.439 88.982 766.959 91.5663 765.075C96.1572 761.161 97.4193 754.686 100.474 749.473C103.967 743.492 110.497 739.011 117.393 739.322C125.294 739.688 131.879 746.126 134.879 753.497C137.878 760.868 137.97 769.008 138.025 776.964C138.025 781.354 137.86 786.311 134.641 789.274C131.422 792.237 127.178 792.036 123.154 791.926L79.9883 790.591" fill="#F5F5F5"/>
<path d="M161.563 672.579H47.9414L68.3904 794.523C68.8134 797.066 69.9487 799.436 71.6646 801.359C73.3805 803.282 75.6066 804.679 78.0845 805.388L78.4869 805.498C78.817 805.602 79.1529 805.688 79.4929 805.754C80.2519 805.91 81.0229 806.002 81.7975 806.028V806.138L82.3462 806.046H133.066C134 806.048 134.931 805.956 135.847 805.772C138.799 805.314 141.519 803.901 143.594 801.751C145.668 799.601 146.981 796.831 147.333 793.865L157.192 709.837L157.631 706.49L161.545 673.201L161.563 672.579ZM140.145 750.369H128.421L129.664 715.05H143.163L140.145 750.369ZM144.297 715.05H155.454L151.302 750.443H141.224L144.297 715.05ZM111.008 789.676L110.294 758.948H127.067L126.061 789.695L111.008 789.676ZM92.8634 758.948H109.16L109.874 789.695H95.2412L92.8634 758.948ZM94.1255 789.695H80.4623C79.1636 781.391 77.4626 770.599 75.6335 758.948H91.7294L94.1255 789.695ZM92.2964 750.461L89.4613 715.05H108.154L108.978 750.443L92.2964 750.461ZM110.185 750.461L109.288 715.05H128.53L127.36 750.443L110.185 750.461ZM109.179 706.563L108.301 673.713H129.902L128.823 706.49L109.179 706.563ZM108.045 706.563H88.7846L86.2422 673.713H107.203L108.045 706.563ZM87.7603 706.563H67.3844C66.6711 702.027 65.976 697.747 65.3725 693.888C63.2507 680.645 62.4642 675.597 62.0253 673.768H85.1081L87.7603 706.563ZM88.4188 715.05L91.1624 750.443H74.2983C73.7313 746.785 73.1643 743.218 72.5973 739.578C71.2804 731.219 69.9634 722.879 68.7197 715.05H88.4188ZM73.2558 750.443H62.2813L56.2637 715.05H67.5856C69.3233 725.915 71.2255 738.096 73.1643 750.369L73.2558 750.443ZM74.591 758.93C76.2554 769.575 77.9016 780.055 79.4014 789.676H68.7928L63.6348 758.948L74.591 758.93ZM127.268 789.676L128.201 758.948H139.395L136.761 789.695L127.268 789.676ZM130.03 706.563L131.128 673.786H146.711L143.913 706.563H130.03ZM60.9461 673.713C61.3851 676.073 63.4702 688.986 66.2321 706.49H54.837L49.3498 673.713H60.9461ZM146.711 789.603H137.932L140.547 758.948H150.369L146.711 789.603ZM156.46 706.49H145.01L147.809 673.713H160.283L156.46 706.49Z" fill="#E0E0E0"/>
<path d="M251.205 17.9727H68.1152V283.353H251.205V17.9727Z" fill="#E0E0E0"/>
<path d="M242.043 17.9727H58.9531V283.353H242.043V17.9727Z" fill="#F5F5F5"/>
<path d="M219.289 46.708H81.6875V254.6H219.289V46.708Z" fill="white"/>
<path d="M219.287 254.6C219.287 254.6 219.287 254.252 219.287 253.575C219.287 252.899 219.287 251.911 219.287 250.631C219.287 248.015 219.287 244.192 219.287 239.236C219.287 229.267 219.287 214.744 219.159 196.417C219.159 159.836 219.031 107.835 218.939 46.7075L219.397 47.1647H81.814L82.3261 46.6709C82.3261 125.101 82.3261 197.405 82.2164 254.563L81.814 254.161L181.974 254.38L209.648 254.472H216.964C218.592 254.472 219.47 254.472 219.47 254.472C219.47 254.472 218.665 254.472 217.037 254.472H209.849L182.267 254.563L81.8689 254.783H81.4847V254.38C81.4847 197.222 81.4847 124.919 81.375 46.488V45.9941H81.8871H219.47H219.927V46.4514C219.836 107.707 219.763 159.726 219.708 196.435C219.708 214.726 219.598 229.212 219.58 239.162C219.58 244.083 219.58 247.869 219.58 250.466C219.58 251.728 219.58 252.697 219.58 253.356C219.58 254.014 219.287 254.6 219.287 254.6Z" fill="#E0E0E0"/>
<path d="M242.555 17.9727C241.591 19.6359 240.496 21.22 239.281 22.71C237.159 25.545 234.142 29.4226 230.703 33.6844C227.264 37.9461 224.027 41.5677 221.649 44.2015C220.431 45.6832 219.084 47.0542 217.625 48.2987C218.657 46.6835 219.826 45.1598 221.119 43.7443C223.569 40.7629 226.606 37.0865 229.935 33.0442L238.732 22.3441C239.878 20.7793 241.157 19.3166 242.555 17.9727Z" fill="#E0E0E0"/>
<path d="M219.984 253.923C226.826 264.801 234.876 274.87 243.982 283.938L219.984 253.923Z" fill="white"/>
<path d="M243.981 283.938C242.46 282.821 241.062 281.546 239.811 280.133C236.581 276.899 233.528 273.492 230.666 269.927C227.816 266.374 225.154 262.675 222.691 258.843C221.588 257.306 220.65 255.657 219.893 253.923C221.128 255.352 222.259 256.868 223.276 258.459C225.288 261.294 228.123 265.153 231.434 269.305C234.745 273.457 237.909 277.061 240.232 279.658C241.581 280.994 242.834 282.424 243.981 283.938Z" fill="#E0E0E0"/>
<path d="M58.916 283.133L82.8951 253.539L58.916 283.133Z" fill="white"/>
<path d="M82.893 253.539C79.3034 258.781 75.4323 263.824 71.2967 268.647C67.4254 273.689 63.2921 278.525 58.9139 283.133C58.7127 282.969 63.9072 276.201 70.5285 268.025C74.4034 262.991 78.5302 258.157 82.893 253.539Z" fill="#E0E0E0"/>
<path d="M58.916 17.9727C63.04 22.3944 66.9233 27.0348 70.5489 31.8736C74.433 36.5189 78.0599 41.3732 81.4136 46.4147C77.3206 41.9894 73.4737 37.3427 69.8904 32.4955C65.9696 27.8588 62.306 23.0105 58.916 17.9727Z" fill="#E0E0E0"/>
<path d="M176.416 88.9229H130.342V219.738H176.416V88.9229Z" fill="#E0E0E0"/>
<path d="M806.77 0.194336H633.941V180.358H806.77V0.194336Z" fill="#E0E0E0"/>
<path d="M795.063 0.194336H622.234V180.358H795.063V0.194336Z" fill="#FAFAFA"/>
<path d="M795.117 180.413H622.27V0.139648H795.117V180.413ZM622.27 180.303H794.989V0.249395H622.27V180.303Z" fill="#E0E0E0"/>
<path d="M771.831 24.4111H645.461V156.141H771.831V24.4111Z" fill="white"/>
<path d="M645.463 157.02C644.57 158.354 643.527 159.582 642.354 160.678C640.323 162.799 637.488 165.689 634.324 168.817C631.16 171.945 628.215 174.743 626.057 176.719C624.961 177.872 623.734 178.891 622.398 179.755C623.296 178.424 624.339 177.197 625.508 176.097C627.52 173.975 630.373 171.085 633.556 167.939C636.738 164.793 639.683 161.995 641.823 160.019C642.911 158.876 644.133 157.869 645.463 157.02Z" fill="#E0E0E0"/>
<path d="M771.832 156.689C773.171 157.576 774.399 158.62 775.49 159.799C777.63 161.829 780.502 164.664 783.63 167.847C786.757 171.029 789.556 173.938 791.549 176.096C792.703 177.191 793.722 178.419 794.586 179.754C793.251 178.861 792.024 177.818 790.928 176.645C788.806 174.633 785.916 171.779 782.77 168.597C779.624 165.414 776.844 162.469 774.85 160.329C773.707 159.236 772.695 158.015 771.832 156.689Z" fill="#E0E0E0"/>
<path d="M771.484 24.7585C772.383 23.4227 773.432 22.1952 774.612 21.1004C776.624 18.9604 779.459 16.0887 782.642 12.961C785.824 9.83331 788.733 7.03483 790.891 5.05944C791.983 3.89826 793.212 2.87271 794.549 2.00488C793.664 3.34496 792.619 4.57323 791.44 5.66302C789.428 7.78475 786.574 10.6747 783.392 13.8207C780.209 16.9667 777.283 19.7469 775.124 21.7406C774.036 22.8884 772.814 23.9016 771.484 24.7585Z" fill="#E0E0E0"/>
<path d="M645.117 25.088C643.781 24.1899 642.554 23.1404 641.459 21.9603C639.337 19.9483 636.447 17.1133 633.319 13.9307C630.192 10.7481 627.393 7.82159 625.418 5.68158C624.257 4.58908 623.231 3.36088 622.363 2.02344C623.703 2.90891 624.932 3.95294 626.021 5.13286C628.143 7.14484 631.033 9.9799 634.179 13.1808C637.325 16.3816 640.105 19.2899 642.099 21.4482C643.254 22.5302 644.267 23.753 645.117 25.088Z" fill="#E0E0E0"/>
<path d="M771.484 156.141C771.484 156.141 771.484 155.904 771.484 155.501C771.484 155.099 771.484 154.44 771.484 153.672C771.484 152.026 771.484 149.648 771.484 146.557C771.484 140.32 771.484 131.248 771.356 119.725C771.356 96.6418 771.209 63.7733 771.1 24.43L771.593 24.9056H645.589L646.156 24.3569C646.156 72.6992 646.156 117.932 646.064 156.05L645.589 155.556L736.841 155.812L762.448 155.94H769.234H771.063C771.264 155.925 771.466 155.925 771.667 155.94H771.118H769.417H762.722L737.207 156.068L645.644 156.306H645.168V155.831C645.168 117.676 645.168 72.4431 645.168 24.1374V23.8447H645.735H771.74H772.234V24.3386C772.124 63.8099 772.032 96.7881 771.977 119.944C771.977 131.412 771.977 140.466 771.849 146.667C771.849 149.715 771.849 152.057 771.849 153.69C771.849 154.459 771.849 155.044 771.849 155.52C771.748 155.738 771.626 155.947 771.484 156.141Z" fill="#E0E0E0"/>
<path d="M729.725 69.1875H687.564V111.348H729.725V69.1875Z" fill="#EBEBEB"/>
<path d="M531.49 748.303V803.376H612.024H700.862V748.303H531.49Z" fill="#F5F5F5"/>
<path d="M524.379 732.902V748.303H706.774V732.902H612.028H524.379Z" fill="#E0E0E0"/>
<path d="M615.576 803.376H700.865V748.303H706.773V732.902H612.027V746.876L615.576 803.376Z" fill="#E0E0E0"/>
<path d="M589.53 757.174H555.18V765.46H589.53V757.174Z" fill="#E0E0E0"/>
<path d="M594.853 775.83H550.754V793.334H594.853V775.83Z" fill="white"/>
<path d="M557.537 677.902V732.976H638.089H726.909V677.902H557.537Z" fill="#F5F5F5"/>
<path d="M551.246 662.501V677.902H733.659V662.501H638.895H551.246Z" fill="#EBEBEB"/>
<path d="M641.64 732.975H727.735V677.902H732.838V662.501H638.092V676.475L641.64 732.975Z" fill="#EBEBEB"/>
<path d="M615.577 686.773H581.227V695.059H615.577V686.773Z" fill="#E0E0E0"/>
<path d="M620.917 705.43H576.818V722.934H620.917V705.43Z" fill="white"/>
<path d="M856.773 805.187C856.773 805.443 664.959 805.663 428.405 805.663C191.851 805.663 0 805.443 0 805.187C0 804.931 191.778 804.675 428.387 804.675C664.995 804.675 856.773 804.913 856.773 805.187Z" fill="#263238"/>
<path d="M424.258 346.291V348.12H416.941V346.675L421.148 341.7H417.051V339.871H424.166V341.316L419.959 346.291H424.258Z" fill="#263238"/>
<path d="M410.85 338.262V342.578H393.639V339.195L403.479 327.562H393.895V323.245H410.558V326.629L400.681 338.262H410.85Z" fill="#263238"/>
<path d="M386.194 328.367V337.055H351.441V330.251L371.287 306.784H351.954V298.022H385.535V304.827L365.708 328.294L386.194 328.367Z" fill="#263238"/>
<path d="M377.172 223.286H350.632V257.435H301.43V223.286H207.068V190.363L287.109 78.9541H339.383L266.714 183.211H302.93V152.922H350.596V183.266H377.172V223.286Z" fill="#B68C5A"/>
<path d="M387.322 168.158C387.322 109.28 420.465 75.3691 466.1 75.3691C511.736 75.3691 544.622 109.335 544.622 168.158C544.622 226.981 511.48 260.947 466.1 260.947C420.721 260.947 387.322 227.109 387.322 168.158ZM493.884 168.158C493.884 130.68 482.16 116.67 466.1 116.67C450.041 116.67 438.061 130.68 438.061 168.158C438.061 205.636 449.785 219.665 466.1 219.665C482.416 219.665 493.884 205.69 493.884 168.158Z" fill="#B68C5A"/>
<path d="M730.184 223.286H703.662V257.435H654.46V223.286H560.08V190.363L640.139 78.9541H692.395L619.744 183.211H655.942V152.922H703.607V183.266H730.184V223.286Z" fill="#B68C5A"/>
<g opacity="0.3">
<path d="M377.172 223.286H350.632V257.435H301.43V223.286H207.068V190.363L287.109 78.9541H339.383L266.714 183.211H302.93V152.922H350.596V183.266H377.172V223.286Z" fill="#011C1A"/>
<path d="M387.326 168.158C387.326 109.28 420.469 75.3691 466.104 75.3691C511.74 75.3691 544.626 109.335 544.626 168.158C544.626 226.981 511.483 260.947 466.104 260.947C420.725 260.947 387.326 227.109 387.326 168.158ZM493.888 168.158C493.888 130.68 482.163 116.67 466.104 116.67C450.045 116.67 438.065 130.68 438.065 168.158C438.065 205.636 449.789 219.665 466.104 219.665C482.42 219.665 493.888 205.69 493.888 168.158Z" fill="#011C1A"/>
<path d="M730.184 223.286H703.662V257.435H654.46V223.286H560.08V190.363L640.139 78.9541H692.395L619.744 183.211H655.942V152.922H703.607V183.266H730.184V223.286Z" fill="#011C1A"/>
</g>
<path d="M362.375 223.286H335.853V257.435H286.651V223.286H192.326V190.363L272.385 78.9541H324.641L251.99 183.211H288.188V152.922H335.853V183.266H362.375V223.286Z" fill="#B68C5A"/>
<path d="M372.543 168.158C372.543 109.28 405.686 75.3691 451.321 75.3691C496.956 75.3691 529.843 109.335 529.843 168.158C529.843 226.981 496.7 260.947 451.321 260.947C405.942 260.947 372.543 227.109 372.543 168.158ZM479.105 168.158C479.105 130.68 467.38 116.67 451.321 116.67C435.262 116.67 423.281 130.68 423.281 168.158C423.281 205.636 435.006 219.665 451.321 219.665C467.636 219.665 479.105 205.69 479.105 168.158Z" fill="#B68C5A"/>
<path d="M715.423 223.286H688.901V257.435H639.699V223.286H545.447V190.363L625.506 78.9541H677.689L605.038 183.211H641.236V152.922H688.901V183.266H715.423V223.286Z" fill="#B68C5A"/>
<path d="M224.448 637.041H201.877V745.45H224.448V637.041Z" fill="#E0E0E0"/>
<path d="M132.43 623.085C132.796 623.085 201.934 644.759 201.934 644.759H224.487L303.667 623.085H132.43Z" fill="#E0E0E0"/>
<path d="M69.3429 259.484C59.3379 261.733 50.3937 270.97 51.8936 289.407C51.8936 289.407 43.9188 290.907 44.4127 305.375C44.9065 319.843 43.425 409.632 61.3681 458.468C76.1287 498.616 101.608 584.491 110.278 613.811C111.134 616.712 112.907 619.257 115.33 621.067C117.753 622.877 120.697 623.854 123.721 623.853H318.92C322.358 623.841 325.759 623.136 328.919 621.782C332.079 620.427 334.934 618.45 337.313 615.968C339.693 613.486 341.548 610.55 342.768 607.336C343.989 604.121 344.55 600.694 344.417 597.258C344.119 590.64 341.268 584.395 336.462 579.835C331.656 575.274 325.27 572.754 318.645 572.804L176.307 574.285C176.307 574.285 167.582 527.278 158.602 526.729C158.602 526.729 162.589 497.3 147.627 488.831C147.627 488.831 150.609 452.506 134.659 449.232C134.659 449.232 137.147 418.832 123.685 413.437C123.685 413.437 131.166 386.092 117.21 372.136C117.21 372.136 121.197 340.219 117.21 316.276C113.222 292.334 111.759 250.027 69.3429 259.484Z" fill="#455A64"/>
<path d="M328.923 600.221C328.923 600.221 328.593 600.221 327.935 600.221H325.045L313.833 600.312L272.038 600.441L129.023 600.605H128.694L128.584 600.294L108.465 541.947C96.7769 507.761 85.711 475.167 75.9621 445.427C73.5294 437.982 71.1882 430.794 68.9933 423.624C67.8563 420.144 66.9159 416.602 66.1765 413.016C65.7996 411.264 65.5187 409.493 65.3352 407.711C65.134 405.882 64.823 404.2 64.7133 402.462C63.4512 388.579 63.1586 375.593 62.8842 363.759C62.5733 340.091 62.8842 320.922 63.2134 307.698C63.3963 301.095 63.5427 295.973 63.6341 292.462L63.7987 288.492C63.7987 287.596 63.8902 287.157 63.8902 287.157C63.8902 287.157 63.8902 287.614 63.8902 288.492C63.8902 289.37 63.8902 290.742 63.8902 292.462C63.8902 295.973 63.7439 301.113 63.6341 307.698C63.4512 320.94 63.2134 340.091 63.6341 363.759C63.8902 375.575 64.2194 388.543 65.4632 402.389C65.5912 404.218 65.8839 405.846 66.0851 407.602C66.2735 409.366 66.5605 411.119 66.9447 412.851C67.7219 416.441 68.7051 419.983 69.8895 423.46C72.0844 430.538 74.4439 437.781 76.8949 445.226C86.6804 474.948 97.7829 507.524 109.452 541.709C116.403 561.829 123.134 581.546 129.572 600.075L129.133 599.764L272.148 599.928L313.942 600.056H325.155H328.045C328.593 600.184 328.923 600.221 328.923 600.221Z" fill="#263238"/>
<path d="M155.072 574.505C154.518 575.096 153.905 575.629 153.243 576.096C152.018 577.066 150.28 578.529 148.195 580.358C142.752 585.154 137.689 590.364 133.05 595.942C128.416 601.52 124.197 607.432 120.43 613.629C118.985 616.006 117.851 617.964 117.101 619.335C116.744 620.066 116.315 620.758 115.82 621.402C116.06 620.628 116.378 619.88 116.771 619.171C117.43 617.744 118.472 615.732 119.844 613.299C123.467 606.952 127.642 600.936 132.319 595.32C136.978 589.699 142.146 584.519 147.756 579.846C149.914 578.017 151.725 576.681 153.005 575.804C153.646 575.298 154.339 574.863 155.072 574.505Z" fill="#263238"/>
<path d="M176.308 574.212C176.308 574.212 175.832 574.212 174.899 574.212L170.802 574.322L155.072 574.578H154.871V574.377L154.542 572.438C154.344 571.813 154.106 571.202 153.828 570.609C153.183 569.326 152.06 568.348 150.701 567.884C147.515 567.196 144.188 567.725 141.373 569.365L140.714 569.676L140.952 568.999C143.159 562.547 143.477 555.598 141.866 548.971C140.053 541.151 135.69 534.157 129.465 529.089L129.227 528.906L129.337 528.632C131.301 523.05 131.568 517.012 130.103 511.279C128.638 505.547 125.507 500.377 121.106 496.422L120.869 496.239L120.978 495.946C123.356 488.238 123.219 479.974 120.589 472.349C117.958 464.723 112.97 458.133 106.346 453.53L106.126 453.384V453.128C106.273 448.08 106.114 443.029 105.651 438.001C105.215 432.859 104.265 427.773 102.816 422.82C101.316 418.028 99.0478 413.236 95.0421 410.455L94.7495 410.254L94.8592 409.925C96.9809 402.576 97.8163 394.915 97.3285 387.281C97.0399 383.657 96.2647 380.089 95.0238 376.672C93.7486 373.385 91.8896 370.355 89.5366 367.728L89.3171 367.472L89.4818 367.198C93.4932 360.829 95.6937 353.488 95.8469 345.962C95.8766 339.167 93.6651 332.552 89.5549 327.141V327.031V326.903C89.7796 317.871 87.9601 308.905 84.2323 300.675C82.6345 297.342 80.339 294.391 77.5013 292.023C75.0807 290.074 72.2467 288.704 69.2157 288.017C66.7775 287.493 64.2767 287.321 61.7896 287.505L58.8082 287.834L56.3573 288.328C54.894 288.603 53.8149 289.005 53.0832 289.17C52.3516 289.334 51.9492 289.444 51.9492 289.444C53.3766 288.93 54.8296 288.491 56.3024 288.127L58.7534 287.578L61.7713 287.194C64.2852 286.973 66.8178 287.121 69.2888 287.633C72.4031 288.287 75.3218 289.658 77.8123 291.639C80.7299 294.03 83.0949 297.026 84.7445 300.418C88.5605 308.722 90.4369 317.785 90.2317 326.922V326.702C94.4666 332.229 96.7559 339 96.7432 345.962C96.6107 353.65 94.3848 361.156 90.3048 367.673V367.143C92.7292 369.829 94.6555 372.926 95.9932 376.288C97.2838 379.821 98.0838 383.513 98.371 387.263C98.8948 395.018 98.0592 402.805 95.9018 410.272L95.4994 409.596C99.8343 412.614 102.121 417.589 103.657 422.399C105.148 427.407 106.116 432.556 106.547 437.763C107.014 442.834 107.167 447.928 107.004 453.018L106.803 452.597C113.606 457.308 118.731 464.065 121.431 471.887C124.132 479.709 124.268 488.188 121.82 496.092L121.692 495.599C126.224 499.688 129.435 505.036 130.914 510.959C132.393 516.882 132.073 523.111 129.996 528.851L129.868 528.394C136.223 533.572 140.654 540.735 142.452 548.733C144.07 555.49 143.708 562.57 141.409 569.127L141.007 568.761C142.565 567.993 144.22 567.439 145.927 567.115C147.539 566.758 149.216 566.828 150.792 567.317C151.556 567.593 152.255 568.022 152.847 568.579C153.438 569.136 153.909 569.808 154.231 570.554C154.523 571.206 154.767 571.879 154.963 572.566L155.292 574.578L155.072 574.377H170.802H174.899L176.308 574.212Z" fill="#263238"/>
<g opacity="0.3">
<path d="M150.188 488.245L84.9082 496.659C85.8906 498.394 87.2597 499.879 88.9093 500.999C90.5588 502.118 92.4444 502.843 94.4194 503.115C98.3669 503.612 102.366 503.532 106.29 502.878C123.192 501.043 140.204 500.432 157.193 501.049C155.29 496.558 152.943 492.269 150.188 488.245Z" fill="#011C1A"/>
</g>
<path d="M117.921 368.607C113.422 369.195 108.887 369.458 104.35 369.393C99.8207 369.635 95.2806 369.574 90.7598 369.21C95.2588 368.621 99.7945 368.359 104.331 368.424C108.86 368.181 113.401 368.242 117.921 368.607Z" fill="#263238"/>
<path d="M117.316 788.214C117.316 788.214 127.76 756.351 142.155 748.633C165.275 736.25 218.592 730.342 218.592 730.342L224.427 745.413C224.427 745.413 153.331 748.212 142.119 762.552C135.725 770.77 129.767 779.318 124.267 788.159L117.316 788.214Z" fill="#E0E0E0"/>
<path d="M126.428 805.132C134.762 805.132 141.518 798.376 141.518 790.042C141.518 781.708 134.762 774.952 126.428 774.952C118.094 774.952 111.338 781.708 111.338 790.042C111.338 798.376 118.094 805.132 126.428 805.132Z" fill="#263238"/>
<path d="M310.013 787.646C310.013 787.646 299.569 755.784 285.174 748.065C262.054 735.682 208.755 729.774 208.755 729.774L202.902 744.846C202.902 744.846 273.998 747.644 285.211 762.003C291.606 770.219 297.565 778.767 303.062 787.61L310.013 787.646Z" fill="#E0E0E0"/>
<path d="M304.691 805.132C313.025 805.132 319.781 798.376 319.781 790.042C319.781 781.708 313.025 774.952 304.691 774.952C296.358 774.952 289.602 781.708 289.602 790.042C289.602 798.376 296.358 805.132 304.691 805.132Z" fill="#263238"/>
<path d="M205.371 738.463L208.682 779.471L218.01 781.318V738.463" fill="#E0E0E0"/>
<path d="M213.143 805.132C221.476 805.132 228.232 798.376 228.232 790.042C228.232 781.708 221.476 774.952 213.143 774.952C204.809 774.952 198.053 781.708 198.053 790.042C198.053 798.376 204.809 805.132 213.143 805.132Z" fill="#263238"/>
<path d="M100.984 417.35C104.609 416.122 108.329 415.192 112.105 414.57C115.822 413.649 119.609 413.037 123.427 412.741C119.803 413.973 116.083 414.902 112.306 415.521C108.589 416.44 104.802 417.052 100.984 417.35Z" fill="#263238"/>
<path d="M133.322 449.268C132.13 449.831 130.87 450.237 129.573 450.475C127.213 451.079 123.939 451.774 120.281 452.304C116.623 452.835 113.294 453.219 110.88 453.365C109.575 453.54 108.252 453.54 106.947 453.365C106.947 453.091 112.873 452.524 120.135 451.372C127.396 450.219 133.249 449.012 133.322 449.268Z" fill="#263238"/>
<path d="M160.284 528.321C158.865 528.716 157.404 528.937 155.931 528.979C153.224 529.254 149.475 529.492 145.323 529.62C141.171 529.748 137.421 529.62 134.696 529.62C133.227 529.657 131.759 529.515 130.324 529.199C131.775 528.968 133.246 528.882 134.714 528.943L145.304 528.705L155.876 528.339C157.341 528.186 158.818 528.18 160.284 528.321Z" fill="#263238"/>
<path d="M167.873 556.964C167.873 557.257 161.801 558.573 154.722 561.591C147.644 564.609 142.413 568.048 142.248 567.81C143.214 566.82 144.324 565.982 145.54 565.323C148.348 563.547 151.296 562.006 154.357 560.713C157.409 559.413 160.566 558.373 163.795 557.604C165.12 557.212 166.492 556.997 167.873 556.964Z" fill="#263238"/>
<path d="M289.908 624.2C289.908 624.456 253.93 624.603 209.557 624.493C165.184 624.383 129.188 624.127 129.188 623.853C129.188 623.579 165.165 623.451 209.557 623.542C253.948 623.633 289.908 623.926 289.908 624.2Z" fill="#263238"/>
<path d="M223.314 645.546C219.757 646.027 216.163 646.186 212.577 646.022C208.985 646.186 205.386 646.027 201.822 645.546C205.387 645.076 208.985 644.917 212.577 645.07C216.163 644.917 219.756 645.076 223.314 645.546Z" fill="#263238"/>
<path d="M224.339 732.938C221.038 734.798 217.332 735.822 213.544 735.92C209.757 736.019 206.003 735.19 202.609 733.505C206.198 734.419 209.881 734.91 213.584 734.969C217.235 734.708 220.844 734.027 224.339 732.938Z" fill="#263238"/>
<path d="M446.532 394.104C446.532 394.104 437.936 380.916 432.96 376.416C429.119 372.959 410.481 366.1 402.104 363.119C399.419 362.17 396.593 361.675 393.745 361.656C382.771 361.546 353.762 361.656 338.983 364.29C320.564 367.655 442.764 463.755 442.764 463.755L544.552 463.992L551.21 438.861L483.26 424.832L445.764 395.091" fill="#E0E0E0"/>
<g opacity="0.3">
<path d="M367.115 367.765C367.115 367.765 373.846 368.094 383.229 369.594C392.612 371.094 402.91 371.569 408.068 376.142C411.525 379.196 432.669 379.8 432.669 379.8L403.404 378.721L367.115 367.765Z" fill="#011C1A"/>
</g>
<path d="M357.459 365.35C358.076 365.342 358.691 365.416 359.288 365.57C360.477 365.789 362.215 366.137 364.318 366.667C368.543 367.71 374.323 369.319 380.67 371.222L387.675 373.398H387.565C392.337 373.61 397.078 374.278 401.722 375.392C402.109 376.108 402.404 376.87 402.6 377.66C402.112 377.012 401.695 376.313 401.357 375.575L401.466 375.685C396.813 374.902 392.115 374.407 387.401 374.203H387.291L380.268 372.081L364.025 367.271L359.087 365.862C358.525 365.76 357.978 365.588 357.459 365.35Z" fill="#263238"/>
<path d="M623.368 463.041C623.514 462.272 621.356 453.511 621.136 452.633C620.917 451.755 614.222 441.659 614.222 441.659L610.564 440.543C610.564 440.543 593.554 436.501 590.115 436.739L587.719 436.995C587.719 436.995 583.256 437.324 581.5 437.635C579.744 437.946 568.861 441.769 568.861 441.769C566.194 442.333 563.462 442.536 560.74 442.372C556.987 441.764 553.269 440.958 549.601 439.958L545.248 463.919L553.479 463.663C556.048 464.574 558.701 465.229 561.399 465.62C564.362 465.821 572.757 466.735 572.757 466.735C572.757 466.735 585.725 472.223 588.981 464.577C592.237 456.932 579.726 456.145 579.726 456.145L583.604 453.401L593.536 452.377L596.115 453.2L598.95 457.59C598.95 457.59 598.181 467.284 604.437 466.626L606.083 466.443L606.961 456.493L603.998 446.433L610.546 456.365C610.546 456.365 611.113 464.961 613.948 466.077C614.166 466.175 614.404 466.219 614.643 466.205C618.082 466.095 618.758 465.126 618.758 465.126L619.472 463.388C619.472 463.388 622.874 465.656 623.368 463.041Z" fill="#FFBF9D"/>
<path d="M586.182 437.031C587.218 436.88 588.272 436.924 589.292 437.16C591.803 437.499 594.262 438.157 596.608 439.117C599 440.037 601.12 441.547 602.772 443.506C603.501 444.292 603.973 445.281 604.125 446.341C603.961 446.341 603.503 445.299 602.296 443.945C600.588 442.214 598.531 440.867 596.26 439.995C590.883 437.855 586.127 437.379 586.182 437.031Z" fill="#FF9A6C"/>
<path d="M592.585 447.494C592.841 447.494 593.024 448.537 593.152 449.781C593.28 451.024 593.317 452.085 593.06 452.158C592.804 452.232 592.347 451.207 592.201 449.89C592.054 448.574 592.311 447.476 592.585 447.494Z" fill="#FF9A6C"/>
<path d="M586.186 447.823C586.387 447.64 588.198 449.652 591.087 451.042C593.977 452.432 596.575 452.871 596.575 453.091C594.513 453.386 592.413 452.959 590.63 451.884C588.718 451.094 587.145 449.656 586.186 447.823Z" fill="#FF9A6C"/>
<path d="M565.441 448.72C566.36 448.799 567.242 449.114 568.002 449.634C569.95 450.705 571.622 452.214 572.886 454.042C573.278 454.629 573.632 455.24 573.947 455.871L573.453 455.615C575.834 455.138 578.301 455.347 580.568 456.219C578.241 456.184 575.914 456.288 573.599 456.53H573.27L573.105 456.237C572.804 455.651 572.468 455.083 572.099 454.536C570.269 452.193 568.009 450.219 565.441 448.72Z" fill="#FF9A6C"/>
<path d="M610.932 440.452C611.903 441.228 612.738 442.162 613.401 443.214C615.15 445.648 616.565 448.306 617.608 451.116C618.659 453.926 619.318 456.868 619.565 459.859C619.775 461.069 619.775 462.306 619.565 463.517C619.002 459.406 618.072 455.353 616.785 451.408C615.162 447.59 613.204 443.923 610.932 440.452Z" fill="#FF9A6C"/>
<path d="M448.911 727.452L447.082 776.946C447.082 776.946 496.705 795.53 497.254 804.675L401.154 804.474L400.953 727.214L448.911 727.452Z" fill="#455A64"/>
<path d="M417.415 772.721C416.491 772.998 415.704 773.608 415.204 774.432C414.704 775.256 414.527 776.237 414.708 777.184C414.947 778.121 415.539 778.931 416.36 779.442C417.182 779.953 418.169 780.127 419.116 779.927C420.096 779.629 420.931 778.978 421.459 778.099C421.986 777.22 422.168 776.177 421.969 775.172C421.61 774.226 420.901 773.455 419.988 773.019C419.075 772.583 418.029 772.515 417.067 772.831" fill="#E0E0E0"/>
<path d="M401.156 804.456L401.449 796.664L493.469 799.774C493.469 799.774 497.731 801.603 497.256 804.657L401.156 804.456Z" fill="#263238"/>
<path d="M448.604 776.453C448.604 776.928 446.226 777.13 443.921 778.629C441.617 780.129 440.373 782.105 439.934 781.922C439.495 781.739 440.208 779.032 443.043 777.258C445.878 775.483 448.695 776.032 448.604 776.453Z" fill="white"/>
<path d="M458.663 780.641C458.773 781.098 456.742 781.885 455.133 783.878C453.523 785.872 453.084 787.957 452.609 787.939C452.133 787.921 451.84 785.25 453.889 782.836C455.938 780.421 458.663 780.202 458.663 780.641Z" fill="white"/>
<path d="M464.368 792.713C463.929 792.822 463.289 790.481 464.496 787.902C465.703 785.323 467.898 784.244 468.154 784.72C468.41 785.195 466.984 786.549 466.033 788.597C465.081 790.646 464.825 792.676 464.368 792.713Z" fill="white"/>
<path d="M447.779 765.13C447.578 765.551 445.419 764.911 442.767 765.13C440.115 765.35 438.048 766.136 437.81 765.734C437.573 765.331 439.548 763.667 442.676 763.502C445.803 763.338 447.998 764.765 447.779 765.13Z" fill="white"/>
<path d="M371.887 722.366L340.793 760.777C340.793 760.777 369.363 805.406 364.37 813.088L287.549 755.289L333.66 693.339L371.887 722.366Z" fill="#455A64"/>
<path d="M319.488 739.597C318.578 739.271 317.581 739.291 316.684 739.652C315.787 740.012 315.054 740.689 314.623 741.554C314.256 742.44 314.24 743.433 314.58 744.331C314.92 745.228 315.59 745.962 316.452 746.383C317.415 746.73 318.472 746.709 319.421 746.324C320.37 745.939 321.143 745.217 321.592 744.297C321.875 743.325 321.771 742.28 321.3 741.383C320.829 740.486 320.029 739.806 319.068 739.487" fill="#E0E0E0"/>
<path d="M287.549 755.29L292.432 749.235L364.223 806.888C364.223 806.888 366.528 810.948 364.333 813.07L287.549 755.29Z" fill="#263238"/>
<path d="M342.259 761.344C341.966 761.71 339.954 760.466 337.211 760.283C334.467 760.1 332.291 760.941 332.053 760.521C331.815 760.1 334.01 758.381 337.339 758.692C340.668 759.003 342.606 761.051 342.259 761.344Z" fill="white"/>
<path d="M347.802 770.727C347.619 771.166 345.515 770.581 343.046 771.203C340.577 771.825 338.949 773.233 338.583 772.94C338.217 772.648 339.589 770.343 342.662 769.611C345.735 768.88 348.076 770.361 347.802 770.727Z" fill="white"/>
<path d="M345.131 783.805C344.728 783.64 345.606 781.372 348.13 780.037C350.654 778.702 352.996 779.214 352.922 779.653C352.849 780.092 350.929 780.348 348.898 781.482C346.868 782.616 345.533 784.061 345.131 783.805Z" fill="white"/>
<path d="M348.387 751.778C347.985 751.998 346.649 750.187 344.418 748.742C342.186 747.297 340.028 746.712 340.083 746.254C340.138 745.797 342.717 745.633 345.332 747.388C347.948 749.144 348.789 751.632 348.387 751.778Z" fill="white"/>
<path d="M443.953 380.825C453.266 378.343 462.776 376.672 472.377 375.831C482.027 375.007 491.73 376.591 500.618 380.441C501.935 381.044 510.751 386.129 510.476 387.556C510.294 388.58 501.971 385.233 501.038 385.727C492.039 390.025 481.614 390.555 471.773 388.946C462.23 387.294 452.9 384.589 443.953 380.88" fill="#263238"/>
<path d="M394.221 377.166L480.663 382.854C504.806 384.043 524.231 399.06 522.384 423.094L522.091 425.307C520.632 436.064 515.179 445.878 506.815 452.798C498.451 459.718 487.789 463.238 476.95 462.657C456.025 461.504 432.924 459.986 421.858 458.34C398.903 455.011 398.464 431.544 398.464 431.544C398.464 431.544 396.416 431.288 389.648 430.666L367.699 414.845L394.221 377.166Z" fill="#FFBF9D"/>
<path d="M398.466 431.545C399.923 420.934 404.399 410.966 411.361 402.828C411.361 402.828 393.07 407.693 392.064 430.886L398.466 431.545Z" fill="#FF9A6C"/>
<path d="M460.674 441.861C461.15 442.226 459.613 444.952 460.071 448.482C460.528 452.012 462.631 454.371 462.247 454.81C461.863 455.249 461.26 454.719 460.29 453.695C459.038 452.296 458.246 450.547 458.022 448.683C457.779 446.841 458.131 444.969 459.028 443.342C459.723 442.153 460.455 441.696 460.674 441.861Z" fill="#263238"/>
<path d="M463.232 410.291C463.652 410.712 461.768 413.199 461.714 416.766C461.659 420.333 463.415 422.967 462.957 423.332C462.774 423.534 462.006 423.095 461.128 421.942C460.089 420.385 459.553 418.546 459.592 416.674C459.636 414.81 460.277 413.008 461.421 411.535C462.262 410.456 463.14 410.09 463.232 410.291Z" fill="#263238"/>
<path d="M442.49 430.722C442.812 432.661 442.898 434.633 442.746 436.593C442.746 437.508 442.746 438.422 443.367 438.623C444.291 438.831 445.255 438.747 446.129 438.385L453.354 436.648C463.634 434.27 472.029 432.679 472.12 433.1C472.212 433.52 463.963 435.77 453.683 438.148L446.367 439.776C445.186 440.209 443.89 440.209 442.709 439.776C442.408 439.602 442.151 439.362 441.957 439.073C441.764 438.785 441.639 438.456 441.593 438.111C441.529 437.595 441.529 437.073 441.593 436.556C441.641 434.581 441.942 432.62 442.49 430.722Z" fill="#263238"/>
<path d="M482.218 424.375C481.395 423.771 482.803 420.479 483.462 416.309C484.12 412.138 483.937 408.59 484.925 408.297C485.382 408.169 486.114 408.992 486.644 410.547C487.255 412.612 487.386 414.79 487.027 416.913C486.669 419.037 485.831 421.051 484.577 422.802C483.571 424.119 482.62 424.649 482.218 424.375Z" fill="#263238"/>
<path d="M477.773 458.029C477.06 457.188 478.249 454.371 478.706 450.951C479.164 447.53 478.926 444.494 479.859 443.927C480.298 443.671 481.047 444.238 481.688 445.61C482.421 447.488 482.636 449.528 482.31 451.518C482.067 453.522 481.276 455.421 480.023 457.005C479.054 458.102 478.176 458.395 477.773 458.029Z" fill="#263238"/>
<path d="M463.399 382.434C463.618 382.068 470.203 367.271 454.436 365.643C438.67 364.015 440.279 380.275 440.718 380.275C441.157 380.275 463.399 382.434 463.399 382.434Z" fill="#FFBF9D"/>
<path d="M447.191 376.068C447.191 376.068 447.026 375.776 446.862 375.282C446.659 374.601 446.724 373.867 447.045 373.233C447.831 371.624 450.611 370.49 453.465 370.709C454.822 370.807 456.141 371.207 457.324 371.88C457.787 372.09 458.194 372.407 458.512 372.804C458.83 373.201 459.049 373.668 459.153 374.166C459.202 374.493 459.136 374.827 458.965 375.111C458.795 375.394 458.532 375.61 458.22 375.721C457.763 375.885 457.452 375.721 457.416 375.83C457.379 375.94 457.653 376.196 458.312 376.141C458.715 376.087 459.088 375.901 459.373 375.611C459.743 375.208 459.94 374.676 459.921 374.129C459.863 373.471 459.635 372.838 459.26 372.294C458.885 371.749 458.376 371.31 457.781 371.02C456.489 370.198 455.011 369.714 453.483 369.612C450.282 369.374 447.136 370.691 446.258 372.904C446.089 373.314 446.015 373.758 446.04 374.201C446.065 374.644 446.19 375.076 446.405 375.465C446.825 375.995 447.173 376.123 447.191 376.068Z" fill="#FF9A6C"/>
<path d="M504.059 454.974C505.23 457.663 514.229 450.768 517.686 444.768C522.88 435.623 526.831 421.429 525.24 412.449C523.246 401.62 518.838 392.329 509.748 386.183C500.451 380.16 489.719 376.719 478.654 376.215C475.309 375.768 471.905 376.223 468.795 377.532C465.137 379.361 462.503 383.439 457.692 382.799C456.826 382.656 455.939 382.687 455.085 382.891C454.23 383.095 453.425 383.468 452.717 383.988C449.37 386.585 451.931 390.39 454.674 392.292C460.527 396.334 467.88 397.432 474.941 398.401C479.92 399.363 485.023 399.505 490.049 398.822C492.756 398.291 495.353 397.286 498.078 396.993C499.432 396.714 500.83 396.734 502.176 397.05C503.521 397.366 504.782 397.97 505.87 398.822C506.3 399.257 506.691 399.728 507.041 400.23C508.753 402.613 509.801 405.409 510.078 408.331C510.354 411.252 509.849 414.195 508.614 416.857C504.626 425.453 498.499 440.196 501.133 444.457C504.937 450.566 507.644 452.194 507.644 452.194L504.059 454.974Z" fill="#263238"/>
<path d="M463.674 374.733C463.378 372.865 462.563 371.118 461.32 369.691C460.078 368.265 458.46 367.217 456.65 366.667C456.65 366.539 457.364 366.466 458.479 366.758C459.898 367.152 461.17 367.953 462.138 369.063C463.109 370.159 463.744 371.511 463.967 372.959C463.967 374.056 463.802 374.733 463.674 374.733Z" fill="white"/>
<path d="M434.756 422.527C434.402 421.697 433.755 421.028 432.938 420.646C432.121 420.265 431.192 420.198 430.329 420.46L430.787 420.259C429.982 420.149 429.164 420.321 428.471 420.744C427.778 421.167 427.252 421.816 426.982 422.582C426.748 423.359 426.748 424.188 426.982 424.966C427.217 425.743 427.674 426.434 428.299 426.953C428.996 427.517 429.851 427.85 430.746 427.906C431.641 427.962 432.531 427.737 433.292 427.264C434.033 426.753 434.58 426.008 434.845 425.149C435.111 424.29 435.079 423.366 434.756 422.527Z" fill="#FF9A6C"/>
<path d="M433.876 426.606C434.404 425.983 434.696 425.192 434.699 424.375C434.77 423.522 434.599 422.666 434.205 421.906C433.488 421.165 432.511 420.732 431.48 420.699C430.45 420.54 429.397 420.761 428.517 421.32C428.162 421.543 427.857 421.837 427.621 422.183C427.384 422.529 427.223 422.92 427.145 423.332C427.075 424.139 427.247 424.947 427.639 425.655C427.639 425.655 427.346 425.655 427.035 425.216C426.627 424.649 426.426 423.957 426.468 423.259C426.517 422.732 426.68 422.222 426.945 421.764C427.211 421.307 427.572 420.912 428.005 420.607C429.066 419.855 430.378 419.547 431.663 419.747C432.306 419.774 432.936 419.937 433.51 420.228C434.084 420.518 434.59 420.928 434.992 421.43C435.474 422.351 435.628 423.409 435.431 424.43C435.371 425.111 435.088 425.754 434.626 426.259C434.132 426.625 433.876 426.661 433.876 426.606Z" fill="#263238"/>
<g opacity="0.1">
<path d="M523.389 408.223C520.879 400.114 515.983 392.949 509.34 387.663C502.697 382.378 494.615 379.217 486.149 378.592L479.784 378.3C478.677 378.151 477.551 378.257 476.491 378.611C475.964 378.8 475.516 379.16 475.217 379.635C474.919 380.109 474.788 380.669 474.845 381.226C475.12 382.47 476.491 383.055 477.717 383.385C485.033 385.342 492.715 384.976 499.794 387.463C506.566 389.846 512.191 394.694 515.547 401.04C518.904 407.387 519.744 414.765 517.902 421.704C517.537 422.736 517.376 423.829 517.426 424.923C517.458 425.472 517.674 425.994 518.039 426.405C518.404 426.817 518.897 427.093 519.438 427.191C519.945 427.15 520.434 426.988 520.864 426.717C521.294 426.446 521.652 426.075 521.907 425.636C525.547 420.789 525.181 414.003 523.389 408.223Z" fill="white"/>
</g>
<path d="M459.372 423.698C459.372 423.808 458.549 423.826 457.397 423.295C455.877 422.577 454.669 421.333 453.997 419.793C453.324 418.253 453.233 416.521 453.739 414.918C454.141 413.711 454.708 413.089 454.8 413.199C454.891 413.309 454.598 413.949 454.397 415.028C454.111 416.487 454.277 417.998 454.872 419.361C455.466 420.724 456.462 421.873 457.726 422.655C458.695 423.332 459.482 423.551 459.372 423.698Z" fill="#FF9A6C"/>
<path d="M454.819 453.749C454.035 452.238 453.771 450.51 454.068 448.833C454.366 447.156 455.208 445.625 456.465 444.476C456.703 444.658 455.441 446.433 455.002 449.012C454.563 451.591 455.093 453.676 454.819 453.749Z" fill="#FF9A6C"/>
<path d="M287.549 514.419C288.646 514.017 366.199 517.803 391.367 520.016C416.535 522.229 460.158 534.1 462.317 563.731C464.146 587.509 463.725 753.223 463.725 753.223H396.049L394.44 578.089L289.323 551.568L287.549 514.419Z" fill="#263238"/>
<g opacity="0.3">
<path d="M343.139 525.577C343.139 525.577 380.818 532.381 410.906 540.923C440.994 549.465 454.273 567.737 458.663 578.62C463.053 589.503 465.138 605.764 455.901 621.018C450.066 630.676 420.819 664.66 420.819 664.66C420.819 664.66 414.783 567.134 414.491 565.652C414.198 564.171 343.139 525.577 343.139 525.577Z" fill="#011C1A"/>
</g>
<path d="M455.349 589.704C452.167 570.901 430.876 557.75 404.776 547.964C379.059 538.289 311.767 514.383 311.767 514.383L295.653 510.414H288.447L286.069 503.28C286.069 503.28 240.342 490.056 174.294 514.419L172.045 516.248C172.045 516.248 170.051 564.426 179.361 574.779C179.361 574.779 284.569 573.297 290.093 573.754C295.617 574.212 372.767 609.22 372.767 609.22L306.719 710.532L361.335 748.687C361.335 748.687 394.258 701.753 414.378 673.695C443.113 633.419 459.117 611.909 455.349 589.704Z" fill="#263238"/>
<path d="M455.349 589.704C455.349 589.704 455.514 590.838 455.788 593.051C456.068 596.328 455.945 599.627 455.423 602.874C454.503 608.132 452.885 613.243 450.612 618.073C447.561 624.631 444.047 630.964 440.095 637.022C431.352 650.795 419.5 666.745 406.349 685.548L361.646 748.907L361.427 749.217L361.116 748.998L306.481 710.88L306.152 710.642L306.372 710.295C326.583 679.292 348.879 645.034 372.383 608.964L372.566 609.641C357.933 603.008 342.923 596.301 327.534 589.521C319.852 586.174 312.115 582.809 304.268 579.535C300.336 577.943 296.403 576.261 292.379 574.87C291.895 574.693 291.4 574.546 290.898 574.431C290.41 574.264 289.895 574.19 289.38 574.212C288.337 574.212 287.258 574.212 286.197 574.212H279.74C245.262 574.395 211.644 574.87 179.379 575.291H179.16L179.013 575.145C177.401 573.079 176.208 570.718 175.502 568.194C174.726 565.757 174.115 563.27 173.673 560.75C172.796 555.793 172.185 550.792 171.843 545.77C171.203 535.802 171.148 525.998 171.459 516.34V516.139L171.624 516.011L173.874 514.182C192.533 507.288 211.97 502.718 231.746 500.574C241.002 499.581 250.319 499.276 259.621 499.659C268.56 499.823 277.459 500.902 286.179 502.878H286.38V503.079C287.203 505.585 287.971 507.926 288.739 510.231L288.374 509.975H295.69L311.822 513.962L377.23 537.649L404.117 547.398C411.649 550.175 418.982 553.463 426.066 557.238C438.87 564.042 447.393 572.035 451.179 578.748C452.032 580.197 452.789 581.7 453.447 583.248C453.892 584.385 454.277 585.545 454.6 586.723C455.038 588.643 455.221 589.613 455.221 589.613C455.221 589.613 454.965 588.643 454.508 586.741C454.289 585.79 453.776 584.674 453.301 583.321C453.063 582.626 452.642 581.949 452.295 581.199C451.922 580.387 451.488 579.604 450.996 578.858C447.173 572.218 438.65 564.335 425.865 557.586C418.778 553.854 411.444 550.609 403.916 547.873L377.175 538.289L311.731 514.731L295.617 510.762H288.3V510.505L285.721 503.39L285.996 503.646C277.426 501.644 268.674 500.517 259.877 500.281C250.617 499.91 241.342 500.228 232.13 501.232C212.427 503.386 193.064 507.957 174.477 514.84H174.605L172.356 516.669L172.52 516.34C172.209 525.943 172.282 535.765 172.923 545.605C173.234 550.595 173.807 555.565 174.642 560.494C175.104 562.967 175.715 565.41 176.471 567.81C177.146 570.21 178.276 572.458 179.8 574.431L179.452 574.267C211.736 573.846 245.299 573.352 279.832 573.169H286.288C287.368 573.169 288.447 573.169 289.526 573.169C290.085 573.165 290.641 573.252 291.172 573.426C291.72 573.543 292.258 573.702 292.782 573.901C296.86 575.309 300.775 576.974 304.725 578.584C312.572 581.858 320.327 585.223 327.991 588.588C343.331 595.319 358.348 602.026 373.041 608.708L373.535 608.928L373.242 609.385L307.176 710.679L307.067 710.094L361.646 748.285H361.116L405.946 684.999C419.134 666.233 431.041 650.246 439.821 636.62C443.759 630.642 447.274 624.396 450.338 617.927C452.622 613.134 454.264 608.06 455.221 602.837C455.759 599.605 455.919 596.321 455.697 593.051C455.441 590.857 455.349 589.704 455.349 589.704Z" fill="#455A64"/>
<path d="M405.546 596.875C403.82 597.279 402.074 597.591 400.315 597.807C391.936 599.335 383.942 602.505 376.793 607.136C374.049 608.965 372.44 610.135 372.33 610.026C373.527 608.699 374.899 607.542 376.409 606.587C379.924 604.087 383.732 602.03 387.749 600.46C391.762 598.884 395.951 597.797 400.223 597.222C401.977 596.893 403.764 596.776 405.546 596.875Z" fill="#455A64"/>
<path d="M393.676 430.392V436.191L379.537 437.507L378.732 434.544L382.537 425.71L393.676 430.392Z" fill="#B68C5A"/>
<path d="M382.624 434.965L364.37 471.51L368.412 537.1L359.249 551.404L349.609 534.906L351.274 472.498L379.698 432.276L382.624 434.965Z" fill="#B68C5A"/>
<path d="M388.147 373.984C388.147 373.984 362.393 364.216 337.5 362.589C312.606 360.961 281.823 377.66 267.117 384.19C252.411 390.72 196.186 446.378 184.022 464.889C177.054 475.534 167.762 499.641 167.762 499.641C166.189 508.055 172.06 516.249 172.06 516.249L285.261 517.09H306.497L315.478 497.903C315.478 497.903 332.616 496.678 337.518 487.295C342.42 477.912 360.381 464.029 360.381 464.029L380.83 430.191L394.292 433.044L401.755 375.557L388.147 373.984Z" fill="#E0E0E0"/>
<path d="M304.234 399.719C304.14 400.395 303.968 401.057 303.722 401.694C303.301 403.157 302.771 404.913 302.131 406.998C300.445 412.83 299.066 418.746 297.997 424.722C296.958 430.709 296.243 436.748 295.857 442.812C295.747 444.97 295.638 446.817 295.564 448.299C295.57 448.981 295.502 449.661 295.363 450.329C295.214 449.663 295.153 448.981 295.18 448.299C295.18 447 295.18 445.098 295.18 442.812C295.35 436.679 295.961 430.566 297.009 424.521C298.071 418.505 299.55 412.571 301.436 406.761C302.167 404.529 302.826 402.755 303.265 401.548C303.516 400.903 303.841 400.289 304.234 399.719Z" fill="#263238"/>
<path d="M353.857 625.261C353.857 625.261 361.612 634.297 364.008 637.571C366.166 640.497 368.306 651.216 369.129 661.678C369.187 662.3 369.09 662.927 368.846 663.502C368.602 664.077 368.218 664.582 367.73 664.972C367.242 665.362 366.665 665.624 366.05 665.736C365.436 665.847 364.803 665.804 364.209 665.611C363.691 665.412 363.234 665.082 362.885 664.652C362.535 664.222 362.304 663.707 362.216 663.16C360.551 655.587 360.112 652.368 360.112 652.368C359.893 648.71 359.508 649.222 359.399 651.691C359.289 654.161 361.228 667.824 361.228 667.824C361.228 667.824 366.459 686.462 365.051 688.547C364.75 688.962 364.36 689.304 363.909 689.547C363.458 689.79 362.958 689.928 362.447 689.951C361.935 689.974 361.425 689.881 360.954 689.679C360.483 689.477 360.064 689.171 359.728 688.785C359.015 687.815 353.125 672.323 353.125 672.323L351.57 663.836C351.57 663.836 354.607 690.651 352.906 692.754C352.653 693.137 352.314 693.456 351.915 693.683C351.516 693.91 351.07 694.04 350.611 694.061C350.153 694.083 349.696 693.995 349.277 693.806C348.859 693.617 348.492 693.332 348.205 692.973C347.016 691.913 345.809 680.06 345.809 680.06L343.047 664.239L343.541 694.4C343.541 694.4 343.23 697.253 340.98 697.363C338.73 697.473 337.322 694.162 337.322 694.162L334.084 663.068C334.084 663.068 335.127 680.353 333.956 681.267C332.402 682.475 330.993 682.072 330.481 680.737C329.439 678.048 327.92 662.446 327.92 662.446L326.494 632.852L325.451 623.066L351.351 613.793L353.857 625.261Z" fill="#FFBF9D"/>
<g opacity="0.3">
<path d="M297.738 440.434C289.691 465.346 284.02 490.963 280.801 516.944C281.118 526.35 282.194 535.714 284.02 544.947C287.001 559.744 311.273 623.908 311.273 623.908L327.899 625.353L313.889 511.365L327.899 458.084L297.738 440.434Z" fill="#011C1A"/>
</g>
<path d="M372.274 391.835C383.669 395.347 385.809 418.448 383.358 425.033C375.512 446.158 350.435 466.004 350.801 464.851L334.504 529.674L357.605 617.469L320.255 630.84C320.255 630.84 286.18 540.703 285.503 526.583C284.826 512.462 294.978 475.661 296.477 453.658C297.447 439.519 304.617 410.839 322.084 393.957" fill="#E0E0E0"/>
<path d="M322.105 393.829C322.105 393.829 321.83 394.158 321.263 394.78C320.696 395.402 319.818 396.298 318.739 397.542C315.663 401.211 312.921 405.147 310.545 409.303C306.829 415.937 303.825 422.944 301.582 430.209C300.138 434.741 298.984 439.359 298.126 444.037C297.687 446.525 297.284 449.085 297.046 451.737C296.809 454.39 296.644 457.225 296.26 459.95C294.943 471.144 292.492 483.271 290.023 496.33C288.816 502.842 287.535 509.609 286.621 516.615C286.099 520.15 285.933 523.728 286.127 527.296L286.511 529.967L287.133 532.637C287.517 534.466 288.029 536.295 288.541 538.124C290.535 545.331 292.913 552.647 295.4 560.073C297.888 567.499 300.522 575.127 303.247 582.864C308.734 598.319 314.551 614.305 320.696 630.657L320.093 630.383L337.451 624.164L357.442 617.012L357.15 617.579C348.937 586.357 341.164 556.763 334.085 529.784V529.564C340.139 505.64 345.645 483.838 350.455 464.76L351.132 464.943C351.147 464.894 351.15 464.842 351.141 464.791C351.131 464.741 351.109 464.693 351.076 464.653C351.043 464.613 351.001 464.582 350.954 464.563C350.906 464.543 350.854 464.536 350.803 464.541H350.913L351.169 464.395L351.681 464.047L352.705 463.279L354.68 461.688C355.961 460.59 357.205 459.493 358.339 458.377C360.753 456.164 363.021 453.896 365.143 451.628C369.158 447.379 372.828 442.816 376.117 437.983C379.03 433.802 381.396 429.265 383.159 424.484C384.065 420.305 384.176 415.993 383.488 411.772C382.464 404.108 379.94 398.402 377.196 395.311C375.804 393.77 374.077 392.569 372.148 391.799C372.148 391.799 372.66 391.982 373.63 392.384C374.236 392.637 374.802 392.976 375.312 393.39C376.067 393.907 376.75 394.522 377.343 395.219C380.178 398.219 382.83 403.962 383.872 411.681C384.167 413.717 384.326 415.77 384.348 417.827C384.413 420.105 384.167 422.382 383.616 424.594C381.872 429.435 379.505 434.028 376.574 438.257C373.288 443.133 369.619 447.738 365.6 452.03C363.46 454.316 361.192 456.603 358.778 458.834C357.57 459.968 356.327 461.084 355.119 462.181C354.479 462.712 353.821 463.261 353.144 463.791L352.101 464.578L351.553 464.943L351.26 465.126H351.077H350.913C350.848 465.134 350.783 465.126 350.722 465.103C350.661 465.08 350.607 465.043 350.564 464.994C350.521 464.946 350.49 464.887 350.474 464.824C350.459 464.761 350.458 464.696 350.474 464.632L351.169 464.815L334.945 529.656V529.436L358.082 617.232L358.192 617.653L357.79 617.799L337.798 624.951L320.422 631.169L319.983 631.334L319.818 630.895C313.673 614.525 307.856 598.52 302.387 583.065C299.68 575.328 297.028 567.719 294.559 560.256C292.09 552.794 289.73 545.441 287.718 538.198C287.206 536.369 286.712 534.54 286.328 532.71C286.109 531.796 285.907 530.881 285.706 530.003C285.505 529.125 285.432 528.174 285.304 527.223C285.111 523.605 285.289 519.977 285.834 516.395C286.767 509.335 288.047 502.586 289.291 496.056C291.797 482.996 294.284 470.906 295.638 459.731C296.022 456.95 296.168 454.243 296.443 451.555C296.717 448.866 297.12 446.287 297.577 443.799C298.456 439.107 299.635 434.476 301.107 429.935C303.385 422.648 306.452 415.632 310.252 409.01C312.655 404.842 315.454 400.916 318.611 397.286C320.843 394.963 322.105 393.829 322.105 393.829Z" fill="#263238"/>
<path d="M382.663 406.833C382.477 405.217 382.477 403.585 382.663 401.968C382.841 398.061 383.22 394.167 383.797 390.299C384.372 386.431 385.154 382.596 386.139 378.812C386.455 377.214 386.965 375.66 387.657 374.185C387.5 375.797 387.213 377.393 386.797 378.958C386.194 381.885 385.425 385.945 384.749 390.445C384.072 394.945 383.633 399.042 383.34 402.023C383.26 403.644 383.034 405.254 382.663 406.833Z" fill="#263238"/>
<g opacity="0.3">
<path d="M386.795 375.538C386.411 375.374 386.009 375.758 385.752 376.105C383.363 378.879 381.453 382.032 380.101 385.434C378.07 391.506 380.229 398.237 382.076 404.456C383.797 410.39 384.417 416.589 383.905 422.747L383.448 424.887C385.414 421.034 385.971 416.614 385.021 412.394C384.06 408.216 383.315 403.992 382.789 399.737C382.369 391.89 385.533 384.354 387.106 376.672C387.197 376.307 387.216 375.703 386.795 375.538Z" fill="#011C1A"/>
</g>
<path d="M259.182 547.397H247.531V630.767H259.182V547.397Z" fill="#E0E0E0"/>
<path d="M80.9586 492.928C81.9993 495.393 83.9046 497.393 86.3164 498.552C88.7281 499.71 91.4801 499.948 94.0548 499.22C121.361 491.7 150.152 491.404 177.607 498.36C216.145 507.927 230.211 528.686 235.442 541.746C236.725 544.873 238.914 547.544 241.726 549.418C244.539 551.292 247.847 552.283 251.227 552.263H252.8C254.425 552.252 256.028 551.879 257.492 551.173C258.956 550.466 260.245 549.443 261.265 548.178C262.285 546.912 263.012 545.436 263.392 543.856C263.772 542.275 263.797 540.63 263.463 539.039C259.476 520.931 235.387 489.471 192.331 477.838C140.513 463.828 104.535 473.156 87.7994 478.369C86.361 478.828 85.0328 479.579 83.8979 480.575C82.7631 481.571 81.8459 482.79 81.2038 484.157C80.5618 485.523 80.2086 487.007 80.1664 488.517C80.1242 490.026 80.3939 491.528 80.9586 492.928Z" fill="#455A64"/>
<path d="M80.9588 492.929C80.9588 492.929 80.7942 492.581 80.5381 491.868C80.097 490.464 79.9426 488.987 80.084 487.522C80.2254 486.058 80.6597 484.637 81.3612 483.344C82.575 481.134 84.5127 479.41 86.8484 478.461C101.772 473.524 117.323 470.741 133.032 470.193C143.865 469.807 154.711 470.376 165.444 471.894C168.334 472.352 171.278 472.772 174.241 473.284L183.259 475.114L192.404 477.382C195.44 478.369 198.605 479.211 201.677 480.326C204.75 481.442 207.896 482.613 210.933 484.094C212.451 484.826 214.024 485.448 215.524 486.271L220.06 488.703C226.176 492.18 231.962 496.209 237.344 500.739C242.912 505.447 247.959 510.739 252.398 516.524L254.08 518.737L255.635 521.078C256.129 521.846 256.678 522.614 257.153 523.419L258.543 525.87C260.438 529.162 261.965 532.652 263.098 536.278C263.335 537.21 263.61 538.107 263.848 539.058C264.034 540.021 264.102 541.004 264.049 541.984C263.874 544.926 262.563 547.685 260.393 549.678C258.222 551.671 255.362 552.742 252.416 552.666C248.644 552.875 244.899 551.91 241.698 549.904C238.551 547.909 236.133 544.952 234.802 541.472C233.482 538.22 231.852 535.103 229.937 532.162C229.04 530.662 227.961 529.309 226.955 527.919C225.949 526.529 224.834 525.212 223.645 523.986C219.118 519.068 213.936 514.796 208.244 511.293C202.821 507.971 197.094 505.172 191.142 502.934C185.499 500.868 179.725 499.181 173.857 497.885C163.348 495.465 152.628 494.074 141.849 493.733C126.225 493.204 110.609 494.972 95.4999 498.983C94.2441 499.398 92.9416 499.656 91.6223 499.751C90.1252 499.816 88.6306 499.574 87.2308 499.039C85.8309 498.504 84.5554 497.688 83.4829 496.642C82.411 495.618 81.5801 494.368 81.0502 492.984C81.691 494.316 82.5644 495.524 83.6292 496.55C84.9229 497.745 86.485 498.611 88.1836 499.074C89.2827 499.353 90.4164 499.47 91.5491 499.422C92.8432 499.306 94.1197 499.042 95.3536 498.635C110.507 494.479 126.199 492.629 141.903 493.148C152.747 493.414 163.537 494.762 174.113 497.172C180.016 498.464 185.827 500.144 191.508 502.202C197.526 504.447 203.314 507.264 208.793 510.616C214.559 514.143 219.809 518.452 224.395 523.419C225.602 524.645 226.626 526.053 227.76 527.388C228.894 528.724 229.863 530.187 230.778 531.705C232.739 534.686 234.399 537.853 235.735 541.161C237.003 544.459 239.299 547.262 242.283 549.154C245.334 551.057 248.899 551.97 252.489 551.77C255.195 551.846 257.824 550.864 259.818 549.034C261.812 547.204 263.015 544.668 263.171 541.966C263.219 541.066 263.158 540.163 262.988 539.277C262.768 538.381 262.494 537.448 262.256 536.589C261.144 533.029 259.648 529.6 257.793 526.364L256.458 523.913C255.983 523.127 255.452 522.358 254.94 521.59L253.349 519.34L251.684 517.146C247.285 511.418 242.287 506.176 236.777 501.507C231.44 497.012 225.704 493.014 219.639 489.563L215.158 487.131C213.676 486.307 212.103 485.704 210.603 484.972C207.585 483.491 204.476 482.393 201.458 481.223C198.44 480.052 195.276 479.247 192.313 478.278L183.167 475.991L174.187 474.162C171.223 473.632 168.297 473.211 165.425 472.736C154.737 471.195 143.936 470.583 133.142 470.907C117.495 471.394 101.993 474.066 87.0862 478.845C84.8075 479.731 82.9114 481.388 81.727 483.527C80.8397 485.078 80.3555 486.826 80.3186 488.612C80.2748 490.077 80.4916 491.539 80.9588 492.929Z" fill="#263238"/>
<path d="M100.069 488.52C100.069 490.267 99.5511 491.975 98.5804 493.428C97.6096 494.881 96.2299 496.013 94.6156 496.682C93.0013 497.351 91.225 497.526 89.5113 497.185C87.7976 496.844 86.2234 496.002 84.9879 494.767C83.7524 493.531 82.911 491.957 82.5701 490.243C82.2293 488.53 82.4042 486.753 83.0729 485.139C83.7415 483.525 84.8739 482.145 86.3267 481.174C87.7795 480.204 89.4875 479.686 91.2348 479.686C92.3956 479.683 93.5455 479.91 94.6184 480.353C95.6914 480.796 96.6662 481.447 97.4871 482.268C98.3079 483.089 98.9585 484.063 99.4017 485.136C99.8448 486.209 100.072 487.359 100.069 488.52Z" fill="white"/>
<path d="M624.1 429.441H665.766L662.51 452.36C662.51 452.36 659.803 463.627 653.365 463.627H635.312C633.093 462.266 631.171 460.471 629.662 458.349C628.154 456.228 627.089 453.824 626.532 451.281L624.1 429.441Z" fill="#455A64"/>
<path d="M624.1 429.442C624.16 429.682 624.203 429.926 624.228 430.173C624.228 430.685 624.392 431.362 624.52 432.203C624.758 434.032 625.106 436.611 625.545 439.831C625.984 443.05 626.496 447.037 627.081 451.518C627.649 453.968 628.704 456.279 630.185 458.312C631.665 460.345 633.539 462.059 635.696 463.353H635.531H649.963C651.243 463.353 652.542 463.353 653.804 463.353C655.052 463.282 656.236 462.777 657.151 461.926C659.063 460.091 660.5 457.818 661.339 455.305C661.709 454.341 662.026 453.358 662.291 452.36C663.406 444.257 664.467 436.557 665.437 429.442L665.766 429.826L635.861 429.661L627.246 429.57H624.923H624.1C624.349 429.539 624.6 429.539 624.85 429.57H627.099L635.641 429.478L665.766 429.313H666.132V429.679C665.162 436.794 664.12 444.513 663.041 452.598C662.781 453.629 662.457 454.643 662.071 455.634C661.179 458.259 659.667 460.631 657.663 462.548C656.631 463.498 655.297 464.055 653.895 464.121C652.578 464.121 651.298 464.121 650.018 464.121H635.586H635.495C633.268 462.773 631.338 460.987 629.822 458.871C628.307 456.755 627.237 454.353 626.679 451.811C626.075 447.22 625.673 443.214 625.288 439.922C624.904 436.63 624.648 434.124 624.465 432.295L624.246 430.301C624.163 430.021 624.114 429.733 624.1 429.442Z" fill="#263238"/>
<path d="M662.512 441.257L663.134 441.111C662.75 441.111 663.243 441.111 663.317 441.111C663.767 441.084 664.219 441.084 664.67 441.111C664.231 441.111 664.67 441.111 664.835 441.111L665.548 441.294L666.133 441.477C666.408 441.568 666.133 441.477 666.024 441.477L666.408 441.66C666.805 441.876 667.19 442.114 667.56 442.373C667.798 442.538 667.56 442.373 667.469 442.373L667.706 442.574C667.886 442.736 668.057 442.907 668.219 443.086C668.347 443.233 668.603 443.58 668.365 443.233C668.511 443.434 668.639 443.635 668.767 443.836C668.895 444.038 668.968 444.22 669.06 444.403C669.151 444.586 669.06 444.403 669.06 444.294C669.12 444.424 669.169 444.558 669.206 444.696C669.29 444.929 669.357 445.167 669.407 445.409C669.407 445.501 669.535 446.104 669.499 445.812C669.462 445.519 669.499 446.123 669.499 446.214C669.517 446.464 669.517 446.714 669.499 446.964C669.499 447.11 669.499 447.257 669.499 447.403C669.499 447.549 669.499 447.787 669.499 447.403C669.476 447.539 669.445 447.673 669.407 447.805C669.372 448.017 669.317 448.226 669.243 448.427C669.243 448.592 668.968 449.159 669.243 448.72C669.046 449.144 668.82 449.553 668.566 449.945L668.383 450.202C668.383 450.202 668.639 449.909 668.383 450.11C668.127 450.311 667.999 450.512 667.798 450.714C667.597 450.915 667.267 451.134 667.487 450.988C667.706 450.842 667.213 451.153 667.139 451.189L666.591 451.5L666.316 451.646C666.463 451.646 666.627 451.482 666.316 451.646C666.17 451.646 665.365 451.903 664.89 452.031C664.414 452.159 665.018 452.031 665.054 452.031H664.634H663.207H662.804L662 451.775C662.347 451.921 661.725 451.628 661.725 451.628C661.441 451.461 661.126 451.352 660.799 451.307C660.472 451.261 660.14 451.281 659.82 451.364C659.501 451.447 659.201 451.593 658.938 451.792C658.675 451.991 658.454 452.24 658.287 452.524C658.12 452.809 658.011 453.124 657.965 453.451C657.92 453.778 657.939 454.11 658.023 454.429C658.106 454.749 658.251 455.048 658.45 455.312C658.649 455.575 658.898 455.796 659.183 455.963C661.586 457.213 664.372 457.512 666.985 456.8C669.598 456.088 671.848 454.418 673.285 452.122C674.64 449.717 675.057 446.896 674.456 444.202C674.15 442.892 673.589 441.656 672.805 440.563C672.02 439.471 671.027 438.544 669.883 437.837C668.622 437.044 667.211 436.52 665.738 436.297C664.265 436.073 662.762 436.155 661.323 436.538C660.68 436.715 660.134 437.141 659.805 437.72C659.475 438.3 659.39 438.987 659.567 439.63C659.744 440.272 660.169 440.818 660.749 441.148C661.329 441.477 662.015 441.562 662.658 441.385L662.512 441.257Z" fill="#455A64"/>
<path d="M662.511 441.257C662.249 441.383 661.958 441.433 661.669 441.403C661.237 441.382 660.818 441.254 660.447 441.03C660.077 440.807 659.768 440.495 659.548 440.123C659.367 439.821 659.249 439.486 659.199 439.138C659.149 438.79 659.169 438.435 659.257 438.095C659.346 437.754 659.501 437.435 659.714 437.155C659.927 436.875 660.194 436.641 660.499 436.465C661.266 436.115 662.09 435.904 662.931 435.843C663.861 435.725 664.801 435.725 665.73 435.843C667.863 436.163 669.854 437.105 671.455 438.55C673.322 440.208 674.519 442.491 674.82 444.97C675.191 447.71 674.54 450.49 672.991 452.78C672.139 453.975 671.049 454.982 669.791 455.737C668.532 456.493 667.131 456.98 665.675 457.17C664.373 457.354 663.05 457.317 661.761 457.06C661.14 456.915 660.53 456.732 659.932 456.512L659.054 456.109C658.732 455.965 658.445 455.753 658.212 455.487C657.78 454.951 657.545 454.283 657.545 453.594C657.545 452.905 657.78 452.237 658.212 451.701C658.665 451.202 659.274 450.873 659.939 450.766C660.604 450.66 661.285 450.783 661.871 451.116L661.395 451.408C661.398 451.328 661.429 451.252 661.483 451.192C661.536 451.132 661.608 451.092 661.688 451.079C661.871 451.079 661.889 451.079 661.871 451.079H661.999C661.999 450.878 662.255 451.591 661.852 451.665H661.651H661.505V451.573C661.322 450.841 662.017 451.043 661.816 451.024H661.925L662.182 451.116C662.523 451.225 662.871 451.31 663.224 451.372C663.224 451.372 663.224 451.372 663.407 451.463C663.59 451.555 663.517 451.463 663.499 451.774C663.48 452.085 663.242 452.03 663.224 452.03H663.059H662.913H662.785C662.785 452.03 662.602 451.939 662.694 451.628C662.785 451.317 662.931 451.482 662.968 451.463H663.791C664.138 451.482 664.486 451.482 664.834 451.463V452.085H664.724H664.559C664.477 452.085 664.398 452.052 664.34 451.994C664.303 451.943 664.283 451.883 664.283 451.82C664.283 451.757 664.303 451.697 664.34 451.646C664.34 451.518 664.34 451.555 664.34 451.536L664.486 451.445H664.779L665.309 451.299L665.858 451.152H666.096C665.968 451.024 666.096 451.774 666.279 451.683H666.407H666.297L666.004 451.134L666.718 450.75L667.047 450.549C667.113 450.53 667.182 450.53 667.248 450.549C667.308 450.568 667.364 450.599 667.413 450.64C667.462 450.699 667.489 450.774 667.489 450.851C667.489 450.927 667.462 451.002 667.413 451.061H667.303C667.244 451.083 667.179 451.083 667.12 451.061C667.069 451.051 667.02 451.03 666.979 450.998C666.938 450.966 666.905 450.925 666.882 450.878C666.773 450.713 666.992 450.476 666.882 450.53C667.094 450.38 667.29 450.208 667.468 450.018L667.724 449.744C667.724 449.744 668.035 449.744 668.108 449.945C668.181 450.146 668.108 450.092 668.108 450.128L667.998 450.256L667.522 449.909C667.852 449.451 668.089 448.957 668.364 448.5L668.876 448.738V448.829C668.876 448.829 668.876 448.829 668.656 448.829C668.62 448.827 668.585 448.818 668.553 448.802C668.52 448.786 668.491 448.764 668.468 448.736C668.444 448.709 668.426 448.678 668.414 448.643C668.403 448.609 668.398 448.573 668.4 448.537V448.336C668.451 448.223 668.494 448.107 668.528 447.988C668.528 447.75 668.656 447.513 668.711 447.275V447.092C668.711 447.092 668.711 447.092 668.821 446.927C668.86 446.905 668.904 446.893 668.949 446.893C668.994 446.893 669.038 446.905 669.077 446.927H669.187C669.206 446.999 669.206 447.075 669.187 447.147V447.33C669.37 447.531 668.419 447.439 668.675 447.33V447.165C668.666 447.11 668.666 447.055 668.675 447C668.675 446.763 668.675 446.525 668.675 446.305C668.693 446.08 668.693 445.854 668.675 445.629V445.427C668.679 445.384 668.693 445.342 668.715 445.304C668.737 445.266 668.767 445.233 668.803 445.208C668.84 445.181 668.885 445.167 668.931 445.167C668.977 445.167 669.022 445.181 669.059 445.208C669.08 445.215 669.099 445.227 669.115 445.243C669.131 445.259 669.143 445.278 669.15 445.299C669.15 445.391 669.15 445.391 669.15 445.391V445.501C669.158 445.537 669.158 445.574 669.15 445.61C669.15 445.61 669.15 445.61 669.004 445.702C668.948 445.717 668.888 445.712 668.835 445.689C668.782 445.666 668.738 445.625 668.711 445.574L668.62 445.171C668.53 444.756 668.413 444.347 668.272 443.946L668.711 443.781V443.873C668.717 443.9 668.716 443.929 668.709 443.957C668.703 443.984 668.69 444.01 668.673 444.032C668.656 444.055 668.634 444.073 668.609 444.087C668.584 444.1 668.557 444.108 668.528 444.11C668.346 444.11 668.346 444.11 668.327 444.11C668.327 444.11 668.327 443.964 668.199 443.891L668.016 443.507L667.577 442.83L667.943 442.592V442.684C667.961 442.714 667.97 442.749 667.97 442.784C667.97 442.82 667.961 442.854 667.943 442.885C667.923 442.915 667.896 442.94 667.864 442.957C667.832 442.974 667.796 442.983 667.76 442.983C667.724 442.983 667.688 442.974 667.656 442.957C667.625 442.94 667.597 442.915 667.577 442.885L667.449 442.72C667.367 442.614 667.276 442.516 667.175 442.428L666.645 441.916L666.901 441.623H667.01C666.571 442.227 666.827 441.769 666.736 441.897L666.498 441.751L666.041 441.458C665.775 441.275 665.493 441.116 665.2 440.983L665.346 440.672H665.492H665.602C665.602 440.672 665.693 440.891 665.602 440.928H665.51H666.169L665.876 440.818L665.328 440.654L664.815 440.525H664.578C664.687 440.525 664.358 440.653 664.578 440.269H664.779V440.525H663.572H663.114C663.114 440.525 663.114 440.525 663.114 440.416H663.389C663.389 440.416 663.389 440.416 663.389 440.507H663.242C663.014 440.56 662.781 440.59 662.547 440.599C662.761 440.492 662.989 440.418 663.224 440.379H663.316H663.114H664.779V440.635H664.578C664.797 440.233 664.45 440.416 664.578 440.379H664.87L665.419 440.489L665.986 440.654L666.279 440.745C666.169 441.184 666.169 441.019 666.151 441.038H665.968L666.114 440.727C666.418 440.864 666.711 441.023 666.992 441.202L667.468 441.477L667.724 441.623L667.632 441.769L667.504 441.659L667.76 441.367C667.958 441.527 668.147 441.698 668.327 441.879C668.327 441.989 668.528 442.062 668.638 442.19L668.766 442.355C668.766 442.355 668.675 442.355 668.638 442.355V442.263L669.004 442.025C669.15 442.245 669.315 442.464 669.461 442.72L669.662 443.104C669.662 443.104 669.79 443.214 669.662 443.306L669.534 443.415C669.487 443.4 669.436 443.4 669.388 443.415H669.297V443.287L669.736 443.123C669.9 443.546 670.034 443.98 670.138 444.421V444.586V444.714C670.138 444.714 670.138 444.714 669.992 444.714C669.845 444.714 669.992 444.714 669.9 444.714C669.88 444.706 669.858 444.701 669.836 444.701C669.814 444.701 669.792 444.706 669.772 444.714H669.662H669.809H669.9C669.9 444.714 669.992 444.714 670.01 444.714H669.827V444.842C669.827 445.062 669.827 445.336 669.827 445.574C669.854 445.817 669.854 446.062 669.827 446.305C669.837 446.372 669.837 446.44 669.827 446.507C669.827 446.507 669.736 446.507 669.608 446.507H669.297V446.342C669.297 446.342 669.48 446.342 669.443 446.342C669.845 446.342 669.681 446.342 669.717 446.342V446.525C669.717 446.763 669.589 447.037 669.516 447.293C669.488 447.425 669.445 447.554 669.388 447.677V447.842C668.675 447.549 668.931 447.622 668.913 447.586V447.494L669.425 447.732C669.132 448.226 668.894 448.756 668.547 449.25L668.071 448.903L668.199 448.756H668.309C668.309 448.756 668.437 448.756 668.474 448.884V448.976C668.474 448.976 668.583 449.122 668.565 449.086L668.291 449.378C668.103 449.575 667.901 449.758 667.687 449.927C667.559 449.817 667.559 449.726 667.522 449.744C667.486 449.762 667.522 449.744 667.522 449.653L667.431 449.488C667.431 449.488 667.522 449.598 667.431 449.616C667.34 449.634 667.431 449.781 667.431 449.781C667.428 449.819 667.437 449.857 667.456 449.89C667.476 449.923 667.506 449.948 667.541 449.963H667.449L667.102 450.183L666.37 450.585L666.077 450.037H666.205H666.425C666.699 450.037 666.754 450.713 666.608 450.567H666.516L666.224 450.677L665.675 450.823L665.108 450.969H664.834C664.834 450.969 664.834 451.116 664.724 450.695C664.724 450.695 664.724 450.329 664.724 450.366H664.98V450.988C664.609 451.016 664.236 451.016 663.864 450.988C663.676 451.006 663.486 451.006 663.297 450.988H663.096V450.677C663.096 450.677 663.096 450.494 663.096 450.402H663.297C663.297 450.402 663.297 450.549 663.297 450.567C663.297 450.585 663.297 450.567 663.297 450.677C663.297 450.677 663.297 450.677 663.297 450.805C663.313 450.859 663.313 450.916 663.297 450.969C662.921 450.898 662.548 450.806 662.182 450.695L661.907 450.604H661.743V450.494C661.747 450.433 661.747 450.372 661.743 450.311C661.98 449.835 661.852 450.055 661.889 450H661.999C661.999 450 661.999 450.22 661.907 450.256L661.761 450.512H661.633C661.699 450.531 661.768 450.531 661.834 450.512C661.885 450.501 661.933 450.479 661.974 450.448C662.015 450.416 662.048 450.376 662.072 450.329V450.238C662.072 450.238 662.072 450.238 661.816 450.238L661.596 450.549C661.151 450.309 660.64 450.222 660.141 450.301C659.642 450.381 659.183 450.622 658.834 450.988C658.515 451.398 658.342 451.904 658.342 452.424C658.342 452.944 658.515 453.449 658.834 453.859C659.259 454.224 659.749 454.504 660.279 454.682C660.844 454.894 661.425 455.059 662.017 455.176C663.22 455.43 664.457 455.473 665.675 455.304C667.043 455.136 668.361 454.685 669.545 453.979C670.729 453.274 671.753 452.33 672.552 451.207C674.046 449.078 674.697 446.472 674.381 443.891C674.117 441.556 673.011 439.398 671.272 437.818C669.744 436.413 667.835 435.49 665.785 435.166C664.132 434.857 662.427 434.996 660.846 435.569C660.563 435.736 660.315 435.958 660.117 436.222C659.919 436.486 659.776 436.786 659.694 437.105C659.566 437.654 659.658 438.232 659.95 438.715C660.133 439.057 660.394 439.351 660.712 439.573C661.029 439.796 661.395 439.94 661.779 439.995C661.959 440.45 662.206 440.875 662.511 441.257Z" fill="#263238"/>
<path d="M652.212 421.338C652.695 420.884 653.13 420.381 653.511 419.838C653.98 419.082 654.292 418.239 654.431 417.359C654.569 416.479 654.53 415.581 654.316 414.717C654 413.534 653.314 412.483 652.359 411.717C651.353 410.839 650.072 410.144 648.883 409.102C648.273 408.556 647.765 407.906 647.383 407.181C646.971 406.401 646.854 405.498 647.054 404.639C647.284 403.766 647.753 402.974 648.408 402.352C649.011 401.712 649.688 401.164 650.237 400.523C650.857 399.975 651.344 399.293 651.663 398.53C651.901 397.774 651.901 396.963 651.663 396.207C651.172 394.722 650.346 393.371 649.249 392.256C648.214 391.194 647.377 389.955 646.78 388.598C646.329 387.377 646.191 386.063 646.377 384.775C646.643 382.915 647.541 381.204 648.92 379.928C649.295 379.597 649.706 379.308 650.145 379.068L650.621 378.867C650.08 379.246 649.561 379.655 649.066 380.093C647.802 381.376 646.998 383.042 646.78 384.83C646.62 386.067 646.771 387.324 647.219 388.488C647.824 389.772 648.647 390.942 649.651 391.945C650.819 393.109 651.696 394.531 652.212 396.097C652.486 396.96 652.486 397.886 652.212 398.749C651.872 399.602 651.34 400.366 650.657 400.981C649.414 402.224 647.932 403.249 647.566 404.785C647.468 405.53 647.568 406.288 647.857 406.982C648.147 407.676 648.614 408.281 649.213 408.736C650.31 409.724 651.59 410.437 652.633 411.37C653.149 411.81 653.593 412.329 653.95 412.906C654.275 413.439 654.516 414.019 654.663 414.626C654.883 415.536 654.907 416.483 654.733 417.404C654.56 418.325 654.193 419.198 653.657 419.966C653.295 420.535 652.798 421.006 652.212 421.338Z" fill="#263238"/>
<path d="M644.218 421.338C644.691 420.88 645.12 420.378 645.499 419.838C645.976 419.085 646.294 418.242 646.433 417.361C646.571 416.48 646.527 415.58 646.303 414.717C646.005 413.526 645.316 412.47 644.346 411.717C643.34 410.839 642.06 410.144 640.889 409.102C640.274 408.561 639.765 407.91 639.389 407.181C638.97 406.403 638.847 405.5 639.042 404.639C639.287 403.772 639.754 402.984 640.395 402.352C641.017 401.712 641.676 401.164 642.225 400.523C642.833 399.969 643.313 399.288 643.633 398.53C643.885 397.776 643.885 396.961 643.633 396.207C643.141 394.722 642.315 393.371 641.219 392.256C640.183 391.19 639.342 389.952 638.731 388.598C638.281 387.377 638.142 386.063 638.329 384.775C638.592 382.91 639.497 381.196 640.889 379.928C641.258 379.588 641.67 379.299 642.115 379.068C642.261 378.976 642.422 378.908 642.59 378.867C642.049 379.246 641.53 379.655 641.036 380.093C639.771 381.378 638.962 383.042 638.731 384.83C638.569 386.068 638.726 387.328 639.188 388.488C639.794 389.772 640.617 390.942 641.621 391.945C642.782 393.114 643.659 394.535 644.182 396.097C644.455 396.96 644.455 397.886 644.182 398.749C643.834 399.599 643.303 400.361 642.627 400.981C641.383 402.224 639.883 403.249 639.517 404.785C639.423 405.53 639.525 406.287 639.814 406.98C640.103 407.673 640.568 408.279 641.164 408.736C642.261 409.724 643.56 410.437 644.584 411.37C645.106 411.81 645.556 412.328 645.919 412.906C646.229 413.447 646.469 414.024 646.633 414.626C646.843 415.537 646.862 416.482 646.689 417.401C646.516 418.321 646.154 419.194 645.627 419.966C645.269 420.526 644.787 420.996 644.218 421.338Z" fill="#263238"/>
<path d="M702.943 311.385L698.904 314.768L750.076 375.86L754.115 372.478L702.943 311.385Z" fill="#263238"/>
<path d="M708.907 302.814L704.869 306.196L756.041 367.289L760.08 363.907L708.907 302.814Z" fill="#263238"/>
<path d="M756.884 374.84L752.43 372.028L701.282 453.061L705.736 455.873L756.884 374.84Z" fill="#263238"/>
<path d="M768.419 377.08L763.965 374.269L713.813 453.724L718.267 456.536L768.419 377.08Z" fill="#263238"/>
<path d="M757.144 364.674L749.115 375.539C748.133 376.862 747.67 378.5 747.815 380.142C747.96 381.784 748.702 383.315 749.901 384.446C750.911 385.394 752.187 386.009 753.558 386.209C754.928 386.408 756.327 386.183 757.565 385.562L768.375 380.075C769.319 379.611 770.141 378.932 770.776 378.094C771.411 377.256 771.842 376.28 772.033 375.246L772.143 374.588C772.357 373.386 772.24 372.149 771.806 371.008C771.371 369.867 770.634 368.867 769.674 368.113L764.186 363.741C763.671 363.319 763.075 363.007 762.435 362.825C761.794 362.642 761.123 362.593 760.463 362.681C759.803 362.768 759.168 362.99 758.597 363.333C758.026 363.676 757.532 364.132 757.144 364.674Z" fill="#263238"/>
<path d="M757.145 364.674C757.145 364.674 757.237 364.418 757.566 364.052C758.067 363.496 758.694 363.069 759.395 362.808C760.498 362.397 761.712 362.397 762.816 362.808C763.487 363.05 764.108 363.417 764.645 363.887L766.474 365.314L768.522 366.887C769.306 367.431 770.04 368.043 770.717 368.716C771.454 369.527 771.993 370.496 772.295 371.549C772.596 372.602 772.651 373.711 772.455 374.788C772.334 375.997 771.915 377.156 771.235 378.162C770.555 379.168 769.635 379.988 768.559 380.55L762.011 383.861L758.7 385.543C757.615 386.193 756.407 386.61 755.152 386.769C753.998 386.875 752.835 386.7 751.763 386.259C750.692 385.817 749.743 385.123 748.999 384.235C748.254 383.346 747.736 382.291 747.489 381.158C747.242 380.026 747.273 378.851 747.579 377.733C747.855 376.787 748.315 375.904 748.933 375.136L750.488 373.087L755.243 366.905C755.798 366.135 756.41 365.408 757.072 364.729C756.635 365.573 756.12 366.375 755.536 367.125L751.018 373.49C749.876 374.808 748.967 376.311 748.329 377.934C748.089 378.874 748.064 379.856 748.257 380.806C748.451 381.756 748.857 382.651 749.445 383.422C750.1 384.261 750.957 384.923 751.935 385.345C752.913 385.767 753.981 385.936 755.042 385.836C756.182 385.685 757.278 385.299 758.261 384.702L761.572 383.019L768.102 379.709C768.985 379.209 769.749 378.522 770.341 377.698C770.933 376.873 771.338 375.93 771.53 374.933C771.721 373.937 771.694 372.91 771.449 371.925C771.204 370.94 770.749 370.02 770.114 369.228C769.474 368.565 768.783 367.954 768.047 367.399C767.352 366.832 766.693 366.283 766.035 365.771L764.206 364.29C763.711 363.84 763.142 363.481 762.523 363.229C761.503 362.883 760.397 362.883 759.377 363.229C758.548 363.565 757.791 364.055 757.145 364.674Z" fill="#455A64"/>
<path d="M675.84 463.993C675.84 463.993 682.095 450.713 706.66 450.75H717.963C717.963 450.75 740.04 455.506 742.692 464.029L675.84 463.993Z" fill="#263238"/>
<path d="M691.08 299.412L696.165 319.532C696.219 319.749 696.332 319.947 696.492 320.103C696.652 320.26 696.852 320.369 697.07 320.418C697.288 320.467 697.516 320.455 697.727 320.382C697.939 320.31 698.126 320.18 698.268 320.008L713.432 304.479C713.571 304.315 713.664 304.118 713.701 303.907C713.739 303.695 713.719 303.478 713.645 303.277C713.57 303.075 713.443 302.898 713.277 302.762C713.111 302.626 712.912 302.537 712.7 302.503L692.434 298.022C692.246 297.993 692.054 298.009 691.874 298.069C691.693 298.129 691.53 298.231 691.398 298.367C691.265 298.503 691.167 298.669 691.112 298.851C691.057 299.033 691.046 299.225 691.08 299.412Z" fill="#263238"/>
<path d="M691.078 299.412C691.078 299.412 690.95 299.266 690.969 298.918C690.994 298.652 691.101 298.401 691.274 298.198C691.448 297.995 691.679 297.851 691.938 297.784C692.3 297.711 692.673 297.711 693.035 297.784L694.261 298.022L697.261 298.626L705.217 300.29L710.009 301.314L712.588 301.863C712.882 301.896 713.164 301.999 713.41 302.165C713.655 302.331 713.856 302.553 713.997 302.814C714.142 303.107 714.198 303.437 714.159 303.761C714.12 304.086 713.988 304.393 713.777 304.643L707.028 311.575L698.596 320.172C698.41 320.391 698.171 320.559 697.902 320.659C697.632 320.758 697.342 320.786 697.058 320.74C696.775 320.694 696.508 320.576 696.284 320.396C696.059 320.216 695.886 319.982 695.779 319.715C695.541 318.819 695.377 318.105 695.175 317.337C694.81 315.819 694.462 314.356 694.115 312.984C693.474 310.277 692.889 307.881 692.395 305.814C691.901 303.747 691.627 302.357 691.334 301.113C691.167 300.555 691.075 299.976 691.06 299.394C691.299 299.924 691.489 300.475 691.627 301.04C691.975 302.265 692.414 303.802 692.926 305.667C693.438 307.533 694.133 310.112 694.846 312.801L695.999 317.117L696.602 319.404C696.652 319.526 696.733 319.633 696.837 319.715C696.941 319.796 697.064 319.85 697.195 319.87C697.325 319.89 697.459 319.877 697.583 319.83C697.706 319.784 697.816 319.706 697.901 319.605L706.296 310.972L713.064 304.058C713.16 303.939 713.219 303.795 713.235 303.644C713.251 303.492 713.222 303.339 713.152 303.203C713.082 303.067 712.975 302.955 712.842 302.879C712.709 302.804 712.558 302.768 712.405 302.778L709.845 302.192L705.052 301.095L697.133 299.266L694.151 298.534L692.944 298.241C692.642 298.122 692.317 298.072 691.993 298.095C691.782 298.138 691.587 298.239 691.432 298.388C691.276 298.537 691.166 298.727 691.115 298.937C691.06 299.229 691.115 299.412 691.078 299.412Z" fill="#455A64"/>
<path d="M676.08 356.772C686.121 343.329 691.81 329.647 690.859 315.655L672.001 297.492C653.71 291.401 628.561 310.588 628.561 310.588C628.561 310.588 634.798 344.426 676.08 356.772Z" fill="#263238"/>
<path d="M701.074 284.183L701.661 284.734C704.322 287.229 705.883 290.679 706 294.325C706.117 297.971 704.781 301.515 702.286 304.176L685.258 322.334L664.604 302.966L681.645 284.794C682.88 283.477 684.362 282.417 686.008 281.673C687.653 280.93 689.428 280.518 691.233 280.461C693.037 280.404 694.835 280.704 696.524 281.342C698.213 281.981 699.759 282.946 701.074 284.183Z" fill="#263238"/>
<path d="M689.578 315.015C688.219 315.061 686.864 314.837 685.591 314.356C682.461 313.385 679.574 311.757 677.122 309.582C674.654 307.412 672.672 304.744 671.306 301.754C670.681 300.553 670.296 299.242 670.172 297.895C670.843 299.051 671.453 300.242 672.001 301.461C673.476 304.262 675.446 306.772 677.817 308.869C680.199 310.953 682.929 312.6 685.884 313.734C688.115 314.576 689.597 314.85 689.578 315.015Z" fill="#455A64"/>
<path d="M763.674 371.185C763.674 371.522 763.574 371.851 763.387 372.13C763.2 372.41 762.934 372.628 762.624 372.757C762.313 372.886 761.971 372.919 761.641 372.854C761.311 372.788 761.008 372.626 760.77 372.388C760.532 372.15 760.37 371.847 760.304 371.517C760.239 371.187 760.272 370.845 760.401 370.534C760.53 370.224 760.748 369.958 761.027 369.771C761.307 369.584 761.636 369.484 761.973 369.484C762.196 369.484 762.417 369.528 762.624 369.614C762.83 369.699 763.017 369.825 763.175 369.983C763.333 370.141 763.459 370.328 763.544 370.534C763.63 370.741 763.674 370.962 763.674 371.185Z" fill="#455A64"/>
<path d="M700.681 312.289C700.681 312.625 700.582 312.954 700.395 313.234C700.208 313.514 699.942 313.732 699.631 313.86C699.32 313.989 698.978 314.023 698.649 313.957C698.319 313.892 698.015 313.73 697.778 313.492C697.54 313.254 697.378 312.951 697.312 312.621C697.246 312.291 697.28 311.949 697.409 311.638C697.538 311.327 697.756 311.061 698.035 310.875C698.315 310.688 698.644 310.588 698.98 310.588C699.431 310.588 699.864 310.767 700.183 311.086C700.502 311.405 700.681 311.838 700.681 312.289Z" fill="#455A64"/>
<path d="M707.136 305.686C707.136 306.023 707.037 306.352 706.85 306.631C706.663 306.911 706.397 307.129 706.086 307.258C705.776 307.387 705.434 307.42 705.104 307.355C704.774 307.289 704.47 307.127 704.233 306.889C703.995 306.651 703.833 306.348 703.767 306.018C703.701 305.688 703.735 305.346 703.864 305.035C703.993 304.725 704.211 304.459 704.49 304.272C704.77 304.085 705.099 303.985 705.435 303.985C705.659 303.985 705.88 304.029 706.086 304.115C706.293 304.2 706.48 304.326 706.638 304.484C706.796 304.642 706.921 304.829 707.007 305.035C707.092 305.242 707.136 305.463 707.136 305.686Z" fill="#455A64"/>
<path d="M756.779 377.367C756.779 377.703 756.679 378.032 756.492 378.312C756.305 378.592 756.04 378.81 755.729 378.939C755.418 379.067 755.076 379.101 754.746 379.035C754.416 378.97 754.113 378.808 753.875 378.57C753.637 378.332 753.475 378.029 753.41 377.699C753.344 377.369 753.378 377.027 753.506 376.716C753.635 376.405 753.853 376.14 754.133 375.953C754.413 375.766 754.742 375.666 755.078 375.666C755.529 375.666 755.962 375.845 756.281 376.164C756.6 376.483 756.779 376.916 756.779 377.367Z" fill="#455A64"/>
<path d="M689.341 493.659L688.829 788.78H413.59V492.854H395.939V788.78V805.187H413.59H688.829H706.479V788.78L706.991 493.659H689.341Z" fill="#E0E0E0"/>
<path d="M689.342 493.733H706.992H707.084C707.084 533.076 706.956 645.729 706.846 805.261V805.626H706.407H395.867H395.465V805.169C395.465 718.691 395.465 624.585 395.465 526.931V492.361H414.066V492.837C414.066 597.24 414.066 696.906 414.066 788.762L413.628 788.323L688.866 788.415L688.519 788.762C689.049 606.66 689.378 496.404 689.378 493.642C689.378 496.404 689.378 606.66 689.232 788.762V789.11H688.866L413.628 789.201H413.189V788.762C413.189 696.906 413.189 597.24 413.189 492.837L413.664 493.312H396.014L396.489 492.837V526.931C396.489 624.585 396.489 718.691 396.489 805.169L396.032 804.712L706.572 804.803L706.206 805.169C706.608 645.637 706.883 532.985 706.992 493.642L707.084 493.733H689.342Z" fill="#263238"/>
<path d="M760.145 463.992H361.334V495.818H760.145V463.992Z" fill="#AE7461"/>
<path d="M461.312 463.407L460.288 463.645C459.629 463.773 458.641 463.919 457.379 464.212C454.855 464.724 451.234 465.602 446.826 466.901C442.418 468.199 437.205 469.955 431.461 472.004C425.718 474.052 419.426 476.357 412.677 478.424C406.342 480.387 399.849 481.794 393.27 482.631C387.929 483.312 382.526 483.355 377.175 482.759C373.54 482.349 369.964 481.533 366.511 480.326C365.573 480.007 364.651 479.64 363.749 479.229C363.127 478.973 362.816 478.808 362.816 478.808C362.816 478.808 363.164 478.899 363.804 479.137C364.444 479.375 365.359 479.777 366.584 480.125C370.045 481.238 373.613 481.986 377.229 482.356C382.586 482.898 387.986 482.824 393.325 482.137C399.865 481.265 406.32 479.846 412.622 477.893C419.353 475.827 425.645 473.54 431.407 471.528C437.168 469.516 442.381 467.779 446.807 466.535C450.311 465.514 453.864 464.672 457.453 464.011C458.715 463.755 459.721 463.645 460.379 463.535C461.038 463.425 461.312 463.407 461.312 463.407Z" fill="#6F4439"/>
<path d="M664.723 492.8C664.578 492.663 664.444 492.516 664.321 492.361C663.959 491.914 663.574 491.487 663.168 491.08C661.614 489.486 659.833 488.13 657.882 487.056C654.793 485.371 651.431 484.244 647.95 483.727C643.335 483.085 638.645 483.202 634.068 484.075C628.502 485.157 623.005 486.568 617.606 488.3C611.415 490.34 605.017 491.69 598.529 492.324C594.995 492.576 591.443 492.336 587.975 491.611C584.373 490.816 580.865 489.639 577.513 488.099C570.654 485.081 564.033 480.984 556.716 478.021C541.992 472.095 526.427 471.637 512.91 473.375C500.869 475.105 489.074 478.255 477.774 482.758C468.08 486.416 460.452 490.074 455.166 492.379L449.076 495.141C447.685 495.781 446.936 496.092 446.936 496.092C446.936 496.092 447.649 495.708 449.021 495.049L455.057 492.178C460.324 489.727 467.952 486.16 477.627 482.392C488.934 477.826 500.75 474.639 512.819 472.899C526.39 471.07 542.084 471.564 556.899 477.527C564.216 480.527 570.892 484.624 577.696 487.623C581.013 489.151 584.483 490.323 588.048 491.117C591.467 491.842 594.97 492.083 598.456 491.83C604.908 491.207 611.273 489.889 617.442 487.898C622.841 486.181 628.338 484.789 633.903 483.727C638.527 482.867 643.26 482.774 647.914 483.453C651.419 484.003 654.8 485.167 657.901 486.892C659.848 487.998 661.618 489.392 663.15 491.025C663.719 491.576 664.244 492.169 664.723 492.8Z" fill="#6F4439"/>
<path d="M757.823 473.833C753.608 475.48 749.272 476.801 744.854 477.784C742.806 478.259 740.556 478.753 738.124 479.101C735.691 479.448 733.057 479.814 730.295 480.125C718.275 481.203 706.16 480.314 694.427 477.491C691.738 476.796 689.178 476.174 686.855 475.369C684.532 474.565 682.337 473.833 680.38 473.083C676.149 471.467 672.052 469.522 668.125 467.267C668.423 467.368 668.71 467.497 668.985 467.651L671.417 468.803C672.46 469.333 673.759 469.955 675.295 470.632C676.831 471.309 678.551 472.077 680.526 472.754C682.501 473.431 684.623 474.272 686.983 474.967C689.342 475.662 691.885 476.357 694.555 477.034C706.222 479.764 718.248 480.629 730.185 479.595C732.929 479.302 735.545 479.082 737.977 478.643C740.41 478.204 742.641 477.839 744.69 477.4C746.738 476.961 748.568 476.467 750.177 476.046C751.787 475.625 753.159 475.241 754.256 474.876L756.835 474.071C757.156 473.959 757.486 473.88 757.823 473.833Z" fill="#6F4439"/>
<path d="M529.425 455.98H407.042C404.759 455.98 402.908 457.831 402.908 460.114V460.352C402.908 462.635 404.759 464.486 407.042 464.486H529.425C531.708 464.486 533.559 462.635 533.559 460.352V460.114C533.559 457.831 531.708 455.98 529.425 455.98Z" fill="#455A64"/>
<path d="M564.249 351.065L533.667 460.993C533.347 462.129 532.591 463.094 531.563 463.676C530.536 464.258 529.32 464.411 528.18 464.102C527.043 463.782 526.079 463.026 525.497 461.998C524.914 460.971 524.761 459.755 525.071 458.615L555.671 348.596C555.987 347.457 556.742 346.489 557.771 345.906C558.8 345.323 560.018 345.172 561.158 345.487C561.729 345.647 562.263 345.919 562.729 346.287C563.194 346.655 563.582 347.111 563.87 347.63C564.157 348.149 564.339 348.72 564.404 349.31C564.469 349.899 564.417 350.496 564.249 351.065Z" fill="#455A64"/>
<path d="M539.358 359.57C539.176 359.772 530.616 351.76 520.245 341.719C509.874 331.677 501.625 323.428 501.808 323.172C501.991 322.916 510.532 330.964 520.903 341.024C531.274 351.084 539.541 359.388 539.358 359.57Z" fill="#263238"/>
<path d="M535.186 372.722C534.139 372.419 533.118 372.033 532.132 371.569L523.992 368.149C517.097 365.259 507.531 361.327 496.977 357.175C486.423 353.023 476.693 349.438 469.687 346.877L461.31 343.749C460.279 343.428 459.276 343.025 458.311 342.542C459.377 342.735 460.423 343.023 461.438 343.402C463.432 344.024 466.304 344.956 469.834 346.164C476.912 348.56 486.625 352.053 497.27 356.223C507.915 360.394 517.39 364.436 524.194 367.472C527.614 369.009 530.358 370.271 532.242 371.13C533.259 371.592 534.243 372.123 535.186 372.722Z" fill="#263238"/>
<path d="M533.504 385.818C531.01 386.202 528.476 386.257 525.968 385.982C523.445 386.036 520.926 385.772 518.469 385.196C523.487 384.769 528.538 384.977 533.504 385.818Z" fill="#263238"/>
<path d="M756.194 753.168C756.194 753.168 748.604 700.875 749.226 670.457C749.848 640.04 749.226 605.8 749.226 605.8H752.737C752.737 605.8 750.36 666.159 752.939 702.613C755.518 739.066 762.322 753.168 762.322 753.168H756.231" fill="#263238"/>
<path d="M778.854 546.958C778.306 545.109 777.193 543.478 775.672 542.294C773.44 540.886 770.532 541.471 768.045 542.294C757.454 546.044 748.071 565.779 743.791 576.169L757.838 623.541C783.226 600.056 787.616 569.163 778.854 546.958Z" fill="#455A64"/>
<path d="M774.85 544.215C774.802 544.424 774.729 544.627 774.63 544.818C774.466 545.276 774.228 545.861 773.954 546.556C773.332 548.038 772.472 550.214 771.429 552.903C769.363 558.28 766.729 565.706 764.369 574.266C762.01 582.827 760.4 590.563 759.413 596.215C758.9 599.05 758.535 601.355 758.297 602.946C758.169 603.696 758.077 604.3 757.986 604.775C757.962 604.988 757.912 605.196 757.839 605.397C757.819 605.184 757.819 604.97 757.839 604.757C757.839 604.263 757.949 603.66 758.022 602.928C758.205 601.318 758.516 598.995 758.973 596.142C760.181 588.748 761.799 581.426 763.821 574.212C765.854 566.958 768.296 559.825 771.137 552.848C772.216 550.159 773.13 548.019 773.826 546.556C774.136 545.879 774.393 545.312 774.612 544.873C774.655 544.642 774.735 544.42 774.85 544.215Z" fill="#263238"/>
<path d="M751.601 634.955C745.199 631.315 739.842 626.088 736.045 619.777C732.249 613.466 730.142 606.284 729.927 598.922C729.414 588.423 732.652 578.107 736.31 568.23C736.532 567.343 737.055 566.56 737.792 566.017C738.397 565.788 739.052 565.718 739.692 565.814C740.333 565.91 740.938 566.169 741.45 566.566C751.016 572.053 756.832 582.424 759.905 592.996C762.13 600.01 762.871 607.41 762.082 614.725C760.874 622.415 757.218 629.509 751.656 634.955" fill="#455A64"/>
<path d="M751.603 634.955C751.579 634.742 751.579 634.528 751.603 634.315V632.486C751.603 630.895 751.603 628.608 751.402 625.791C751.031 618.432 750.213 611.102 748.951 603.843C747.506 595.356 745.731 587.765 744.415 582.278L742.86 575.766L742.457 573.937C742.396 573.735 742.359 573.526 742.348 573.315C742.444 573.501 742.518 573.697 742.567 573.901C742.695 574.376 742.86 574.943 743.079 575.73C743.5 577.248 744.104 579.388 744.817 582.186C746.225 587.674 748.073 595.264 749.536 603.769C750.789 611.026 751.552 618.359 751.822 625.718C751.822 628.535 751.822 630.821 751.822 632.413C751.822 633.144 751.822 633.748 751.822 634.242C751.78 634.488 751.706 634.728 751.603 634.955Z" fill="#263238"/>
<g opacity="0.3">
<path d="M751.603 634.955C745.201 631.315 739.844 626.088 736.047 619.777C732.251 613.466 730.144 606.284 729.929 598.922C729.416 588.423 732.654 578.107 736.312 568.23C736.533 567.343 737.057 566.56 737.794 566.017C738.399 565.788 739.054 565.718 739.694 565.814C740.335 565.91 740.94 566.169 741.452 566.566C751.018 572.053 756.834 582.424 759.907 592.996C762.132 600.01 762.873 607.41 762.084 614.725C760.876 622.415 757.22 629.509 751.658 634.955" fill="#011C1A"/>
</g>
<path d="M766.473 715.05C779.441 717.903 790.104 727.048 802.633 731.511C810.901 734.456 820.266 735.499 826.869 741.278C825.296 737.273 821.528 734.602 817.87 732.334C807.563 725.855 796.555 720.565 785.056 716.568C779.185 714.537 772.783 712.91 766.765 714.519" fill="#455A64"/>
<path d="M747.706 726.518C731.463 726.244 714.362 712.416 698.211 711.593C715.112 706.106 739.347 710.587 747.706 726.518Z" fill="#455A64"/>
<path d="M754.055 687.614C762.425 684.851 771.353 684.222 780.028 685.785C788.655 687.365 797.135 689.666 805.378 692.662C804.537 687.029 799.983 682.804 795.684 679.054C792.554 676.123 789.149 673.502 785.515 671.226C781.858 668.942 777.626 667.749 773.315 667.787C770.726 667.948 768.196 668.633 765.88 669.799C763.563 670.965 761.506 672.589 759.835 674.573C756.553 678.155 754.525 682.706 754.055 687.541" fill="#455A64"/>
<path d="M720.727 669.616C710.502 660.891 695.01 661.732 681.566 662.043C703.167 672.333 723.538 685.028 742.292 699.887C742.84 690.376 733.64 680.645 720.727 669.616Z" fill="#455A64"/>
<g opacity="0.3">
<path d="M720.727 669.616C710.502 660.891 695.01 661.732 681.566 662.043C703.167 672.333 723.538 685.028 742.292 699.887C742.84 690.376 733.64 680.645 720.727 669.616Z" fill="#011C1A"/>
</g>
<path d="M758.661 657.563C763.649 654.105 768.903 651.047 774.373 648.417C779.769 645.985 784.78 642.089 789.975 639.272C796.724 635.614 802.559 630.547 808.741 626.029C814.923 621.512 821.728 617.414 829.3 616.226C823.065 615.107 816.654 615.477 810.589 617.305C804.553 619.121 798.67 621.408 792.993 624.145C785.018 627.804 776.897 631.462 770.386 637.26C763.874 643.058 757.966 648.838 758.661 657.563Z" fill="#455A64"/>
<path d="M802.323 726.518L801.811 726.28L800.403 725.548C799.177 724.908 797.422 723.939 795.208 722.823C794.111 722.256 792.904 721.653 791.55 720.994C790.197 720.336 788.825 719.714 787.325 719.055C784.097 717.609 780.749 716.446 777.32 715.58C773.926 714.636 770.352 714.542 766.913 715.306C765.406 715.633 763.927 716.074 762.486 716.623C761.251 717.124 760.063 717.736 758.938 718.452C757.292 719.472 755.786 720.702 754.457 722.11C753.506 723.116 753.048 723.719 753.012 723.701C753.084 723.529 753.183 723.368 753.304 723.226C753.605 722.778 753.935 722.35 754.292 721.945C755.576 720.451 757.06 719.14 758.7 718.049C759.859 717.3 761.083 716.657 762.358 716.129C763.814 715.552 765.312 715.087 766.839 714.739C770.363 713.919 774.035 713.994 777.521 714.958C780.982 715.831 784.355 717.019 787.599 718.507C789.099 719.183 790.508 719.842 791.806 720.5C793.105 721.159 794.33 721.762 795.464 722.329C797.659 723.5 799.397 724.524 800.586 725.238L801.939 726.061C802.177 726.39 802.342 726.5 802.323 726.518Z" fill="#263238"/>
<path d="M735.67 718.452C736.025 718.505 736.37 718.61 736.694 718.763C737.597 719.088 738.477 719.473 739.328 719.915C742.179 721.346 744.799 723.195 747.102 725.403C749.403 727.602 751.358 730.136 752.9 732.92C753.372 733.76 753.794 734.627 754.162 735.517C754.32 735.835 754.431 736.174 754.491 736.523C754.4 736.523 753.796 735.188 752.552 733.14C749.285 727.769 744.661 723.353 739.145 720.336C736.95 719.111 735.56 718.562 735.67 718.452Z" fill="#263238"/>
<path d="M699.658 668.793C699.897 668.835 700.13 668.902 700.353 668.994L702.31 669.689L705.383 670.823C706.572 671.281 707.871 671.939 709.352 672.652C716.972 676.18 724.083 680.713 730.496 686.133C734.004 689.137 737.298 692.383 740.355 695.845C742.844 698.671 745.182 701.626 747.36 704.698C749.189 707.332 750.616 709.526 751.586 711.026L752.683 712.855C752.833 713.045 752.956 713.254 753.049 713.477C752.877 713.305 752.723 713.115 752.592 712.91C752.317 712.544 751.896 711.977 751.384 711.227C750.36 709.746 748.915 707.569 747.013 705.009C745.111 702.448 742.751 699.521 739.953 696.266C736.886 692.847 733.599 689.633 730.112 686.645C723.736 681.224 716.699 676.634 709.169 672.982C707.724 672.323 706.444 671.646 705.255 671.152L702.219 669.927L700.39 669.122C700.134 669.041 699.889 668.93 699.658 668.793Z" fill="#263238"/>
<path d="M778.436 678.468C777.998 678.465 777.562 678.41 777.137 678.304L775.637 678.029C775.07 677.92 774.393 677.919 773.643 677.846C769.791 677.501 765.921 678.263 762.486 680.041C760.608 681.028 758.893 682.299 757.401 683.809C756.172 685.034 755.081 686.39 754.146 687.851C753.296 689.214 752.55 690.639 751.914 692.113C751.957 691.678 752.068 691.252 752.243 690.851C752.647 689.726 753.168 688.647 753.798 687.632C754.692 686.102 755.78 684.694 757.035 683.443C758.528 681.857 760.278 680.533 762.212 679.529C765.738 677.696 769.733 676.964 773.68 677.426C774.43 677.535 775.125 677.572 775.692 677.718L777.192 678.084C777.617 678.173 778.034 678.302 778.436 678.468Z" fill="#263238"/>
<path d="M794.75 627.767C794.57 627.925 794.366 628.054 794.146 628.151L792.317 629.138C790.726 629.98 788.458 631.242 785.714 632.797C782.971 634.351 779.733 636.455 776.295 638.906C772.545 641.534 769.032 644.483 765.796 647.722C764.124 649.35 762.678 651.196 761.497 653.209C760.437 655.239 759.412 657.215 758.479 659.117C756.802 662.463 755.3 665.894 753.98 669.396C753.099 671.758 752.36 674.171 751.767 676.621C751.605 677.533 751.398 678.437 751.145 679.328C751.129 679.091 751.129 678.852 751.145 678.615C751.145 678.139 751.255 677.462 751.474 676.585C751.987 674.103 752.665 671.659 753.504 669.268C754.779 665.729 756.257 662.266 757.931 658.897C758.864 657.068 759.87 655.001 760.93 652.953C762.126 650.87 763.597 648.956 765.302 647.265C768.561 644.002 772.112 641.045 775.91 638.43C779.386 635.979 782.66 633.985 785.44 632.376C788.22 630.766 790.525 629.596 792.134 628.809L793.963 627.913L794.75 627.767Z" fill="#263238"/>
<path d="M749.208 676.95C749.055 676.505 748.95 676.045 748.897 675.578C748.696 674.59 748.458 673.328 748.183 671.829C746.667 663.568 744.072 655.543 740.465 647.959L738.892 644.484C738.662 644.068 738.484 643.626 738.361 643.167C738.645 643.544 738.89 643.948 739.093 644.374C739.514 645.179 740.117 646.331 740.922 647.776C742.806 651.551 744.414 655.457 745.732 659.464C747.015 663.482 747.993 667.591 748.659 671.755C748.915 673.365 749.098 674.645 749.189 675.56C749.24 676.022 749.247 676.487 749.208 676.95Z" fill="#263238"/>
<path d="M748.035 640.058C747.523 633.905 745.722 627.928 742.749 622.517C738.747 615.067 733.16 608.586 726.381 603.53C719.602 598.473 711.797 594.965 703.516 593.252L739.841 647.374L744.542 657.05C747.479 651.9 748.703 645.949 748.035 640.058Z" fill="#455A64"/>
<path d="M809.128 734.365H706.828V752.491H809.128V734.365Z" fill="#B68C5A"/>
<path d="M714.473 748.888L728.191 805.15H791.092L801.482 748.888H714.473Z" fill="#B68C5A"/>
<path d="M809.07 752.509C809.07 752.711 785.987 752.875 757.545 752.875C729.103 752.875 706.002 752.711 706.002 752.509C706.002 752.308 729.067 752.144 757.545 752.144C786.024 752.144 809.07 752.308 809.07 752.509Z" fill="#263238"/>
</svg>
