<svg width="46" height="50" viewBox="0 0 46 50" fill="none" xmlns="http://www.w3.org/2000/svg">
<path fill-rule="evenodd" clip-rule="evenodd" d="M3.59031 45.582H10.5695V44.6556C10.5685 44.4605 10.4906 44.2735 10.3526 44.1355C10.2146 43.9975 10.0277 43.9196 9.8325 43.9186H4.32729C4.22861 43.919 4.13099 43.939 4.04017 43.9776C3.94936 44.0162 3.8672 44.0726 3.79852 44.1435C3.72984 44.2144 3.67604 44.2983 3.64028 44.3902C3.60452 44.4822 3.58753 44.5804 3.59031 44.6791V45.5824V45.582ZM2.02927 47.7156V48.8542H12.1308V47.7156C12.1297 47.4538 12.0252 47.203 11.8401 47.0178C11.6549 46.8327 11.4041 46.7281 11.1423 46.727H3.01781C2.75597 46.7281 2.50518 46.8327 2.32004 47.0178C2.1349 47.203 2.0304 47.4538 2.02927 47.7156ZM9.93052 38.4925L9.86052 38.4556L6.41938 36.8371C6.16938 36.7329 5.9801 36.684 5.69917 36.785C5.41823 36.886 5.30552 37.0443 5.17969 37.2828L4.6725 38.3611C4.65496 38.3988 4.65284 38.4419 4.6666 38.4811C4.68036 38.5204 4.70891 38.5527 4.74615 38.5711L9.49448 40.8044C9.65208 40.8699 9.69542 40.8522 9.77313 40.7049L10.2802 39.6267C10.3728 39.4279 10.3884 39.2018 10.3237 38.9922C10.2591 38.7827 10.119 38.6046 9.93052 38.4925ZM10.118 28.6601L10.188 28.697L13.6755 30.3373C13.8866 30.4358 14.1281 30.4469 14.3474 30.3683C14.5667 30.2897 14.746 30.1276 14.8465 29.9174L15.3846 28.7691C15.432 28.6511 15.3117 28.5894 15.2548 28.5593L10.5078 26.3265C10.4701 26.3089 10.427 26.3068 10.3878 26.3206C10.3486 26.3344 10.3163 26.3629 10.2978 26.4002L9.76833 27.526C9.67567 27.7248 9.66014 27.9509 9.72475 28.1604C9.78937 28.37 9.92952 28.5481 10.118 28.6601ZM11.9494 35.6267L23.3183 41.7945C23.831 42.0727 24.4692 41.8014 24.7386 41.3049L24.7404 41.3058L25.3619 39.9829C25.5724 39.4589 25.3742 38.7916 24.8334 38.5744L12.8322 33.7507L11.9499 35.6267H11.9494ZM13.3185 32.7155L25.2578 37.5145C26.4255 37.9832 26.9007 39.3957 26.3691 40.5264L25.7428 41.8493L25.7445 41.8502C25.1773 42.8956 23.8423 43.3806 22.7721 42.8006L11.4619 36.6642L10.9156 37.8256C11.2078 38.1198 11.4026 38.4966 11.4738 38.9051C11.5449 39.3135 11.489 39.734 11.3135 40.1097L10.784 41.2356C10.6374 41.5466 10.3736 41.7868 10.0503 41.9038C9.72705 42.0208 9.37061 42.005 9.05896 41.8599L4.26323 39.6042C3.95206 39.4575 3.7117 39.1935 3.59479 38.8699C3.47788 38.5464 3.49395 38.1897 3.63948 37.878L4.16896 36.7521C4.34636 36.3768 4.63466 36.0651 4.99492 35.8589C5.35518 35.6527 5.77003 35.5621 6.18344 35.5993L9.13354 29.327C8.84135 29.0328 8.64651 28.656 8.57534 28.2475C8.50418 27.839 8.56013 27.4185 8.73563 27.0428L9.26521 25.9167C9.41191 25.6055 9.67592 25.3652 9.99945 25.2483C10.323 25.1314 10.6796 25.1474 10.9914 25.2929L15.7887 27.5494C16.099 27.6966 16.3385 27.9606 16.4548 28.2838C16.5711 28.6069 16.5549 28.9629 16.4097 29.2742L15.8802 30.4001C15.7028 30.7753 15.4145 31.0871 15.0542 31.2933C14.694 31.4994 14.2791 31.5901 13.8657 31.5529L13.3191 32.7151L13.3185 32.7155ZM12.0165 32.8035L9.93427 37.2306L7.26594 35.9756L10.113 29.9225L12.7822 31.1771L12.0426 32.75C12.0334 32.7673 12.025 32.7851 12.0176 32.8032L12.0165 32.8035ZM1.78458 6.32719H4.63552C4.83256 6.32626 5.02126 6.2476 5.16063 6.10831C5.29999 5.96903 5.37875 5.78037 5.37979 5.58333V1.97115L1.78458 6.32719ZM20.0444 34.07C19.9675 34.0727 19.8908 34.06 19.8189 34.0324C19.7471 34.0049 19.6815 33.9632 19.6261 33.9097C19.5707 33.8563 19.5267 33.7922 19.4966 33.7214C19.4665 33.6506 19.451 33.5744 19.451 33.4974C19.451 33.4205 19.4665 33.3443 19.4966 33.2735C19.5267 33.2027 19.5707 33.1386 19.6261 33.0852C19.6815 33.0317 19.7471 32.99 19.8189 32.9625C19.8908 32.9349 19.9675 32.9221 20.0444 32.9249H30.6621C30.8104 32.9302 30.9509 32.9928 31.0539 33.0996C31.157 33.2064 31.2146 33.349 31.2146 33.4974C31.2146 33.6459 31.157 33.7885 31.0539 33.8953C30.9509 34.0021 30.8104 34.0647 30.6621 34.07H20.0444ZM28.2463 39.0189C28.1692 39.0218 28.0924 39.0092 28.0204 38.9817C27.9484 38.9543 27.8826 38.9126 27.8271 38.8591C27.7716 38.8057 27.7274 38.7416 27.6972 38.6706C27.667 38.5997 27.6515 38.5234 27.6515 38.4464C27.6515 38.3693 27.667 38.293 27.6972 38.2221C27.7274 38.1511 27.7716 38.087 27.8271 38.0336C27.8826 37.9801 27.9484 37.9384 28.0204 37.911C28.0924 37.8835 28.1692 37.8709 28.2463 37.8739H30.6621C30.8101 37.8795 30.9503 37.9423 31.053 38.049C31.1558 38.1558 31.2132 38.2982 31.2132 38.4464C31.2132 38.5945 31.1558 38.7369 31.053 38.8437C30.9503 38.9504 30.8101 39.0132 30.6621 39.0189H28.2463ZM5.34781 24.1722C5.19976 24.1665 5.05965 24.1037 4.95689 23.997C4.85414 23.8903 4.79674 23.7479 4.79674 23.5997C4.79674 23.4515 4.85414 23.3091 4.95689 23.2024C5.05965 23.0956 5.19976 23.0328 5.34781 23.0272H27.8303C27.9073 23.0242 27.9842 23.0369 28.0562 23.0643C28.1282 23.0918 28.1939 23.1335 28.2495 23.1869C28.305 23.2404 28.3492 23.3045 28.3793 23.3754C28.4095 23.4463 28.4251 23.5226 28.4251 23.5997C28.4251 23.6768 28.4095 23.753 28.3793 23.824C28.3492 23.8949 28.305 23.959 28.2495 24.0125C28.1939 24.0659 28.1282 24.1076 28.0562 24.135C27.9842 24.1625 27.9073 24.1751 27.8303 24.1722H5.34781ZM18.8724 29.1211H30.6621C30.8104 29.1159 30.9509 29.0532 31.0539 28.9464C31.157 28.8396 31.2146 28.697 31.2146 28.5486C31.2146 28.4002 31.157 28.2576 31.0539 28.1508C30.9509 28.044 30.8104 27.9813 30.6621 27.976H18.8724C18.7955 27.9733 18.7188 27.9861 18.647 28.0136C18.5751 28.0411 18.5095 28.0829 18.4541 28.1363C18.3988 28.1898 18.3547 28.2538 18.3246 28.3246C18.2945 28.3955 18.279 28.4716 18.279 28.5486C18.279 28.6255 18.2945 28.7017 18.3246 28.7726C18.3547 28.8434 18.3988 28.9074 18.4541 28.9609C18.5095 29.0143 18.5751 29.056 18.647 29.0836C18.7188 29.1111 18.7955 29.1239 18.8724 29.1211ZM13.1961 14.2745C13.1191 14.2774 13.0423 14.2648 12.9703 14.2373C12.8983 14.2099 12.8325 14.1682 12.777 14.1147C12.7215 14.0613 12.6773 13.9972 12.6471 13.9263C12.6169 13.8553 12.6014 13.7791 12.6014 13.702C12.6014 13.6249 12.6169 13.5486 12.6471 13.4777C12.6773 13.4068 12.7215 13.3427 12.777 13.2892C12.8325 13.2358 12.8983 13.1941 12.9703 13.1666C13.0423 13.1392 13.1191 13.1265 13.1961 13.1295H27.1091C27.2571 13.1351 27.3972 13.1979 27.5 13.3047C27.6027 13.4114 27.6601 13.5538 27.6601 13.702C27.6601 13.8501 27.6027 13.9925 27.5 14.0993C27.3972 14.206 27.2571 14.2688 27.1091 14.2745H13.1961ZM12.3634 19.2233C12.2864 19.2263 12.2096 19.2136 12.1376 19.1862C12.0656 19.1587 11.9998 19.1171 11.9443 19.0636C11.8887 19.0101 11.8446 18.946 11.8144 18.8751C11.7842 18.8042 11.7687 18.7279 11.7687 18.6508C11.7687 18.5738 11.7842 18.4975 11.8144 18.4265C11.8446 18.3556 11.8887 18.2915 11.9443 18.2381C11.9998 18.1846 12.0656 18.1429 12.1376 18.1155C12.2096 18.088 12.2864 18.0754 12.3634 18.0783H27.1091C27.2571 18.084 27.3972 18.1468 27.5 18.2535C27.6027 18.3603 27.6601 18.5027 27.6601 18.6508C27.6601 18.799 27.6027 18.9414 27.5 19.0481C27.3972 19.1549 27.2571 19.2177 27.1091 19.2233H12.3634ZM5.34781 19.2233C5.27079 19.2263 5.19397 19.2136 5.12195 19.1862C5.04993 19.1587 4.98418 19.1171 4.92865 19.0636C4.87312 19.0101 4.82895 18.946 4.79877 18.8751C4.7686 18.8042 4.75305 18.7279 4.75305 18.6508C4.75305 18.5738 4.7686 18.4975 4.79877 18.4265C4.82895 18.3556 4.87312 18.2915 4.92865 18.2381C4.98418 18.1846 5.04993 18.1429 5.12195 18.1155C5.19397 18.088 5.27079 18.0754 5.34781 18.0783H9.91208C10.0601 18.084 10.2003 18.1468 10.303 18.2535C10.4058 18.3603 10.4632 18.5027 10.4632 18.6508C10.4632 18.799 10.4058 18.9414 10.303 19.0481C10.2003 19.1549 10.0601 19.2177 9.91208 19.2233H5.34781ZM32.327 25.2203C31.0443 23.5536 30.3461 21.5109 30.3402 19.4078V14.8269L37.2493 12.8357L44.1584 14.8269V19.4076C44.1526 21.5107 43.4544 23.5534 42.1717 25.2201C41.4052 26.2197 40.4458 27.0552 39.3504 27.6771C39.3251 27.6892 39.3008 27.7031 39.2775 27.7188C38.6364 28.0741 37.9558 28.353 37.2496 28.5496C36.7258 28.4036 36.2156 28.2124 35.7249 27.9781C35.6997 27.9635 35.6734 27.9508 35.6462 27.9401C34.3449 27.3018 33.2089 26.371 32.3273 25.2205L32.327 25.2203ZM40.1651 12.4896L44.8874 13.8505C45.0065 13.8846 45.1112 13.9564 45.1858 14.0553C45.2604 14.1541 45.3008 14.2746 45.3008 14.3984H45.3033V19.4072C45.2977 21.2392 44.8223 23.0391 43.9228 24.635C43.0232 26.2309 41.7295 27.5695 40.1651 28.5229V46.973C40.164 47.4737 39.9646 47.9537 39.6105 48.3077C39.2565 48.6618 38.7766 48.8612 38.2758 48.8623H13.2758V49.4271C13.2758 49.579 13.2155 49.7248 13.108 49.8322C13.0006 49.9396 12.8549 50 12.7029 50H1.45677C1.30482 50 1.1591 49.9396 1.05166 49.8322C0.944215 49.7248 0.883854 49.579 0.883854 49.4271V47.7156C0.884974 47.2499 1.03801 46.7972 1.31974 46.4262C1.60146 46.0553 1.9965 45.7865 2.4449 45.6604V45.2511H1.88927C1.38855 45.2501 0.908649 45.0507 0.554577 44.6966C0.200505 44.3426 0.00110078 43.8627 0 43.362V6.885C0.00182342 6.7398 0.0605451 6.60111 0.163542 6.49875L5.35365 0.210729C5.40707 0.145557 5.4743 0.093062 5.55048 0.0570339C5.62666 0.0210058 5.7099 0.00234404 5.79417 0.00239591V0H34.1204C34.6211 0.0011556 35.101 0.200589 35.4551 0.554668C35.8092 0.908747 36.0086 1.38865 36.0097 1.88937V3.61156H38.276C38.7768 3.61269 39.2567 3.81211 39.6107 4.1662C39.9648 4.52029 40.1642 5.0002 40.1653 5.50094V12.4905L40.1651 12.4896ZM36.0095 12.0066L37.0928 11.6941C37.1979 11.6639 37.3094 11.6648 37.414 11.6965L39.0201 12.1593V5.50094C39.0191 5.30385 38.9404 5.1151 38.8011 4.97572C38.6618 4.83633 38.473 4.75758 38.2759 4.75656H36.0095V12.0066ZM34.8645 28.8229V43.362C34.8635 43.5591 34.7848 43.7478 34.6454 43.8871C34.506 44.0265 34.3173 44.1052 34.1202 44.1061H11.6326C11.5141 43.721 11.2755 43.3839 10.9516 43.1441C10.6277 42.9044 10.2357 42.7746 9.83271 42.7736H4.32729C3.92435 42.7746 3.53228 42.9044 3.20844 43.1442C2.8846 43.3839 2.64598 43.721 2.5275 44.1061H1.88927C1.69219 44.1052 1.50346 44.0265 1.36409 43.8871C1.22472 43.7478 1.14599 43.5591 1.145 43.362V7.47219H4.63552C5.13619 7.47114 5.61607 7.27182 5.97014 6.91783C6.3242 6.56383 6.52364 6.08401 6.52479 5.58333V1.14583H34.1204C34.3175 1.14682 34.5062 1.22555 34.6456 1.36491C34.785 1.50428 34.8637 1.69302 34.8647 1.8901V12.337L29.664 13.8357C29.5324 13.8601 29.4134 13.9297 29.3278 14.0326C29.2422 14.1354 29.1953 14.265 29.1952 14.3989V19.4076C29.2005 21.3429 29.7305 23.2406 30.7289 24.8986C31.7272 26.5566 33.1565 27.9128 34.8645 28.8229ZM37.0936 29.6896C37.1912 29.7174 37.2944 29.7185 37.3925 29.6929C37.9497 29.5469 38.494 29.3557 39.0201 29.1212V46.973C39.0191 47.1701 38.9404 47.3588 38.8011 47.4982C38.6617 47.6375 38.473 47.7162 38.2759 47.7172H13.2759C13.2752 47.2511 13.1224 46.798 12.8406 46.4268C12.5589 46.0555 12.1636 45.7865 11.7149 45.6604V45.2511H34.1204C34.6211 45.2501 35.101 45.0507 35.4551 44.6966C35.8092 44.3426 36.0086 43.8627 36.0097 43.362V29.3411C36.3646 29.4766 36.7264 29.593 37.0938 29.6898L37.0936 29.6896ZM33.9905 17.4331C33.346 18.0776 32.9071 18.8988 32.7293 19.7927C32.5515 20.6867 32.6427 21.6133 32.9915 22.4554C33.3403 23.2974 33.931 24.0172 34.6889 24.5236C35.4467 25.03 36.3377 25.3002 37.2492 25.3002C38.1606 25.3002 39.0516 25.03 39.8095 24.5236C40.5673 24.0172 41.158 23.2974 41.5068 22.4554C41.8556 21.6133 41.9469 20.6867 41.7691 19.7927C41.5912 18.8988 41.1523 18.0776 40.5078 17.4331C40.0799 17.0052 39.5719 16.6657 39.0128 16.4341C38.4536 16.2024 37.8544 16.0832 37.2492 16.0832C36.644 16.0832 36.0447 16.2024 35.4856 16.4341C34.9265 16.6657 34.4184 17.0052 33.9905 17.4331ZM34.8001 18.2426C34.3157 18.727 33.9859 19.3441 33.8522 20.016C33.7186 20.6879 33.7872 21.3843 34.0493 22.0171C34.3115 22.65 34.7554 23.1909 35.325 23.5715C35.8946 23.9521 36.5642 24.1552 37.2492 24.1552C37.9342 24.1552 38.6039 23.9521 39.1735 23.5715C39.743 23.1909 40.187 22.65 40.4491 22.0171C40.7113 21.3843 40.7799 20.6879 40.6462 20.016C40.5126 19.3441 40.1827 18.727 39.6983 18.2426C39.0488 17.5931 38.1678 17.2282 37.2492 17.2282C36.3306 17.2282 35.4497 17.5931 34.8001 18.2426ZM35.1365 21.2147L36.5725 22.3438C36.632 22.3903 36.7001 22.4246 36.7729 22.4448C36.8456 22.4649 36.9217 22.4704 36.9966 22.4611C37.0716 22.4517 37.1439 22.4276 37.2095 22.3902C37.2751 22.3528 37.3327 22.3028 37.3789 22.243L39.4401 19.8621C39.4892 19.8054 39.5266 19.7396 39.5502 19.6685C39.5738 19.5973 39.5832 19.5223 39.5778 19.4475C39.5724 19.3727 39.5523 19.2998 39.5187 19.2328C39.4851 19.1658 39.4387 19.106 39.382 19.057C39.3253 19.0079 39.2595 18.9705 39.1884 18.9469C39.1172 18.9233 39.0421 18.9139 38.9674 18.9193C38.8926 18.9247 38.8197 18.9448 38.7527 18.9784C38.6857 19.012 38.6259 19.0584 38.5769 19.1151L36.8514 21.1082L35.8431 20.3154C35.7239 20.2217 35.5723 20.1792 35.4218 20.1972C35.2712 20.2153 35.134 20.2924 35.0403 20.4116C34.9466 20.5308 34.904 20.6824 34.9221 20.833C34.9401 20.9835 35.0172 21.1208 35.1365 21.2145V21.2147ZM5.34781 29.1209H6.80615C6.95446 29.1156 7.09493 29.053 7.19799 28.9462C7.30104 28.8394 7.35863 28.6968 7.35863 28.5484C7.35863 28.4 7.30104 28.2574 7.19799 28.1506C7.09493 28.0438 6.95446 27.9811 6.80615 27.9758H5.34781C5.1995 27.9811 5.05903 28.0438 4.95597 28.1506C4.85292 28.2574 4.79533 28.4 4.79533 28.5484C4.79533 28.6968 4.85292 28.8394 4.95597 28.9462C5.05903 29.053 5.1995 29.1156 5.34781 29.1209Z" fill="#B68C5A"/>
</svg>
