<svg width="36" height="35" viewBox="0 0 36 35" fill="none" xmlns="http://www.w3.org/2000/svg">
<path d="M18.5528 20.311C18.5528 20.5943 18.7824 20.8239 19.0657 20.8239C19.3491 20.8239 19.5786 20.5943 19.5786 20.311C19.5786 19.3886 18.8612 18.6993 18.02 18.746V18.4624C18.02 18.1791 17.7904 17.9495 17.5071 17.9495C17.2238 17.9495 16.9942 18.1791 16.9942 18.4624V18.746C16.1482 18.689 15.434 19.4031 15.4355 20.311V21.0124C15.4313 21.909 16.1482 22.6425 16.9942 22.5774V24.3573C16.7029 24.3924 16.4613 24.1741 16.4613 23.818C16.4613 23.5348 16.2316 23.3051 15.9484 23.3051C15.6651 23.3051 15.4355 23.5348 15.4355 23.818C15.4355 24.7145 16.1482 25.4482 16.9942 25.3831V25.6667C16.9942 25.95 17.2238 26.1796 17.5071 26.1796C17.7904 26.1796 18.02 25.95 18.02 25.6667V25.3831C18.8578 25.4297 19.5809 24.7337 19.5786 23.818V23.1166C19.5807 22.194 18.8611 21.5051 18.02 21.5516V19.7718C18.3025 19.7233 18.5528 19.9649 18.5528 20.311ZM16.9942 21.5517C16.703 21.5869 16.4617 21.3684 16.4613 21.0125V20.3111C16.4606 19.9725 16.7125 19.7194 16.9942 19.7719V21.5517ZM18.5528 23.1167V23.8181C18.5485 24.1548 18.3056 24.4114 18.02 24.3573V22.5775C18.3025 22.5288 18.5534 22.7706 18.5528 23.1167ZM19.8664 5.45664C19.8664 4.15572 18.808 3.0973 17.5071 3.0973C16.2061 3.0973 15.1477 4.15572 15.1477 5.45664C15.1477 6.75756 16.2061 7.81598 17.5071 7.81598C18.808 7.81598 19.8664 6.75756 19.8664 5.45664ZM16.1735 5.45664C16.1735 4.72134 16.7718 4.1231 17.5071 4.1231C18.2424 4.1231 18.8406 4.72134 18.8406 5.45664C18.8406 6.19193 18.2424 6.79018 17.5071 6.79018C16.7718 6.79018 16.1735 6.19193 16.1735 5.45664ZM17.5071 16.1876C14.2665 16.1876 11.63 18.824 11.63 22.0646C11.63 25.3052 14.2665 27.9416 17.5071 27.9416C20.7477 27.9416 23.3841 25.3052 23.3841 22.0646C23.3841 18.824 20.7477 16.1876 17.5071 16.1876ZM17.5071 26.9158C14.8321 26.9158 12.6558 24.7395 12.6558 22.0646C12.6558 19.3897 14.8321 17.2134 17.5071 17.2134C20.182 17.2134 22.3583 19.3897 22.3583 22.0646C22.3583 24.7395 20.182 26.9158 17.5071 26.9158ZM32.7143 13.2323C33.9015 13.3066 35.0242 12.4434 35.014 11.1807V9.64203C35.0056 9.49507 34.9572 9.30886 34.7446 9.19055L18.7505 0.323742C17.972 -0.107914 17.0422 -0.107914 16.2637 0.323742L9.81069 3.90118C9.56293 4.0385 9.47341 4.35069 9.6108 4.59845C9.74812 4.84622 10.0604 4.9358 10.3081 4.79835L16.761 1.22091C17.2282 0.961926 17.786 0.961995 18.2532 1.22091L32.5182 9.12914H2.49599L8.19095 5.97193C8.43872 5.83461 8.52824 5.52243 8.39085 5.27466C8.25353 5.0269 7.94134 4.93738 7.69358 5.07477L0.269662 9.19048C0.151763 9.25955 -0.00197005 9.40726 8.15524e-05 9.64203V11.1807C-0.0108603 12.3884 1.08086 13.3642 2.29979 13.2323L4.10328 15.7709V28.3583L2.29979 30.8968H1.19685C0.536985 30.8968 8.15524e-05 31.4337 8.15524e-05 32.0936V33.8032C8.15524e-05 34.4631 0.536985 35 1.19685 35H33.8173C34.4771 35 35.014 34.4631 35.014 33.8032V32.0936C35.014 31.4337 34.4771 30.8968 33.8173 30.8968H32.7143L30.9108 28.3583V15.7709L32.7143 13.2323ZM2.05168 12.2065C1.48605 12.2065 1.02588 11.7464 1.02588 11.1807V10.1549H33.9882V11.1807C33.9882 11.7464 33.5281 12.2065 32.9624 12.2065H2.05168ZM26.2776 22.505C26.5609 22.505 26.7905 22.2754 26.7905 21.9921V16.1202H29.885V28.009H26.7905V24.3856C26.7905 24.1024 26.5609 23.8727 26.2776 23.8727C25.9942 23.8727 25.7647 24.1024 25.7647 24.3856V28.3583L23.9612 30.8968H11.053L9.24951 28.3583V15.7709L11.053 13.2323H23.9613L25.7647 15.7709V21.9921C25.7647 22.2754 25.9943 22.505 26.2776 22.505ZM3.55817 13.2323H9.79469L8.47189 15.0944H4.88097L3.55817 13.2323ZM8.22371 16.1202V28.009H5.12908V16.1202H8.22371ZM4.88097 29.0348H8.47182L9.79462 30.8968H3.55817L4.88097 29.0348ZM33.8173 31.9226C33.9116 31.9226 33.9882 31.9993 33.9882 32.0936V33.8032C33.9882 33.8975 33.9116 33.9742 33.8173 33.9742H1.19685C1.10261 33.9742 1.02588 33.8975 1.02588 33.8032V32.0936C1.02588 31.9993 1.10261 31.9226 1.19685 31.9226H33.8173ZM31.456 30.8968H25.2196L26.5424 29.0348H30.1332L31.456 30.8968ZM30.1331 15.0944H26.5424L25.2195 13.2323H31.4559L30.1331 15.0944Z" fill="white"/>
</svg>
