<svg width="52" height="51" viewBox="0 0 52 51" fill="none" xmlns="http://www.w3.org/2000/svg">
<path d="M49.1777 38.5833L48.0037 38.2126C48.4091 37.8942 48.7269 37.4781 48.9275 37.0033C49.128 36.5285 49.2045 36.0105 49.15 35.4979L48.4037 28.406C48.2241 26.7029 47.4204 25.1266 46.1475 23.9809C44.8747 22.8351 43.2227 22.2012 41.5102 22.2012C39.7976 22.2012 38.1457 22.8351 36.8728 23.9809C35.5999 25.1266 34.7963 26.7029 34.6167 28.406L33.8679 35.4995C33.8237 35.9243 33.8691 36.3536 34.0011 36.7597C34.1332 37.1659 34.349 37.5398 34.6346 37.8573C34.7512 37.9868 34.8797 38.1052 35.0183 38.2109L33.8435 38.5833C33.2712 38.7623 32.7488 39.0727 32.3179 39.4897C31.8871 39.9067 31.5598 40.4188 31.3622 40.9849L28.2988 40.2191V39.7776C28.8014 39.421 29.2113 38.9491 29.4942 38.4016C29.7771 37.8541 29.9248 37.2467 29.9248 36.6304V33.5735C30.4061 33.2657 30.7747 32.8102 30.9753 32.2752C31.1759 31.7403 31.1977 31.1547 31.0375 30.6063C30.8772 30.0579 30.5435 29.5762 30.0864 29.2335C29.6293 28.8908 29.0734 28.7054 28.502 28.7052H25.25C24.4418 28.7063 23.6669 29.0279 23.0954 29.5994C22.5239 30.1709 22.2023 30.9458 22.2012 31.754V36.6321C22.2013 37.2484 22.3489 37.8557 22.6318 38.4032C22.9147 38.9508 23.3246 39.4226 23.8273 39.7792V40.2207L20.7638 40.9865C20.5666 40.4202 20.2395 39.9079 19.8088 39.4906C19.3781 39.0733 18.8556 38.7625 18.2833 38.5833L13.2581 36.9987V36.4215C13.8846 35.9925 14.3971 35.4173 14.7513 34.7457C15.1054 34.0741 15.2906 33.3263 15.2907 32.567V28.3199C15.6768 28.0433 16.0151 27.7055 16.2923 27.3199C16.6957 26.7667 16.9601 26.1247 17.0633 25.4479C17.1664 24.7711 17.1053 24.0794 16.885 23.4313C16.8446 23.3099 16.767 23.2043 16.6632 23.1295C16.5595 23.0546 16.4348 23.0143 16.3069 23.0142H9.80286C8.77905 23.0155 7.79754 23.4228 7.07359 24.1467C6.34964 24.8706 5.94236 25.8522 5.94107 26.876V32.567C5.94118 33.3263 6.12633 34.0741 6.48048 34.7457C6.83463 35.4173 7.34712 35.9925 7.97359 36.4215V36.9987L2.9492 38.5833C2.16498 38.8285 1.47985 39.3183 0.994137 39.981C0.508428 40.6437 0.247659 41.4446 0.250016 42.2662V49.6402C0.250016 49.8019 0.314258 49.957 0.428609 50.0714C0.542961 50.1857 0.698055 50.25 0.859772 50.25H51.2663C51.428 50.25 51.5831 50.1857 51.6974 50.0714C51.8118 49.957 51.876 49.8019 51.876 49.6402V42.2678C51.8787 41.446 51.6181 40.645 51.1326 39.982C50.647 39.3189 49.9619 38.8288 49.1777 38.5833ZM35.0874 35.6272L35.8338 28.5345C35.9822 27.1314 36.6447 25.8329 37.6935 24.8892C38.7423 23.9455 40.1033 23.4233 41.5142 23.4233C42.9252 23.4233 44.2861 23.9455 45.335 24.8892C46.3838 25.8329 47.0463 27.1314 47.1947 28.5345L47.9411 35.6272C47.967 35.8749 47.9421 36.1254 47.8679 36.3632C47.7937 36.6009 47.6717 36.8211 47.5094 37.0101C47.3471 37.1991 47.148 37.3529 46.9242 37.4623C46.7004 37.5716 46.4566 37.6341 46.2077 37.6459L44.1565 36.9955V36.4142C44.78 35.9846 45.2899 35.4101 45.6424 34.74C45.9949 34.0698 46.1794 33.3242 46.1801 32.567C46.1801 30.9784 46.185 30.5345 46.185 30.5345C46.1848 30.3729 46.1204 30.2179 46.0061 30.1036C45.8918 29.9893 45.7369 29.925 45.5752 29.9247H44.4695C43.75 29.9223 43.0507 29.6869 42.4763 29.2536C41.9019 28.8204 41.4833 28.2126 41.2833 27.5215C41.247 27.3941 41.1701 27.282 41.0643 27.2022C40.9585 27.1224 40.8297 27.0792 40.6972 27.0792C39.6734 27.0805 38.6918 27.4878 37.9679 28.2117C37.244 28.9357 36.8367 29.9172 36.8354 30.941V32.567C36.8355 33.3261 37.0207 34.0736 37.3749 34.745C37.729 35.4163 38.2415 35.9912 38.8679 36.4199V36.9963L36.8167 37.6467C36.5681 37.6346 36.3245 37.5718 36.101 37.4623C35.8775 37.3528 35.6787 37.1987 35.5168 37.0097C35.3549 36.8206 35.2333 36.6004 35.1595 36.3627C35.0856 36.125 35.0611 35.8747 35.0874 35.6272ZM41.5102 36.0223C40.5939 36.0219 39.7153 35.6577 39.0674 35.0098C38.4195 34.3619 38.0553 33.4833 38.0549 32.567V30.941C38.0558 30.3134 38.2796 29.7066 38.6864 29.2287C39.0933 28.7508 39.6566 28.4331 40.276 28.3321C40.6195 29.1623 41.201 29.8723 41.9472 30.3727C42.6934 30.8732 43.5711 31.1416 44.4695 31.1443H44.9638C44.9638 31.4597 44.9638 31.9174 44.9638 32.5678C44.9623 33.4834 44.598 34.3611 43.9507 35.0086C43.3033 35.6561 42.4258 36.0206 41.5102 36.0223ZM42.9354 37.0191V37.8516C42.9354 38.2289 42.7855 38.5908 42.5187 38.8576C42.2518 39.1244 41.89 39.2743 41.5126 39.2743C41.1353 39.2743 40.7734 39.1244 40.5066 38.8576C40.2397 38.5908 40.0899 38.2289 40.0899 37.8516V37.0207C41.0153 37.3166 42.01 37.3166 42.9354 37.0207V37.0191ZM23.4207 31.754C23.4214 31.2691 23.6143 30.8042 23.9572 30.4612C24.3002 30.1183 24.7651 29.9254 25.25 29.9247H28.502C28.8794 29.9247 29.2413 30.0746 29.5081 30.3415C29.7749 30.6083 29.9248 30.9702 29.9248 31.3475C29.9248 31.7249 29.7749 32.0867 29.5081 32.3536C29.2413 32.6204 28.8794 32.7703 28.502 32.7703H25.25C24.5902 32.7691 23.9479 32.9832 23.4207 33.38V31.754ZM23.4207 36.6321V35.8191C23.4214 35.3341 23.6143 34.8692 23.9572 34.5263C24.3002 34.1834 24.7651 33.9904 25.25 33.9898H28.502C28.5703 33.9898 28.6386 33.9898 28.7053 33.9817V36.6321C28.7053 37.3328 28.4269 38.0049 27.9314 38.5004C27.4359 38.996 26.7638 39.2743 26.063 39.2743C25.3622 39.2743 24.6902 38.996 24.1947 38.5004C23.6991 38.0049 23.4207 37.3328 23.4207 36.6321ZM27.0793 40.3581V40.6971C27.0793 40.9666 26.9722 41.2251 26.7816 41.4157C26.591 41.6063 26.3326 41.7134 26.063 41.7134C25.7935 41.7134 25.535 41.6063 25.3444 41.4157C25.1538 41.2251 25.0468 40.9666 25.0468 40.6971V40.3581C25.7122 40.5391 26.4139 40.5391 27.0793 40.3581ZM7.16058 26.876C7.16145 26.1755 7.4401 25.5039 7.93544 25.0085C8.43078 24.5132 9.10235 24.2346 9.80286 24.2337H15.837C15.9193 24.6805 15.9023 25.1399 15.7872 25.5794C15.6721 26.0188 15.4618 26.4276 15.1711 26.7767C14.8804 27.1259 14.5164 27.4068 14.1051 27.5995C13.6937 27.7923 13.245 27.8922 12.7907 27.8922H9.80286C8.82062 27.8914 7.87527 28.2664 7.16058 28.9402V26.876ZM7.16058 32.567V31.754C7.16145 31.0535 7.4401 30.3819 7.93544 29.8866C8.43078 29.3913 9.10235 29.1126 9.80286 29.1117H12.7907C13.2246 29.1125 13.6562 29.0484 14.0712 28.9215V32.567C14.0712 33.4834 13.7071 34.3623 13.0591 35.0103C12.4111 35.6583 11.5323 36.0223 10.6159 36.0223C9.69947 36.0223 8.82061 35.6583 8.17261 35.0103C7.52462 34.3623 7.16058 33.4834 7.16058 32.567ZM12.0386 37.0199V37.8516C12.0386 38.2289 11.8887 38.5908 11.6219 38.8576C11.3551 39.1244 10.9932 39.2743 10.6159 39.2743C10.2385 39.2743 9.87664 39.1244 9.60982 38.8576C9.343 38.5908 9.1931 38.2289 9.1931 37.8516V37.0199C10.1185 37.3158 11.1132 37.3158 12.0386 37.0199ZM17.3232 44.8621V49.0304H4.72156V44.7621C4.72156 44.6004 4.65732 44.4453 4.54297 44.331C4.42862 44.2166 4.27352 44.1524 4.1118 44.1524C3.95009 44.1524 3.79499 44.2166 3.68064 44.331C3.56629 44.4453 3.50205 44.6004 3.50205 44.7621V49.0304H1.46953V42.2678C1.46809 41.7057 1.64651 41.1579 1.97871 40.7044C2.31092 40.2509 2.77947 39.9156 3.31587 39.7475L8.00611 38.2662C8.10452 38.8876 8.42142 39.4535 8.89982 39.8621C9.37822 40.2707 9.98672 40.4952 10.6159 40.4952C11.245 40.4952 11.8535 40.2707 12.3319 39.8621C12.8103 39.4535 13.1272 38.8876 13.2256 38.2662L17.9159 39.7475C18.2989 39.8675 18.6494 40.0736 18.9406 40.3499C19.2317 40.6263 19.4557 40.9655 19.5955 41.3418C18.9178 41.6471 18.3427 42.1419 17.9395 42.7664C17.5364 43.391 17.3223 44.1188 17.3232 44.8621ZM33.5833 49.0304H31.5508V47.2012C31.5508 47.0395 31.4866 46.8844 31.3722 46.77C31.2579 46.6557 31.1028 46.5914 30.9411 46.5914C30.7794 46.5914 30.6243 46.6557 30.5099 46.77C30.3956 46.8844 30.3313 47.0395 30.3313 47.2012V49.0304H21.7947V47.2012C21.7947 47.0395 21.7305 46.8844 21.6161 46.77C21.5018 46.6557 21.3467 46.5914 21.185 46.5914C21.0233 46.5914 20.8682 46.6557 20.7538 46.77C20.6395 46.8844 20.5752 47.0395 20.5752 47.2012V49.0304H18.5427V44.8621C18.5419 44.2728 18.7386 43.7001 19.1012 43.2355C19.4638 42.7709 19.9716 42.4411 20.5435 42.2987L23.9581 41.4459C24.1128 41.8808 24.3984 42.2572 24.7755 42.5234C25.1527 42.7896 25.603 42.9324 26.0646 42.9324C26.5263 42.9324 26.9766 42.7896 27.3538 42.5234C27.7309 42.2572 28.0165 41.8808 28.1712 41.4459L31.5858 42.2987C32.1579 42.441 32.6658 42.7707 33.0286 43.2353C33.3914 43.6999 33.5881 44.2727 33.5874 44.8621L33.5833 49.0304ZM50.6565 49.0304H48.624V44.7621C48.624 44.6004 48.5598 44.4453 48.4454 44.331C48.3311 44.2166 48.176 44.1524 48.0142 44.1524C47.8525 44.1524 47.6974 44.2166 47.5831 44.331C47.4687 44.4453 47.4045 44.6004 47.4045 44.7621V49.0304H34.8029V44.8621C34.8032 44.1184 34.5885 43.3903 34.1846 42.7658C33.7807 42.1412 33.2049 41.6467 32.5264 41.3418C32.6662 40.9655 32.8903 40.6263 33.1814 40.3499C33.4726 40.0736 33.8231 39.8675 34.2061 39.7475L38.9004 38.2662C38.9988 38.8876 39.3157 39.4535 39.7941 39.8621C40.2725 40.2707 40.881 40.4952 41.5102 40.4952C42.1393 40.4952 42.7478 40.2707 43.2262 39.8621C43.7046 39.4535 44.0215 38.8876 44.1199 38.2662L48.8102 39.7475C49.3466 39.9156 49.8151 40.2509 50.1473 40.7044C50.4795 41.1579 50.658 41.7057 50.6565 42.2678V49.0304Z" fill="#B68C5A"/>
<path d="M17.9331 16.1037C18.957 16.1024 19.9385 15.6951 20.6624 14.9711C21.3864 14.2472 21.7936 13.2657 21.7949 12.2419C21.7951 12.1644 21.7802 12.0876 21.751 12.0159L19.1396 5.48577C19.3993 5.25736 19.5892 4.96035 19.6876 4.62886C21.228 4.492 22.7509 4.20222 24.234 3.76382V18.1362H23.6242C23.0314 18.1366 22.4629 18.3723 22.0437 18.7915C21.6246 19.2107 21.3889 19.7791 21.3884 20.372V20.6606C20.9205 20.7936 20.5087 21.0755 20.2153 21.4635C19.9219 21.8515 19.7629 22.3245 19.7624 22.811V23.624C19.7624 23.7857 19.8267 23.9408 19.941 24.0551C20.0554 24.1695 20.2105 24.2337 20.3722 24.2337H31.7543C31.916 24.2337 32.0711 24.1695 32.1854 24.0551C32.2998 23.9408 32.364 23.7857 32.364 23.624V22.811C32.3635 22.3245 32.2045 21.8515 31.9111 21.4635C31.6177 21.0755 31.2059 20.7936 30.738 20.6606V20.372C30.7376 19.7791 30.5019 19.2107 30.0827 18.7915C29.6635 18.3723 29.0951 18.1366 28.5023 18.1362H27.8925V3.76382C29.3755 4.20215 30.8985 4.49192 32.4388 4.62886C32.5373 4.96035 32.7272 5.25736 32.9868 5.48577L30.3722 12.0159C30.3442 12.0879 30.3303 12.1646 30.3315 12.2419C30.3315 13.2661 30.7384 14.2483 31.4626 14.9726C32.1868 15.6968 33.1691 16.1037 34.1933 16.1037C35.2175 16.1037 36.1998 15.6968 36.924 14.9726C37.6482 14.2483 38.0551 13.2661 38.0551 12.2419C38.0552 12.1644 38.0403 12.0876 38.0112 12.0159L35.3998 5.48577C35.6344 5.27899 35.8126 5.01603 35.9177 4.72154H36.6323C36.794 4.72154 36.9491 4.6573 37.0635 4.54295C37.1778 4.4286 37.2421 4.27351 37.2421 4.11179C37.2421 3.95007 37.1778 3.79498 37.0635 3.68063C36.9491 3.56627 36.794 3.50203 36.6323 3.50203H35.9177C35.7945 3.1531 35.5684 2.84973 35.2692 2.63198C34.97 2.41423 34.6119 2.29233 34.242 2.28237C33.8721 2.27242 33.5078 2.37488 33.1974 2.57624C32.8869 2.77759 32.6448 3.06836 32.5031 3.41016C30.9379 3.26775 29.3924 2.95924 27.8925 2.48984V2.07927C27.8925 1.59412 27.6998 1.12883 27.3567 0.78578C27.0137 0.442726 26.5484 0.25 26.0632 0.25C25.5781 0.25 25.1128 0.442726 24.7697 0.78578C24.4267 1.12883 24.234 1.59412 24.234 2.07927V2.48577C22.7339 2.95565 21.188 3.26444 19.6226 3.40691C19.4808 3.06511 19.2387 2.77434 18.9283 2.57298C18.6178 2.37163 18.2536 2.26917 17.8837 2.27912C17.5138 2.28907 17.1556 2.41097 16.8564 2.62873C16.5572 2.84648 16.3311 3.14985 16.2079 3.49878H15.4941C15.3324 3.49878 15.1773 3.56302 15.063 3.67737C14.9486 3.79173 14.8844 3.94682 14.8844 4.10854C14.8844 4.27025 14.9486 4.42535 15.063 4.5397C15.1773 4.65405 15.3324 4.71829 15.4941 4.71829H16.2088C16.3139 5.01278 16.4921 5.27574 16.7266 5.48252L14.112 12.0159C14.084 12.0879 14.0702 12.1646 14.0714 12.2419C14.0726 13.2657 14.4799 14.2472 15.2039 14.9711C15.9278 15.6951 16.9093 16.1024 17.9331 16.1037ZM34.1933 14.8841C33.5987 14.8835 33.0217 14.6826 32.5553 14.3139C32.0889 13.9451 31.7603 13.43 31.6226 12.8516H36.764C36.6263 13.43 36.2977 13.9451 35.8313 14.3139C35.3649 14.6826 34.7879 14.8835 34.1933 14.8841ZM36.5445 11.6321H31.8421L34.1185 5.94106H34.1925H34.2665L36.5445 11.6321ZM34.1933 3.50203C34.3139 3.50203 34.4318 3.53779 34.5321 3.60479C34.6323 3.6718 34.7105 3.76703 34.7566 3.87845C34.8028 3.98986 34.8149 4.11247 34.7913 4.23075C34.7678 4.34903 34.7097 4.45768 34.6245 4.54295C34.5392 4.62823 34.4305 4.6863 34.3123 4.70983C34.194 4.73336 34.0714 4.72128 33.96 4.67513C33.8485 4.62898 33.7533 4.55082 33.6863 4.45055C33.6193 4.35028 33.5836 4.23239 33.5836 4.11179C33.5836 3.95007 33.6478 3.79498 33.7621 3.68063C33.8765 3.56627 34.0316 3.50203 34.1933 3.50203ZM30.1283 21.7947C30.3977 21.7951 30.6559 21.9024 30.8464 22.0928C31.0369 22.2833 31.1441 22.5416 31.1445 22.811V23.0142H20.9819V22.811C20.9824 22.5416 21.0896 22.2833 21.2801 22.0928C21.4705 21.9024 21.7288 21.7951 21.9982 21.7947H30.1283ZM25.4535 2.07927C25.4535 1.91755 25.5177 1.76246 25.6321 1.64811C25.7464 1.53375 25.9015 1.46951 26.0632 1.46951C26.2249 1.46951 26.38 1.53375 26.4944 1.64811C26.6087 1.76246 26.673 1.91755 26.673 2.07927V18.1362H25.4535V2.07927ZM28.5023 19.3557C28.7716 19.3561 29.0299 19.4633 29.2204 19.6538C29.4109 19.8443 29.5181 20.1026 29.5185 20.372V20.5752H22.6079V20.372C22.6084 20.1026 22.7156 19.8443 22.9061 19.6538C23.0966 19.4633 23.3548 19.3561 23.6242 19.3557H28.5023ZM17.9331 3.50203C18.0537 3.50203 18.1716 3.53779 18.2719 3.60479C18.3722 3.6718 18.4503 3.76703 18.4965 3.87845C18.5426 3.98986 18.5547 4.11247 18.5312 4.23075C18.5077 4.34903 18.4496 4.45768 18.3643 4.54295C18.279 4.62823 18.1704 4.6863 18.0521 4.70983C17.9338 4.73336 17.8112 4.72128 17.6998 4.67513C17.5884 4.62898 17.4932 4.55082 17.4262 4.45055C17.3592 4.35028 17.3234 4.23239 17.3234 4.11179C17.3234 3.95007 17.3876 3.79498 17.502 3.68063C17.6163 3.56627 17.7714 3.50203 17.9331 3.50203ZM17.8592 5.94106H17.9331H18.0071L20.2836 11.6321H15.5819L17.8592 5.94106ZM20.5039 12.8516C20.3665 13.4301 20.0379 13.9453 19.5714 14.314C19.1049 14.6827 18.5277 14.8832 17.9331 14.8832C17.3386 14.8832 16.7614 14.6827 16.2949 14.314C15.8284 13.9453 15.4998 13.4301 15.3624 12.8516H20.5039Z" fill="#B68C5A"/>
</svg>
