<svg width="21" height="15" viewBox="0 0 21 15" fill="none" xmlns="http://www.w3.org/2000/svg">
<path fill-rule="evenodd" clip-rule="evenodd" d="M4.43342 10.8861C3.67359 11.9507 2.23738 13.0966 0.282147 14.0506C-0.225969 14.2986 0.00325519 15.067 0.56416 14.996C4.6723 14.4764 7.33501 12.6772 8.78907 10.0016C9.32988 9.00641 9.66965 7.94718 9.8506 6.86591C9.9699 6.15298 10.0014 5.61795 10.0014 5C10.0014 2.23858 7.76284 0 5.00142 0C2.23999 0 0.00141604 2.23858 0.00141604 5C0.00141604 7.76142 2.27571 10.0016 4.88923 10.0016C4.75136 10.3801 4.71824 10.4871 4.43342 10.8861ZM15.4334 10.8861C14.6736 11.9507 13.2374 13.0966 11.2821 14.0506C10.774 14.2986 11.0033 15.067 11.5642 14.996C15.6723 14.4764 18.335 12.6772 19.7891 10.0016C20.3299 9.00641 20.6697 7.94718 20.8506 6.86591C20.9699 6.15298 21.0014 5.61795 21.0014 5C21.0014 2.23858 18.7628 0 16.0014 0C13.24 0 11.0014 2.23858 11.0014 5C11.0014 7.76142 13.2757 10.0016 15.8892 10.0016C15.7514 10.3801 15.7182 10.4871 15.4334 10.8861Z" fill="#011C1A"/>
</svg>
