<svg width="60" height="60" viewBox="0 0 60 60" fill="none" xmlns="http://www.w3.org/2000/svg">
<path d="M55 6H50V4C50 2.93913 49.5786 1.92172 48.8284 1.17157C48.0783 0.421427 47.0609 0 46 0C44.9391 0 43.9217 0.421427 43.1716 1.17157C42.4214 1.92172 42 2.93913 42 4V6H34V4C34 2.93913 33.5786 1.92172 32.8284 1.17157C32.0783 0.421427 31.0609 0 30 0C28.9391 0 27.9217 0.421427 27.1716 1.17157C26.4214 1.92172 26 2.93913 26 4V6H18V4C18 2.93913 17.5786 1.92172 16.8284 1.17157C16.0783 0.421427 15.0609 0 14 0C12.9391 0 11.9217 0.421427 11.1716 1.17157C10.4214 1.92172 10 2.93913 10 4V6H5C3.67392 6 2.40215 6.52678 1.46447 7.46447C0.526784 8.40215 0 9.67392 0 11V51C0 52.3261 0.526784 53.5978 1.46447 54.5355C2.40215 55.4732 3.67392 56 5 56H33C33.2652 56 33.5196 55.8946 33.7071 55.7071C33.8946 55.5196 34 55.2652 34 55C34 54.7348 33.8946 54.4804 33.7071 54.2929C33.5196 54.1054 33.2652 54 33 54H5C4.20508 53.9976 3.4434 53.6808 2.8813 53.1187C2.31921 52.5566 2.00237 51.7949 2 51V20H58V37C58 37.2652 58.1054 37.5196 58.2929 37.7071C58.4804 37.8946 58.7348 38 59 38C59.2652 38 59.5196 37.8946 59.7071 37.7071C59.8946 37.5196 60 37.2652 60 37V11C60 9.67392 59.4732 8.40215 58.5355 7.46447C57.5978 6.52678 56.3261 6 55 6ZM44 4C44 3.46957 44.2107 2.96086 44.5858 2.58579C44.9609 2.21071 45.4696 2 46 2C46.5304 2 47.0391 2.21071 47.4142 2.58579C47.7893 2.96086 48 3.46957 48 4V10C48 10.5304 47.7893 11.0391 47.4142 11.4142C47.0391 11.7893 46.5304 12 46 12C45.4696 12 44.9609 11.7893 44.5858 11.4142C44.2107 11.0391 44 10.5304 44 10V4ZM28 4C28 3.46957 28.2107 2.96086 28.5858 2.58579C28.9609 2.21071 29.4696 2 30 2C30.5304 2 31.0391 2.21071 31.4142 2.58579C31.7893 2.96086 32 3.46957 32 4V10C32 10.5304 31.7893 11.0391 31.4142 11.4142C31.0391 11.7893 30.5304 12 30 12C29.4696 12 28.9609 11.7893 28.5858 11.4142C28.2107 11.0391 28 10.5304 28 10V4ZM12 4C12 3.46957 12.2107 2.96086 12.5858 2.58579C12.9609 2.21071 13.4696 2 14 2C14.5304 2 15.0391 2.21071 15.4142 2.58579C15.7893 2.96086 16 3.46957 16 4V10C16 10.5304 15.7893 11.0391 15.4142 11.4142C15.0391 11.7893 14.5304 12 14 12C13.4696 12 12.9609 11.7893 12.5858 11.4142C12.2107 11.0391 12 10.5304 12 10V4ZM58 18H2V11C2.00237 10.2051 2.31921 9.4434 2.8813 8.8813C3.4434 8.31921 4.20508 8.00237 5 8H10V10C10 11.0609 10.4214 12.0783 11.1716 12.8284C11.9217 13.5786 12.9391 14 14 14C15.0609 14 16.0783 13.5786 16.8284 12.8284C17.5786 12.0783 18 11.0609 18 10V8H26V10C26 11.0609 26.4214 12.0783 27.1716 12.8284C27.9217 13.5786 28.9391 14 30 14C31.0609 14 32.0783 13.5786 32.8284 12.8284C33.5786 12.0783 34 11.0609 34 10V8H42V10C42 11.0609 42.4214 12.0783 43.1716 12.8284C43.9217 13.5786 44.9391 14 46 14C47.0609 14 48.0783 13.5786 48.8284 12.8284C49.5786 12.0783 50 11.0609 50 10V8H55C55.7949 8.00237 56.5566 8.31921 57.1187 8.8813C57.6808 9.4434 57.9976 10.2051 58 11V18Z" fill="#B68C5A"/>
<path d="M28 27C28 26.4696 27.7893 25.9609 27.4142 25.5858C27.0391 25.2107 26.5304 25 26 25H22C21.4696 25 20.9609 25.2107 20.5858 25.5858C20.2107 25.9609 20 26.4696 20 27V30C20 30.5304 20.2107 31.0391 20.5858 31.4142C20.9609 31.7893 21.4696 32 22 32H26C26.5304 32 27.0391 31.7893 27.4142 31.4142C27.7893 31.0391 28 30.5304 28 30V27ZM22 30V27H26V30H22Z" fill="#B68C5A"/>
<path d="M16 27C16 26.4696 15.7893 25.9609 15.4142 25.5858C15.0391 25.2107 14.5304 25 14 25H10C9.46957 25 8.96086 25.2107 8.58579 25.5858C8.21071 25.9609 8 26.4696 8 27V30C8 30.5304 8.21071 31.0391 8.58579 31.4142C8.96086 31.7893 9.46957 32 10 32H14C14.5304 32 15.0391 31.7893 15.4142 31.4142C15.7893 31.0391 16 30.5304 16 30V27ZM10 30V27H14V30H10Z" fill="#B68C5A"/>
<path d="M50 32C50.5304 32 51.0391 31.7893 51.4142 31.4142C51.7893 31.0391 52 30.5304 52 30V27C52 26.4696 51.7893 25.9609 51.4142 25.5858C51.0391 25.2107 50.5304 25 50 25H46C45.4696 25 44.9609 25.2107 44.5858 25.5858C44.2107 25.9609 44 26.4696 44 27V30C44 30.5304 44.2107 31.0391 44.5858 31.4142C44.9609 31.7893 45.4696 32 46 32H50ZM46 27H50V30H46V27Z" fill="#B68C5A"/>
<path d="M28 36C28 35.4696 27.7893 34.9609 27.4142 34.5858C27.0391 34.2107 26.5304 34 26 34H22C21.4696 34 20.9609 34.2107 20.5858 34.5858C20.2107 34.9609 20 35.4696 20 36V39C20 39.5304 20.2107 40.0391 20.5858 40.4142C20.9609 40.7893 21.4696 41 22 41H26C26.5304 41 27.0391 40.7893 27.4142 40.4142C27.7893 40.0391 28 39.5304 28 39V36ZM22 39V36H26V39H22Z" fill="#B68C5A"/>
<path d="M16 36C16 35.4696 15.7893 34.9609 15.4142 34.5858C15.0391 34.2107 14.5304 34 14 34H10C9.46957 34 8.96086 34.2107 8.58579 34.5858C8.21071 34.9609 8 35.4696 8 36V39C8 39.5304 8.21071 40.0391 8.58579 40.4142C8.96086 40.7893 9.46957 41 10 41H14C14.5304 41 15.0391 40.7893 15.4142 40.4142C15.7893 40.0391 16 39.5304 16 39V36ZM10 39V36H14V39H10Z" fill="#B68C5A"/>
<path d="M26 43H22C21.4696 43 20.9609 43.2107 20.5858 43.5858C20.2107 43.9609 20 44.4696 20 45V48C20 48.5304 20.2107 49.0391 20.5858 49.4142C20.9609 49.7893 21.4696 50 22 50H26C26.5304 50 27.0391 49.7893 27.4142 49.4142C27.7893 49.0391 28 48.5304 28 48V45C28 44.4696 27.7893 43.9609 27.4142 43.5858C27.0391 43.2107 26.5304 43 26 43ZM22 48V45H26V48H22Z" fill="#B68C5A"/>
<path d="M34 32H38C38.5304 32 39.0391 31.7893 39.4142 31.4142C39.7893 31.0391 40 30.5304 40 30V27C40 26.4696 39.7893 25.9609 39.4142 25.5858C39.0391 25.2107 38.5304 25 38 25H34C33.4696 25 32.9609 25.2107 32.5858 25.5858C32.2107 25.9609 32 26.4696 32 27V30C32 30.5304 32.2107 31.0391 32.5858 31.4142C32.9609 31.7893 33.4696 32 34 32ZM34 27H38V30H34V27Z" fill="#B68C5A"/>
<path d="M32 39C32 39.5304 32.2107 40.0391 32.5858 40.4142C32.9609 40.7893 33.4696 41 34 41C34.2652 41 34.5196 40.8946 34.7071 40.7071C34.8946 40.5196 35 40.2652 35 40C35 39.7348 34.8946 39.4804 34.7071 39.2929C34.5196 39.1054 34.2652 39 34 39V36H38C38.2652 36 38.5196 35.8946 38.7071 35.7071C38.8946 35.5196 39 35.2652 39 35C39 34.7348 38.8946 34.4804 38.7071 34.2929C38.5196 34.1054 38.2652 34 38 34H34C33.4696 34 32.9609 34.2107 32.5858 34.5858C32.2107 34.9609 32 35.4696 32 36V39Z" fill="#B68C5A"/>
<path d="M14 43H10C9.46957 43 8.96086 43.2107 8.58579 43.5858C8.21071 43.9609 8 44.4696 8 45V48C8 48.5304 8.21071 49.0391 8.58579 49.4142C8.96086 49.7893 9.46957 50 10 50H14C14.5304 50 15.0391 49.7893 15.4142 49.4142C15.7893 49.0391 16 48.5304 16 48V45C16 44.4696 15.7893 43.9609 15.4142 43.5858C15.0391 43.2107 14.5304 43 14 43ZM10 48V45H14V48H10Z" fill="#B68C5A"/>
<path d="M47 34C44.4288 34 41.9154 34.7624 39.7776 36.1909C37.6398 37.6194 35.9735 39.6497 34.9896 42.0251C34.0056 44.4006 33.7482 47.0144 34.2498 49.5362C34.7514 52.0579 35.9895 54.3743 37.8076 56.1924C39.6257 58.0105 41.9421 59.2486 44.4638 59.7502C46.9856 60.2518 49.5994 59.9944 51.9749 59.0104C54.3503 58.0265 56.3807 56.3603 57.8091 54.2224C59.2376 52.0846 60 49.5712 60 47C59.996 43.5534 58.6251 40.2491 56.188 37.812C53.7509 35.3749 50.4466 34.004 47 34ZM47 58C44.8244 58 42.6977 57.3549 40.8887 56.1462C39.0798 54.9375 37.6699 53.2195 36.8373 51.2095C36.0048 49.1995 35.7869 46.9878 36.2114 44.854C36.6358 42.7202 37.6835 40.7602 39.2218 39.2218C40.7602 37.6834 42.7202 36.6358 44.854 36.2114C46.9878 35.7869 49.1995 36.0048 51.2095 36.8373C53.2195 37.6699 54.9375 39.0798 56.1462 40.8887C57.3549 42.6977 58 44.8244 58 47C57.9966 49.9163 56.8365 52.7122 54.7744 54.7744C52.7122 56.8365 49.9163 57.9966 47 58Z" fill="#B68C5A"/>
<path d="M52.7772 42.8081L44.9992 50.5861L41.4642 47.0501C41.2756 46.8679 41.023 46.7671 40.7608 46.7694C40.4986 46.7717 40.2478 46.8768 40.0624 47.0622C39.877 47.2476 39.7718 47.4985 39.7696 47.7607C39.7673 48.0229 39.8681 48.2755 40.0502 48.4641L44.2922 52.7071C44.4798 52.8945 44.7341 52.9998 44.9992 52.9998C45.2644 52.9998 45.5187 52.8945 45.7062 52.7071L54.1912 44.2221C54.3734 44.0335 54.4742 43.7809 54.4719 43.5187C54.4696 43.2565 54.3645 43.0056 54.1791 42.8202C53.9937 42.6348 53.7428 42.5297 53.4806 42.5274C53.2184 42.5251 52.9658 42.6259 52.7772 42.8081Z" fill="#B68C5A"/>
</svg>
