<svg width="37" height="32" viewBox="0 0 37 32" fill="none" xmlns="http://www.w3.org/2000/svg">
<path d="M30.0819 9.17033H27.4329V6.34807C27.4329 4.73078 26.8244 3.19011 25.7195 2.01005C25.5141 1.79062 25.1697 1.77938 24.9504 1.98479C24.7311 2.19021 24.7197 2.53452 24.9252 2.75381C25.8405 3.73151 26.3447 5.00799 26.3447 6.34807V9.17033H15.2726C11.7722 9.17033 8.9245 12.0181 8.9245 15.5185V17.4651H8.07223C7.73319 17.4651 7.41436 17.5971 7.1745 17.8369L4.28657 20.7248V17.8197C4.28657 17.3746 4.04828 16.9564 3.66456 16.7283C2.07544 15.7834 1.0882 14.0503 1.0882 12.2053V6.34807C1.0882 3.44776 3.44776 1.0882 6.34807 1.0882H21.0849C21.7646 1.0882 22.4259 1.21578 23.0502 1.46752C23.3289 1.57972 23.6459 1.44496 23.7583 1.16633C23.8706 0.887625 23.7358 0.57057 23.4571 0.458221C22.7029 0.154116 21.9047 0 21.0849 0H6.34807C2.84773 0 0 2.84773 0 6.34807V12.2053C0 14.4322 1.19109 16.5237 3.10843 17.6636C3.16393 17.6967 3.19837 17.7564 3.19837 17.8197V20.9876C3.19837 21.3851 3.43566 21.7402 3.80295 21.8924C4.04807 22.0103 4.54856 21.9933 4.87031 21.6802L7.94395 18.6065C7.97824 18.5722 8.02378 18.5533 8.07223 18.5533H8.9245V21.3756C8.9245 22.2324 9.09242 23.0638 9.42356 23.8468C9.5406 24.1235 9.85987 24.2528 10.1366 24.1359C10.4134 24.0189 10.5429 23.6996 10.4259 23.4229C10.1518 22.7748 10.0128 22.086 10.0128 21.3757V15.5185C10.0128 12.6182 12.3723 10.2586 15.2726 10.2586H30.0819C32.9822 10.2586 35.3418 12.6182 35.3418 15.5185V21.3757C35.3418 23.2279 34.3947 24.9091 32.8082 25.8729C32.4343 26.1001 32.202 26.5147 32.202 26.9549V30.5036L28.7057 27.0073C28.4659 26.7675 28.1471 26.6355 27.808 26.6355H15.2726C13.9526 26.6355 12.6904 26.1445 11.7184 25.2531C11.497 25.0501 11.1528 25.0649 10.9496 25.2863C10.7465 25.5078 10.7614 25.852 10.9829 26.0551C12.1561 27.1312 13.6795 27.7237 15.2725 27.7237H27.8078C27.8556 27.7237 27.9023 27.7431 27.936 27.7769L31.6181 31.4589C31.9024 31.6774 32.1804 31.8464 32.6854 31.6712C33.0527 31.519 33.29 31.1639 33.29 30.7663V26.9548C33.29 26.8922 33.3218 26.834 33.3731 26.8029C35.2873 25.64 36.43 23.6112 36.43 21.3756V15.5185C36.43 12.0181 33.5823 9.17033 30.0819 9.17033Z" fill="white"/>
<path d="M21.1414 22.1464C20.8223 21.6956 20.2411 21.3933 19.5781 21.3933C18.573 21.3933 17.7553 22.0881 17.7553 22.9421C17.7553 23.7961 18.573 24.4909 19.5781 24.4909C20.4601 24.4909 21.1976 23.9559 21.3652 23.2478C22.1678 22.9098 22.7996 22.2362 23.0739 21.384C23.8685 21.203 24.4635 20.4912 24.4635 19.6425V17.6805C24.4635 16.8612 23.909 16.1694 23.1556 15.9597C22.9783 14.8669 22.4412 13.8641 21.6179 13.1063C20.6993 12.2606 19.5054 11.7949 18.2561 11.7949C15.7977 11.7949 13.7414 13.5657 13.356 15.9598C12.6029 16.1697 12.0486 16.8613 12.0486 17.6804V19.6425C12.0486 20.6275 12.85 21.4289 13.835 21.4289C14.82 21.4289 15.6214 20.6275 15.6214 19.6425V17.6804C15.6214 16.9123 15.1341 16.256 14.4525 16.0041C14.8052 14.2014 16.3811 12.8831 18.2561 12.8831C20.1073 12.8831 21.703 14.2245 22.0582 16.0047C21.3773 16.2569 20.8907 16.9128 20.8907 17.6804V19.6425C20.8907 20.3685 21.3263 20.9943 21.9497 21.2735C21.7767 21.6452 21.4922 21.9488 21.1414 22.1464ZM19.5781 23.4028C19.1452 23.4028 18.8435 23.1601 18.8435 22.9422C18.8435 22.7243 19.1452 22.4816 19.5781 22.4816C20.0111 22.4816 20.3129 22.7243 20.3129 22.9422C20.3129 23.1601 20.011 23.4028 19.5781 23.4028ZM14.5332 19.6426C14.5332 20.0276 14.22 20.3408 13.835 20.3408C13.45 20.3408 13.1368 20.0276 13.1368 19.6426V17.6806C13.1368 17.2956 13.45 16.9824 13.835 16.9824C14.22 16.9824 14.5332 17.2956 14.5332 17.6806V19.6426ZM21.9789 17.6806C21.9789 17.2956 22.2921 16.9824 22.6771 16.9824C23.0621 16.9824 23.3753 17.2956 23.3753 17.6806V19.6426C23.3753 20.0276 23.0621 20.3408 22.6771 20.3408C22.2921 20.3408 21.9789 20.0276 21.9789 19.6426V17.6806Z" fill="white"/>
<path d="M25.8776 14.8792H30.2116C30.512 14.8792 30.7557 14.6357 30.7557 14.3351C30.7557 14.0346 30.512 13.791 30.2116 13.791H25.8776C25.5771 13.791 25.3335 14.0346 25.3335 14.3351C25.3335 14.6357 25.5771 14.8792 25.8776 14.8792Z" fill="white"/>
<path d="M25.8776 17.3148H29.2194C29.5199 17.3148 29.7635 17.0712 29.7635 16.7707C29.7635 16.4701 29.5199 16.2266 29.2194 16.2266H25.8776C25.5771 16.2266 25.3335 16.4701 25.3335 16.7707C25.3335 17.0712 25.5771 17.3148 25.8776 17.3148Z" fill="white"/>
<path d="M5.35344 7.92808C5.80146 7.92808 6.16465 7.56489 6.16465 7.11687C6.16465 6.66885 5.80146 6.30566 5.35344 6.30566C4.90543 6.30566 4.54224 6.66885 4.54224 7.11687C4.54224 7.56489 4.90543 7.92808 5.35344 7.92808Z" fill="white"/>
<path d="M7.80999 7.92808C8.25801 7.92808 8.6212 7.56489 8.6212 7.11687C8.6212 6.66885 8.25801 6.30566 7.80999 6.30566C7.36197 6.30566 6.99878 6.66885 6.99878 7.11687C6.99878 7.56489 7.36197 7.92808 7.80999 7.92808Z" fill="white"/>
<path d="M10.2519 7.92808C10.6999 7.92808 11.0631 7.56489 11.0631 7.11687C11.0631 6.66885 10.6999 6.30566 10.2519 6.30566C9.80386 6.30566 9.44067 6.66885 9.44067 7.11687C9.44067 7.56489 9.80386 7.92808 10.2519 7.92808Z" fill="white"/>
</svg>
