<svg width="39" height="35" viewBox="0 0 39 35" fill="none" xmlns="http://www.w3.org/2000/svg">
<path d="M31.6728 0.782239C31.7265 0.485717 31.5739 0.190092 31.3009 0.0624663C31.0278 -0.0651593 30.7031 0.00726242 30.5102 0.23876L26.1185 5.5088L23.7852 1.80291C23.6327 1.56073 23.3421 1.44362 23.0643 1.51236C22.7865 1.5811 22.5841 1.8202 22.5621 2.10554L22.0645 8.57473C22.0364 8.94009 22.3098 9.25907 22.6751 9.28717C23.0405 9.31527 23.3595 9.04187 23.3876 8.67651L23.7313 4.20799L25.4821 6.98862C25.5952 7.16836 25.7876 7.28305 25.9995 7.29715C26.2115 7.31125 26.4173 7.22303 26.5533 7.05988L29.9163 3.0243L29.0401 7.84341C28.9984 8.07239 29.0798 8.30641 29.2544 8.46014C29.4291 8.61391 29.6716 8.66494 29.8934 8.5946L34.282 7.2031L31.3642 10.3293C31.2216 10.4823 31.1592 10.6936 31.1964 10.8996C31.2332 11.1055 31.3652 11.2819 31.5527 11.3755L34.3722 12.7852L30.4132 13.4451C30.0517 13.5053 29.8075 13.8472 29.8678 14.2086C29.928 14.5701 30.2699 14.8143 30.6313 14.754L36.603 13.7588C36.8863 13.7115 37.1072 13.4872 37.15 13.203C37.1928 12.9188 37.0475 12.6394 36.7904 12.5109L32.9401 10.5857L36.9788 6.25843C37.1845 6.03795 37.2157 5.70636 37.0548 5.45134C36.8936 5.19632 36.5807 5.08206 36.2934 5.17326L30.5428 6.99658L31.6728 0.782239Z" fill="white"/>
<path d="M8.04227 10.5486C8.18134 10.4781 8.32556 10.4502 8.45829 10.4502H21.7313C21.864 10.4502 22.0082 10.4781 22.1473 10.5486C22.884 10.9221 24.0757 11.9513 24.6623 13.7253C24.7773 14.0732 24.5885 14.4486 24.2406 14.5636C23.8927 14.6786 23.5173 14.4898 23.4023 14.1419C22.9602 12.8048 22.1002 12.0492 21.63 11.7772H8.55954C7.98458 12.1095 6.84315 13.1539 6.56812 15.0839C6.5451 15.2453 6.46578 15.3849 6.35282 15.4855C6.94579 16.0902 7.64888 16.3457 8.02824 16.4035H13.5051C13.8715 16.4035 14.1686 16.7005 14.1686 17.067C14.1686 17.4334 13.8715 17.7305 13.5051 17.7305H7.94132L7.90021 17.7254C7.04956 17.6187 5.35218 16.9449 4.49858 15.1H2.0445C1.64981 15.1 1.32701 15.4212 1.32701 15.821V15.8792C1.32701 16.2364 1.58674 16.538 1.93565 16.5918L3.91154 16.8966C4.6053 17.0036 4.93848 17.8036 4.53355 18.372L3.82502 19.3664C3.63751 19.6296 3.53659 19.9452 3.53659 20.2689V23.5741C3.53659 24.4326 4.23036 25.1257 5.08266 25.1257H9.85577C10.2222 25.1257 10.5193 25.4228 10.5193 25.7892C10.5193 26.1557 10.2222 26.4527 9.85577 26.4527H5.08266C4.78462 26.4527 4.49725 26.4073 4.22707 26.323V27.5891C4.22707 27.8359 4.42622 28.0331 4.66837 28.0331H8.25891C8.50105 28.0331 8.7002 27.8171 8.7002 27.4506C8.7002 27.0842 8.99726 26.7871 9.36371 26.7871C9.73017 26.7871 10.0272 27.0842 10.0272 27.4506C10.0272 28.5675 9.23711 29.3601 8.25891 29.3601H4.66837C3.69016 29.3601 2.90006 28.5656 2.90006 27.5891L2.90301 25.4496C2.47067 24.9456 2.20958 24.2901 2.20958 23.5741V20.2689C2.20958 19.6694 2.39642 19.0846 2.74427 18.5964L3.08906 18.1124L1.73335 17.9033C0.734887 17.7493 0 16.8887 0 15.8792V15.821C0 14.6915 0.913769 13.773 2.0445 13.773H4.74915C5.01781 13.773 5.25594 13.8852 5.42626 14.0606C5.96586 12.0773 7.26501 10.9427 8.04227 10.5486Z" fill="white"/>
<path d="M4.5015 19.0653C4.7742 18.8205 5.19371 18.8431 5.43851 19.1158L6.48366 20.28H7.56704C7.93349 20.28 8.23054 20.5771 8.23054 20.9435C8.23054 21.3099 7.93349 21.607 7.56704 21.607H6.31065C6.04366 21.607 5.78963 21.4934 5.61162 21.2951L4.45101 20.0023C4.20624 19.7296 4.22883 19.3101 4.5015 19.0653Z" fill="white"/>
<path d="M13.1265 24.7049C13.3992 24.4601 13.8187 24.4827 14.0635 24.7554L15.1087 25.9196H17.8508C18.2173 25.9196 18.5143 26.2167 18.5143 26.5831C18.5143 26.9496 18.2173 27.2466 17.8508 27.2466H14.9357C14.6687 27.2466 14.4146 27.133 14.2366 26.9347L13.076 25.6419C12.8312 25.3692 12.8538 24.9497 13.1265 24.7049Z" fill="white"/>
<path d="M34.3137 24.7049C34.5864 24.9497 34.6089 25.3692 34.3641 25.6419L33.2036 26.9347C33.0255 27.133 32.7713 27.2466 32.5046 27.2466H29.5893C29.2228 27.2466 28.9258 26.9496 28.9258 26.5831C28.9258 26.2167 29.2228 25.9196 29.5893 25.9196H32.3314L33.3765 24.7554C33.6213 24.4827 34.041 24.4601 34.3137 24.7049Z" fill="white"/>
<path d="M17.4648 29.0756C17.4648 28.7092 17.7619 28.4121 18.1284 28.4121H29.3143C29.6807 28.4121 29.9778 28.7092 29.9778 29.0756C29.9778 29.4419 29.6807 29.7392 29.3143 29.7392H18.1284C17.7619 29.7392 17.4648 29.4419 17.4648 29.0756Z" fill="white"/>
<path fill-rule="evenodd" clip-rule="evenodd" d="M16.6673 16.1882C16.8063 16.1177 16.9506 16.0898 17.0833 16.0898H30.3563C30.489 16.0898 30.6332 16.1177 30.7723 16.1882C31.5495 16.5824 32.8486 17.717 33.3884 19.7003C33.5586 19.5249 33.7968 19.4126 34.0655 19.4126H36.77C37.9009 19.4126 38.8146 20.3311 38.8146 21.4606V21.5189C38.8146 22.5284 38.0797 23.389 37.0812 23.543L35.7256 23.7521L36.0703 24.2361C36.418 24.7242 36.6051 25.309 36.6051 25.9086V29.2137C36.6051 29.9296 36.344 30.5851 35.9117 31.0891L35.9144 33.2289C35.9144 34.2052 35.1245 34.9998 34.1461 34.9998H30.5557C29.5775 34.9998 28.7874 34.1704 28.7874 33.0902C28.7874 32.7239 29.0844 32.4267 29.4509 32.4267C29.8173 32.4267 30.1144 32.7239 30.1144 33.0902C30.1144 33.4568 30.3135 33.6728 30.5557 33.6728H34.1461C34.3883 33.6728 34.5874 33.4757 34.5874 33.2289V31.9626C34.3173 32.0468 34.03 32.0923 33.7318 32.0923H13.7077C13.4096 32.0923 13.1223 32.0468 12.8521 31.9626V33.2289C12.8521 33.4757 13.0512 33.6728 13.2934 33.6728H16.8839C17.1261 33.6728 17.3252 33.4568 17.3252 33.0902C17.3252 32.7239 17.6223 32.4267 17.9887 32.4267C18.3552 32.4267 18.6522 32.7239 18.6522 33.0902C18.6522 34.3363 17.8621 34.9998 16.8839 34.9998H13.2934C12.3152 34.9998 11.5251 34.2052 11.5251 33.2289L11.528 31.0891C11.0957 30.5851 10.8346 29.9296 10.8346 29.2137V25.9086C10.8346 25.309 11.0214 24.7242 11.3693 24.2361L11.7141 23.7521L10.3583 23.543C9.3599 23.389 8.625 22.5284 8.625 21.5189V21.4606C8.625 20.3311 9.53878 19.4126 10.6695 19.4126H13.3742C13.6428 19.4126 13.8809 19.5249 14.0513 19.7003C14.5909 17.717 15.89 16.5824 16.6673 16.1882ZM14.9778 21.1252C15.5708 21.7299 16.2739 21.9853 16.6532 22.0431H30.7863C31.1657 21.9853 31.8687 21.7299 32.4618 21.1252C32.3487 21.0245 32.2694 20.885 32.2465 20.7235C31.9715 18.7935 30.83 17.7491 30.255 17.4169H17.1845C16.6096 17.7491 15.4681 18.7935 15.1931 20.7235C15.1701 20.885 15.0908 21.0245 14.9778 21.1252ZM10.6695 20.7396C10.2748 20.7396 9.95201 21.0608 9.95201 21.4606V21.5189C9.95201 21.8761 10.2117 22.1777 10.5606 22.2315L12.5365 22.5362C13.2303 22.6432 13.5635 23.4433 13.1585 24.0116L12.45 25.0061C12.2625 25.2692 12.1616 25.5848 12.1616 25.9086V29.2137C12.1616 30.0722 12.8554 30.7653 13.7077 30.7653H33.7318C34.5841 30.7653 35.2781 30.0722 35.2781 29.2137V25.9086C35.2781 25.5848 35.1769 25.2692 34.9895 25.0061L34.2812 24.0116C33.8761 23.4433 34.2092 22.6432 34.9029 22.5362L36.8788 22.2315C37.2278 22.1777 37.4876 21.8761 37.4876 21.5189V21.4606C37.4876 21.0608 37.1648 20.7396 36.77 20.7396H34.316C33.4624 22.5845 31.7651 23.2584 30.9142 23.365L30.8734 23.3701H16.5663L16.5252 23.365C15.6746 23.2584 13.9772 22.5845 13.1236 20.7396H10.6695Z" fill="white"/>
</svg>
