<svg width="19" height="19" viewBox="0 0 19 19" fill="none" xmlns="http://www.w3.org/2000/svg">
<path fill-rule="evenodd" clip-rule="evenodd" d="M9.50401 0C14.5773 0 18.6916 4.11432 18.6916 9.1876C18.6916 14.2609 14.5773 18.3752 9.50401 18.3752C4.43073 18.3752 0.316406 14.2609 0.316406 9.1876C0.316406 4.11432 4.43073 0 9.50401 0ZM7.59609 12.1718L5.34674 9.92059C4.96353 9.53715 4.96345 8.91187 5.34674 8.52851C5.73011 8.14522 6.35817 8.14762 6.73875 8.52851L8.32453 10.1155L12.2694 6.17065C12.6528 5.78728 13.2781 5.78728 13.6614 6.17065C14.0448 6.55394 14.0442 7.17983 13.6614 7.56266L9.01941 12.2047C8.63659 12.5875 8.01069 12.588 7.6274 12.2047C7.61663 12.1939 7.60624 12.183 7.59609 12.1718Z" fill="#B68C5A"/>
</svg>
