<svg width="175" height="39" viewBox="0 0 175 39" fill="none" xmlns="http://www.w3.org/2000/svg">
<path fill-rule="evenodd" clip-rule="evenodd" d="M0 19.25C12.1145 19.25 19.0594 12.2356 19.0594 0C19.0594 12.2356 26.0043 19.25 38.1188 19.25C26.0043 19.25 19.0594 26.2643 19.0594 38.5C19.0594 26.2643 12.1145 19.25 0 19.25Z" fill="white"/>
<path d="M45.6472 27.9205L52.3007 9.54547H56.0433L62.6967 27.9205H59.1621L57.7066 23.668H50.6113L49.1299 27.9205H45.6472ZM51.521 21.043H56.797L54.146 13.4042L51.521 21.043Z" fill="white"/>
<path d="M69.3693 28.2355C68.0524 28.2355 66.8916 27.9467 65.8866 27.3692C64.8816 26.7917 64.0846 25.9867 63.4955 24.9542C62.9237 23.9217 62.6378 22.7405 62.6378 21.4105C62.6378 20.0805 62.9237 18.8992 63.4955 17.8667C64.0846 16.8342 64.8816 16.0292 65.8866 15.4517C66.8916 14.8742 68.0524 14.5855 69.3693 14.5855C71.0153 14.5855 72.4015 15.023 73.5277 15.898C74.6539 16.7555 75.373 17.9455 75.6849 19.468H72.1762C72.0029 18.838 71.6564 18.348 71.1366 17.998C70.6341 17.6305 70.0364 17.4467 69.3433 17.4467C68.425 17.4467 67.6453 17.7967 67.0042 18.4967C66.3631 19.1967 66.0425 20.168 66.0425 21.4105C66.0425 22.653 66.3631 23.6242 67.0042 24.3242C67.6453 25.0242 68.425 25.3742 69.3433 25.3742C70.0364 25.3742 70.6341 25.1992 71.1366 24.8492C71.6564 24.4992 72.0029 24.0005 72.1762 23.353H75.6849C75.373 24.823 74.6539 26.0042 73.5277 26.8967C72.4015 27.7892 71.0153 28.2355 69.3693 28.2355Z" fill="white"/>
<path d="M77.3381 27.9205V14.9005H80.275L80.5609 16.6592C80.9767 16.0292 81.5225 15.5305 82.1982 15.163C82.8913 14.778 83.6883 14.5855 84.5893 14.5855C86.5819 14.5855 87.994 15.3642 88.8257 16.9217C89.2935 16.2042 89.9173 15.6355 90.697 15.2155C91.494 14.7955 92.3604 14.5855 93.296 14.5855C94.9767 14.5855 96.2675 15.093 97.1685 16.108C98.0695 17.123 98.52 18.6105 98.52 20.5705V27.9205H95.1933V20.8855C95.1933 19.7655 94.9767 18.908 94.5435 18.313C94.1277 17.718 93.4779 17.4205 92.5943 17.4205C91.6933 17.4205 90.9656 17.753 90.4111 18.418C89.874 19.083 89.6054 20.0105 89.6054 21.2005V27.9205H86.2787V20.8855C86.2787 19.7655 86.0621 18.908 85.6289 18.313C85.1958 17.718 84.5287 17.4205 83.6277 17.4205C82.744 17.4205 82.025 17.753 81.4705 18.418C80.9334 19.083 80.6648 20.0105 80.6648 21.2005V27.9205H77.3381Z" fill="white"/>
<path d="M106.643 28.2355C105.343 28.2355 104.191 27.9555 103.186 27.3955C102.181 26.8355 101.393 26.048 100.821 25.033C100.249 24.018 99.9631 22.8455 99.9631 21.5155C99.9631 20.168 100.24 18.9692 100.795 17.9192C101.367 16.8692 102.146 16.0555 103.134 15.478C104.139 14.883 105.317 14.5855 106.669 14.5855C107.933 14.5855 109.051 14.8655 110.021 15.4255C110.992 15.9855 111.745 16.7555 112.282 17.7355C112.837 18.698 113.114 19.7742 113.114 20.9642C113.114 21.1567 113.105 21.358 113.088 21.568C113.088 21.778 113.079 21.9967 113.062 22.2242H103.264C103.333 23.2392 103.68 24.0355 104.303 24.613C104.945 25.1905 105.716 25.4792 106.617 25.4792C107.292 25.4792 107.855 25.3305 108.306 25.033C108.774 24.718 109.12 24.3155 109.345 23.8255H112.724C112.482 24.648 112.074 25.4005 111.503 26.083C110.948 26.748 110.255 27.273 109.423 27.658C108.609 28.043 107.682 28.2355 106.643 28.2355ZM106.669 17.3155C105.854 17.3155 105.135 17.5517 104.511 18.0242C103.888 18.4792 103.489 19.1792 103.316 20.1242H109.735C109.683 19.2667 109.371 18.5842 108.8 18.0767C108.228 17.5692 107.518 17.3155 106.669 17.3155Z" fill="white"/>
<path d="M127.823 28.2355C125.986 28.2355 124.409 27.8417 123.093 27.0542C121.776 26.2492 120.762 25.138 120.052 23.7205C119.341 22.2855 118.986 20.6317 118.986 18.7592C118.986 16.8867 119.341 15.233 120.052 13.798C120.762 12.363 121.776 11.243 123.093 10.438C124.409 9.63297 125.986 9.23047 127.823 9.23047C130.006 9.23047 131.791 9.78172 133.177 10.8842C134.58 11.9692 135.455 13.5005 135.802 15.478H132.137C131.912 14.4805 131.427 13.7017 130.682 13.1417C129.954 12.5642 128.984 12.2755 127.771 12.2755C126.09 12.2755 124.773 12.853 123.82 14.008C122.867 15.163 122.391 16.7467 122.391 18.7592C122.391 20.7717 122.867 22.3555 123.82 23.5105C124.773 24.648 126.09 25.2167 127.771 25.2167C128.984 25.2167 129.954 24.9542 130.682 24.4292C131.427 23.8867 131.912 23.143 132.137 22.198H135.802C135.455 24.088 134.58 25.5667 133.177 26.6342C131.791 27.7017 130.006 28.2355 127.823 28.2355Z" fill="white"/>
<path d="M143.555 28.2355C142.307 28.2355 141.181 27.9467 140.176 27.3692C139.188 26.7917 138.4 25.9955 137.811 24.9805C137.239 23.948 136.953 22.758 136.953 21.4105C136.953 20.063 137.248 18.8817 137.837 17.8667C138.426 16.8342 139.214 16.0292 140.202 15.4517C141.207 14.8742 142.333 14.5855 143.581 14.5855C144.811 14.5855 145.92 14.8742 146.907 15.4517C147.912 16.0292 148.701 16.8342 149.273 17.8667C149.862 18.8817 150.156 20.063 150.156 21.4105C150.156 22.758 149.862 23.948 149.273 24.9805C148.701 25.9955 147.912 26.7917 146.907 27.3692C145.903 27.9467 144.785 28.2355 143.555 28.2355ZM143.555 25.3217C144.421 25.3217 145.175 24.998 145.816 24.3505C146.457 23.6855 146.778 22.7055 146.778 21.4105C146.778 20.1155 146.457 19.1442 145.816 18.4967C145.175 17.8317 144.43 17.4992 143.581 17.4992C142.697 17.4992 141.935 17.8317 141.294 18.4967C140.67 19.1442 140.358 20.1155 140.358 21.4105C140.358 22.7055 140.67 23.6855 141.294 24.3505C141.935 24.998 142.688 25.3217 143.555 25.3217Z" fill="white"/>
<path d="M151.831 27.9205V14.9005H154.794L155.106 17.3417C155.574 16.5017 156.206 15.8367 157.003 15.3467C157.818 14.8392 158.771 14.5855 159.862 14.5855V18.1292H158.926C158.199 18.1292 157.549 18.243 156.977 18.4705C156.405 18.698 155.955 19.0917 155.626 19.6517C155.314 20.2117 155.158 20.9905 155.158 21.988V27.9205H151.831Z" fill="white"/>
<path d="M160.836 33.6955V14.9005H163.799L164.163 16.7642C164.579 16.1867 165.125 15.6792 165.8 15.2417C166.494 14.8042 167.386 14.5855 168.477 14.5855C169.69 14.5855 170.773 14.883 171.726 15.478C172.679 16.073 173.433 16.8867 173.987 17.9192C174.542 18.9517 174.819 20.1242 174.819 21.4367C174.819 22.7492 174.542 23.9217 173.987 24.9542C173.433 25.9692 172.679 26.7742 171.726 27.3692C170.773 27.9467 169.69 28.2355 168.477 28.2355C167.507 28.2355 166.658 28.0517 165.93 27.6842C165.203 27.3167 164.614 26.8005 164.163 26.1355V33.6955H160.836ZM167.776 25.2955C168.833 25.2955 169.708 24.9367 170.401 24.2192C171.094 23.5017 171.44 22.5742 171.44 21.4367C171.44 20.2992 171.094 19.363 170.401 18.628C169.708 17.893 168.833 17.5255 167.776 17.5255C166.701 17.5255 165.818 17.893 165.125 18.628C164.449 19.3455 164.111 20.273 164.111 21.4105C164.111 22.548 164.449 23.4842 165.125 24.2192C165.818 24.9367 166.701 25.2955 167.776 25.2955Z" fill="white"/>
</svg>
