<svg width="173" height="39" viewBox="0 0 173 39" fill="none" xmlns="http://www.w3.org/2000/svg">
<path d="M26.7138 0H11.9142L0 11.9142V26.7138L11.9142 38.628H26.7138L38.628 26.7138V11.9142L26.7138 0ZM13.9619 26.9L6.32942 19.2674L13.9619 11.6349C16.8474 8.74947 21.5944 8.74947 24.4799 11.6349L32.1124 19.2674L24.4799 26.9C21.5944 29.7854 16.9405 29.7854 13.9619 26.9Z" fill="white"/>
<path d="M55.6066 28.3038C57.977 28.3038 59.926 27.0923 60.5317 25.275V28.0931H64.0346V20.982C64.0346 19.3755 62.7704 18.0059 61.0585 18.0059H56.0544V20.982H59.6099C60.0576 20.982 60.3474 21.2718 60.3474 21.7195C60.3474 23.4314 58.0823 25.0907 55.791 25.0907C52.7359 25.0907 50.3129 22.694 50.3129 18.8751C50.3129 15.0562 52.7359 12.8438 55.87 12.8438C58.2404 12.8438 59.8733 14.1344 60.163 16.1097H64.0872C63.8502 12.1591 60.5317 9.44633 55.8964 9.44633C51.024 9.44633 46.5466 12.5805 46.5466 18.8751C46.5466 25.1697 50.8923 28.3038 55.6066 28.3038Z" fill="white"/>
<path d="M65.5383 28.0931H69.1991V9.05127H65.5383V28.0931Z" fill="white"/>
<path d="M77.096 28.3038C81.1783 28.3038 84.1017 25.4067 84.1017 21.4561C84.1017 17.5055 81.1783 14.6084 77.096 14.6084C73.0137 14.6084 70.0903 17.5055 70.0903 21.4561C70.0903 25.4067 73.0137 28.3038 77.096 28.3038ZM77.096 25.1433C75.1207 25.1433 73.7775 23.6421 73.7775 21.4561C73.7775 19.2438 75.1207 17.7426 77.096 17.7426C79.0713 17.7426 80.4145 19.2438 80.4145 21.4561C80.4145 23.6421 79.0713 25.1433 77.096 25.1433Z" fill="white"/>
<path d="M92.2934 28.3038C96.2177 28.3038 98.5617 25.5911 98.5617 21.4561C98.5617 17.3212 96.2177 14.6084 92.3461 14.6084C90.6868 14.6084 89.3963 15.2405 88.6589 16.215V9.05127H84.998V28.0931H88.6589V26.6446C89.3963 27.6717 90.7659 28.3038 92.2934 28.3038ZM91.714 25.1433C89.7387 25.1433 88.4482 23.6684 88.4482 21.4561C88.4482 19.2175 89.7387 17.7426 91.714 17.7426C93.6366 17.7426 94.9535 19.2175 94.9535 21.4561C94.9535 23.6684 93.6366 25.1433 91.714 25.1433Z" fill="white"/>
<path d="M104.69 14.6084C101.055 14.6084 98.8956 16.7417 98.7376 19.4018H102.003C102.056 18.2956 102.873 17.2948 104.479 17.2948C105.98 17.2948 106.849 18.0586 106.849 19.1648C106.849 19.7179 106.507 20.1393 105.849 20.1393H103.61C100.713 20.1393 98.7639 21.7195 98.7639 24.3269C98.7639 26.5919 100.529 28.3038 103.11 28.3038C104.927 28.3038 106.402 27.4873 106.849 26.2495V28.0931H110.484V19.5598C110.484 16.5574 108.035 14.6084 104.69 14.6084ZM104.031 25.6437C103.004 25.6437 102.267 25.038 102.267 24.1689C102.267 23.1417 103.057 22.4569 104.163 22.4569H106.849V22.6413C106.849 24.3269 105.822 25.6437 104.031 25.6437Z" fill="white"/>
<path d="M111.891 28.0931H115.552V9.05127H111.891V28.0931Z" fill="white"/>
<path d="M117.496 28.0931H125.029C128.927 28.0931 131.613 26.0915 131.613 22.5886C131.613 20.1656 130.191 18.6907 128.505 18.0323C129.585 17.4529 130.665 16.136 130.665 14.3977C130.665 11.3163 128.163 9.65703 124.818 9.65703H117.496V28.0931ZM121.394 16.6891V12.7912H124.449C126.214 12.7912 127.004 13.5023 127.004 14.7401C127.004 15.978 126.214 16.6891 124.528 16.6891H121.394ZM121.394 24.6693V20.0339H124.686C126.872 20.0339 127.847 20.8767 127.847 22.3779C127.847 23.8791 126.872 24.6693 124.686 24.6693H121.394Z" fill="white"/>
<path d="M137.982 14.6084C134.347 14.6084 132.188 16.7417 132.03 19.4018H135.295C135.348 18.2956 136.164 17.2948 137.771 17.2948C139.272 17.2948 140.141 18.0586 140.141 19.1648C140.141 19.7179 139.799 20.1393 139.141 20.1393H136.902C134.005 20.1393 132.056 21.7195 132.056 24.3269C132.056 26.5919 133.82 28.3038 136.402 28.3038C138.219 28.3038 139.694 27.4873 140.141 26.2495V28.0931H143.776V19.5598C143.776 16.5574 141.327 14.6084 137.982 14.6084ZM137.323 25.6437C136.296 25.6437 135.559 25.038 135.559 24.1689C135.559 23.1417 136.349 22.4569 137.455 22.4569H140.141V22.6413C140.141 24.3269 139.114 25.6437 137.323 25.6437Z" fill="white"/>
<path d="M144.972 28.0931H148.659V20.824C148.659 19.1121 149.792 17.8743 151.398 17.8743C152.926 17.8743 153.953 19.0331 153.953 20.6397V28.0931H157.64V19.8232C157.64 16.7681 155.691 14.6084 152.689 14.6084C150.872 14.6084 149.397 15.3722 148.659 16.6627V14.8191H144.972V28.0931Z" fill="white"/>
<path d="M168.149 28.0931H172.574L166.858 20.0339L172.152 14.8191H167.517L162.908 19.3491V9.05127H159.221V28.0931H162.908V23.9318L164.383 22.4833L168.149 28.0931Z" fill="white"/>
</svg>
