<svg width="167" height="42" viewBox="0 0 167 42" fill="none" xmlns="http://www.w3.org/2000/svg">
<path fill-rule="evenodd" clip-rule="evenodd" d="M19.7655 0.0779027C19.2605 -0.0259676 18.7396 -0.0259676 18.2345 0.0779028C17.6507 0.197972 17.1289 0.490232 16.7141 0.722583L16.601 0.785748L2.54153 8.59657C2.50266 8.61817 2.46261 8.64023 2.42157 8.66283C1.98243 8.90471 1.43029 9.20883 1.00627 9.66895C0.639674 10.0668 0.362246 10.5383 0.192535 11.0519C-0.00375985 11.646 -0.00146325 12.2764 0.000363158 12.7777C0.000533889 12.8246 0.000700421 12.8703 0.000700421 12.9148V28.3367C0.000700421 28.3812 0.000533889 28.4269 0.000363158 28.4737C-0.00146325 28.9751 -0.00375985 29.6054 0.192536 30.1995C0.362247 30.7132 0.639677 31.1847 1.00627 31.5825C1.43029 32.0426 1.98244 32.3467 2.42157 32.5886C2.46261 32.6112 2.50266 32.6333 2.54153 32.6549L16.601 40.4657L16.7141 40.5289C17.1289 40.7612 17.6507 41.0535 18.2345 41.1735C18.7396 41.2774 19.2605 41.2774 19.7655 41.1735C20.3493 41.0535 20.8711 40.7612 21.2859 40.5289L21.399 40.4657L35.4585 32.6549C35.4757 32.6453 35.4931 32.6357 35.5107 32.6259C35.5329 32.6137 35.5555 32.6012 35.5784 32.5886C36.0176 32.3467 36.5697 32.0426 36.9937 31.5825C37.3603 31.1847 37.6378 30.7132 37.8075 30.1995C38.0038 29.6054 38.0015 28.9751 37.9996 28.4737C37.9995 28.4269 37.9993 28.3811 37.9993 28.3367V12.9147C37.9993 12.8703 37.9995 12.8246 37.9996 12.7777C38.0015 12.2764 38.0038 11.646 37.8075 11.0519C37.6378 10.5383 37.3603 10.0668 36.9937 9.66895C36.5697 9.20882 36.0176 8.9047 35.5784 8.66282L35.5769 8.66197C35.5364 8.63967 35.4968 8.61789 35.4585 8.59657L21.399 0.785747L21.2859 0.722576C20.8711 0.490228 20.3493 0.197971 19.7655 0.0779027ZM18.4464 4.10742C18.7343 3.94747 18.8813 3.86665 18.9909 3.81377L19 3.80942L19.0091 3.81377C19.1187 3.86665 19.2657 3.94747 19.5536 4.10742L32.1871 11.126L18.9999 18.4522L5.81285 11.1261L18.4464 4.10742ZM3.80056 14.355L17.1 21.7436L17.1001 36.396L4.38691 29.3332C4.08301 29.1644 3.92785 29.0773 3.81899 29.0079L3.8098 29.002L3.80911 28.9911C3.80135 28.8623 3.80056 28.6843 3.80056 28.3367V14.355Z" fill="white"/>
<path d="M55.2911 26.9751H61.3391V30.5391H50.6741V11.5851H55.2911V26.9751Z" fill="white"/>
<path d="M65.5933 13.9071C64.7833 13.9071 64.1173 13.6731 63.5953 13.2051C63.0913 12.7191 62.8393 12.1251 62.8393 11.4231C62.8393 10.7031 63.0913 10.1091 63.5953 9.64111C64.1173 9.15511 64.7833 8.91211 65.5933 8.91211C66.3853 8.91211 67.0333 9.15511 67.5373 9.64111C68.0593 10.1091 68.3203 10.7031 68.3203 11.4231C68.3203 12.1251 68.0593 12.7191 67.5373 13.2051C67.0333 13.6731 66.3853 13.9071 65.5933 13.9071ZM67.8883 15.4731V30.5391H63.2713V15.4731H67.8883Z" fill="white"/>
<path d="M76.6882 15.2571C77.7502 15.2571 78.6772 15.4731 79.4692 15.9051C80.2792 16.3371 80.9002 16.9041 81.3321 17.6061V15.4731H85.9492V30.5121C85.9492 31.8981 85.6702 33.1491 85.1122 34.2651C84.5722 35.3991 83.7351 36.2991 82.6012 36.9651C81.4852 37.6311 80.0902 37.9641 78.4162 37.9641C76.1842 37.9641 74.3751 37.4331 72.9891 36.3711C71.6031 35.3271 70.8111 33.9051 70.6131 32.1051H75.1761C75.3201 32.6811 75.6621 33.1311 76.2022 33.4551C76.7422 33.7971 77.4081 33.9681 78.2001 33.9681C79.1542 33.9681 79.9102 33.6891 80.4682 33.1311C81.0442 32.5911 81.3321 31.7181 81.3321 30.5121V28.3791C80.8822 29.0811 80.2612 29.6571 79.4692 30.1071C78.6772 30.5391 77.7502 30.7551 76.6882 30.7551C75.4461 30.7551 74.3211 30.4401 73.3132 29.8101C72.3052 29.1621 71.5042 28.2531 70.9102 27.0831C70.3342 25.8951 70.0462 24.5271 70.0462 22.9791C70.0462 21.4311 70.3342 20.0721 70.9102 18.9021C71.5042 17.7321 72.3052 16.8321 73.3132 16.2021C74.3211 15.5721 75.4461 15.2571 76.6882 15.2571ZM81.3321 23.0061C81.3321 21.8541 81.0082 20.9451 80.3602 20.2791C79.7302 19.6131 78.9562 19.2801 78.0381 19.2801C77.1201 19.2801 76.3371 19.6131 75.6891 20.2791C75.0591 20.9271 74.7442 21.8271 74.7442 22.9791C74.7442 24.1311 75.0591 25.0491 75.6891 25.7331C76.3371 26.3991 77.1201 26.7321 78.0381 26.7321C78.9562 26.7321 79.7302 26.3991 80.3602 25.7331C81.0082 25.0671 81.3321 24.1581 81.3321 23.0061Z" fill="white"/>
<path d="M98.2803 15.3111C100.008 15.3111 101.394 15.8871 102.438 17.0391C103.482 18.1731 104.004 19.7391 104.004 21.7371V30.5391H99.4143V22.3581C99.4143 21.3501 99.1533 20.5671 98.6313 20.0091C98.1093 19.4511 97.4073 19.1721 96.5253 19.1721C95.6433 19.1721 94.9413 19.4511 94.4193 20.0091C93.8973 20.5671 93.6363 21.3501 93.6363 22.3581V30.5391H89.0193V10.5591H93.6363V17.4981C94.1043 16.8321 94.7433 16.3011 95.5533 15.9051C96.3633 15.5091 97.2723 15.3111 98.2803 15.3111Z" fill="white"/>
<path d="M115.34 26.6241V30.5391H112.991C111.317 30.5391 110.012 30.1341 109.076 29.3241C108.14 28.4961 107.672 27.1551 107.672 25.3011V19.3071H105.836V15.4731H107.672V11.8011H112.289V15.4731H115.313V19.3071H112.289V25.3551C112.289 25.8051 112.397 26.1291 112.613 26.3271C112.829 26.5251 113.189 26.6241 113.693 26.6241H115.34Z" fill="white"/>
<path d="M122.258 17.6061C122.69 16.9041 123.311 16.3371 124.121 15.9051C124.931 15.4731 125.858 15.2571 126.902 15.2571C128.144 15.2571 129.269 15.5721 130.277 16.2021C131.285 16.8321 132.077 17.7321 132.653 18.9021C133.247 20.0721 133.544 21.4311 133.544 22.9791C133.544 24.5271 133.247 25.8951 132.653 27.0831C132.077 28.2531 131.285 29.1621 130.277 29.8101C129.269 30.4401 128.144 30.7551 126.902 30.7551C125.84 30.7551 124.913 30.5481 124.121 30.1341C123.329 29.7021 122.708 29.1351 122.258 28.4331V30.5391H117.641V10.5591H122.258V17.6061ZM128.846 22.9791C128.846 21.8271 128.522 20.9271 127.874 20.2791C127.244 19.6131 126.461 19.2801 125.525 19.2801C124.607 19.2801 123.824 19.6131 123.176 20.2791C122.546 20.9451 122.231 21.8541 122.231 23.0061C122.231 24.1581 122.546 25.0671 123.176 25.7331C123.824 26.3991 124.607 26.7321 125.525 26.7321C126.443 26.7321 127.226 26.3991 127.874 25.7331C128.522 25.0491 128.846 24.1311 128.846 22.9791Z" fill="white"/>
<path d="M142.555 30.7551C141.079 30.7551 139.747 30.4401 138.559 29.8101C137.389 29.1801 136.462 28.2801 135.778 27.1101C135.112 25.9401 134.779 24.5721 134.779 23.0061C134.779 21.4581 135.121 20.0991 135.805 18.9291C136.489 17.7411 137.425 16.8321 138.613 16.2021C139.801 15.5721 141.133 15.2571 142.609 15.2571C144.085 15.2571 145.417 15.5721 146.605 16.2021C147.793 16.8321 148.729 17.7411 149.413 18.9291C150.097 20.0991 150.439 21.4581 150.439 23.0061C150.439 24.5541 150.088 25.9221 149.386 27.1101C148.702 28.2801 147.757 29.1801 146.551 29.8101C145.363 30.4401 144.031 30.7551 142.555 30.7551ZM142.555 26.7591C143.437 26.7591 144.184 26.4351 144.796 25.7871C145.426 25.1391 145.741 24.2121 145.741 23.0061C145.741 21.8001 145.435 20.8731 144.823 20.2251C144.229 19.5771 143.491 19.2531 142.609 19.2531C141.709 19.2531 140.962 19.5771 140.368 20.2251C139.774 20.8551 139.477 21.7821 139.477 23.0061C139.477 24.2121 139.765 25.1391 140.341 25.7871C140.935 26.4351 141.673 26.7591 142.555 26.7591Z" fill="white"/>
<path d="M161.528 30.5391L158.639 26.3541L156.209 30.5391H151.214L156.182 22.8441L151.079 15.4731H156.263L159.152 19.6311L161.582 15.4731H166.577L161.528 23.0601L166.712 30.5391H161.528Z" fill="white"/>
</svg>
