<svg width="170" height="44" viewBox="0 0 170 44" fill="none" xmlns="http://www.w3.org/2000/svg">
<path fill-rule="evenodd" clip-rule="evenodd" d="M22 44C34.1503 44 44 34.1503 44 22C44 9.84975 34.1503 0 22 0C9.84971 0 0 9.84975 0 22C0 34.1503 9.84971 44 22 44ZM28.8632 10.2485C29.1973 9.06186 28.0457 8.36015 26.994 9.10944L12.3124 19.5685C11.1718 20.3811 11.3512 22 12.5819 22H16.448V21.9701H23.9828L17.8433 24.1363L15.1368 33.7515C14.8027 34.9382 15.9542 35.6399 17.006 34.8906L31.6876 24.4315C32.8282 23.619 32.6487 22 31.4181 22H25.5553L28.8632 10.2485Z" fill="white"/>
<path d="M55.3799 31.9093V28.4293H58.1399V14.3893H55.3799V10.9093H66.1799C67.4599 10.9093 68.5699 11.1293 69.5099 11.5693C70.4699 11.9893 71.2099 12.5993 71.7299 13.3993C72.2699 14.1793 72.5399 15.1193 72.5399 16.2193V16.5193C72.5399 17.4793 72.3599 18.2693 71.9999 18.8893C71.6399 19.4893 71.2099 19.9593 70.7099 20.2993C70.2299 20.6193 69.7699 20.8493 69.3299 20.9893V21.5293C69.7699 21.6493 70.2499 21.8793 70.7699 22.2193C71.2899 22.5393 71.7299 23.0093 72.0899 23.6293C72.4699 24.2493 72.6599 25.0593 72.6599 26.0593V26.3593C72.6599 27.5193 72.3899 28.5193 71.8499 29.3593C71.3099 30.1793 70.5599 30.8093 69.5999 31.2493C68.6599 31.6893 67.5599 31.9093 66.2999 31.9093H55.3799ZM62.0999 28.3093H65.8199C66.6799 28.3093 67.3699 28.0993 67.8899 27.6793C68.4299 27.2593 68.6999 26.6593 68.6999 25.8793V25.5793C68.6999 24.7993 68.4399 24.1993 67.9199 23.7793C67.3999 23.3593 66.6999 23.1493 65.8199 23.1493H62.0999V28.3093ZM62.0999 19.5493H65.7599C66.5799 19.5493 67.2499 19.3393 67.7699 18.9193C68.3099 18.4993 68.5799 17.9193 68.5799 17.1793V16.8793C68.5799 16.1193 68.3199 15.5393 67.7999 15.1393C67.2799 14.7193 66.5999 14.5093 65.7599 14.5093H62.0999V19.5493Z" fill="white"/>
<path d="M81.6018 32.3293C80.1218 32.3293 78.7918 32.0293 77.6118 31.4293C76.4318 30.8293 75.5018 29.9593 74.8218 28.8193C74.1418 27.6793 73.8018 26.3093 73.8018 24.7093V24.2293C73.8018 22.6293 74.1418 21.2593 74.8218 20.1193C75.5018 18.9793 76.4318 18.1093 77.6118 17.5093C78.7918 16.9093 80.1218 16.6093 81.6018 16.6093C83.0818 16.6093 84.4118 16.9093 85.5918 17.5093C86.7718 18.1093 87.7018 18.9793 88.3818 20.1193C89.0618 21.2593 89.4018 22.6293 89.4018 24.2293V24.7093C89.4018 26.3093 89.0618 27.6793 88.3818 28.8193C87.7018 29.9593 86.7718 30.8293 85.5918 31.4293C84.4118 32.0293 83.0818 32.3293 81.6018 32.3293ZM81.6018 28.9693C82.7618 28.9693 83.7218 28.5993 84.4818 27.8593C85.2418 27.0993 85.6218 26.0193 85.6218 24.6193V24.3193C85.6218 22.9193 85.2418 21.8493 84.4818 21.1093C83.7418 20.3493 82.7818 19.9693 81.6018 19.9693C80.4418 19.9693 79.4818 20.3493 78.7218 21.1093C77.9618 21.8493 77.5818 22.9193 77.5818 24.3193V24.6193C77.5818 26.0193 77.9618 27.0993 78.7218 27.8593C79.4818 28.5993 80.4418 28.9693 81.6018 28.9693Z" fill="white"/>
<path d="M91.3909 31.9093V10.9093H95.1709V31.9093H91.3909Z" fill="white"/>
<path d="M103.56 31.9093C102.58 31.9093 101.78 31.6093 101.16 31.0093C100.56 30.3893 100.26 29.5693 100.26 28.5493V20.1493H96.5396V17.0293H100.26V12.4093H104.04V17.0293H108.12V20.1493H104.04V27.8893C104.04 28.4893 104.32 28.7893 104.88 28.7893H107.76V31.9093H103.56Z" fill="white"/>
<path d="M116.221 32.3293C114.281 32.3293 112.691 31.9093 111.451 31.0693C110.211 30.2293 109.461 29.0293 109.201 27.4693L112.681 26.5693C112.821 27.2693 113.051 27.8193 113.371 28.2193C113.711 28.6193 114.121 28.9093 114.601 29.0893C115.101 29.2493 115.641 29.3293 116.221 29.3293C117.101 29.3293 117.751 29.1793 118.171 28.8793C118.591 28.5593 118.801 28.1693 118.801 27.7093C118.801 27.2493 118.601 26.8993 118.201 26.6593C117.801 26.3993 117.161 26.1893 116.281 26.0293L115.441 25.8793C114.401 25.6793 113.451 25.4093 112.591 25.0693C111.731 24.7093 111.041 24.2193 110.521 23.5993C110.001 22.9793 109.741 22.1793 109.741 21.1993C109.741 19.7193 110.281 18.5893 111.361 17.8093C112.441 17.0093 113.861 16.6093 115.621 16.6093C117.281 16.6093 118.661 16.9793 119.761 17.7193C120.861 18.4593 121.581 19.4293 121.921 20.6293L118.411 21.7093C118.251 20.9493 117.921 20.4093 117.421 20.0893C116.941 19.7693 116.341 19.6093 115.621 19.6093C114.901 19.6093 114.351 19.7393 113.971 19.9993C113.591 20.2393 113.401 20.5793 113.401 21.0193C113.401 21.4993 113.601 21.8593 114.001 22.0993C114.401 22.3193 114.941 22.4893 115.621 22.6093L116.461 22.7593C117.581 22.9593 118.591 23.2293 119.491 23.5693C120.411 23.8893 121.131 24.3593 121.651 24.9793C122.191 25.5793 122.461 26.3993 122.461 27.4393C122.461 28.9993 121.891 30.2093 120.751 31.0693C119.631 31.9093 118.121 32.3293 116.221 32.3293Z" fill="white"/>
<path d="M124.274 31.9093V10.9093H128.054V18.8593H128.594C128.754 18.5393 129.004 18.2193 129.344 17.8993C129.684 17.5793 130.134 17.3193 130.694 17.1193C131.274 16.8993 132.004 16.7893 132.884 16.7893C134.044 16.7893 135.054 17.0593 135.914 17.5993C136.794 18.1193 137.474 18.8493 137.954 19.7893C138.434 20.7093 138.674 21.7893 138.674 23.0293V31.9093H134.894V23.3293C134.894 22.2093 134.614 21.3693 134.054 20.8093C133.514 20.2493 132.734 19.9693 131.714 19.9693C130.554 19.9693 129.654 20.3593 129.014 21.1393C128.374 21.8993 128.054 22.9693 128.054 24.3493V31.9093H124.274Z" fill="white"/>
<path d="M141.26 31.9093V17.0293H145.04V31.9093H141.26ZM143.15 15.2893C142.47 15.2893 141.89 15.0693 141.41 14.6293C140.95 14.1893 140.72 13.6093 140.72 12.8893C140.72 12.1693 140.95 11.5893 141.41 11.1493C141.89 10.7093 142.47 10.4893 143.15 10.4893C143.85 10.4893 144.43 10.7093 144.89 11.1493C145.35 11.5893 145.58 12.1693 145.58 12.8893C145.58 13.6093 145.35 14.1893 144.89 14.6293C144.43 15.0693 143.85 15.2893 143.15 15.2893Z" fill="white"/>
<path d="M150.189 31.9093V20.1493H146.409V17.0293H150.189V14.2693C150.189 13.2493 150.489 12.4393 151.089 11.8393C151.709 11.2193 152.509 10.9093 153.489 10.9093H157.389V14.0293H154.809C154.249 14.0293 153.969 14.3293 153.969 14.9293V17.0293H157.869V20.1493H153.969V31.9093H150.189Z" fill="white"/>
<path d="M164.702 31.9093C163.722 31.9093 162.922 31.6093 162.302 31.0093C161.702 30.3893 161.402 29.5693 161.402 28.5493V20.1493H157.682V17.0293H161.402V12.4093H165.182V17.0293H169.262V20.1493H165.182V27.8893C165.182 28.4893 165.462 28.7893 166.022 28.7893H168.902V31.9093H164.702Z" fill="white"/>
</svg>
