<svg width="169" height="50" viewBox="0 0 169 50" fill="none" xmlns="http://www.w3.org/2000/svg">
<circle cx="24.749" cy="24.7485" r="20.5" stroke="white" stroke-width="3"/>
<path d="M32.8806 32.8805C28.7412 37.0199 24.0516 39.7221 19.8753 40.796C15.6612 41.8796 12.2646 41.2558 10.2531 39.2444C8.24174 37.233 7.61795 33.8364 8.70157 29.6223C9.7755 25.4459 12.4777 20.7564 16.6171 16.617C20.7565 12.4776 25.446 9.7754 29.6224 8.70148C33.8365 7.61785 37.2331 8.24164 39.2445 10.253C41.2559 12.2645 41.8797 15.6611 40.7961 19.8752C39.7222 24.0515 37.02 28.7411 32.8806 32.8805Z" stroke="white" stroke-width="3"/>
<path d="M32.8805 16.617C37.0199 20.7564 39.7221 25.4459 40.796 29.6223C41.8796 33.8364 41.2558 37.233 39.2444 39.2444C37.233 41.2558 33.8364 41.8796 29.6223 40.796C25.4459 39.7221 20.7564 37.0199 16.617 32.8805C12.4776 28.7411 9.7754 24.0515 8.70148 19.8752C7.61785 15.6611 8.24164 12.2644 10.253 10.253C12.2645 8.24163 15.6611 7.61784 19.8752 8.70147C24.0515 9.77539 28.7411 12.4776 32.8805 16.617Z" stroke="white" stroke-width="3"/>
<path d="M65.5988 34.7386C70.3088 34.7386 73.4888 32.2786 73.4888 28.3486C73.4888 20.0386 62.4488 23.5786 62.4488 19.1986C62.4488 17.9686 63.5587 17.1286 65.3287 17.1286C67.3387 17.1286 68.5988 18.2086 68.7487 19.8586H73.0388C72.9188 15.8686 69.8587 13.2586 65.3287 13.2586C61.0687 13.2586 58.0688 15.7186 58.0688 19.1986C58.0688 27.4486 68.9587 24.2986 68.9587 28.4086C68.9587 29.9986 67.6088 30.8386 65.5988 30.8386C63.3787 30.8386 61.9688 29.4886 61.7888 27.3586H57.4688C57.6488 31.8286 60.8287 34.7386 65.5988 34.7386Z" fill="white"/>
<path d="M74.509 40.6186H78.679V33.1486C79.489 34.1686 80.959 34.7386 82.669 34.7386C87.019 34.7386 89.959 31.6486 89.959 26.9386C89.959 22.2286 87.259 19.1386 83.029 19.1386C81.079 19.1386 79.579 19.8586 78.679 21.0286V19.3786H74.509V40.6186ZM82.159 31.1386C79.909 31.1386 78.439 29.4586 78.439 26.9386C78.439 24.3886 79.909 22.7086 82.159 22.7086C84.349 22.7086 85.849 24.3886 85.849 26.9386C85.849 29.4586 84.349 31.1386 82.159 31.1386Z" fill="white"/>
<path d="M90.968 34.4986H95.138V26.2186C95.138 24.2686 96.428 22.8586 98.258 22.8586C99.998 22.8586 101.198 24.1786 101.198 26.0086V34.4986H105.368V25.0786C105.368 21.5986 103.148 19.1386 99.758 19.1386C97.658 19.1386 96.008 20.0086 95.138 21.4786V12.8086H90.968V34.4986Z" fill="white"/>
<path d="M117.033 29.3686C116.703 30.6586 115.593 31.3186 113.913 31.3186C111.813 31.3186 110.463 29.9986 110.163 27.8686H121.023C121.053 27.5386 121.083 27.0886 121.083 26.5186C121.083 23.0686 118.953 19.1386 113.613 19.1386C108.483 19.1386 106.143 23.0686 106.143 26.9086C106.143 30.7186 108.783 34.7386 113.913 34.7386C117.633 34.7386 120.513 32.6386 121.113 29.3686H117.033ZM113.613 22.1986C115.623 22.1986 116.793 23.5486 116.913 25.2286H110.223C110.583 23.1286 111.723 22.1986 113.613 22.1986Z" fill="white"/>
<path d="M132.02 22.8586V19.3786H129.868C128.038 19.3786 126.898 20.0086 126.088 21.8986V19.3786H121.888V34.4986H126.088V27.1486C126.088 24.5686 127.018 22.8586 129.088 22.8586H132.02Z" fill="white"/>
<path d="M146.42 19.3786H142.22V27.6586C142.22 29.5786 140.93 31.0186 139.1 31.0186C137.39 31.0186 136.19 29.6986 136.19 27.8686V19.3786H132.02V28.7986C132.02 32.2486 134.24 34.7386 137.63 34.7386C139.7 34.7386 141.38 33.8386 142.22 32.3986V34.4986H146.42V19.3786Z" fill="white"/>
<path d="M148.22 34.4986H152.39V12.8086H148.22V34.4986Z" fill="white"/>
<path d="M164.295 29.3686C163.965 30.6586 162.855 31.3186 161.175 31.3186C159.075 31.3186 157.725 29.9986 157.425 27.8686H168.285C168.315 27.5386 168.345 27.0886 168.345 26.5186C168.345 23.0686 166.215 19.1386 160.875 19.1386C155.745 19.1386 153.405 23.0686 153.405 26.9086C153.405 30.7186 156.045 34.7386 161.175 34.7386C164.895 34.7386 167.775 32.6386 168.375 29.3686H164.295ZM160.875 22.1986C162.885 22.1986 164.055 23.5486 164.175 25.2286H157.485C157.845 23.1286 158.985 22.1986 160.875 22.1986Z" fill="white"/>
</svg>
