<svg width="181" height="43" viewBox="0 0 181 43" fill="none" xmlns="http://www.w3.org/2000/svg">
<path d="M26.9286 1.13097L22.7078 0L19.1509 13.2747L15.9396 1.29021L11.7187 2.42118L15.1883 15.3695L6.54642 6.72768L3.45656 9.81755L12.9356 19.2966L1.13097 16.1336L0 20.3544L12.898 23.8104C12.7504 23.1735 12.6722 22.5098 12.6722 21.8279C12.6722 17.0012 16.585 13.0885 21.4117 13.0885C26.2384 13.0885 30.1512 17.0012 30.1512 21.8279C30.1512 22.5054 30.074 23.165 29.9282 23.7982L41.6501 26.939L42.781 22.7182L29.8317 19.2485L41.6371 16.0852L40.5061 11.8644L27.5573 15.334L36.1991 6.69221L33.1093 3.60234L23.7617 12.9499L26.9286 1.13097Z" fill="white"/>
<path d="M29.9158 23.8473C29.554 25.3772 28.79 26.7516 27.7417 27.8528L36.2337 36.3449L39.3236 33.2551L29.9158 23.8473Z" fill="white"/>
<path d="M27.656 27.9416C26.595 29.0252 25.2543 29.8338 23.7508 30.2505L26.8409 41.7828L31.0617 40.6518L27.656 27.9416Z" fill="white"/>
<path d="M23.5932 30.2927C22.8956 30.4721 22.1644 30.5674 21.411 30.5674C20.6037 30.5674 19.822 30.4579 19.0799 30.253L15.9871 41.7958L20.2078 42.9267L23.5932 30.2927Z" fill="white"/>
<path d="M18.9307 30.2105C17.4502 29.773 16.1333 28.9541 15.094 27.8674L6.5811 36.3803L9.67096 39.4702L18.9307 30.2105Z" fill="white"/>
<path d="M15.0239 27.7922C14.0024 26.6986 13.2584 25.3425 12.9042 23.8362L1.14404 26.9874L2.275 31.2082L15.0239 27.7922Z" fill="white"/>
<path d="M68.1793 9.91846V25.1285L58.4293 9.91846H54.5293V30.9185H58.4293V15.8285L68.1793 30.9185H72.0793V9.91846H68.1793Z" fill="white"/>
<path d="M73.8366 13.8485H77.8566V9.91846H73.8366V13.8485ZM73.8966 30.9185V15.9185H77.7966V30.9185H73.8966Z" fill="white"/>
<path d="M94.5767 23.4185C94.5767 18.2285 90.8867 15.7685 86.9867 15.7385C83.0567 15.7085 79.4267 18.2285 79.4267 23.4185C79.4267 28.6085 83.0567 31.1285 86.9867 31.0985C90.5567 31.0685 93.0167 29.4185 94.1567 26.6885L91.1267 25.4285C90.1967 27.2885 88.7267 27.9485 86.9867 27.9785C85.4867 28.0085 83.7767 27.2885 83.4167 24.6185H94.4867C94.5467 24.2285 94.5767 23.8385 94.5767 23.4185ZM86.9867 18.8285C88.4867 18.8585 90.0167 19.6685 90.4967 21.8285H83.4767C83.9867 19.6385 85.5167 18.7985 86.9867 18.8285Z" fill="white"/>
<path d="M103.59 18.7085V15.7385H101.13V11.7185L97.2298 12.9185V15.7385H94.7698V18.7085H97.2298V26.4785C97.2298 29.4185 97.4698 30.9185 102.03 30.9185H103.08V27.4985H102.03C101.31 27.4985 101.13 27.3785 101.13 26.4785V18.7085H103.59Z" fill="white"/>
<path d="M109.385 27.6485L117.665 19.1885V15.9185H105.245V19.1885H113.285L105.005 27.6485V30.9185H117.755V27.6485H109.385Z" fill="white"/>
<path d="M119.153 26.6885L123.083 26.0885C123.353 27.5885 125.123 28.1585 126.203 28.1585C127.313 28.1585 129.233 27.9185 129.233 26.1185C129.233 22.6085 119.603 26.9885 119.603 20.2685C119.603 15.9485 124.613 15.7085 126.203 15.7085C127.703 15.7085 132.053 15.9485 132.953 19.4285L129.233 20.2085C128.903 18.6185 127.223 18.3185 126.323 18.3185C125.423 18.3185 123.503 18.5285 123.503 20.2685C123.503 23.7485 133.133 19.3085 133.133 26.1185C133.133 30.7085 127.853 31.0985 126.203 31.0985C124.703 31.0985 119.933 30.7085 119.153 26.6885Z" fill="white"/>
<path d="M138.2 23.4185C138.2 27.0785 140.15 28.1885 142.19 28.1585C144.02 28.1285 145.28 27.3785 146.03 25.2785L149.24 26.8385C148.07 29.8985 145.22 31.0685 142.19 31.0985C138.26 31.1285 134.3 28.6085 134.3 23.4185C134.3 18.2285 138.26 15.7085 142.19 15.7385C145.22 15.7685 148.07 16.9385 149.24 19.9985L146.03 21.5585C145.28 19.4585 144.02 18.7085 142.19 18.6785C140.15 18.6485 138.2 19.7585 138.2 23.4185Z" fill="white"/>
<path d="M159.71 15.6785C157.7 15.6785 155.87 16.7285 154.7 18.9785V9.91846H150.8V30.9185H154.7V25.6085C154.7 18.7385 157.55 18.1685 158.6 18.1685C160.28 18.1685 160.52 19.9085 160.52 22.4585V30.9185H164.42V22.4585C164.42 19.2785 163.91 15.6785 159.71 15.6785Z" fill="white"/>
<path d="M180.885 23.4185C180.885 18.2285 177.195 15.7685 173.295 15.7385C169.365 15.7085 165.735 18.2285 165.735 23.4185C165.735 28.6085 169.365 31.1285 173.295 31.0985C176.865 31.0685 179.325 29.4185 180.465 26.6885L177.435 25.4285C176.505 27.2885 175.035 27.9485 173.295 27.9785C171.795 28.0085 170.085 27.2885 169.725 24.6185H180.795C180.855 24.2285 180.885 23.8385 180.885 23.4185ZM173.295 18.8285C174.795 18.8585 176.325 19.6685 176.805 21.8285H169.785C170.295 19.6385 171.825 18.7985 173.295 18.8285Z" fill="white"/>
</svg>
