<svg width="35" height="35" viewBox="0 0 35 35" fill="none" xmlns="http://www.w3.org/2000/svg">
<path d="M8.14648 8.71973H4.25171C3.96856 8.71973 3.73901 8.94928 3.73901 9.23242V13.1273C3.73901 13.4104 3.96856 13.64 4.25171 13.64H8.14648C8.42963 13.64 8.65918 13.4104 8.65918 13.1273V9.23242C8.65918 8.94928 8.42963 8.71973 8.14648 8.71973ZM7.63379 12.6146H4.7644V9.74519H7.63379V12.6146Z" fill="white"/>
<path d="M13.7983 8.71973H10.9114C10.6282 8.71973 10.3987 8.94928 10.3987 9.23242C10.3987 9.51557 10.6282 9.74512 10.9114 9.74512H13.7983C14.0814 9.74512 14.311 9.51557 14.311 9.23242C14.311 8.94928 14.0814 8.71973 13.7983 8.71973Z" fill="white"/>
<path d="M8.14648 16.123H4.25171C3.96856 16.123 3.73901 16.3526 3.73901 16.6357V20.5306C3.73901 20.8137 3.96856 21.0433 4.25171 21.0433H8.14648C8.42963 21.0433 8.65918 20.8137 8.65918 20.5306V16.6357C8.65918 16.3526 8.42963 16.123 8.14648 16.123ZM7.63379 20.0179H4.7644V17.1484H7.63379V20.0179Z" fill="white"/>
<path d="M13.7983 16.123H10.9114C10.6282 16.123 10.3987 16.3526 10.3987 16.6357C10.3987 16.9189 10.6282 17.1484 10.9114 17.1484H13.7983C14.0814 17.1484 14.311 16.9189 14.311 16.6357C14.311 16.3526 14.0814 16.123 13.7983 16.123Z" fill="white"/>
<path d="M8.14648 23.5264H4.25171C3.96856 23.5264 3.73901 23.7559 3.73901 24.0391V27.9339C3.73901 28.217 3.96856 28.4466 4.25171 28.4466H8.14648C8.42963 28.4466 8.65918 28.217 8.65918 27.9339V24.0391C8.65918 23.7559 8.42963 23.5264 8.14648 23.5264ZM7.63379 27.4212H4.7644V24.5518H7.63379V27.4212Z" fill="white"/>
<path d="M13.7983 23.5264H10.9114C10.6282 23.5264 10.3987 23.7559 10.3987 24.0391C10.3987 24.3222 10.6282 24.5518 10.9114 24.5518H13.7983C14.0814 24.5518 14.311 24.3222 14.311 24.0391C14.311 23.7559 14.0814 23.5264 13.7983 23.5264Z" fill="white"/>
<path d="M19.1247 27.4209H10.9114C10.6282 27.4209 10.3987 27.6504 10.3987 27.9336C10.3987 28.2167 10.6282 28.4463 10.9114 28.4463H19.1247C19.4078 28.4463 19.6374 28.2167 19.6374 27.9336C19.6374 27.6504 19.4078 27.4209 19.1247 27.4209Z" fill="white"/>
<path d="M30.9395 9.62726V0.512695C30.9395 0.229551 30.7099 0 30.4268 0H0.512695C0.229551 0 0 0.229551 0 0.512695V18.1125C0 18.3956 0.229551 18.6252 0.512695 18.6252C0.79584 18.6252 1.02539 18.3956 1.02539 18.1125V4.85194H21.1686C21.4518 4.85194 21.6813 4.62239 21.6813 4.33925C21.6813 4.0561 21.4518 3.82655 21.1686 3.82655H1.02539V1.02539H29.9141V3.82655H23.3333C23.0502 3.82655 22.8206 4.0561 22.8206 4.33925C22.8206 4.62239 23.0502 4.85194 23.3333 4.85194H29.9141V8.95549C28.4448 8.11556 26.7449 7.63499 24.9346 7.63499C22.1189 7.63499 19.57 8.79765 17.7414 10.6675H10.9113C10.6282 10.6675 10.3986 10.8971 10.3986 11.1802C10.3986 11.4634 10.6282 11.6929 10.9113 11.6929H16.8634C16.6431 11.9882 16.4391 12.2961 16.2516 12.615H10.9113C10.6282 12.615 10.3986 12.8445 10.3986 13.1277C10.3986 13.4108 10.6282 13.6404 10.9113 13.6404H15.7254C15.1754 14.8829 14.8693 16.2565 14.8693 17.7004C14.8693 17.8243 14.8723 17.9475 14.8768 18.0705H10.9113C10.6282 18.0705 10.3986 18.3 10.3986 18.5832C10.3986 18.8663 10.6282 19.0958 10.9113 19.0958H14.9665C15.0099 19.4079 15.0675 19.7155 15.139 20.0179H10.9113C10.6282 20.0179 10.3986 20.2474 10.3986 20.5306C10.3986 20.8137 10.6282 21.0433 10.9113 21.0433H15.4407C16.0576 22.7903 17.1434 24.318 18.5469 25.4734H10.9114C10.6282 25.4734 10.3987 25.7029 10.3987 25.9861C10.3987 26.2692 10.6282 26.4988 10.9114 26.4988H19.1247C19.3236 26.4988 19.4956 26.3854 19.5807 26.2198C21.1324 27.1985 22.9684 27.7657 24.9347 27.7657C26.7449 27.7657 28.4448 27.2851 29.9141 26.4452V33.2855H1.02539V20.3506C1.02539 20.0674 0.79584 19.8379 0.512695 19.8379C0.229551 19.8379 0 20.0674 0 20.3506V33.7982C0 34.0814 0.229551 34.3109 0.512695 34.3109H30.4268C30.7099 34.3109 30.9395 34.0814 30.9395 33.7982V25.7734C33.4022 23.9368 35 21.0017 35 17.7003C35 14.3989 33.4022 11.4638 30.9395 9.62726ZM24.9346 26.7403C19.95 26.7403 15.8946 22.685 15.8946 17.7003C15.8946 12.7156 19.9499 8.66031 24.9346 8.66031C29.9193 8.66031 33.9746 12.7157 33.9746 17.7003C33.9746 22.6849 29.9193 26.7403 24.9346 26.7403Z" fill="white"/>
<path d="M31.0235 14.2025C30.8822 13.9571 30.5687 13.8726 30.3233 14.014C30.0779 14.1552 29.9935 14.4687 30.1348 14.7141C30.6552 15.6182 30.9304 16.651 30.9304 17.7008C30.9304 21.0069 28.2407 23.6965 24.9347 23.6965C21.6287 23.6965 18.939 21.0068 18.939 17.7008C18.939 14.3948 21.6287 11.7051 24.9347 11.7051C26.3835 11.7051 27.7821 12.2288 28.8727 13.1796C29.0861 13.3657 29.4099 13.3434 29.5961 13.13C29.7821 12.9165 29.7599 12.5927 29.5465 12.4067C28.2691 11.293 26.6312 10.6797 24.9346 10.6797C21.0632 10.6797 17.9136 13.8293 17.9136 17.7007C17.9136 21.5721 21.0632 24.7218 24.9346 24.7218C28.806 24.7218 31.9557 21.5721 31.9557 17.7007C31.9558 16.4717 31.6334 15.262 31.0235 14.2025Z" fill="white"/>
<path d="M25.3935 17.2931H24.5527C24.2279 17.2931 23.9636 17.0289 23.9636 16.704C23.9636 16.3792 24.2278 16.115 24.5527 16.115H25.9154C25.9524 16.115 25.9825 16.1451 25.9825 16.1821C25.9825 16.4653 26.212 16.6948 26.4952 16.6948C26.7783 16.6948 27.0079 16.4653 27.0079 16.1821C27.0079 15.5797 26.5177 15.0896 25.9154 15.0896H25.4858V14.2881C25.4858 14.0049 25.2562 13.7754 24.9731 13.7754C24.6899 13.7754 24.4604 14.0049 24.4604 14.2881V15.0924C23.613 15.1404 22.9382 15.8448 22.9382 16.704C22.9382 17.5942 23.6624 18.3185 24.5527 18.3185H25.3935C25.7183 18.3185 25.9825 18.5827 25.9825 18.9075C25.9825 19.2324 25.7183 19.4966 25.3935 19.4966H24.0308C23.9938 19.4966 23.9636 19.4664 23.9636 19.4295C23.9636 19.1463 23.7341 18.9168 23.4509 18.9168C23.1678 18.9168 22.9382 19.1463 22.9382 19.4295C22.9382 20.0319 23.4284 20.522 24.0308 20.522H24.4604V21.3235C24.4604 21.6066 24.6899 21.8362 24.9731 21.8362C25.2562 21.8362 25.4858 21.6066 25.4858 21.3235V20.5192C26.3332 20.4712 27.0079 19.7668 27.0079 18.9075C27.0079 18.0174 26.2837 17.2931 25.3935 17.2931Z" fill="white"/>
<path d="M13.0252 1.91309H12.3787C12.0955 1.91309 11.866 2.14264 11.866 2.42578C11.866 2.70893 12.0955 2.93848 12.3787 2.93848H13.0252C13.3084 2.93848 13.5379 2.70893 13.5379 2.42578C13.5379 2.14264 13.3084 1.91309 13.0252 1.91309Z" fill="white"/>
<path d="M15.7931 1.91309H15.1465C14.8633 1.91309 14.6338 2.14264 14.6338 2.42578C14.6338 2.70893 14.8633 2.93848 15.1465 2.93848H15.7931C16.0762 2.93848 16.3058 2.70893 16.3058 2.42578C16.3058 2.14264 16.0762 1.91309 15.7931 1.91309Z" fill="white"/>
<path d="M18.5609 1.91309H17.9143C17.6312 1.91309 17.4016 2.14264 17.4016 2.42578C17.4016 2.70893 17.6312 2.93848 17.9143 2.93848H18.5609C18.8441 2.93848 19.0736 2.70893 19.0736 2.42578C19.0736 2.14264 18.8441 1.91309 18.5609 1.91309Z" fill="white"/>
</svg>
