<svg width="60" height="61" viewBox="0 0 60 61" fill="none" xmlns="http://www.w3.org/2000/svg">
<path fill-rule="evenodd" clip-rule="evenodd" d="M21.1832 36.1145C21.1067 36.1145 21.0292 36.1022 20.9528 36.0762C20.5819 35.9489 20.3843 35.5456 20.511 35.1743L22.394 29.6765C22.5207 29.3057 22.9236 29.1079 23.2957 29.2346C23.6666 29.3619 23.8644 29.7658 23.7376 30.1365L21.8547 35.6343C21.7541 35.9292 21.4785 36.1145 21.1832 36.1145Z" fill="#B68C5A"/>
<path fill-rule="evenodd" clip-rule="evenodd" d="M38.8985 36.2061C38.6062 36.2061 38.3325 36.0241 38.2294 35.7327L36.3144 30.3176C36.1832 29.9479 36.3775 29.5425 36.7467 29.4118C37.1185 29.2813 37.5224 29.475 37.6531 29.8442L39.5681 35.2587C39.6993 35.6285 39.505 36.0345 39.1358 36.1651C39.0567 36.1932 38.9767 36.2061 38.8985 36.2061Z" fill="#B68C5A"/>
<path fill-rule="evenodd" clip-rule="evenodd" d="M59.2893 60.5904C59.2872 60.5904 59.2932 60.5904 59.2893 60.5904H0.70983C0.487541 60.5904 0.277842 60.4857 0.143407 60.3084C0.00911071 60.1307 -0.0336962 59.9006 0.027017 59.6867L4.36577 44.3873C5.43916 39.957 13.8557 38.1049 18.7765 37.3969C19.0557 37.3565 19.3337 37.4867 19.4821 37.7276L24.8369 46.4252L29.4749 41.4268C29.7437 41.1368 30.247 41.1368 30.5157 41.4268L35.1532 46.4252L40.5076 37.7282C40.6558 37.4876 40.9321 37.3574 41.2137 37.3975C46.1346 38.1055 54.5516 39.9581 55.6313 44.4135L59.932 59.5769C59.9754 59.6692 60 59.7722 60 59.8802C59.9999 60.2721 59.6817 60.5904 59.2893 60.5904ZM1.64965 59.1702H58.3406L54.2584 44.7747C53.6293 42.1805 48.8646 39.9947 41.4718 38.8715L35.8733 47.9648C35.7571 48.1536 35.5587 48.2775 35.338 48.2991C35.1189 48.3238 34.899 48.238 34.7482 48.0757L29.9949 42.9538L25.2421 48.0759C25.0911 48.2386 24.8743 48.3246 24.6518 48.2994C24.4311 48.2777 24.2333 48.1538 24.1169 47.9651L18.518 38.8711C11.1258 39.9934 6.36162 42.1793 5.7388 44.7483L1.64965 59.1702Z" fill="#B68C5A"/>
<path fill-rule="evenodd" clip-rule="evenodd" d="M24.4919 60.59C24.3101 60.59 24.1292 60.5199 23.9919 60.3838L9.08123 45.6057C8.94554 45.4715 8.86971 45.2876 8.87111 45.0968C8.87265 44.9059 8.95113 44.723 9.08865 44.5903L10.7606 42.9789L9.42453 40.6382C9.32296 40.4606 9.3031 40.2477 9.36969 40.0543C9.43684 39.8606 9.58358 39.7057 9.773 39.6284C11.1841 39.0534 12.8631 38.5471 14.763 38.1226C15.0904 38.0495 15.4251 38.2157 15.5641 38.5219L25.0933 59.4868C25.1683 59.5998 25.2117 59.7343 25.2117 59.8799C25.2117 60.2717 24.8838 60.59 24.4919 60.59C24.495 60.5894 24.4887 60.5894 24.4919 60.59ZM10.5971 45.1091L22.2455 56.6541L14.5116 39.6384C13.2435 39.9398 12.0901 40.2794 11.0675 40.6522L12.2682 42.7551C12.4295 43.0371 12.3781 43.3926 12.1445 43.6185L10.5971 45.1091Z" fill="#B68C5A"/>
<path fill-rule="evenodd" clip-rule="evenodd" d="M35.4952 60.59C35.354 60.59 35.212 60.548 35.0892 60.4623C34.8082 60.2666 34.707 59.8978 34.849 59.586L44.4231 38.5226C44.5616 38.2169 44.8955 38.0482 45.2239 38.1232C47.1243 38.5472 48.8026 39.054 50.214 39.629C50.4038 39.7063 50.5507 39.8618 50.6173 40.055C50.6837 40.2483 50.664 40.4609 50.5624 40.6389L49.2266 42.979L50.898 44.5904C51.0356 44.7236 51.114 44.906 51.1156 45.0968C51.1165 45.2882 51.041 45.4716 50.905 45.6057L35.9947 60.3838C35.8579 60.5205 35.677 60.59 35.4952 60.59ZM45.4755 39.639L37.741 56.6539L49.3892 45.1092L47.8429 43.6187C47.6086 43.3929 47.558 43.0374 47.7191 42.7553L48.9198 40.6528C47.8971 40.2799 46.7437 39.9408 45.4755 39.639Z" fill="#B68C5A"/>
<path fill-rule="evenodd" clip-rule="evenodd" d="M24.7221 48.3029C24.699 48.3029 24.6756 48.3015 24.6525 48.299C24.4318 48.2774 24.234 48.1535 24.1174 47.9646L18.1172 38.2184C17.9441 37.9379 17.9875 37.5746 18.2218 37.3421L20.6827 34.9004C20.9313 34.6539 21.3227 34.6248 21.6043 34.8334L30.4171 41.3381C30.5792 41.4578 30.6834 41.6412 30.7021 41.8426C30.7207 42.0439 30.6527 42.2435 30.5157 42.3918L25.2423 48.0758C25.1074 48.2208 24.9183 48.3029 24.7221 48.3029ZM19.6217 37.9538L24.8371 46.4249L28.9347 42.0093L21.2509 36.3375L19.6217 37.9538Z" fill="#B68C5A"/>
<path fill-rule="evenodd" clip-rule="evenodd" d="M35.2685 48.3028C35.0722 48.3028 34.8835 48.2211 34.7478 48.0754L29.4747 42.3927C29.3372 42.2445 29.2692 42.0446 29.2883 41.8435C29.3071 41.6422 29.4112 41.4588 29.5739 41.3391L38.3867 34.8344C38.6691 34.6258 39.0593 34.6549 39.3088 34.9014L41.7693 37.343C42.0036 37.5758 42.047 37.9387 41.8739 38.2193L35.8737 47.9656C35.7573 48.1545 35.559 48.2783 35.3381 48.3C35.3146 48.3015 35.2916 48.3028 35.2685 48.3028ZM31.0559 42.0092L35.1535 46.4247L40.3688 37.9537L38.7402 36.3374L31.0559 42.0092Z" fill="#B68C5A"/>
<path fill-rule="evenodd" clip-rule="evenodd" d="M32.1147 48.1999H27.8731C27.5645 48.1999 27.2908 48.0001 27.1966 47.7058L26.4127 45.2557C26.3347 45.0116 26.3938 44.7443 26.5684 44.5565L29.4732 41.4255C29.7414 41.136 30.2453 41.135 30.514 41.4255L33.4192 44.5565C33.5939 44.7443 33.6535 45.0122 33.5745 45.2561L32.7899 47.7062C32.6965 48.0003 32.4233 48.1999 32.1147 48.1999ZM28.3915 46.7797H31.5964L32.0965 45.2186L29.9939 42.9531L27.8919 45.2188L28.3915 46.7797Z" fill="#B68C5A"/>
<path fill-rule="evenodd" clip-rule="evenodd" d="M32.9382 60.5902C32.9357 60.5902 32.9417 60.5902 32.9382 60.5902H27.0576C26.8553 60.5902 26.6631 60.5039 26.5285 60.354C26.3939 60.2031 26.3298 60.0029 26.3519 59.8021L27.7218 47.4124C27.7616 47.0529 28.0653 46.7803 28.4272 46.7803H31.5586C31.9205 46.7803 32.2248 47.0529 32.2646 47.4124L33.6216 59.6854C33.6389 59.7473 33.6487 59.8129 33.6487 59.8806C33.6482 60.2719 33.3306 60.5902 32.9382 60.5902ZM27.8505 59.17H32.1354L30.9224 48.201H29.0635L27.8505 59.17Z" fill="#B68C5A"/>
<path fill-rule="evenodd" clip-rule="evenodd" d="M30.1075 33.8511C24.3148 33.8511 19.4926 28.6876 18.8895 21.8411C18.855 21.4504 19.1438 21.1058 19.5346 21.0714C19.9291 21.0394 20.2697 21.3263 20.3041 21.7165C20.8416 27.8247 25.0565 32.4306 30.1075 32.4306C35.1824 32.4306 39.4968 27.6136 39.9303 21.4638C39.9585 21.0724 40.2931 20.777 40.6885 20.8056C41.0795 20.8332 41.3744 21.173 41.3469 21.564C40.8612 28.454 35.924 33.8511 30.1075 33.8511Z" fill="#B68C5A"/>
<path fill-rule="evenodd" clip-rule="evenodd" d="M19.5978 22.4899C19.3428 22.4899 19.1047 22.3527 18.978 22.1259C14.7749 14.602 15.9406 9.53156 17.6595 6.60374C20.0501 2.53035 25.0327 0 30.6631 0C35.7496 0 40.1065 2.12804 42.3185 5.69265C44.0828 8.53666 45.3341 13.6444 41.2766 21.8311C41.1438 22.0978 40.8565 22.2532 40.5641 22.2218C40.2678 22.1897 40.0233 21.9761 39.9517 21.6872L38.3595 15.286C38.1052 14.2624 37.9504 13.4936 37.8453 12.9606C37.3811 13.4041 36.6786 13.9904 35.6062 14.5775C32.2162 16.4336 27.8026 16.9015 22.7392 15.9143C22.2791 16.5504 21.1918 18.3305 20.287 21.9516C20.2166 22.2342 19.9802 22.4447 19.6917 22.4832C19.6604 22.488 19.6289 22.4899 19.5978 22.4899ZM30.663 1.42007C25.6114 1.42007 20.9877 3.7371 18.8838 7.32268C16.9011 10.7008 17.0856 15.0078 19.3992 19.8554C20.588 16.0462 21.8902 14.6973 21.9524 14.6346C22.1219 14.4635 22.366 14.3881 22.6027 14.4393C27.4984 15.4644 31.742 15.0748 34.9243 13.3329C36.2117 12.6277 36.8636 11.9488 37.2531 11.5431C37.5548 11.2285 37.7936 10.9799 38.1855 10.9799C38.9034 10.9799 39.0271 11.609 39.214 12.5617C39.3231 13.1145 39.4708 13.8712 39.7383 14.9443L40.8408 19.3781C43.0379 14.152 43.1386 9.70719 41.1124 6.44223C39.1612 3.29731 35.2551 1.42007 30.663 1.42007Z" fill="#B68C5A"/>
</svg>
