<svg width="60" height="57" viewBox="0 0 60 57" fill="none" xmlns="http://www.w3.org/2000/svg">
<path d="M57.2399 17.9313H2.75714C2.48278 17.9313 2.21965 17.8223 2.02565 17.6283C1.83165 17.4343 1.72266 17.1712 1.72266 16.8968V12.0692C1.72257 11.8625 1.78441 11.6605 1.9002 11.4893C2.016 11.3181 2.18044 11.1854 2.37231 11.1085L29.9585 0.0740577C30.2082 -0.0258655 30.487 -0.0246286 30.7358 0.077506L57.6323 11.112C57.8222 11.1898 57.9847 11.3224 58.099 11.4929C58.2134 11.6634 58.2744 11.864 58.2744 12.0692V16.8968C58.2744 17.1712 58.1654 17.4343 57.9714 17.6283C57.7774 17.8223 57.5143 17.9313 57.2399 17.9313ZM3.79162 15.8623H56.2054V12.763L30.3378 2.15061L3.79162 12.7713V15.8623Z" fill="#B68C5A"/>
<path d="M18.0183 21.3792H8.19073C7.91637 21.3792 7.65325 21.2703 7.45924 21.0763C7.26524 20.8822 7.15625 20.6191 7.15625 20.3448V16.8965H9.22522V19.3103H16.9838V16.8965H19.0528V20.3448C19.0528 20.6191 18.9438 20.8822 18.7498 21.0763C18.5558 21.2703 18.2927 21.3792 18.0183 21.3792Z" fill="#B68C5A"/>
<path d="M35.2605 21.3792H25.4329C25.1586 21.3792 24.8954 21.2703 24.7014 21.0763C24.5074 20.8822 24.3984 20.6191 24.3984 20.3448V16.8965H26.4674V19.3103H34.226V16.8965H36.295V20.3448C36.295 20.6191 36.186 20.8822 35.992 21.0763C35.798 21.2703 35.5349 21.3792 35.2605 21.3792Z" fill="#B68C5A"/>
<path d="M51.8113 21.3792H41.9837C41.7093 21.3792 41.4462 21.2703 41.2522 21.0763C41.0582 20.8822 40.9492 20.6191 40.9492 20.3448V16.8965H43.0182V19.3103H50.7768V16.8965H52.8458V20.3448C52.8458 20.6191 52.7368 20.8822 52.5428 21.0763C52.3488 21.2703 52.0856 21.3792 51.8113 21.3792Z" fill="#B68C5A"/>
<path d="M16.594 43.4482H10.0423C9.76793 43.4482 9.50481 43.3392 9.31081 43.1452C9.1168 42.9512 9.00781 42.6881 9.00781 42.4137V20.3447H11.0768V41.3792H15.5595V20.3447H17.6285V42.4137C17.6285 42.6881 17.5195 42.9512 17.3255 43.1452C17.1315 43.3392 16.8684 43.4482 16.594 43.4482Z" fill="#B68C5A"/>
<path d="M33.8362 43.4482H27.2845C27.0101 43.4482 26.747 43.3392 26.553 43.1452C26.359 42.9512 26.25 42.6881 26.25 42.4137V20.3447H28.319V41.3792H32.8017V20.3447H34.8707V42.4137C34.8707 42.6881 34.7617 42.9512 34.5677 43.1452C34.3737 43.3392 34.1106 43.4482 33.8362 43.4482Z" fill="#B68C5A"/>
<path d="M50.387 43.4482H43.8353C43.5609 43.4482 43.2978 43.3392 43.1038 43.1452C42.9098 42.9512 42.8008 42.6881 42.8008 42.4137V20.3447H44.8697V41.3792H49.3525V20.3447H51.4215V42.4137C51.4215 42.6881 51.3125 42.9512 51.1185 43.1452C50.9245 43.3392 50.6613 43.4482 50.387 43.4482Z" fill="#B68C5A"/>
<path d="M19.3545 46.8971H6.94073C6.66637 46.8971 6.40325 46.7881 6.20924 46.5941C6.01524 46.4001 5.90625 46.137 5.90625 45.8626V42.4144C5.90625 42.14 6.01524 41.8769 6.20924 41.6829C6.40325 41.4889 6.66637 41.3799 6.94073 41.3799H19.3545C19.6289 41.3799 19.892 41.4889 20.086 41.6829C20.28 41.8769 20.389 42.14 20.389 42.4144V45.8626C20.389 46.137 20.28 46.4001 20.086 46.5941C19.892 46.7881 19.6289 46.8971 19.3545 46.8971ZM7.97522 44.8282H18.32V43.4488H7.97522V44.8282Z" fill="#B68C5A"/>
<path d="M36.5928 46.8971H24.179C23.9047 46.8971 23.6415 46.7881 23.4475 46.5941C23.2535 46.4001 23.1445 46.137 23.1445 45.8626V42.4144C23.1445 42.14 23.2535 41.8769 23.4475 41.6829C23.6415 41.4889 23.9047 41.3799 24.179 41.3799H36.5928C36.8672 41.3799 37.1303 41.4889 37.3243 41.6829C37.5183 41.8769 37.6273 42.14 37.6273 42.4144V45.8626C37.6273 46.137 37.5183 46.4001 37.3243 46.5941C37.1303 46.7881 36.8672 46.8971 36.5928 46.8971ZM25.2135 44.8282H35.5583V43.4488H25.2135V44.8282Z" fill="#B68C5A"/>
<path d="M53.1475 46.8971H40.7337C40.4593 46.8971 40.1962 46.7881 40.0022 46.5941C39.8082 46.4001 39.6992 46.137 39.6992 45.8626V42.4144C39.6992 42.14 39.8082 41.8769 40.0022 41.6829C40.1962 41.4889 40.4593 41.3799 40.7337 41.3799H53.1475C53.4219 41.3799 53.685 41.4889 53.879 41.6829C54.073 41.8769 54.182 42.14 54.182 42.4144V45.8626C54.182 46.137 54.073 46.4001 53.879 46.5941C53.685 46.7881 53.4219 46.8971 53.1475 46.8971ZM41.7682 44.8282H52.113V43.4488H41.7682V44.8282Z" fill="#B68C5A"/>
<path d="M30.389 13.7936C29.5024 13.7936 28.6357 13.5307 27.8985 13.0382C27.1613 12.5456 26.5868 11.8455 26.2475 11.0264C25.9082 10.2072 25.8194 9.30591 25.9924 8.43634C26.1654 7.56677 26.5923 6.76802 27.2192 6.1411C27.8461 5.51417 28.6449 5.08723 29.5145 4.91426C30.384 4.74129 31.2854 4.83007 32.1045 5.16936C32.9236 5.50865 33.6237 6.08321 34.1163 6.8204C34.6089 7.55758 34.8718 8.42428 34.8718 9.31089C34.8703 10.4993 34.3976 11.6387 33.5572 12.4791C32.7168 13.3194 31.5775 13.7922 30.389 13.7936ZM30.389 6.89709C29.9116 6.89709 29.4449 7.03866 29.048 7.30389C28.651 7.56912 28.3417 7.9461 28.159 8.38717C27.9763 8.82823 27.9285 9.31356 28.0216 9.78179C28.1147 10.25 28.3446 10.6801 28.6822 11.0177C29.0198 11.3553 29.4499 11.5852 29.9181 11.6783C30.3863 11.7714 30.8717 11.7236 31.3127 11.5409C31.7538 11.3582 32.1308 11.0489 32.396 10.6519C32.6612 10.255 32.8028 9.78829 32.8028 9.31089C32.8028 8.67071 32.5485 8.05675 32.0958 7.60408C31.6431 7.1514 31.0292 6.89709 30.389 6.89709Z" fill="#B68C5A"/>
<path d="M55.8602 51.035H4.13605C3.86168 51.035 3.59856 50.926 3.40456 50.732C3.21055 50.538 3.10156 50.2749 3.10156 50.0005V45.8626C3.10156 45.5882 3.21055 45.3251 3.40456 45.1311C3.59856 44.9371 3.86168 44.8281 4.13605 44.8281H55.8602C56.1345 44.8281 56.3977 44.9371 56.5917 45.1311C56.7857 45.3251 56.8947 45.5882 56.8947 45.8626V50.0005C56.8947 50.2749 56.7857 50.538 56.5917 50.732C56.3977 50.926 56.1345 51.035 55.8602 51.035ZM5.17053 48.9661H54.8257V46.8971H5.17053V48.9661Z" fill="#B68C5A"/>
<path d="M58.9655 56.552H1.03448C0.760121 56.552 0.496996 56.443 0.302993 56.249C0.10899 56.055 0 55.7919 0 55.5175V50.0003C0 49.7259 0.10899 49.4628 0.302993 49.2688C0.496996 49.0748 0.760121 48.9658 1.03448 48.9658H58.9655C59.2399 48.9658 59.503 49.0748 59.697 49.2688C59.891 49.4628 60 49.7259 60 50.0003V55.5175C60 55.7919 59.891 56.055 59.697 56.249C59.503 56.443 59.2399 56.552 58.9655 56.552ZM2.06897 54.4831H57.931V51.0348H2.06897V54.4831Z" fill="#B68C5A"/>
</svg>
