<svg width="28" height="35" viewBox="0 0 28 35" fill="none" xmlns="http://www.w3.org/2000/svg">
<path d="M0 2.91667V32.0833C0.00092625 32.8566 0.308515 33.5979 0.855295 34.1447C1.40208 34.6915 2.1434 34.9991 2.91667 35H25.6667C26.1308 35 26.5759 34.8156 26.9041 34.4874C27.2323 34.1592 27.4167 33.7141 27.4167 33.25V29.8871C27.601 29.7238 27.7484 29.523 27.849 29.2982C27.9496 29.0733 28.0011 28.8296 28 28.5833V1.75C28 1.28587 27.8156 0.840752 27.4874 0.512563C27.1592 0.184374 26.7141 0 26.25 0L2.91667 0C2.1434 0.00092625 1.40208 0.308514 0.855295 0.855295C0.308515 1.40208 0.00092625 2.1434 0 2.91667ZM26.25 33.25C26.25 33.4047 26.1885 33.5531 26.0791 33.6625C25.9698 33.7719 25.8214 33.8333 25.6667 33.8333H2.91667C2.45254 33.8333 2.00742 33.649 1.67923 33.3208C1.35104 32.9926 1.16667 32.5475 1.16667 32.0833C1.16667 31.6192 1.35104 31.1741 1.67923 30.8459C2.00742 30.5177 2.45254 30.3333 2.91667 30.3333H26.25V33.25ZM26.8333 1.75V28.5833C26.8331 28.6862 26.8056 28.7871 26.7538 28.8759C26.702 28.9647 26.6276 29.0383 26.5382 29.0891C26.4506 29.1399 26.3512 29.1667 26.25 29.1667H2.91667C2.2854 29.1655 1.67099 29.3703 1.16667 29.75V2.91667C1.16667 2.45254 1.35104 2.00742 1.67923 1.67923C2.00742 1.35104 2.45254 1.16667 2.91667 1.16667H26.25C26.4047 1.16667 26.5531 1.22812 26.6625 1.33752C26.7719 1.44692 26.8333 1.59529 26.8333 1.75Z" fill="white"/>
<path d="M19.2498 23.917H8.74984C8.59513 23.917 8.44675 23.9784 8.33736 24.0878C8.22796 24.1972 8.1665 24.3456 8.1665 24.5003C8.1665 24.655 8.22796 24.8034 8.33736 24.9128C8.44675 25.0222 8.59513 25.0837 8.74984 25.0837H19.2498C19.4045 25.0837 19.5529 25.0222 19.6623 24.9128C19.7717 24.8034 19.8332 24.655 19.8332 24.5003C19.8332 24.3456 19.7717 24.1972 19.6623 24.0878C19.5529 23.9784 19.4045 23.917 19.2498 23.917Z" fill="white"/>
<path d="M17.4998 26.25H10.4998C10.3451 26.25 10.1968 26.3115 10.0874 26.4209C9.97796 26.5303 9.9165 26.6786 9.9165 26.8333C9.9165 26.988 9.97796 27.1364 10.0874 27.2458C10.1968 27.3552 10.3451 27.4167 10.4998 27.4167H17.4998C17.6545 27.4167 17.8029 27.3552 17.9123 27.2458C18.0217 27.1364 18.0832 26.988 18.0832 26.8333C18.0832 26.6786 18.0217 26.5303 17.9123 26.4209C17.8029 26.3115 17.6545 26.25 17.4998 26.25Z" fill="white"/>
<path d="M5.83337 22.7502C6.06314 22.7507 6.29074 22.7058 6.50307 22.618C6.71541 22.5302 6.90829 22.4013 7.07062 22.2386L12.9664 16.3417C13.0633 16.369 13.1632 16.3837 13.2639 16.3855C13.4171 16.3858 13.5688 16.3558 13.7104 16.2972C13.8519 16.2387 13.9805 16.1527 14.0887 16.0442L14.9141 15.2194L15.8154 16.1201C15.6591 16.4462 15.6078 16.8127 15.6684 17.1692C15.729 17.5258 15.8985 17.8548 16.1537 18.111L16.562 18.5141C16.7228 18.6782 16.9146 18.8086 17.1264 18.8978C17.3381 18.9869 17.5655 19.033 17.7952 19.0332H17.8005C18.0311 19.0333 18.2594 18.9876 18.4723 18.8989C18.6851 18.8102 18.8783 18.6802 19.0406 18.5164L23.9873 13.5697C24.1499 13.4072 24.2789 13.2142 24.3669 13.0019C24.4549 12.7895 24.5002 12.5618 24.5002 12.3319C24.5002 12.102 24.4549 11.8743 24.3669 11.6619C24.2789 11.4495 24.1499 11.2566 23.9873 11.0941L23.5731 10.6793C23.317 10.4264 22.9892 10.2586 22.6343 10.1988C22.2794 10.139 21.9146 10.1901 21.5898 10.3451L16.4885 5.2444C16.6441 4.91963 16.6954 4.55473 16.6354 4.19967C16.5755 3.84461 16.4072 3.51677 16.1537 3.26106L15.7395 2.8469C15.4059 2.52893 14.9626 2.35156 14.5017 2.35156C14.0408 2.35156 13.5975 2.52893 13.2639 2.8469L8.3172 7.79356C8.15374 7.95521 8.02391 8.14762 7.93519 8.3597C7.84647 8.57177 7.80063 8.79932 7.8003 9.02921C7.79998 9.2591 7.84518 9.48677 7.93329 9.6991C8.02141 9.91143 8.1507 10.1042 8.3137 10.2663L8.72553 10.684C8.98038 10.9405 9.30914 11.1107 9.66568 11.1709C10.0222 11.2311 10.3886 11.1781 10.7135 11.0194L11.6142 11.9206L10.7917 12.7449C10.648 12.8894 10.5448 13.0692 10.4925 13.2662C10.4402 13.4632 10.4406 13.6704 10.4936 13.8672L4.59612 19.763C4.35145 20.0077 4.18484 20.3195 4.11735 20.6589C4.04985 20.9983 4.08451 21.3502 4.21693 21.6699C4.34935 21.9896 4.5736 22.2629 4.86132 22.4552C5.14903 22.6475 5.4873 22.7502 5.83337 22.7502ZM22.75 11.5047L23.1642 11.9189C23.2184 11.9731 23.2615 12.0374 23.2908 12.1082C23.3202 12.179 23.3353 12.2549 23.3353 12.3316C23.3353 12.4083 23.3202 12.4842 23.2908 12.555C23.2615 12.6258 23.2184 12.6901 23.1642 12.7443L18.2175 17.691C18.1632 17.7461 18.0986 17.7899 18.0273 17.8199C17.956 17.8499 17.8795 17.8656 17.8022 17.866C17.7254 17.8658 17.6493 17.8502 17.5786 17.8201C17.5079 17.7901 17.4439 17.7462 17.3904 17.691L16.982 17.2826C16.9277 17.2285 16.8846 17.1641 16.8552 17.0932C16.8258 17.0224 16.8107 16.9464 16.8107 16.8696C16.8107 16.7929 16.8258 16.7169 16.8552 16.6461C16.8846 16.5752 16.9277 16.5108 16.982 16.4566L21.9345 11.5047C22.0437 11.3968 22.1911 11.3363 22.3446 11.3363C22.4982 11.3363 22.6455 11.3968 22.7547 11.5047H22.75ZM9.55387 9.85856L9.13912 9.43856C9.08415 9.38564 9.04034 9.32224 9.01028 9.25211C8.98023 9.18198 8.96453 9.10653 8.96412 9.03023C8.96425 8.95259 8.97978 8.87574 9.00982 8.80415C9.03986 8.73256 9.08381 8.66763 9.13912 8.61315L14.0864 3.66648C14.1405 3.61224 14.2049 3.56922 14.2757 3.53986C14.3465 3.51051 14.4224 3.4954 14.4991 3.4954C14.5757 3.4954 14.6516 3.51051 14.7225 3.53986C14.7933 3.56922 14.8576 3.61224 14.9118 3.66648L15.3254 4.08065C15.4333 4.18984 15.4938 4.33719 15.4938 4.49073C15.4938 4.64427 15.4333 4.79162 15.3254 4.90081L10.3764 9.85856C10.2671 9.96721 10.1192 10.0282 9.96512 10.0282C9.81101 10.0282 9.66316 9.96721 9.55387 9.85856ZM15.7372 6.14273L20.6874 11.0923L16.5667 15.2188L15.3295 13.9821L12.8544 11.5071L11.6142 10.2669L15.7372 6.14273ZM12.439 12.7443L14.0893 14.3946L13.2645 15.22L11.6142 13.5697L12.439 12.7443ZM5.42095 20.5878L11.2018 14.807L12.0266 15.6336L6.24578 21.4144C6.13577 21.5207 5.98842 21.5795 5.83547 21.5781C5.68252 21.5768 5.53621 21.5154 5.42806 21.4073C5.3199 21.2991 5.25855 21.1528 5.25722 20.9999C5.2559 20.8469 5.31469 20.6996 5.42095 20.5896V20.5878Z" fill="white"/>
</svg>
