<svg width="38" height="29" viewBox="0 0 38 29" fill="none" xmlns="http://www.w3.org/2000/svg">
<path d="M30.0833 11.1235V3.16669C30.0833 1.42025 28.6631 0 26.9166 0H3.16662C1.42018 0 0 1.42018 0 3.16669V19C0 20.7464 1.42018 22.1667 3.16669 22.1667H20.9209C21.9582 25.8162 25.314 28.5 29.2917 28.5C30.8225 28.5 32.3277 28.0972 33.6466 27.3342C34.0247 27.1154 34.1546 26.6314 33.935 26.2526C33.7162 25.8738 33.2314 25.7431 32.8534 25.9642C31.7756 26.5874 30.5441 26.9167 29.2916 26.9167C25.3626 26.9167 22.1666 23.7206 22.1666 19.7917C22.1666 15.8628 25.3627 12.6667 29.2916 12.6667C33.2205 12.6667 36.4166 15.8628 36.4166 19.7917V20.5834C36.4166 21.4562 35.7061 22.1667 34.8333 22.1667C33.9605 22.1667 33.25 21.4562 33.25 20.5834V17.4167C33.25 16.9791 32.8959 16.625 32.4583 16.625C32.2454 16.625 32.054 16.7112 31.9119 16.8477C31.2122 16.2241 30.3003 15.8333 29.2916 15.8333C27.1091 15.8333 25.3333 17.6091 25.3333 19.7916C25.3333 21.9741 27.1091 23.75 29.2917 23.75C30.4715 23.75 31.5205 23.2207 32.2463 22.3991C32.8198 23.2138 33.7634 23.75 34.8334 23.75C36.5798 23.75 38 22.3298 38 20.5833V19.7916C38 15.2571 34.515 11.5253 30.0833 11.1235ZM3.16669 1.58331H26.9167C26.9496 1.58331 26.9773 1.60016 27.0098 1.60216L15.6927 10.8916C15.2899 11.1452 14.7061 11.0926 14.4441 10.9318L3.07459 1.60201C3.10672 1.60008 3.13404 1.58331 3.16669 1.58331ZM28.5 11.1235C24.0683 11.5253 20.5833 15.2571 20.5833 19.7917C20.5833 20.0589 20.5997 20.3222 20.6234 20.5834H3.16669C2.29388 20.5834 1.58338 19.8729 1.58338 19.0001V3.16669C1.58338 2.94248 1.63289 2.73073 1.71735 2.53732L13.5094 12.2075C13.9702 12.5082 14.4998 12.6668 15.0418 12.6668C15.5629 12.6668 16.0723 12.5199 16.5207 12.2416C16.5656 12.2176 16.6081 12.189 16.6483 12.1558L28.366 2.53717C28.4505 2.73073 28.5001 2.94248 28.5001 3.16677V11.1235H28.5ZM29.2917 22.1667C27.982 22.1667 26.9167 21.1014 26.9167 19.7917C26.9167 18.482 27.982 17.4167 29.2917 17.4167C30.6014 17.4167 31.6667 18.482 31.6667 19.7917C31.6667 21.1014 30.6014 22.1667 29.2917 22.1667Z" fill="white"/>
</svg>
