<svg width="35" height="35" viewBox="0 0 35 35" fill="none" xmlns="http://www.w3.org/2000/svg">
<path d="M0.582889 23.8984C0.582889 24.5168 0.828534 25.1098 1.26578 25.5471C1.70304 25.9843 2.29607 26.23 2.91444 26.23H16.0067C16.079 26.3518 16.1657 26.4646 16.2649 26.5657L22.2955 32.5974C22.634 32.934 23.092 33.1229 23.5694 33.1229C24.0467 33.1229 24.5047 32.934 24.8433 32.5974C25.1071 32.3316 25.2815 31.99 25.3421 31.6204C25.4027 31.2507 25.3465 30.8714 25.1813 30.5352L26.1542 29.5617L30.8587 34.2674C31.0813 34.4969 31.3473 34.6798 31.6412 34.8055C31.9352 34.9312 32.2512 34.9972 32.5709 34.9996C32.8906 35.0021 33.2076 34.9409 33.5034 34.8196C33.7992 34.6984 34.068 34.5195 34.294 34.2934C34.5201 34.0674 34.6989 33.7986 34.8201 33.5027C34.9413 33.2069 35.0024 32.8899 34.9999 32.5702C34.9974 32.2505 34.9314 31.9345 34.8056 31.6406C34.6799 31.3466 34.4969 31.0806 34.2674 30.8581L29.5629 26.1524L30.5352 25.1808C30.8708 25.3487 31.2508 25.4063 31.6212 25.3455C31.9915 25.2847 32.3331 25.1085 32.5974 24.8421C32.9342 24.5035 33.1232 24.0454 33.1232 23.5679C33.1232 23.0904 32.9342 22.6323 32.5974 22.2937L27.3957 17.0909V13.5422C27.7715 13.118 27.9789 12.5708 27.9786 12.004V6.99466C27.9786 6.37629 27.733 5.78325 27.2957 5.346C26.8585 4.90875 26.2654 4.6631 25.6471 4.6631H21.5669V2.33155C21.5669 1.71319 21.3212 1.12015 20.884 0.682896C20.4467 0.245645 19.8537 0 19.2353 0L8.74332 0C8.12495 0 7.53192 0.245645 7.09466 0.682896C6.65741 1.12015 6.41177 1.71319 6.41177 2.33155V4.6631H2.33155C1.71319 4.6631 1.12015 4.90875 0.682896 5.346C0.245646 5.78325 5.97365e-07 6.37629 5.97365e-07 6.99466V12.004C-0.000406214 12.5706 0.206982 13.1177 0.582889 13.5417V23.8984ZM15.7601 25.0642H2.91444C2.60526 25.0642 2.30874 24.9414 2.09011 24.7227C1.87149 24.5041 1.74866 24.2076 1.74866 23.8984V14.2557C1.77489 14.2627 1.79938 14.2743 1.82619 14.2802L10.492 16.2043V18.0695C10.492 18.5333 10.6762 18.9781 11.0042 19.306C11.3321 19.634 11.7769 19.8182 12.2406 19.8182H15.738C16.2018 19.8182 16.6465 19.634 16.9745 19.306C17.3024 18.9781 17.4866 18.5333 17.4866 18.0695V16.2043L26.1524 14.2808C26.1792 14.2749 26.2031 14.2633 26.2294 14.2569V16.0102C25.8829 15.8082 25.4805 15.7237 25.082 15.7691C24.6836 15.8146 24.3105 15.9877 24.0185 16.2626C23.7546 16.5284 23.5802 16.87 23.5197 17.2397C23.4592 17.6094 23.5156 17.9887 23.681 18.3248L18.3213 23.6845C17.985 23.525 17.6082 23.4712 17.2407 23.5302C16.8731 23.5892 16.5321 23.7583 16.2626 24.015C15.9825 24.2987 15.8056 24.6681 15.7601 25.0642ZM11.6578 18.0695V16.3209H16.3209V18.0695C16.3209 18.2241 16.2595 18.3724 16.1501 18.4817C16.0408 18.591 15.8926 18.6524 15.738 18.6524H12.2406C12.0861 18.6524 11.9378 18.591 11.8285 18.4817C11.7192 18.3724 11.6578 18.2241 11.6578 18.0695ZM24.0191 31.7732C23.8997 31.8922 23.7379 31.959 23.5694 31.959C23.4008 31.959 23.2391 31.8922 23.1197 31.7732L17.0891 25.7415C17.0024 25.6512 16.944 25.5376 16.9211 25.4145C16.8982 25.2915 16.9119 25.1644 16.9603 25.049C17.0088 24.9336 17.09 24.8349 17.1939 24.7651C17.2977 24.6953 17.4198 24.6574 17.5449 24.6562C17.628 24.6566 17.7102 24.6735 17.7867 24.7058C17.8632 24.7381 17.9326 24.7852 17.9908 24.8444L24.0191 30.8732C24.1384 30.9926 24.2054 31.1545 24.2054 31.3232C24.2054 31.492 24.1384 31.6539 24.0191 31.7732ZM33.4432 31.6823C33.6717 31.9168 33.7986 32.2318 33.7965 32.5592C33.7944 32.8865 33.6635 33.1999 33.432 33.4314C33.2006 33.663 32.8872 33.794 32.5599 33.7962C32.2325 33.7984 31.9174 33.6716 31.6829 33.4432L26.9784 28.7364L28.7387 26.9761L33.4432 31.6823ZM24.4312 29.6369L21.828 27.0332L19.2248 24.4294L24.4312 19.2231L27.0343 21.8262L29.6375 24.4294L24.4312 29.6369ZM31.7732 23.1173C31.8925 23.2367 31.9596 23.3986 31.9596 23.5673C31.9596 23.7361 31.8925 23.898 31.7732 24.0173C31.6521 24.1327 31.4911 24.1971 31.3238 24.1971C31.1565 24.1971 30.9956 24.1327 30.8744 24.0173L24.8433 17.9862C24.724 17.8668 24.6569 17.705 24.6569 17.5362C24.6569 17.3674 24.724 17.2056 24.8433 17.0862C24.9636 16.9692 25.1248 16.9037 25.2927 16.9037C25.4605 16.9037 25.6217 16.9692 25.7421 17.0862L31.7732 23.1173ZM7.57754 2.33155C7.57754 2.02237 7.70037 1.72585 7.91899 1.50722C8.13762 1.2886 8.43414 1.16578 8.74332 1.16578H19.2353C19.5445 1.16578 19.841 1.2886 20.0596 1.50722C20.2783 1.72585 20.4011 2.02237 20.4011 2.33155V4.6631H19.2353V3.49733C19.2353 3.18814 19.1125 2.89162 18.8939 2.673C18.6752 2.45437 18.3787 2.33155 18.0695 2.33155H9.9091C9.59991 2.33155 9.30339 2.45437 9.08477 2.673C8.86614 2.89162 8.74332 3.18814 8.74332 3.49733V4.6631H7.57754V2.33155ZM18.0695 3.49733V4.6631H9.9091V3.49733H18.0695ZM1.16578 6.99466C1.16578 6.68547 1.2886 6.38895 1.50722 6.17033C1.72585 5.9517 2.02237 5.82888 2.33155 5.82888H25.6471C25.9563 5.82888 26.2528 5.9517 26.4714 6.17033C26.69 6.38895 26.8128 6.68547 26.8128 6.99466V12.004C26.814 12.2695 26.724 12.5273 26.5578 12.7344C26.3917 12.9415 26.1595 13.0853 25.9 13.1418L16.8402 15.1551H11.1384L2.07916 13.1418C1.81962 13.0854 1.5873 12.9417 1.42104 12.7346C1.25478 12.5275 1.16467 12.2696 1.16578 12.004V6.99466Z" fill="white"/>
</svg>
