<svg width="26" height="27" viewBox="0 0 26 27" fill="none" xmlns="http://www.w3.org/2000/svg">
<path d="M25.9187 15.644C25.8243 15.4903 25.6603 15.3985 25.4799 15.3985H25.3885L21.6904 7.25125H22.5562C23.1365 7.25125 23.6086 6.77914 23.6086 6.19885C23.6086 5.61856 23.1365 5.14645 22.5562 5.14645H14.1364V3.76072C14.6873 3.39207 15.0508 2.7644 15.0508 2.05322C15.0508 0.921092 14.1298 0 12.9976 0C11.8655 0 10.9444 0.921092 10.9444 2.05322C10.9444 2.7644 11.3079 3.39207 11.8589 3.76072V5.1464H3.43899C2.85866 5.1464 2.3866 5.61851 2.3866 6.1988C2.3866 6.77908 2.85871 7.25119 3.43899 7.25119H4.30477L0.606688 15.3985H0.515295C0.334914 15.3985 0.170909 15.4903 0.0765481 15.644C-0.0178126 15.7977 -0.0253861 15.9856 0.0563353 16.1465L0.724741 17.4621C0.983517 17.9715 1.49928 18.288 2.07071 18.288H7.98428C8.55571 18.288 9.07142 17.9715 9.33025 17.4621L9.9986 16.1466C10.0804 15.9858 10.0729 15.798 9.97854 15.6441C9.88418 15.4904 9.72013 15.3985 9.53969 15.3985H9.44835L5.75027 7.25125H11.8588V21.6131H9.08186C8.40015 21.6131 7.84555 22.1677 7.84555 22.8494V23.5215H7.23062C6.54891 23.5215 5.99431 24.0761 5.99431 24.7577V25.8149C5.99431 26.0276 6.16671 26.2 6.37943 26.2H19.6158C19.8285 26.2 20.0009 26.0276 20.0009 25.8149V24.7577C20.0009 24.0761 19.4463 23.5215 18.7646 23.5215H18.1497V22.8494C18.1497 22.1677 17.5951 21.6131 16.9133 21.6131H14.1364V10.4919C14.1364 10.2792 13.964 10.1067 13.7513 10.1067C13.5386 10.1067 13.3662 10.2791 13.3662 10.4919V21.6131H12.6289V6.86613C12.6289 6.65346 12.4565 6.48101 12.2438 6.48101H3.43899C3.28338 6.48101 3.15678 6.35441 3.15678 6.1988C3.15678 6.04318 3.28338 5.91658 3.43899 5.91658H12.2439C12.4566 5.91658 12.629 5.74419 12.629 5.53146V4.07363C12.6434 4.07624 12.6579 4.07819 12.6724 4.08049C12.6797 4.08167 12.6871 4.08289 12.6944 4.08397C12.7191 4.0876 12.744 4.09072 12.7689 4.09349C12.7781 4.09451 12.7873 4.09569 12.7966 4.09656C12.82 4.09881 12.8435 4.10045 12.8671 4.10193C12.8774 4.1026 12.8877 4.10352 12.8981 4.10398C12.9274 4.10536 12.9568 4.10602 12.9862 4.10623C12.99 4.10623 12.9937 4.10654 12.9976 4.10654C13.0014 4.10654 13.0052 4.10628 13.009 4.10623C13.0384 4.10607 13.0677 4.10541 13.0971 4.10398C13.1074 4.10347 13.1177 4.10254 13.1281 4.10193C13.1516 4.10045 13.1751 4.09881 13.1986 4.09656C13.2078 4.09564 13.2171 4.09451 13.2263 4.09349C13.2512 4.09072 13.2761 4.08765 13.3008 4.08402C13.3081 4.08294 13.3155 4.08172 13.3228 4.08054C13.3372 4.07824 13.3518 4.07629 13.3662 4.07368V5.53152C13.3662 5.74419 13.5386 5.91663 13.7513 5.91663H22.5562C22.7118 5.91663 22.8384 6.04323 22.8384 6.19885C22.8384 6.35446 22.7118 6.48106 22.5562 6.48106H13.7513C13.5386 6.48106 13.3662 6.65346 13.3662 6.86618V8.6663C13.3662 8.87897 13.5386 9.05142 13.7513 9.05142C13.9641 9.05142 14.1365 8.87902 14.1365 8.6663V7.25125H20.245L16.5469 15.3985H16.4556C16.2751 15.3985 16.1111 15.4903 16.0167 15.6441C15.9224 15.7979 15.9149 15.9858 15.9966 16.1465L16.665 17.4621C16.9238 17.9715 17.4395 18.288 18.011 18.288H23.9245C24.496 18.288 25.0117 17.9715 25.2705 17.4621L25.939 16.1464C26.0206 15.9856 26.0131 15.7978 25.9187 15.644ZM16.9134 22.3833C17.1704 22.3833 17.3795 22.5924 17.3795 22.8494V23.5214H11.4869C11.2742 23.5214 11.1018 23.6938 11.1018 23.9065C11.1018 24.1192 11.2742 24.2917 11.4869 24.2917H18.7646C19.0216 24.2917 19.2307 24.5007 19.2307 24.7577V25.4298H6.76455V24.7577C6.76455 24.5007 6.97363 24.2917 7.23062 24.2917H9.69961C9.91233 24.2917 10.0847 24.1193 10.0847 23.9065C10.0847 23.6939 9.91233 23.5214 9.69961 23.5214H8.61574V22.8494C8.61574 22.5923 8.82483 22.3833 9.08181 22.3833H16.9134ZM8.64357 17.1132C8.51682 17.3627 8.26419 17.5177 7.98428 17.5177H2.07076C1.79085 17.5177 1.53822 17.3627 1.41147 17.1132L0.931577 16.1687H9.12346L8.64357 17.1132ZM8.60714 15.3985H1.4479L5.02752 7.51217L8.60714 15.3985ZM13.5667 3.20274C13.5527 3.2097 13.5385 3.2163 13.5243 3.22275C13.5171 3.22602 13.51 3.22945 13.5026 3.23257C13.4866 3.23948 13.4704 3.24588 13.4541 3.25212C13.4416 3.25688 13.429 3.26143 13.4163 3.26583C13.4029 3.27049 13.3895 3.27515 13.376 3.27934C13.3637 3.28313 13.3512 3.28651 13.3388 3.28994C13.3294 3.29255 13.32 3.29521 13.3104 3.29761C13.2976 3.30084 13.2846 3.30375 13.2716 3.30662C13.2621 3.30866 13.2526 3.31071 13.243 3.31255C13.2303 3.31501 13.2176 3.31731 13.2047 3.31941C13.1941 3.32115 13.1834 3.32263 13.1728 3.32407C13.1609 3.32571 13.149 3.32734 13.1371 3.32862C13.1238 3.33005 13.1104 3.33108 13.0971 3.3321C13.0874 3.33287 13.0779 3.33379 13.0682 3.3343C13.0448 3.33558 13.0213 3.33635 12.9977 3.33635C12.974 3.33635 12.9505 3.33558 12.9271 3.3343C12.9174 3.33379 12.9079 3.33287 12.8983 3.3321C12.8849 3.33108 12.8716 3.33005 12.8583 3.32862C12.8463 3.32734 12.8344 3.32571 12.8226 3.32407C12.8119 3.32263 12.8013 3.3211 12.7907 3.31941C12.7778 3.31731 12.7651 3.31501 12.7523 3.31255C12.7427 3.31071 12.7332 3.30866 12.7238 3.30662C12.7108 3.3038 12.6978 3.30089 12.6849 3.29761C12.6755 3.29521 12.666 3.29255 12.6566 3.28994C12.6441 3.28651 12.6316 3.28313 12.6194 3.27934C12.6059 3.27515 12.5925 3.27049 12.5791 3.26583C12.5664 3.26143 12.5538 3.25693 12.5413 3.25212C12.525 3.24588 12.5088 3.23948 12.4927 3.23257C12.4854 3.22945 12.4782 3.22602 12.471 3.22275C12.4568 3.2163 12.4427 3.20975 12.4286 3.20274C12.006 2.99263 11.7147 2.55639 11.7147 2.05322C11.7147 1.34577 12.2902 0.770186 12.9977 0.770186C13.7052 0.770186 14.2808 1.34577 14.2808 2.05322C14.2807 2.55639 13.9894 2.99263 13.5667 3.20274ZM20.9677 7.51217L24.5474 15.3985H17.3881L20.9677 7.51217ZM24.5838 17.1132C24.457 17.3627 24.2044 17.5177 23.9245 17.5177H18.0109C17.731 17.5177 17.4784 17.3627 17.3516 17.1132L16.8717 16.1687H25.0636L24.5838 17.1132Z" fill="white"/>
</svg>
