<svg width="31" height="35" viewBox="0 0 31 35" fill="none" xmlns="http://www.w3.org/2000/svg">
<path d="M25.629 21L21.7903 19.5322L17.3871 30.4274L16.4839 24.2742H17.0484L17.8952 22.5806L17.0484 20.8871H13.5484L12.7016 22.5806L13.5484 24.2742H14.1129L13.2097 30.5967L8.8629 19.8145L4.91129 21.0564C1.97581 22.0725 0 24.8387 0 27.8871V35H30.4839V27.8871C30.4839 24.8387 28.5081 22.0726 25.629 21ZM14.1694 23.1451L13.8871 22.5806L14.1694 22.0161H16.3145L16.5968 22.5806L16.3145 23.1451H14.1694ZM1.12903 33.8709V27.8871C1.12903 25.2903 2.76613 22.9193 5.25 22.0725L8.18548 21.1693L13.2661 33.8709H1.12903ZM14.5081 33.8709L14 32.6855L15.1855 24.2742H15.3548L16.5968 32.5161L16.0323 33.8709H14.5081ZM29.3548 33.8709H17.2177L22.4113 21L25.2339 22.0725C27.7177 22.9758 29.3548 25.2903 29.3548 27.9435V33.8709Z" fill="white"/>
<path d="M5.98524 11.1774C5.98524 12.7016 7.45299 12.4194 7.45299 12.4194C8.69492 16.0323 11.574 19.7581 15.2433 19.7581C18.9127 19.7581 21.7917 16.0323 23.0336 12.4194C23.824 12.3065 24.4449 11.7419 24.5014 10.9516L24.8401 9.20161C24.8965 8.75 24.7272 7.73387 23.6546 7.39516C23.3159 4.79839 20.832 0 15.2433 0C10.953 0 7.45299 3.16129 6.88847 7.39516C5.75944 7.79032 5.64653 8.75 5.70299 9.25806C5.64653 9.25806 5.98524 11.0645 5.98524 11.1774ZM15.2433 1.12903C17.7272 1.12903 19.8723 2.37097 21.2272 4.29032L17.2191 2.37097C17.2191 2.37097 15.8078 6.20968 11.7433 6.20968H8.24331C9.25944 3.21774 12.0256 1.12903 15.2433 1.12903ZM7.39653 8.46774H7.9046C7.9046 8.46774 8.0175 7.56452 8.0175 7.33871H11.7998C14.2836 7.33871 16.5417 5.98387 17.7836 3.83871L22.1304 5.92742C22.582 7.1129 22.6385 8.46774 22.6385 8.46774H23.203C23.6546 8.52419 23.7675 8.91935 23.7675 9.03226L23.4288 10.7823C23.3723 11.0645 23.1465 11.2903 22.8643 11.2903H22.2433L22.1304 11.6855C21.0578 15.129 18.4046 18.629 15.2998 18.629C12.1949 18.629 9.54169 15.129 8.46911 11.6855L8.35621 11.2903H7.22718C7.22718 11.2339 7.11428 10.0484 6.88847 9.08871C6.71911 8.91936 6.83202 8.46774 7.39653 8.46774Z" fill="white"/>
</svg>
