<svg width="51" height="60" viewBox="0 0 51 60" fill="none" xmlns="http://www.w3.org/2000/svg">
<path fill-rule="evenodd" clip-rule="evenodd" d="M15.588 23.1856L19.8135 30.8253H11.3626L15.588 23.1856ZM43.2805 30.8253H34.8295L39.0549 23.1856L43.2805 30.8253ZM39.0549 36.6924C36.6848 36.6924 34.7025 34.9995 34.2524 32.7604H43.8587C43.4075 34.9995 41.4258 36.6924 39.0549 36.6924ZM15.588 36.6924C13.2186 36.6924 11.2355 34.9995 10.7855 32.7604H20.3918C19.9406 34.9995 17.9583 36.6924 15.588 36.6924ZM15.588 38.6275C19.3567 38.6275 22.4233 35.5609 22.4233 31.7928C22.4233 31.6221 22.3783 31.463 22.3018 31.3237L17.2296 22.155H26.3545V40.1305H22.6965C22.1618 40.1305 21.7289 40.5627 21.7289 41.098C21.7289 41.6328 22.1618 42.0656 22.6965 42.0656H31.9463C32.4816 42.0656 32.9146 41.6327 32.9146 41.098C32.9146 40.5627 32.4816 40.1305 31.9463 40.1305H28.2897V22.155H37.4146L32.3425 31.3237C32.2647 31.463 32.2216 31.6221 32.2216 31.7928C32.2216 35.5609 35.287 38.6275 39.0549 38.6275C42.8242 38.6275 45.8896 35.5609 45.8896 31.7928C45.8896 31.6221 45.8459 31.463 45.7688 31.3237L39.9017 20.719C39.731 20.411 39.4066 20.2198 39.0549 20.2198H15.588C15.2364 20.2198 14.912 20.411 14.7413 20.719L8.87418 31.3237C8.79834 31.463 8.75335 31.6221 8.75335 31.7928C8.75349 35.5609 11.8201 38.6275 15.588 38.6275ZM48.5206 10.604C48.5206 10.7652 48.3854 10.9003 48.2243 10.9003H44.1573C44.3703 10.722 44.5049 10.4566 44.5049 10.1587V2.02266C44.5049 1.99322 44.5035 1.96463 44.5015 1.93519H48.2244C48.3856 1.93519 48.5208 2.07102 48.5208 2.23151V10.604H48.5206ZM40.3093 10.3213C39.5253 11.3702 38.3762 11.993 37.1559 12.0291L25.0237 12.1002C25.0176 12.1002 25.0121 12.1002 25.0059 12.1016C24.7991 12.1064 24.5239 12.0654 24.1948 11.7192C24.0654 11.5319 24.0105 11.042 24.0105 10.6962C24.0105 10.4326 24.0895 10.2277 24.1348 10.1916C24.2228 10.1567 24.3806 10.0899 24.6558 9.97521C26.7876 9.08275 28.0496 8.59384 28.4061 8.52347L33.3731 8.4517C33.9077 8.44357 34.3353 8.00442 34.3264 7.46981C34.3186 6.9345 33.8849 6.51273 33.3452 6.51651L28.3304 6.58758C27.9166 6.59641 27.1183 6.84577 23.9088 8.18959C23.7245 8.26668 23.5483 8.34125 23.4575 8.37797C22.9543 8.52067 22.4633 9.02192 22.225 9.73202C20.3062 9.71688 18.2325 9.57573 16.6775 10.701L7.28479 17.4934C7.12163 17.5609 6.95707 17.563 6.79517 17.4981C6.02844 17.193 5.77151 15.6949 6.86413 14.8139L19.1615 4.88115C21.2024 3.23289 22.4037 2.90923 25.577 2.91652L41.4116 2.99025V9.43304C41.0236 9.59886 40.6446 9.87205 40.3093 10.3213ZM48.2243 0H43.6424C42.8441 0 42.145 0.423314 41.7503 1.05506H41.4525L25.585 0.980631C21.9317 0.964932 20.2943 1.47838 17.9446 3.37474L5.64718 13.3075C4.58875 14.1631 3.78908 15.7815 4.39139 17.4687C4.98543 19.1335 6.72354 19.9708 8.22014 19.1915L17.8114 12.2688C18.8083 11.5479 20.586 11.6469 22.1578 11.6672C22.2309 12.0373 22.4284 12.6377 22.6638 12.9107C23.3173 13.6673 24.1396 14.0551 25.0436 14.0359L37.1779 13.9642C38.8761 13.9591 40.5774 13.0653 41.6943 11.6889C42.076 12.3725 42.8067 12.8354 43.6426 12.8354H48.2244C49.4548 12.8354 50.4566 11.8357 50.4566 10.6039V2.23151C50.4565 1.0018 49.4547 0 48.2243 0ZM43.5925 45.1877L31.2951 55.119C29.2991 56.7319 28.0987 57.1034 24.8797 57.0836L9.04504 57.0099V50.5672C9.4336 50.4013 9.81191 50.1281 10.1458 49.6796C10.9298 48.6307 12.0789 48.0073 13.3012 47.971L25.4328 47.8999H25.4513C25.6582 47.8952 25.9326 47.9347 26.2605 48.2809C26.3912 48.4699 26.4462 48.9582 26.4462 49.3046C26.4462 49.5663 26.3673 49.7716 26.3205 49.8085C26.2324 49.8447 26.0753 49.9103 25.7994 50.0256C23.6676 50.9181 22.407 51.407 22.0506 51.4767L17.0821 51.5484C16.5488 51.5566 16.1214 51.9957 16.1288 52.5303C16.1364 53.0637 16.5705 53.4874 17.1102 53.4836L22.1257 53.4126C22.5402 53.405 23.3378 53.1544 26.5473 51.8106C26.7323 51.7335 26.9071 51.6596 26.9993 51.622C27.5025 51.4793 27.9935 50.9788 28.2318 50.2692C30.1453 50.2845 32.2298 50.4202 33.7786 49.3003L43.1719 42.5066C43.3336 42.4391 43.4982 42.4384 43.6615 42.5019C44.4163 42.7999 44.6944 44.298 43.5925 45.1877ZM1.93589 57.7685V49.3961C1.93589 49.2349 2.07116 49.0998 2.23221 49.0998H6.29785C6.08619 49.2781 5.95023 49.5437 5.95023 49.8413V57.9782C5.95023 58.0068 5.95289 58.0355 5.95569 58.065H2.23221C2.07102 58.065 1.93589 57.9297 1.93589 57.7685ZM44.3751 40.7033C45.142 41.0072 45.7579 41.6737 46.0637 42.5313C46.6667 44.2187 45.8685 45.8369 44.8086 46.6927L32.5105 56.6254C30.2004 58.4916 28.5719 59.0208 25.0422 59.0208C19.6091 59.0208 14.1414 58.9456 8.70639 58.9456C8.31237 59.5765 7.6118 60 6.81353 60H2.23221C1.0004 60 0 58.9989 0 57.7684V49.396C0 48.1647 1.0004 47.1643 2.23221 47.1643H6.81353C7.65063 47.1643 8.37994 47.6273 8.76232 48.3109C9.89924 46.9091 11.5224 46.0828 13.2569 46.0371C13.2644 46.0357 13.2719 46.0357 13.278 46.0357L25.4123 45.9639C26.3171 45.9435 27.1385 46.3333 27.7927 47.0892C28.0296 47.3701 28.2237 47.957 28.2973 48.3341C29.8738 48.3477 31.6419 48.4568 32.6449 47.7317L42.2362 40.8083C42.9137 40.4631 43.6738 40.4255 44.3751 40.7033Z" fill="#B68C5A"/>
</svg>
