<svg width="60" height="60" viewBox="0 0 60 60" fill="none" xmlns="http://www.w3.org/2000/svg">
<path d="M22.0034 0C15.3874 0 10.0006 5.38865 10.0006 12.0046C10.0006 12.3876 10.0183 12.766 10.0436 13.1493C10.0549 14.5594 12.205 14.4226 12.0379 13.0223C12.0152 12.6688 12.0008 12.3308 12.0008 12.0046C12.0008 6.46962 16.4683 2.002 22.0033 2.002C27.5384 2.002 31.9981 6.46958 31.9981 12.0046C31.9981 13.2409 31.8292 14.5916 31.5118 15.9893C31.2951 16.0119 31.0761 16.0516 30.8652 16.1181C30.4885 14.8881 29.3421 13.997 27.9979 13.997C26.3184 13.997 25.0016 12.6801 25.0016 11.0006C25.0096 10.4395 24.5509 9.98248 23.9898 9.98879C23.4373 9.99635 22.9952 10.4481 23.0015 11.0006C23.0015 12.68 21.6826 13.997 20.0032 13.997H16.001C14.6569 13.997 13.5182 14.9116 13.1415 16.1416C12.5557 15.9572 11.9314 15.9382 11.366 16.0867C10.1464 16.4073 9.05358 17.4874 9.00449 18.9835C9.00449 21.8726 11.1061 23.7564 13.5028 23.972C14.0087 25.4258 14.88 26.6873 16.001 27.6949V30.0018C15.999 30.0018 15.997 30.0018 15.995 30.0018C15.7316 30.0039 15.4796 30.1098 15.2938 30.2965L13.2917 32.2986C13.0312 32.5594 12.9352 32.942 13.0417 33.2948L19.462 54.1516L12.0905 44.7701L12.9714 41.2445C13.0562 40.9036 12.9562 40.5434 12.7077 40.2952L10.1021 37.6896L11.065 33.5819C11.2122 32.9546 10.7366 32.3539 10.0923 32.3533C10.0113 32.3533 9.93065 32.3646 9.85205 32.3835C4.1807 33.7854 3.96876e-05 38.9031 0 45.0036V59.0044C5.97203e-05 59.5567 0.447768 60.0044 1.00006 60.0045H38.0024C39.3548 60.0234 39.3548 57.9852 38.0024 58.0043H24.0601L33.7893 45.6207C33.9798 45.378 34.0475 45.0608 33.9729 44.7613L33.1096 41.31L35.7093 38.7101C35.9455 38.4739 36.048 38.1353 35.9828 37.8077L35.4144 34.9384C37.1071 35.6605 38.6245 36.8359 39.7682 38.341C40.5768 39.3946 42.1605 38.1912 41.362 37.1299C39.6121 34.8271 37.2415 33.2042 34.3323 32.4851C33.6202 32.309 32.9669 32.9339 33.1115 33.6532L33.9163 37.6749L31.295 40.2961C31.0465 40.5445 30.9465 40.9047 31.0313 41.2455L31.9122 44.771L24.5387 54.1564L30.959 33.2957C31.0651 32.9427 30.968 32.5598 30.7071 32.2995L28.7069 30.2975C28.5189 30.1093 28.2638 30.0042 27.9979 30.0046V27.6998C29.1202 26.6915 29.9923 25.4366 30.4981 23.9808C32.9285 23.7978 35.0042 21.8731 35.0042 18.9843C34.9664 17.8322 34.3079 16.9359 33.4533 16.4335C33.7967 14.9229 34.0002 13.4241 34.0002 12.0054C34.0002 5.38945 28.6194 0 22.0034 0ZM24.0015 14.0028C24.9139 15.2272 26.3593 15.9971 27.9979 15.9971C28.5693 15.9971 29.0019 16.4317 29.0019 17.0031V21.0033C29.0019 24.8989 25.8989 28.0017 22.0034 28.0017C18.1079 28.0017 14.9971 24.8989 14.9971 21.0033V17.0031C14.9971 16.4317 15.4297 15.9971 16.001 15.9971H20.0032C21.6422 15.9971 23.0892 15.2278 24.0015 14.0028ZM12.9969 18.3371V21.0033C12.9969 21.2902 13.0136 21.573 13.0399 21.8529C11.923 21.5222 11.0125 20.5784 11.0125 19.0168C11.0125 17.9779 12.5608 17.674 12.9969 18.3371ZM32.9962 19.0247C32.9962 20.5098 32.0771 21.5254 30.959 21.855C30.9854 21.5746 31.002 21.2908 31.002 21.0034V18.3411C31.4618 17.6628 32.9962 17.9839 32.9962 19.0247ZM26.0056 29.0586V31.3614L22.0034 34.6975L18.0031 31.3634V29.0605C19.2082 29.6611 20.5655 30.0019 22.0034 30.0019C23.4428 30.0019 24.8002 29.6603 26.0056 29.0586ZM16.0616 32.3576L20.3646 35.9418L16.7452 38.526L15.1318 33.2796L16.0616 32.3576ZM27.9393 32.3576L28.869 33.2796L27.2557 38.524L23.6363 35.9399L27.9393 32.3576ZM8.70759 34.8655L8.02786 37.7739C7.94856 38.1107 8.04906 38.4646 8.2935 38.7095L10.8933 41.3094L10.0299 44.7607C9.95524 45.0601 10.023 45.3773 10.2135 45.6201L19.9427 58.0037H9.00449V51.0052C9.01579 50.4382 8.55189 49.975 7.9849 49.9856C7.43234 49.9969 6.99205 50.4527 7.0024 51.0052V58.0037H2.00014V45.0029C2.00014 40.4629 4.81842 36.5545 8.70759 34.8655ZM53.5366 42.8367L50.0872 50.5989C50.032 50.7271 50.0052 50.8659 50.0071 51.0053C50.0071 51.0053 49.992 52.2101 50.6106 53.4487C51.23 54.6873 52.5263 56.0017 55.0035 56.0017C57.4806 56.0017 58.7751 54.6873 59.3944 53.4487C60.0139 52.2101 59.9999 51.0053 59.9999 51.0053C60.0019 50.8658 59.9734 50.727 59.9198 50.5989L56.4684 42.8309C57.0279 42.7043 58.0491 42.3461 58.7088 41.7098C59.6012 40.8489 58.3243 39.3465 57.3005 40.2916C56.932 40.6318 55.9312 41.0007 55.0015 41.0007C52.4764 40.9629 51.3742 39.2685 48.003 39.0475V37.0005C48.011 36.4478 47.5691 35.9947 47.0166 35.9887V35.9848C47.0087 35.9848 47.0049 35.9812 47.0011 35.9812C46.4486 35.9887 46.0085 36.4404 46.0148 36.9929V39.0399C42.6436 39.261 41.5414 40.9566 39.0163 40.9932C38.0865 40.9932 37.086 40.6247 36.7173 40.2841C35.6935 39.339 34.4166 40.8413 35.309 41.7021C35.9687 42.3385 36.9898 42.6967 37.5494 42.8233L34.098 50.5914C34.0428 50.7196 34.0164 50.8583 34.0179 50.9977C34.0179 50.9977 34.0028 52.2025 34.6234 53.4411C35.2427 54.6797 36.5371 55.9942 39.0143 55.9942C41.4914 55.9942 42.7878 54.6797 43.4072 53.4411C44.0265 52.2025 44.0107 50.9977 44.0107 50.9977C44.0127 50.8582 43.9842 50.7195 43.9306 50.5914L40.4812 42.8292C42.5261 42.5045 43.7272 40.9983 47.0011 40.997C50.2877 41.0008 51.4882 42.5115 53.5366 42.8367ZM22.0014 37.2328L23.5679 38.352L22.4682 40.0064H21.5385L20.4349 38.352L22.0014 37.2328ZM18.8078 39.5142L19.9505 41.2292L19.1145 46.2314L17.3663 40.5436L18.8078 39.5142ZM25.1989 39.5163L26.6345 40.5417L24.8864 46.2218L24.0543 41.2331L25.1989 39.5163ZM21.8471 42.0067H22.1557L23.5699 50.4994L21.9975 55.6052L20.431 50.511L21.8471 42.0067ZM47.0128 42.9793C46.5126 42.9793 46.0147 43.3127 46.0147 43.9794V57.9959H41.9636C40.6134 58.0878 40.7053 60.0291 42.0105 59.9961H47.0011V60.0036H52.0073C53.3124 60.0376 53.4043 58.0952 52.0542 58.0034H48.0031V43.987C48.0031 43.3254 47.5128 42.9942 47.0167 42.9889V42.9774L47.0128 42.9793ZM39.0142 44.456L41.4714 49.9915H36.559L39.0142 44.456ZM55.0035 44.4636L57.4587 49.9991H52.5463L55.0035 44.4636ZM36.1937 51.9934H41.8367C41.8367 51.9934 41.484 53.9934 39.0162 53.9934C36.5482 53.9934 36.1937 51.9934 36.1937 51.9934ZM52.1811 52.0009H57.824C57.824 52.0009 57.4695 54.001 55.0016 54.001C52.5336 54.001 52.1811 52.0009 52.1811 52.0009Z" fill="#B68C5A"/>
</svg>
