<svg width="60" height="61" viewBox="0 0 60 61" fill="none" xmlns="http://www.w3.org/2000/svg">
<path d="M8.36134 21.7962C8.36134 21.3455 8.72653 20.9803 9.17721 20.9803H33.6173C34.0677 20.9803 34.4331 21.3455 34.4331 21.7962C34.4331 22.2469 34.0677 22.6121 33.6173 22.6121H9.17721C8.72653 22.612 8.36134 22.2469 8.36134 21.7962ZM21.7072 27.8606H9.17721C8.72653 27.8606 8.36134 28.2258 8.36134 28.6765C8.36134 29.1272 8.72653 29.4924 9.17721 29.4924H21.7073C22.158 29.4924 22.5232 29.1272 22.5232 28.6765C22.5232 28.2258 22.1579 27.8606 21.7072 27.8606ZM21.7072 34.7408H9.17721C8.72653 34.7408 8.36134 35.1062 8.36134 35.5567C8.36134 36.0071 8.72653 36.3725 9.17721 36.3725H21.7073C22.158 36.3725 22.5232 36.0071 22.5232 35.5567C22.5232 35.1062 22.1579 34.7408 21.7072 34.7408ZM21.7072 41.621H9.17721C8.72653 41.621 8.36134 41.9864 8.36134 42.4368C8.36134 42.8873 8.72653 43.2527 9.17721 43.2527H21.7073C22.158 43.2527 22.5232 42.8873 22.5232 42.4368C22.5231 41.9864 22.1579 41.621 21.7072 41.621ZM59.8193 41.043C59.5999 41.5217 59.2084 41.8854 58.7171 42.0682L56.1739 43.0131C55.9519 43.0954 55.7209 43.1363 55.4904 43.1363C55.211 43.1363 54.9321 43.0763 54.6698 42.9557C54.4846 42.8708 54.3232 42.7534 54.1763 42.6214C54.1137 43.1972 53.8966 43.7489 53.5177 44.1641C52.9977 44.734 52.2966 44.9566 51.5481 44.811C51.5295 45.187 51.4302 45.5652 51.2406 45.919C50.6828 46.9611 49.5212 47.4758 48.4154 47.2606C48.3946 47.6341 48.2922 48.001 48.111 48.3399C48.0063 48.5358 47.872 48.7077 47.7255 48.8675V51.1965C47.7255 54.068 45.4367 56.4094 42.5881 56.5059C41.9548 58.735 39.9055 60.3741 37.476 60.3741H5.31799C2.38572 60.3741 0 57.9886 0 55.0561V9.17686C0 6.30496 2.28997 3.96346 5.13899 3.86795C5.78117 1.62149 7.86301 0 10.2491 0H42.4074C45.3399 0 47.7253 2.38572 47.7253 5.31799V30.7074C47.8343 30.7522 47.9409 30.7969 48.0451 30.8405C48.8556 31.1794 49.3672 31.3648 49.7722 31.3482C49.6834 30.936 49.7222 30.5085 49.9015 30.1173C50.1208 29.6391 50.5123 29.2749 51.0037 29.0925L53.5474 28.1479C54.0393 27.9659 54.5737 27.9856 55.0517 28.2052C55.5297 28.4245 55.8936 28.816 56.0763 29.3074L59.8768 39.5389C60.0589 40.0306 60.0387 40.565 59.8193 41.043ZM47.4151 32.3458C45.8786 31.703 44.2901 31.0379 42.0804 32.5631C41.6119 32.887 41.1304 33.2962 40.6486 33.7826C40.3586 34.0753 40.0611 34.3679 39.7706 34.6532C39.1795 35.2337 38.4794 35.9216 38.1022 36.3906C39.2171 37.5528 40.3793 37.199 42.2102 36.51C43.7017 35.9486 45.3887 35.3122 46.8833 36.4506C47.2939 36.6848 47.8989 36.9834 48.5384 37.2994C50.3588 38.1984 51.8916 38.9911 52.8791 39.7931L50.3238 32.9135C50.1299 32.9568 49.9361 32.9837 49.743 32.9837C48.9391 32.9837 48.147 32.6522 47.4151 32.3458ZM6.86708 3.85887H37.476C40.4085 3.85887 42.794 6.24459 42.794 9.17686V30.3522C44.0308 29.8952 45.1284 29.9365 46.0936 30.1613V5.31799C46.0936 3.28555 44.4401 1.63175 42.4074 1.63175H10.2491C8.76049 1.63175 7.44087 2.54161 6.86708 3.85887ZM25.8057 13.2442L30.2064 10.2774C30.4823 10.0914 30.8424 10.0914 31.1186 10.2774L35.0534 12.9297V5.49062H25.8057V13.2442ZM41.1623 55.0561V53.0602C40.9914 53.1021 40.819 53.1258 40.6475 53.1258C40.2486 53.1258 39.8561 53.0184 39.5072 52.8315C38.9345 52.5256 38.4571 51.9939 38.2016 51.3741C38.1851 51.3794 38.1687 51.3847 38.1517 51.3895C37.4983 51.5872 36.8084 51.5202 36.2088 51.1993C35.7631 50.9768 35.3971 50.6103 35.1598 50.1497C35.0456 50.2034 34.9271 50.249 34.8043 50.2863C34.1511 50.4839 33.4606 50.4169 32.8614 50.0961C32.2899 49.8108 31.85 49.2887 31.6424 48.6359C31.5314 48.2864 31.4958 47.9199 31.5335 47.564C31.1617 47.5486 30.7878 47.4514 30.4383 47.2644C29.8674 46.9797 29.4275 46.4576 29.2199 45.8048C29.0076 45.1382 29.0703 44.4116 29.3917 43.8108L29.6851 43.2624C29.5155 43.3092 29.343 43.3391 29.1683 43.3391C28.9658 43.3391 28.762 43.3073 28.5639 43.243L25.9822 42.4107C24.9502 42.0777 24.3812 40.9664 24.7141 39.9344L28.0654 29.5467C28.2264 29.0477 28.5732 28.6409 29.0417 28.4008C29.5102 28.1612 30.0432 28.1179 30.542 28.2784L33.1245 29.1115C33.7868 29.3254 34.2544 29.8608 34.4191 30.4889C35.018 30.5099 35.6156 30.3917 36.2807 30.2595C37.6736 29.9828 39.2285 29.6761 41.1626 30.6312V9.17686C41.1626 7.14442 39.5092 5.49062 37.4764 5.49062H36.6855V14.4638C36.6855 14.7656 36.5192 15.0426 36.2526 15.1841C35.986 15.3259 35.6641 15.3086 35.4134 15.1402L30.6627 11.9378L25.8009 15.2153C25.6663 15.3061 25.5075 15.3547 25.345 15.3547H24.9901C24.5395 15.3547 24.1743 14.9895 24.1743 14.5388V5.49062H5.31799C3.28555 5.49062 1.63175 7.14442 1.63175 9.17686V55.0561C1.63175 57.0889 3.28555 58.7423 5.31799 58.7423H37.476C39.5088 58.7423 41.1623 57.0889 41.1623 55.0561ZM43.5763 48.8914C43.7007 49.4099 43.5971 49.9251 43.4409 50.3522L43.5238 50.3952C44.0311 50.6565 44.2913 50.2625 44.3577 50.1355C44.4322 49.9933 44.604 49.5281 44.0455 49.1434L43.5763 48.8914ZM42.7689 51.842L42.7054 51.8088C42.6988 51.8202 42.6919 51.8308 42.6853 51.842H42.7689ZM40.1383 49.2638L40.1372 49.2655L39.7165 50.0521C39.4482 50.5541 39.862 51.1713 40.2768 51.3927C40.4319 51.4767 40.9067 51.7295 41.3396 50.9206L41.6455 50.3485C41.6457 50.3481 41.6458 50.3475 41.6461 50.3469C42.2245 49.2644 42.0571 49.1088 41.441 48.7789C41.1765 48.6371 40.8928 48.7035 40.7479 48.7545C40.484 48.8479 40.2619 49.0338 40.1383 49.2638ZM38.7949 46.3631C38.3493 46.1252 37.7894 46.2936 37.5498 46.7413C37.5495 46.742 37.5489 46.7426 37.5484 46.7434L36.6006 48.5154V48.516C36.4859 48.7306 36.4657 48.9967 36.5448 49.2453C36.5873 49.3781 36.6967 49.6198 36.958 49.7505C37.1928 49.8758 37.4419 49.8997 37.6782 49.8281C37.9146 49.7564 38.1085 49.5986 38.2237 49.3835L38.2789 49.2804C38.2794 49.2795 38.2801 49.2788 38.2806 49.278L38.6962 48.5008C38.6969 48.4994 38.6973 48.4978 38.698 48.4965H38.6986L39.1729 47.6095C39.4121 47.1615 39.2427 46.6026 38.7949 46.3631ZM36.4126 44.8328C36.3409 44.5959 36.1832 44.4025 35.9681 44.2873C35.5214 44.0477 34.9621 44.2177 34.7225 44.665C34.7222 44.6657 34.7216 44.6663 34.7211 44.667L33.8907 46.2196L33.2534 47.4116C33.1386 47.6266 33.1185 47.8923 33.1976 48.1414C33.2396 48.2741 33.3495 48.5163 33.6108 48.647C34.0793 48.8972 34.637 48.7261 34.8765 48.2799L35.1622 47.7456C35.1626 47.7449 35.1632 47.7443 35.1636 47.7436L36.1101 45.9741C36.1104 45.9735 36.1105 45.9727 36.1109 45.9721L36.3451 45.5334C36.4605 45.3178 36.4843 45.0692 36.4126 44.8328ZM33.1152 42.1648C32.9101 42.0681 32.677 42.0506 32.4549 42.1181C32.2181 42.1898 32.0247 42.3476 31.9095 42.5626L31.5605 43.215C31.5604 43.2151 31.5603 43.2153 31.5602 43.2154L30.8302 44.5806C30.7154 44.7952 30.6953 45.0613 30.7744 45.3104C30.8168 45.4427 30.9263 45.6849 31.1882 45.8155C31.6539 46.0658 32.2127 45.8963 32.4524 45.4495C32.4532 45.4481 32.4544 45.4469 32.4551 45.4454L33.2841 43.8954V43.8948C33.2841 43.8948 33.2841 43.8948 33.2841 43.8943L33.5327 43.4306C33.6256 43.2564 33.9072 42.73 33.1152 42.1648ZM32.839 31.0864C32.8948 30.9138 32.796 30.7204 32.6229 30.6646L30.0406 29.8315C30.005 29.8198 29.9712 29.8154 29.9402 29.8154C29.8722 29.8154 29.8172 29.8368 29.7852 29.8533C29.7387 29.8773 29.6547 29.9343 29.6184 30.0478L26.2668 40.4354C26.2111 40.6085 26.3101 40.8019 26.483 40.8577L29.0653 41.6905C29.1792 41.7277 29.2743 41.6926 29.3208 41.6693C29.3673 41.6454 29.4512 41.5881 29.4875 41.4749L30.0703 39.6685C30.091 39.5958 30.109 39.5227 30.1323 39.4506C30.1405 39.4256 30.1531 39.4037 30.1633 39.3802L32.839 31.0864ZM46.0936 51.1967V49.7011C46.0876 49.7018 46.0816 49.7041 46.0755 49.7047C46.0899 50.1212 45.9922 50.5333 45.8026 50.894C45.393 51.6749 44.6425 52.1109 43.8425 52.1109C43.4944 52.1109 43.1369 52.0271 42.794 51.854V54.863C44.6457 54.6688 46.0936 53.0987 46.0936 51.1967ZM52.3778 41.589C51.819 40.7396 49.4102 39.5494 47.8157 38.7621C47.097 38.4073 46.4766 38.1009 46.0193 37.8358C45.9853 37.8161 45.9529 37.7938 45.9221 37.7699C45.1764 37.1803 44.2442 37.4867 42.7856 38.0371C40.9617 38.7238 38.463 39.6625 36.442 36.9455C36.2715 36.7156 36.2337 36.4133 36.3421 36.1487C36.6136 35.4869 37.3875 34.7066 38.6277 33.4887C38.9124 33.2088 39.2046 32.922 39.4888 32.6351C39.7208 32.4003 39.9545 32.1804 40.1878 31.9754C38.8673 31.4091 37.7997 31.6216 36.5987 31.8602C35.843 32.0103 35.0674 32.1614 34.2236 32.1104L31.6336 40.1374C31.5762 40.3423 31.5287 40.5488 31.5 40.7566C31.6515 40.6748 31.8129 40.6073 31.9819 40.5564C32.6357 40.3566 33.3257 40.4257 33.9254 40.7466C33.9625 40.7663 33.9977 40.789 34.031 40.814C34.7046 41.2868 35.1178 41.904 35.2437 42.5642C35.7419 42.5069 36.2625 42.5945 36.7384 42.8488C37.3376 43.1691 37.7768 43.7061 37.9745 44.3595C38.0031 44.4535 38.026 44.5486 38.0436 44.6441C38.5498 44.5788 39.0809 44.666 39.5648 44.9241C40.1582 45.2417 40.5715 45.7627 40.7727 46.3544C41.0061 46.0187 41.4561 45.9024 41.8254 46.099L44.5319 47.5522C44.5783 47.5672 44.6243 47.5851 44.6687 47.6091C44.6697 47.6091 44.6702 47.6095 44.6714 47.6101L45.347 47.9719C45.5765 48.0941 45.8405 48.1191 46.0928 48.0436C46.344 47.9671 46.55 47.7993 46.6722 47.5704C46.795 47.3409 46.8204 47.0764 46.7445 46.8247C46.668 46.574 46.5006 46.3685 46.2734 46.2457L46.2713 46.2446C46.2435 46.2298 46.2198 46.2106 46.1944 46.193L43.0684 44.5215C42.6711 44.3096 42.5213 43.8151 42.7337 43.4178C42.9456 43.0199 43.4423 42.8696 43.8375 43.0831L47.0452 44.7983C47.0727 44.813 47.096 44.832 47.1211 44.8493L48.4496 45.56C48.9361 45.8187 49.5427 45.6355 49.8025 45.1494C50.0532 44.6805 49.8872 44.1007 49.4372 43.8274L45.0321 41.4366C44.6364 41.2216 44.4892 40.7265 44.7044 40.3302C44.9195 39.9345 45.4145 39.789 45.8108 40.0025L50.1214 42.3421C50.1346 42.3484 50.1484 42.3518 50.1615 42.3588L51.5011 43.0754C52.0387 43.3617 52.2378 43.1466 52.3127 43.0642C52.5965 42.7529 52.6853 42.0554 52.3778 41.589ZM58.3469 40.1071L54.5464 29.8754C54.505 29.7633 54.419 29.7099 54.3712 29.6881C54.3409 29.6743 54.2904 29.6568 54.2293 29.6568C54.1943 29.6568 54.156 29.6623 54.1157 29.6772L51.5719 30.622C51.4599 30.6634 51.4063 30.7495 51.3845 30.7973C51.3626 30.845 51.3325 30.9417 51.3738 31.0533L55.1743 41.285C55.2157 41.397 55.3018 41.4507 55.3496 41.4725C55.3969 41.4937 55.494 41.524 55.6056 41.4831L58.1487 40.5382C58.2607 40.4968 58.3144 40.4108 58.3362 40.363C58.3581 40.3154 58.3883 40.2187 58.3469 40.1071Z" fill="#B68C5A"/>
</svg>
