<svg width="90" height="85" viewBox="0 0 90 85" fill="none" xmlns="http://www.w3.org/2000/svg">
<path d="M68.5108 10.2873C68.5108 10.2873 69.5061 9.99074 70.5474 9.73441C71.5704 9.48992 72.6399 9.28547 72.6399 9.28547C72.6399 9.28547 72.4375 9.10512 72.134 8.83449C71.8345 8.55916 71.4218 8.20765 71.0016 7.86472C70.5896 7.51198 70.155 7.18723 69.8345 6.93723C69.5151 6.68539 69.2943 6.52832 69.2943 6.52832C69.2943 6.52832 68.2561 6.84123 67.2618 7.19764C66.2539 7.56325 65.2974 7.96153 65.2974 7.96153C65.2974 7.96153 65.5034 8.0996 65.8125 8.30691C66.1246 8.50973 66.5337 8.79057 66.9326 9.08551C67.3396 9.36921 67.7293 9.6764 68.0233 9.90455C68.3186 10.1304 68.5108 10.2873 68.5108 10.2873Z" fill="#011C1A"/>
<path d="M73.3394 4.30735C73.3394 4.30735 73.349 5.43623 73.3088 6.52916C73.2595 7.6417 73.1642 8.71421 73.1642 8.71421C73.1642 8.71421 72.9579 8.53039 72.6486 8.25465C72.3435 7.97402 71.9227 7.61597 71.4946 7.2663C71.0747 6.90682 70.6319 6.57594 70.3051 6.32103C69.9795 6.0645 69.7544 5.90437 69.7544 5.90437C69.7544 5.90437 69.7379 4.82308 69.6652 3.71605C69.5888 2.62475 69.4609 1.50098 69.4609 1.50098C69.4609 1.50098 69.7097 1.66723 70.0831 1.91662C70.4591 2.16192 70.9526 2.50098 71.4346 2.85616C71.925 3.19991 72.3964 3.5692 72.751 3.84473C73.1074 4.11822 73.3394 4.30735 73.3394 4.30735Z" fill="#011C1A"/>
<path d="M74.2162 16.042C74.2162 16.042 74.4781 16.0254 74.8706 16.0005C75.2656 15.9775 75.7981 15.9517 76.3234 15.9468C76.8522 15.9384 77.3884 15.9399 77.7936 15.9454C78.2015 15.9491 78.4654 15.9634 78.4654 15.9634C78.4654 15.9634 78.3153 15.7375 78.072 15.4115C77.8292 15.0853 77.5203 14.6392 77.178 14.2185C76.8441 13.7912 76.5089 13.3651 76.2407 13.0594C75.9781 12.7489 75.803 12.542 75.803 12.542C75.803 12.542 75.5381 12.5569 75.1327 12.5965C74.7293 12.6343 74.1962 12.6903 73.6717 12.755C73.1502 12.8159 72.6214 12.9009 72.2325 12.9648C71.8451 13.0314 71.5869 13.0759 71.5869 13.0759C71.5869 13.0759 72.2861 13.7791 72.9433 14.522C73.2742 14.8911 73.5861 15.2769 73.8294 15.5579C74.0673 15.8437 74.2162 16.042 74.2162 16.042Z" fill="#011C1A"/>
<path d="M80.2323 11.2585C80.2323 11.2585 80.1723 11.5314 80.0822 11.9409C79.9907 12.3478 79.8651 12.8835 79.7172 13.4207C79.5734 13.9556 79.4223 14.481 79.3057 14.8703C79.1917 15.2581 79.1016 15.52 79.1016 15.52C79.1016 15.52 78.9486 15.2898 78.7009 14.9577C78.4535 14.6252 78.1386 14.1707 77.7897 13.7418C77.4495 13.3063 77.1075 12.8721 76.8345 12.5604C76.5667 12.244 76.3882 12.0333 76.3882 12.0333C76.3882 12.0333 76.4486 11.7641 76.5207 11.3658C76.5951 10.9659 76.6894 10.4273 76.7752 9.87967C76.8651 9.32922 76.9303 8.7851 76.9789 8.36966C77.0246 7.95279 77.0553 7.6748 77.0553 7.6748C77.0553 7.6748 77.9 8.52468 78.6937 9.42235C79.0933 9.86864 79.4717 10.3333 79.7642 10.6742C80.0514 11.0198 80.2323 11.2585 80.2323 11.2585Z" fill="#011C1A"/>
<path d="M78.5393 22.9044C78.5393 22.9044 78.7989 22.9449 79.1887 23.0055C79.5831 23.0672 80.1031 23.1599 80.6155 23.2692C81.6478 23.4806 82.7046 23.7468 82.7046 23.7468C82.7046 23.7468 82.5967 23.498 82.4352 23.1246C82.2669 22.7545 82.0737 22.2465 81.8265 21.7635C81.3674 20.7805 80.8445 19.8299 80.8445 19.8299C80.8445 19.8299 80.5798 19.7919 80.1825 19.7351C79.7793 19.6849 79.2454 19.6244 78.7179 19.5744C78.1907 19.5231 77.6694 19.4825 77.2699 19.4637C76.8759 19.4451 76.6133 19.4326 76.6133 19.4326C76.6133 19.4326 76.7452 19.6428 76.9431 19.9579C77.1298 20.28 77.3786 20.7096 77.6274 21.1393C77.8604 21.5778 78.0937 22.0166 78.2683 22.3454C78.4307 22.6808 78.5393 22.9044 78.5393 22.9044Z" fill="#011C1A"/>
<path d="M85.4475 19.5347C85.4475 19.5347 85.3303 19.7878 85.1542 20.1673C84.9804 20.5427 84.7361 21.0409 84.4741 21.5341C83.96 22.52 83.4216 23.4512 83.4216 23.4512C83.4216 23.4512 83.3119 23.1977 83.1473 22.8174C82.9759 22.4402 82.7786 21.923 82.527 21.4308C82.0593 20.4293 81.5264 19.4608 81.5264 19.4608C81.5264 19.4608 81.6379 19.2108 81.8052 18.8358C81.9637 18.4624 82.1712 17.9579 82.3726 17.4432C82.5752 16.9285 82.7711 16.4038 82.903 16.0125C83.0372 15.6164 83.1269 15.3525 83.1269 15.3525C83.1269 15.3525 83.2856 15.6062 83.5237 15.9869C83.7486 16.3752 84.0484 16.893 84.3483 17.4107C84.6289 17.9389 84.9095 18.4669 85.1201 18.863C85.3166 19.2661 85.4475 19.5347 85.4475 19.5347Z" fill="#011C1A"/>
<path d="M81.2941 30.5375C81.2941 30.5375 81.5478 30.6272 81.9052 30.7753C82.2666 30.9221 82.7504 31.1253 83.2369 31.3402C83.7233 31.5547 84.2124 31.781 84.5803 31.9562C84.9381 32.1364 85.1765 32.2565 85.1765 32.2565C85.1765 32.2565 85.1659 32.1895 85.1473 32.0724C85.1317 31.9548 85.0976 31.7887 85.0547 31.59C84.9712 31.1921 84.8599 30.6615 84.7484 30.1308C84.6309 29.6016 84.4782 29.0808 84.3795 28.6864C84.2762 28.293 84.2073 28.031 84.2073 28.031C84.2073 28.031 83.9557 27.9344 83.5715 27.7996C83.1885 27.6641 82.6802 27.4905 82.1757 27.3286C81.6697 27.1664 81.1728 27.014 80.7941 26.9076C80.4099 26.8061 80.1538 26.7383 80.1538 26.7383C80.1538 26.7383 80.1757 26.7963 80.2139 26.898C80.2523 26.9997 80.3094 27.1441 80.3619 27.3226C80.4745 27.6774 80.6246 28.1503 80.7747 28.6233C80.9324 29.0941 81.0339 29.5806 81.136 29.9382C81.2306 30.2977 81.2941 30.5375 81.2941 30.5375Z" fill="#011C1A"/>
<path d="M88.7646 28.7338C88.7646 28.7338 88.6061 28.9566 88.3414 29.2893C88.0805 29.6212 87.7309 30.0565 87.3783 30.4799C87.026 30.9039 86.671 31.3161 86.4037 31.6196C86.1253 31.9223 85.9396 32.1239 85.9396 32.1239C85.9396 32.1239 85.9288 32.0557 85.9098 31.9364C85.8939 31.8165 85.8591 31.6474 85.8154 31.4448C85.7303 31.0391 85.6167 30.4985 85.5031 29.9576C85.3834 29.4184 85.228 28.8874 85.1273 28.4856C85.0219 28.0849 84.9517 27.8177 84.9517 27.8177C84.9517 27.8177 85.1149 27.6004 85.3483 27.2699C85.5832 26.939 85.8943 26.4907 86.2013 26.0309C86.5074 25.5722 86.8144 25.1002 87.0348 24.744C87.2476 24.3874 87.3894 24.1494 87.3894 24.1494C87.3894 24.1494 87.4155 24.2195 87.4611 24.342C87.5068 24.4646 87.5744 24.639 87.6394 24.8541C87.7752 25.282 87.9564 25.8524 88.1375 26.4229C88.3246 26.9915 88.4533 27.5777 88.5748 28.0099C88.6888 28.4441 88.7646 28.7338 88.7646 28.7338Z" fill="#011C1A"/>
<path d="M82.3158 38.5761C82.3158 38.5761 83.1847 39.149 84.0552 39.7834C84.8959 40.4113 85.7325 41.1002 85.7325 41.1002C85.7325 41.1002 85.7433 40.8294 85.7592 40.4229C85.7848 40.0167 85.784 39.4746 85.7744 38.9325C85.7658 38.3905 85.7758 37.8478 85.7405 37.4423C85.7168 37.0365 85.701 36.7659 85.701 36.7659C85.701 36.7659 85.4761 36.6198 85.1389 36.4009C84.8034 36.1846 84.3559 35.9039 83.8861 35.6372C82.9586 35.0992 82.0391 34.6221 82.0391 34.6221C82.0391 34.6221 82.0654 34.8686 82.105 35.2383C82.1393 35.6084 82.2141 36.0994 82.23 36.5955C82.2592 37.0904 82.2882 37.5855 82.3101 37.9566C82.3138 38.3282 82.3158 38.5761 82.3158 38.5761Z" fill="#011C1A"/>
<path d="M90.0001 38.443C90.0001 38.443 89.1433 39.1746 88.2849 39.8449C87.3968 40.5208 86.5065 41.1356 86.5065 41.1356C86.5065 41.1356 86.5173 40.8594 86.5338 40.4454C86.5596 40.0314 86.559 39.4789 86.5494 38.9264C86.5408 38.3739 86.5504 37.821 86.5148 37.4076C86.4907 36.9938 86.4746 36.7181 86.4746 36.7181C86.4746 36.7181 86.6805 36.5386 86.9891 36.2692C87.2992 35.9967 87.7111 35.6262 88.0984 35.2453C88.886 34.4861 89.6654 33.666 89.6654 33.666C89.6654 33.666 89.6977 33.9638 89.7463 34.4103C89.789 34.8574 89.8735 35.4514 89.8966 36.0502C89.9311 36.6482 89.9656 37.2461 89.9916 37.6946C89.9967 38.1435 90.0001 38.443 90.0001 38.443Z" fill="#011C1A"/>
<path d="M81.5737 46.65C81.5737 46.65 81.7641 46.8387 82.0292 47.1257C82.2937 47.4123 82.6452 47.8016 82.9943 48.2027C83.3433 48.6032 83.6899 49.0156 83.9483 49.3302C84.1965 49.6451 84.3619 49.8551 84.3619 49.8551C84.3619 49.8551 84.4465 49.5971 84.5337 49.1996C84.6272 48.8038 84.7522 48.2762 84.877 47.7487C84.9884 47.2182 85.079 46.6833 85.1562 46.284C85.2312 45.8843 85.2766 45.6171 85.2766 45.6171C85.2766 45.6171 84.5112 44.8377 83.7381 44.1188C83.3523 43.7574 82.9675 43.4086 82.6587 43.1502C82.3558 42.8955 82.1538 42.7256 82.1538 42.7256C82.1538 42.7256 82.1323 42.9727 82.1003 43.3434C82.0498 43.7121 81.9826 44.2037 81.9154 44.6954C81.8603 45.1888 81.7504 45.6737 81.6867 46.0403C81.6189 46.4061 81.5737 46.65 81.5737 46.65Z" fill="#011C1A"/>
<path d="M89.1047 48.187C89.1047 48.187 88.8655 48.3212 88.4889 48.5107C88.1117 48.7003 87.61 48.9458 87.111 49.1794C86.6119 49.4137 86.1151 49.6363 85.744 49.7977C85.3641 49.9539 85.1108 50.0579 85.1108 50.0579C85.1108 50.0579 85.1968 49.7948 85.2859 49.39C85.3813 48.9868 85.5085 48.449 85.6356 47.9115C85.7491 47.3708 85.8416 46.8259 85.9203 46.419C85.9967 46.0117 86.0428 45.7395 86.0428 45.7395C86.0428 45.7395 86.9854 45.2264 87.9356 44.6529C88.4109 44.368 88.8896 44.0712 89.2293 43.8408C89.5753 43.6081 89.8059 43.4531 89.8059 43.4531C89.8059 43.4531 89.7791 43.7513 89.7391 44.1984C89.6787 44.6433 89.5984 45.2364 89.5179 45.8294C89.4478 46.4241 89.3204 47.0095 89.2426 47.4515C89.1597 47.8929 89.1047 48.187 89.1047 48.187Z" fill="#011C1A"/>
<path d="M79.0947 54.375C79.0947 54.375 79.6474 55.2651 80.1605 56.2035C80.6585 57.1277 81.1297 58.1064 81.1297 58.1064C81.1297 58.1064 81.2526 57.8648 81.4372 57.5025C81.5296 57.3213 81.6372 57.1099 81.7526 56.8834C81.8574 56.652 81.9693 56.4049 82.0812 56.1579C82.5451 55.1769 82.9291 54.1622 82.9291 54.1622C82.9291 54.1622 82.7867 53.9347 82.5731 53.5934C82.3566 53.2541 82.0763 52.8127 81.7626 52.372C81.1489 51.4917 80.5171 50.6689 80.5171 50.6689C80.5171 50.6689 80.437 50.9038 80.317 51.2564C80.1954 51.6083 80.0475 52.0828 79.8545 52.5405C79.6699 53.0013 79.4951 53.4661 79.3504 53.8093C79.1969 54.1487 79.0947 54.375 79.0947 54.375Z" fill="#011C1A"/>
<path d="M86.1173 57.4973C86.1173 57.4973 85.039 57.8019 83.9696 58.0433C82.8797 58.2817 81.8164 58.4655 81.8164 58.4655C81.8164 58.4655 81.9418 58.2194 82.1297 57.8501C82.2237 57.6654 82.3334 57.45 82.4508 57.2192C82.5576 56.9833 82.6718 56.7316 82.7858 56.4802C83.2582 55.4806 83.6497 54.4467 83.6497 54.4467C83.6497 54.4467 83.9118 54.3707 84.3048 54.2569C84.6969 54.1397 85.2337 53.9804 85.7447 53.7988C86.7784 53.444 87.8303 53.0312 87.8303 53.0312C87.8303 53.0312 87.7341 53.3145 87.5899 53.7394C87.4437 54.1636 87.2617 54.7339 87.0323 55.2868C86.8115 55.8427 86.5979 56.4018 86.4234 56.8152C86.2398 57.2245 86.1173 57.4973 86.1173 57.4973Z" fill="#011C1A"/>
<path d="M75.0215 61.3894C75.0215 61.3894 75.1122 61.6388 75.2294 62.0089C75.3495 62.3806 75.5051 62.8823 75.6536 63.3939C75.8011 63.9037 75.9467 64.428 76.0433 64.8179C76.1348 65.2074 76.1957 65.467 76.1957 65.467C76.1957 65.467 76.24 65.4158 76.3176 65.3259C76.3944 65.2356 76.5092 65.1106 76.6314 64.948C76.8818 64.6278 77.2159 64.2007 77.5499 63.7734C77.8848 63.3471 78.1816 62.8923 78.4214 62.5638C78.6561 62.2317 78.8125 62.0103 78.8125 62.0103C78.8125 62.0103 78.7253 61.7556 78.5819 61.3745C78.44 60.9942 78.2468 60.4932 78.0472 60.0028C77.6598 59.0246 77.1994 58.0732 77.1994 58.0732C77.1994 58.0732 77.0819 58.2922 76.8873 58.6092C76.6873 58.9231 76.4208 59.3416 76.1542 59.7601C75.8936 60.1827 75.5875 60.5743 75.3789 60.8823C75.1643 61.1866 75.0215 61.3894 75.0215 61.3894Z" fill="#011C1A"/>
<path d="M81.2045 65.9558C81.2045 65.9558 80.9284 65.9748 80.5045 65.9865C80.0832 66.0002 79.5256 66.0122 78.9753 66.0147C78.4235 66.0165 77.8844 66.0132 77.4745 65.9989C77.0634 65.9797 76.7891 65.9669 76.7891 65.9669C76.7891 65.9669 76.8342 65.9146 76.9132 65.8231C76.9915 65.731 77.1083 65.6035 77.2331 65.4379C77.4884 65.1115 77.8287 64.6762 78.1692 64.241C78.5105 63.8063 78.8132 63.3431 79.0574 63.0083C79.2966 62.6699 79.4559 62.4442 79.4559 62.4442C79.4559 62.4442 79.7276 62.4299 80.131 62.3964C80.5356 62.3639 81.0793 62.3147 81.6291 62.2549C82.1761 62.1942 82.7404 62.1295 83.1483 62.0655C83.5593 61.9998 83.8332 61.9561 83.8332 61.9561C83.8332 61.9561 83.6902 62.2191 83.4555 62.6017C83.2145 62.9804 82.8932 63.4855 82.5719 63.9904C82.2552 64.4983 81.8904 64.9744 81.6371 65.3449C81.3775 65.7116 81.2045 65.9558 81.2045 65.9558Z" fill="#011C1A"/>
<path d="M69.5161 67.3355C69.5161 67.3355 69.6401 68.3749 69.7085 69.4433C69.7673 70.4905 69.7786 71.5763 69.7786 71.5763C69.7786 71.5763 69.9926 71.4101 70.3137 71.1605C70.4742 71.0357 70.6615 70.8902 70.8623 70.7342C71.0551 70.5688 71.2608 70.3921 71.4667 70.2156C71.8738 69.8578 72.2974 69.5181 72.5884 69.2338C72.8831 68.9536 73.0796 68.7669 73.0796 68.7669C73.0796 68.7669 73.0465 68.5003 72.9971 68.1004C72.9418 67.6991 72.8795 67.1858 72.7804 66.6531C72.5948 65.5949 72.3676 64.582 72.3676 64.582C72.3676 64.582 72.1965 64.7614 71.9397 65.0304C71.6844 65.3008 71.3458 65.6631 70.9785 65.9969C70.6168 66.3357 70.2647 66.6854 69.9867 66.9319C69.7042 67.1739 69.5161 67.3355 69.5161 67.3355Z" fill="#011C1A"/>
<path d="M74.5562 73.1393C74.5562 73.1393 73.4496 72.9588 72.3793 72.7253C71.2903 72.4788 70.249 72.1934 70.249 72.1934C70.249 72.1934 70.4672 72.0239 70.7944 71.7696C70.958 71.6424 71.1487 71.4941 71.3534 71.3352C71.5501 71.1665 71.7596 70.9867 71.9694 70.8068C72.3844 70.4422 72.8158 70.0956 73.1126 69.806C73.413 69.5204 73.6132 69.3301 73.6132 69.3301C73.6132 69.3301 73.8826 69.372 74.2868 69.4347C74.6894 69.4916 75.2482 69.5793 75.7874 69.6297C76.8734 69.7435 78.0007 69.8119 78.0007 69.8119C78.0007 69.8119 77.7942 70.0288 77.4843 70.354C77.1755 70.6802 76.7643 71.1158 76.323 71.5215C75.8871 71.9322 75.4592 72.3517 75.1234 72.6501C74.7831 72.9436 74.5562 73.1393 74.5562 73.1393Z" fill="#011C1A"/>
<path d="M62.8525 71.9524C62.8525 71.9524 62.8245 72.2157 62.7825 72.6107C62.7361 73.0041 62.6595 73.5162 62.5762 74.0413C62.4111 75.0864 62.1924 76.1583 62.1924 76.1583C62.1924 76.1583 63.1638 75.6761 64.1352 75.1939C64.6084 74.9294 65.0819 74.6647 65.4369 74.4663C65.6144 74.3671 65.7622 74.2845 65.8658 74.2265C65.9665 74.1638 66.0241 74.1281 66.0241 74.1281C66.0241 74.1281 66.1303 73.0415 66.1852 71.9878C66.2144 71.4602 66.2353 70.9418 66.2345 70.5388C66.2349 70.1428 66.2353 69.8789 66.2353 69.8789C66.2353 69.8789 66.0323 70.0215 65.7279 70.2351C65.4128 70.4328 64.9924 70.6967 64.5721 70.9604C64.1581 71.2343 63.7189 71.4671 63.3942 71.6495C63.0692 71.8313 62.8525 71.9524 62.8525 71.9524Z" fill="#011C1A"/>
<path d="M66.5125 78.7102C66.5125 78.7102 66.2557 78.6061 65.8707 78.4498C65.4865 78.2889 64.9726 78.0546 64.4728 77.8222C63.4684 77.3553 62.5176 76.8614 62.5176 76.8614C62.5176 76.8614 63.5072 76.3702 64.4967 75.8788C64.979 75.6091 65.4614 75.3397 65.8231 75.1375C66.0039 75.0364 66.1546 74.9521 66.2602 74.8933C66.363 74.8295 66.4216 74.793 66.4216 74.793C66.4216 74.793 67.4206 75.1863 68.471 75.5468C68.9947 75.7282 69.5302 75.9055 69.9246 76.0172C70.325 76.1328 70.5919 76.2096 70.5919 76.2096C70.5919 76.2096 70.3464 76.381 69.9782 76.6379C69.5983 76.8769 69.0915 77.1957 68.585 77.5146C68.0833 77.8422 67.5566 78.1259 67.1655 78.3457C66.7735 78.5644 66.5125 78.7102 66.5125 78.7102Z" fill="#011C1A"/>
<path d="M68.662 5.67075L63.0593 4.44465L59.7251 0L64.9908 0.766136L68.662 5.67075Z" fill="#011C1A"/>
</svg>
