<svg width="90" height="85" viewBox="0 0 90 85" fill="none" xmlns="http://www.w3.org/2000/svg">
<path d="M73.822 47.0982L66.5048 25.7122C67.187 25.5028 67.6831 24.8672 67.6831 24.1154C67.6831 23.7976 67.5824 23.503 67.4274 23.2473C68.4274 22.6891 69.1094 21.6272 69.1094 20.3948C69.1094 18.9219 68.1404 17.6973 66.8073 17.2788C67.0011 17.0463 67.1251 16.7594 67.1251 16.4338C67.1251 15.7208 66.5438 15.1393 65.8228 15.1393C65.1098 15.1393 64.5283 15.7206 64.5283 16.4338C64.5283 16.7594 64.6523 17.0461 64.8461 17.2788C64.2182 17.4726 63.6833 17.8445 63.2803 18.3484H48.8473C48.3745 17.4571 47.6227 16.7438 46.6848 16.3564C46.3048 14.0155 47.6615 13.1009 47.6615 11.1552C47.6615 9.75998 46.5996 8.97709 45.8089 7.96933C46.1035 7.7369 46.2895 7.37252 46.2895 6.96933C46.2895 6.2561 45.716 5.6748 44.995 5.6748C44.282 5.6748 43.7005 6.2561 43.7005 6.96933C43.7005 7.38007 43.8943 7.73669 44.1888 7.97709C43.3982 8.97709 42.3363 9.75998 42.3363 11.1552C42.3363 13.3178 43.6694 14 43.1502 16.4338C42.2899 16.837 41.5922 17.5112 41.1504 18.3484H26.7252C26.322 17.8445 25.7795 17.4726 25.1517 17.2788C25.3455 17.0463 25.4695 16.7594 25.4695 16.4338C25.4695 15.7208 24.8882 15.1393 24.1749 15.1393C23.4539 15.1393 22.8804 15.7206 22.8804 16.4338C22.8804 16.7594 22.9966 17.0461 23.1905 17.2788C21.8571 17.6973 20.8884 18.9221 20.8884 20.3948C20.8884 21.666 21.6169 22.759 22.679 23.3092C22.4544 23.5186 22.3147 24.0069 22.3147 24.34C22.3147 25.0841 22.8108 25.7275 23.5007 25.9291L16.1754 47.3153H15.4932C16.3457 51.1832 30.1045 52.8884 32.8561 47.3153H31.9104L24.4846 25.9215C24.5234 25.906 24.5622 25.8905 24.593 25.875C24.6318 25.8594 24.6705 25.8439 24.7093 25.8284C25.2595 25.5572 25.6394 24.9914 25.6394 24.3402C25.6394 24.0069 25.5387 23.7046 25.3759 23.4489C25.9109 23.2395 26.3682 22.8909 26.7246 22.4489H41.1498C41.3978 22.9217 41.7311 23.3402 42.1343 23.6891C42.0026 24.4254 42.3514 25.4873 43.0412 25.4254C43.3978 28.588 42.8629 37.9748 42.0334 42.1452C40.7156 43.1993 41.3204 45.7418 42.0644 47.2688C42.4907 48.1523 42.4674 49.2686 42.2195 50.4236C44.072 50.4391 45.9866 50.7259 47.909 51.2761C47.3896 49.7181 47.1805 48.1834 47.9013 47.2688C48.6453 45.7418 49.2499 43.1993 47.9323 42.1452C47.1028 37.975 46.5681 28.588 46.9245 25.4254C47.6067 25.4873 47.9556 24.4487 47.8392 23.7124C48.2499 23.3558 48.591 22.9295 48.8469 22.4489H63.2799C63.6055 22.8596 64.0318 23.2007 64.5201 23.4101C64.4194 23.6272 64.3651 23.8596 64.3651 24.1156C64.3651 24.7667 64.745 25.3325 65.2953 25.6037C65.3263 25.6192 65.3649 25.6348 65.4037 25.6581C65.4425 25.6736 65.4811 25.6891 65.5199 25.6969L58.0941 47.0984H57.1406C59.8923 52.664 73.6588 50.9587 74.5113 47.0984H73.822V47.0982ZM23.7252 47.3153H16.7334L23.7252 26.875V47.3153ZM31.3524 47.3153H24.2522V26.8517L31.3524 47.3153ZM65.753 47.0982H58.6449L65.753 26.6348V47.0982ZM66.2724 47.0982V26.6581L73.264 47.0984H66.2724V47.0982Z" fill="#011C1A"/>
<path d="M45.0001 74.7957C25.4586 74.7957 9.56055 58.8976 9.56055 39.3563C9.56055 19.8151 25.4586 3.91699 45.0001 3.91699C64.5411 3.91699 80.4392 19.8151 80.4392 39.3563C80.4392 58.8976 64.5411 74.7957 45.0001 74.7957ZM45.0001 4.32569C25.6841 4.32569 9.96925 20.0404 9.96925 39.3563C9.96925 58.6723 25.6841 74.387 45.0001 74.387C64.3161 74.387 80.0305 58.6723 80.0305 39.3563C80.0305 20.0404 64.3161 4.32569 45.0001 4.32569Z" fill="#011C1A"/>
<path d="M60.5845 77.418L61.1537 72.6104C50.2951 78.5027 35.8132 76.5103 28.8392 72.6104L29.4084 77.418L24.752 79.6694C37.2948 86.5748 55.4317 86.1661 65.2409 79.6694L60.5845 77.418Z" fill="#011C1A"/>
<path d="M41.5618 59.5258C34.1525 57.6269 31.4789 59.72 30.5859 60.9488C30.2399 61.4249 30.2364 62.0682 30.58 62.5462C31.7789 64.2141 35.3776 66.4804 39.4499 66.8571C38.6049 65.2547 38.5875 63.4277 38.5875 63.4277C40.2499 69.2702 48.3106 69.527 51.0965 67.8587C50.3951 67.0443 50.0806 66.1704 50.0806 66.1704C54.6008 69.3015 63.2176 64.1918 64.6186 61.8683C63.119 61.9443 62.0902 61.0519 62.0902 61.0519C64.3283 61.2545 67.2513 60.6667 69.5234 55.7082C67.3733 55.3046 61.0734 53.644 57.5896 57.3356C57.5152 57.4142 57.5144 55.3462 61.3651 54.7627C54.4123 50.2696 46.9343 53.3099 45.3379 55.4547C45.0832 54.9673 46.736 52.6021 49.3191 52.5384C42.0606 49.9287 35.7262 51.4255 33.7338 54.3885C33.6345 54.4097 33.6966 53.4592 34.9723 52.1644C33.3151 53.1469 31.5787 54.5039 30.2142 56.6904C29.5324 54.017 27.5622 54.9032 27.5622 54.9032C28.6086 55.3056 28.795 56.557 28.9196 57.9923C25.5691 60.3709 23.6276 64.6189 23.6276 64.6189L23.2856 66.3317C23.2856 66.3317 25.8089 61.5682 29.8994 59.135C38.8142 53.8323 43.2693 61.3742 55.6958 60.0611C55.6962 60.0613 51.6059 62.0999 41.5618 59.5258Z" fill="#B68C5A"/>
</svg>
