<svg width="90" height="85" viewBox="0 0 90 85" fill="none" xmlns="http://www.w3.org/2000/svg">
<path d="M21.4894 10.2873C21.4894 10.2873 20.4941 9.99074 19.4529 9.73441C18.4298 9.48992 17.3604 9.28547 17.3604 9.28547C17.3604 9.28547 17.5628 9.10512 17.8663 8.83449C18.1657 8.55916 18.5785 8.20765 18.9986 7.86472C19.4106 7.51198 19.8452 7.18723 20.1657 6.93723C20.4851 6.68539 20.7059 6.52832 20.7059 6.52832C20.7059 6.52832 21.7441 6.84123 22.7384 7.19764C23.7464 7.56325 24.7029 7.96153 24.7029 7.96153C24.7029 7.96153 24.4968 8.0996 24.1878 8.30691C23.8757 8.50973 23.4666 8.79058 23.0677 9.08551C22.6606 9.36921 22.2709 9.6764 21.977 9.90455C21.6816 10.1304 21.4894 10.2873 21.4894 10.2873Z" fill="#011C1A"/>
<path d="M16.6607 4.30735C16.6607 4.30735 16.6511 5.43623 16.6913 6.52916C16.7403 7.6417 16.8359 8.71421 16.8359 8.71421C16.8359 8.71421 17.0422 8.53039 17.3514 8.25465C17.6566 7.97402 18.0773 7.61597 18.5054 7.26629C18.9254 6.90682 19.3682 6.57594 19.695 6.32103C20.0206 6.0645 20.2456 5.90437 20.2456 5.90437C20.2456 5.90437 20.2622 4.82308 20.3349 3.71605C20.4113 2.62475 20.5391 1.50098 20.5391 1.50098C20.5391 1.50098 20.2904 1.66723 19.917 1.91662C19.541 2.16192 19.0475 2.50098 18.5655 2.85616C18.0751 3.19991 17.6037 3.5692 17.2491 3.84473C16.8927 4.11822 16.6607 4.30735 16.6607 4.30735Z" fill="#011C1A"/>
<path d="M15.7839 16.042C15.7839 16.042 15.522 16.0254 15.1294 16.0005C14.7344 15.9775 14.2019 15.9517 13.6766 15.9468C13.1478 15.9384 12.6117 15.9399 12.2064 15.9454C11.7986 15.9491 11.5347 15.9634 11.5347 15.9634C11.5347 15.9634 11.6848 15.7375 11.9281 15.4115C12.1709 15.0853 12.4797 14.6392 12.822 14.2185C13.156 13.7912 13.4912 13.3651 13.7594 13.0594C14.022 12.7489 14.1971 12.542 14.1971 12.542C14.1971 12.542 14.462 12.5569 14.8674 12.5965C15.2708 12.6343 15.8039 12.6903 16.3284 12.755C16.8498 12.8159 17.3786 12.9009 17.7675 12.9648C18.155 13.0314 18.4131 13.0759 18.4131 13.0759C18.4131 13.0759 17.714 13.7791 17.0567 14.522C16.7259 14.8911 16.414 15.2769 16.1707 15.5579C15.933 15.8437 15.7839 16.042 15.7839 16.042Z" fill="#011C1A"/>
<path d="M9.76709 11.2585C9.76709 11.2585 9.82714 11.5314 9.91721 11.9409C10.0087 12.3478 10.1343 12.8835 10.2822 13.4207C10.426 13.9556 10.5771 14.481 10.6938 14.8703C10.8077 15.2581 10.8978 15.52 10.8978 15.52C10.8978 15.52 11.0508 15.2898 11.2985 14.9577C11.5459 14.6252 11.8608 14.1707 12.2097 13.7418C12.55 13.3063 12.8919 12.8721 13.165 12.5604C13.4327 12.244 13.6112 12.0333 13.6112 12.0333C13.6112 12.0333 13.5508 11.7641 13.4787 11.3658C13.4043 10.9659 13.31 10.4273 13.2242 9.87967C13.1343 9.32922 13.0692 8.7851 13.0206 8.36966C12.9748 7.95279 12.9442 7.6748 12.9442 7.6748C12.9442 7.6748 12.0994 8.52468 11.3057 9.42235C10.9062 9.86864 10.5277 10.3333 10.2352 10.6742C9.94805 11.0198 9.76709 11.2585 9.76709 11.2585Z" fill="#011C1A"/>
<path d="M11.4602 22.9044C11.4602 22.9044 11.2006 22.9449 10.8109 23.0055C10.4164 23.0672 9.89643 23.1599 9.38397 23.2692C8.3517 23.4806 7.29492 23.7468 7.29492 23.7468C7.29492 23.7468 7.40276 23.498 7.56432 23.1246C7.73263 22.7545 7.92584 22.2465 8.17299 21.7635C8.63214 20.7805 9.15501 19.8299 9.15501 19.8299C9.15501 19.8299 9.41972 19.7919 9.81698 19.7351C10.2202 19.6849 10.7541 19.6244 11.2816 19.5744C11.8088 19.5231 12.3301 19.4825 12.7296 19.4637C13.1236 19.4451 13.3862 19.4326 13.3862 19.4326C13.3862 19.4326 13.2543 19.6428 13.0564 19.9579C12.8697 20.28 12.6209 20.7096 12.3721 21.1393C12.1391 21.5778 11.9058 22.0166 11.7312 22.3454C11.5686 22.6808 11.4602 22.9044 11.4602 22.9044Z" fill="#011C1A"/>
<path d="M4.55273 19.5347C4.55273 19.5347 4.66997 19.7878 4.84604 20.1673C5.01985 20.5427 5.26413 21.0409 5.52618 21.5341C6.04028 22.52 6.57867 23.4512 6.57867 23.4512C6.57867 23.4512 6.68836 23.1977 6.85298 22.8174C7.02434 22.4402 7.22165 21.923 7.47328 21.4308C7.94101 20.4293 8.47389 19.4608 8.47389 19.4608C8.47389 19.4608 8.36238 19.2108 8.1951 18.8358C8.0366 18.4624 7.82908 17.9579 7.62769 17.4432C7.42508 16.9285 7.22921 16.4038 7.09726 16.0125C6.96307 15.6164 6.8734 15.3525 6.8734 15.3525C6.8734 15.3525 6.7147 15.6062 6.47655 15.9869C6.25167 16.3752 5.95184 16.893 5.652 17.4107C5.37136 17.9389 5.09072 18.4669 4.88014 18.863C4.68366 19.2661 4.55273 19.5347 4.55273 19.5347Z" fill="#011C1A"/>
<path d="M8.7056 30.5375C8.7056 30.5375 8.45192 30.6272 8.09448 30.7753C7.73317 30.9221 7.2493 31.1253 6.76278 31.3402C6.27647 31.5547 5.78729 31.781 5.41944 31.9562C5.0616 32.1364 4.82324 32.2565 4.82324 32.2565C4.82324 32.2565 4.83386 32.1895 4.85245 32.0724C4.86797 31.9548 4.90208 31.7887 4.94497 31.59C5.02851 31.1921 5.13983 30.6615 5.25135 30.1308C5.36879 29.6016 5.52157 29.0808 5.62022 28.6864C5.72357 28.293 5.7924 28.031 5.7924 28.031C5.7924 28.031 6.04403 27.9344 6.42823 27.7996C6.81119 27.6641 7.31957 27.4905 7.82406 27.3286C8.32998 27.1664 8.82692 27.014 9.2056 26.9076C9.58979 26.8061 9.84591 26.7383 9.84591 26.7383C9.84591 26.7383 9.82406 26.7963 9.78586 26.898C9.74747 26.9997 9.69028 27.1441 9.63778 27.3226C9.52524 27.6774 9.37512 28.1503 9.2252 28.6233C9.06752 29.0941 8.96601 29.5806 8.86389 29.9382C8.76891 30.2977 8.7056 30.5375 8.7056 30.5375Z" fill="#011C1A"/>
<path d="M1.23486 28.7338C1.23486 28.7338 1.39336 28.9566 1.65807 29.2893C1.91889 29.6212 2.26857 30.0565 2.6211 30.4799C2.97343 30.9039 3.32842 31.3161 3.59578 31.6196C3.87417 31.9223 4.05983 32.1239 4.05983 32.1239C4.05983 32.1239 4.07065 32.0557 4.08965 31.9364C4.10558 31.8165 4.1403 31.6474 4.18401 31.4448C4.26918 31.0391 4.38275 30.4985 4.49631 29.9576C4.616 29.4184 4.77143 28.8874 4.87212 28.4856C4.97752 28.0849 5.04778 27.8177 5.04778 27.8177C5.04778 27.8177 4.88458 27.6004 4.65113 27.2699C4.41624 26.939 4.10517 26.4907 3.79819 26.0309C3.49202 25.5722 3.18503 25.1002 2.96465 24.744C2.75182 24.3874 2.61007 24.1494 2.61007 24.1494C2.61007 24.1494 2.58393 24.2195 2.53838 24.342C2.49263 24.4646 2.42502 24.639 2.36007 24.8541C2.22425 25.282 2.04308 25.8524 1.86191 26.4229C1.67481 26.9915 1.54614 27.5777 1.42461 28.0099C1.31084 28.4441 1.23486 28.7338 1.23486 28.7338Z" fill="#011C1A"/>
<path d="M7.68445 38.5761C7.68445 38.5761 6.81557 39.149 5.94507 39.7834C5.10438 40.4113 4.26778 41.1002 4.26778 41.1002C4.26778 41.1002 4.25695 40.8294 4.24102 40.4229C4.21549 40.0167 4.21631 39.4746 4.22591 38.9325C4.23449 38.3905 4.22448 37.8478 4.25981 37.4423C4.28351 37.0365 4.29923 36.7659 4.29923 36.7659C4.29923 36.7659 4.52411 36.6198 4.86133 36.4009C5.19691 36.1846 5.64441 35.9039 6.11418 35.6372C7.04168 35.0992 7.9612 34.6221 7.9612 34.6221C7.9612 34.6221 7.93485 34.8686 7.89523 35.2383C7.86092 35.6084 7.78616 36.0994 7.77023 36.5955C7.74102 37.0904 7.71202 37.5855 7.69017 37.9566C7.68669 38.3282 7.68445 38.5761 7.68445 38.5761Z" fill="#011C1A"/>
<path d="M0 38.443C0 38.443 0.856822 39.1746 1.71528 39.8449C2.60335 40.5208 3.49367 41.1356 3.49367 41.1356C3.49367 41.1356 3.48284 40.8594 3.4663 40.4454C3.44056 40.0314 3.44118 39.4789 3.45078 38.9264C3.45935 38.3739 3.44975 37.821 3.48529 37.4076C3.5094 36.9938 3.52553 36.7181 3.52553 36.7181C3.52553 36.7181 3.31965 36.5386 3.01103 36.2692C2.70098 35.9967 2.28901 35.6262 1.90176 35.2453C1.11417 34.4861 0.334763 33.666 0.334763 33.666C0.334763 33.666 0.302492 33.9638 0.253881 34.4103C0.211193 34.8574 0.126634 35.4514 0.103554 36.0502C0.069036 36.6482 0.034518 37.2461 0.00857843 37.6946C0.00347222 38.1435 0 38.443 0 38.443Z" fill="#011C1A"/>
<path d="M8.42596 46.65C8.42596 46.65 8.2356 46.8387 7.97049 47.1257C7.70599 47.4123 7.35448 47.8016 7.00542 48.2027C6.65636 48.6032 6.30975 49.0156 6.05137 49.3302C5.80321 49.6451 5.63777 49.8551 5.63777 49.8551C5.63777 49.8551 5.55321 49.5971 5.466 49.1996C5.37245 48.8038 5.24765 48.2762 5.12265 47.7487C5.01134 47.2182 4.92065 46.6833 4.84345 46.284C4.76849 45.8843 4.72314 45.6171 4.72314 45.6171C4.72314 45.6171 5.48846 44.8377 6.26154 44.1188C6.64737 43.7574 7.03217 43.4086 7.341 43.1502C7.6439 42.8955 7.8459 42.7256 7.8459 42.7256C7.8459 42.7256 7.86734 42.9727 7.89941 43.3434C7.94986 43.7121 8.01706 44.2037 8.08425 44.6954C8.1394 45.1888 8.24929 45.6737 8.31301 46.0403C8.38062 46.4061 8.42596 46.65 8.42596 46.65Z" fill="#011C1A"/>
<path d="M0.895317 48.187C0.895317 48.187 1.13449 48.3212 1.51113 48.5107C1.88837 48.7003 2.39 48.9458 2.88918 49.1794C3.38837 49.4137 3.8851 49.6363 4.25622 49.7977C4.63612 49.9539 4.88939 50.0579 4.88939 50.0579C4.88939 50.0579 4.8034 49.7948 4.71435 49.39C4.61896 48.9868 4.49172 48.449 4.36467 47.9115C4.25111 47.3708 4.15859 46.8259 4.07995 46.419C4.00356 46.0117 3.9574 45.7395 3.9574 45.7395C3.9574 45.7395 3.0148 45.2264 2.06463 44.6529C1.58935 44.368 1.11059 44.0712 0.77093 43.8408C0.424933 43.6081 0.194336 43.4531 0.194336 43.4531C0.194336 43.4531 0.221093 43.7513 0.261126 44.1984C0.321583 44.6433 0.401853 45.2364 0.482327 45.8294C0.552384 46.4241 0.679835 47.0095 0.757654 47.4515C0.840374 47.8929 0.895317 48.187 0.895317 48.187Z" fill="#011C1A"/>
<path d="M10.9052 54.375C10.9052 54.375 10.3525 55.2651 9.83939 56.2035C9.34143 57.1277 8.87023 58.1064 8.87023 58.1064C8.87023 58.1064 8.74727 57.8648 8.56263 57.5025C8.47031 57.3213 8.36267 57.1099 8.24727 56.8834C8.14249 56.652 8.03056 56.4049 7.91864 56.1579C7.45479 55.1769 7.0708 54.1622 7.0708 54.1622C7.0708 54.1622 7.21316 53.9347 7.42681 53.5934C7.64331 53.2541 7.92354 52.8127 8.23726 52.372C8.85103 51.4917 9.48277 50.6689 9.48277 50.6689C9.48277 50.6689 9.56283 50.9038 9.68293 51.2564C9.80446 51.6083 9.95234 52.0828 10.1454 52.5405C10.33 53.0013 10.5048 53.4661 10.6494 53.8093C10.8028 54.1487 10.9052 54.375 10.9052 54.375Z" fill="#011C1A"/>
<path d="M3.88198 57.4973C3.88198 57.4973 4.9602 57.8019 6.02965 58.0433C7.11952 58.2817 8.18283 58.4655 8.18283 58.4655C8.18283 58.4655 8.05743 58.2194 7.86952 57.8501C7.77556 57.6654 7.66588 57.45 7.54844 57.2192C7.44162 56.9833 7.32744 56.7316 7.21347 56.4802C6.74104 55.4806 6.3495 54.4467 6.3495 54.4467C6.3495 54.4467 6.08745 54.3707 5.69448 54.2569C5.30232 54.1397 4.76555 53.9804 4.25453 53.7988C3.22082 53.444 2.16895 53.0312 2.16895 53.0312C2.16895 53.0312 2.26515 53.3145 2.40935 53.7394C2.55559 54.1636 2.73757 54.7339 2.96694 55.2868C3.18774 55.8427 3.40138 56.4018 3.57581 56.8152C3.75943 57.2245 3.88198 57.4973 3.88198 57.4973Z" fill="#011C1A"/>
<path d="M14.9776 61.3894C14.9776 61.3894 14.8869 61.6388 14.7697 62.0089C14.6496 62.3806 14.4939 62.8823 14.3454 63.3939C14.198 63.9037 14.0523 64.428 13.9557 64.8179C13.8642 65.2074 13.8034 65.467 13.8034 65.467C13.8034 65.467 13.759 65.4158 13.6814 65.3259C13.6046 65.2356 13.4898 65.1106 13.3677 64.948C13.1173 64.6278 12.7831 64.2007 12.4492 63.7734C12.1142 63.3471 11.8174 62.8923 11.5777 62.5638C11.343 62.2317 11.1865 62.0103 11.1865 62.0103C11.1865 62.0103 11.2737 61.7556 11.4171 61.3745C11.5591 60.9942 11.7523 60.4932 11.9518 60.0028C12.3393 59.0246 12.7997 58.0732 12.7997 58.0732C12.7997 58.0732 12.9171 58.2922 13.1118 58.6092C13.3117 58.9231 13.5783 59.3416 13.8448 59.7601C14.1054 60.1827 14.4118 60.5743 14.6201 60.8823C14.8346 61.1866 14.9776 61.3894 14.9776 61.3894Z" fill="#011C1A"/>
<path d="M8.79616 65.9558C8.79616 65.9558 9.0723 65.9748 9.49612 65.9865C9.91748 66.0002 10.4751 66.0122 11.0253 66.0147C11.5772 66.0165 12.1162 66.0132 12.5261 65.9989C12.9373 65.9797 13.2116 65.9669 13.2116 65.9669C13.2116 65.9669 13.1665 65.9146 13.0874 65.8231C13.0092 65.731 12.8924 65.6035 12.7676 65.4379C12.5123 65.1115 12.172 64.6762 11.8315 64.241C11.4902 63.8063 11.1875 63.3431 10.9432 63.0083C10.704 62.6699 10.5447 62.4442 10.5447 62.4442C10.5447 62.4442 10.2731 62.4299 9.86969 62.3964C9.46507 62.3639 8.92136 62.3147 8.37152 62.2549C7.82455 62.1942 7.26021 62.1295 6.85233 62.0655C6.44138 61.9998 6.16748 61.9561 6.16748 61.9561C6.16748 61.9561 6.31045 62.2191 6.54514 62.6017C6.78615 62.9804 7.10743 63.4855 7.42871 63.9904C7.7455 64.4983 8.11029 64.9744 8.36356 65.3449C8.62316 65.7116 8.79616 65.9558 8.79616 65.9558Z" fill="#011C1A"/>
<path d="M20.4834 67.3355C20.4834 67.3355 20.3593 68.3749 20.291 69.4433C20.2322 70.4905 20.221 71.5763 20.221 71.5763C20.221 71.5763 20.0069 71.4101 19.6859 71.1605C19.5253 71.0357 19.338 70.8902 19.1372 70.7342C18.9444 70.5688 18.7388 70.3921 18.5329 70.2156C18.1258 69.8578 17.7022 69.5181 17.4111 69.2338C17.1164 68.9536 16.9199 68.7669 16.9199 68.7669C16.9199 68.7669 16.953 68.5003 17.0024 68.1004C17.0578 67.6991 17.1201 67.1858 17.2191 66.6531C17.4048 65.5949 17.6319 64.582 17.6319 64.582C17.6319 64.582 17.8031 64.7614 18.0598 65.0304C18.3151 65.3008 18.6538 65.6631 19.021 65.9969C19.3827 66.3357 19.7349 66.6854 20.0129 66.9319C20.2953 67.1739 20.4834 67.3355 20.4834 67.3355Z" fill="#011C1A"/>
<path d="M15.444 73.1393C15.444 73.1393 16.5506 72.9588 17.6208 72.7253C18.7099 72.4788 19.7511 72.1934 19.7511 72.1934C19.7511 72.1934 19.533 72.0239 19.2058 71.7696C19.0422 71.6424 18.8514 71.4941 18.6468 71.3352C18.4501 71.1665 18.2405 70.9867 18.0308 70.8068C17.6157 70.4422 17.1844 70.0956 16.8876 69.806C16.5871 69.5204 16.387 69.3301 16.387 69.3301C16.387 69.3301 16.1176 69.372 15.7134 69.4347C15.3108 69.4916 14.752 69.5793 14.2127 69.6297C13.1268 69.7435 11.9995 69.8119 11.9995 69.8119C11.9995 69.8119 12.206 70.0288 12.5159 70.354C12.8247 70.6802 13.2358 71.1158 13.6772 71.5215C14.1131 71.9322 14.541 72.3517 14.8768 72.6501C15.2172 72.9436 15.444 73.1393 15.444 73.1393Z" fill="#011C1A"/>
<path d="M27.1482 71.9524C27.1482 71.9524 27.1762 72.2157 27.2182 72.6107C27.2646 73.0041 27.3412 73.5162 27.4245 74.0413C27.5896 75.0864 27.8085 76.1583 27.8085 76.1583C27.8085 76.1583 26.8371 75.6761 25.8657 75.1939C25.3925 74.9294 24.919 74.6647 24.564 74.4663C24.3865 74.3671 24.2387 74.2845 24.1351 74.2265C24.0344 74.1638 23.9768 74.1281 23.9768 74.1281C23.9768 74.1281 23.8706 73.0415 23.8157 71.9878C23.7865 71.4602 23.7656 70.9418 23.7664 70.5388C23.766 70.1428 23.7656 69.8789 23.7656 69.8789C23.7656 69.8789 23.9686 70.0215 24.273 70.2351C24.5881 70.4328 25.0085 70.6967 25.4288 70.9604C25.8428 71.2343 26.282 71.4671 26.6067 71.6495C26.9317 71.8313 27.1482 71.9524 27.1482 71.9524Z" fill="#011C1A"/>
<path d="M23.4877 78.7102C23.4877 78.7102 23.7444 78.6061 24.1294 78.4498C24.5136 78.2889 25.0275 78.0546 25.5273 77.8222C26.5318 77.3553 27.4826 76.8614 27.4826 76.8614C27.4826 76.8614 26.493 76.3702 25.5034 75.8788C25.0212 75.6091 24.5387 75.3397 24.177 75.1375C23.9962 75.0364 23.8455 74.9521 23.7399 74.8933C23.6372 74.8295 23.5785 74.793 23.5785 74.793C23.5785 74.793 22.5796 75.1863 21.5291 75.5468C21.0054 75.7282 20.4699 75.9055 20.0755 76.0172C19.6752 76.1328 19.4082 76.2096 19.4082 76.2096C19.4082 76.2096 19.6537 76.381 20.022 76.6379C20.4019 76.8769 20.9086 77.1957 21.4151 77.5146C21.9168 77.8422 22.4435 78.1259 22.8347 78.3457C23.2264 78.5644 23.4877 78.7102 23.4877 78.7102Z" fill="#011C1A"/>
<path d="M21.3379 5.67075L26.9406 4.44465L30.2748 0L25.0093 0.766136L21.3379 5.67075Z" fill="#011C1A"/>
</svg>
