<svg width="35" height="40" viewBox="0 0 35 40" fill="none" xmlns="http://www.w3.org/2000/svg">
<path d="M24.1481 26.3111C28.3857 19.6616 27.853 20.4912 27.9751 20.3178C29.5179 18.1417 30.3333 15.5806 30.3333 12.9111C30.3333 5.83178 24.5886 0 17.5 0C10.4345 0 4.66667 5.82027 4.66667 12.9111C4.66667 15.5789 5.4992 18.2071 7.09256 20.4125L10.8517 26.3111C6.83254 26.9288 0 28.7694 0 32.8222C0 34.2996 0.964289 36.4051 5.55816 38.0457C8.76587 39.1913 13.0069 39.8222 17.5 39.8222C25.9019 39.8222 35 37.4522 35 32.8222C35 28.7687 28.1755 26.93 24.1481 26.3111ZM9.04159 19.1291C9.02876 19.109 9.01538 19.0894 9.00138 19.0701C7.6755 17.2461 7 15.0843 7 12.9111C7 7.07638 11.6982 2.33333 17.5 2.33333C23.2897 2.33333 28 7.07848 28 12.9111C28 15.0878 27.3373 17.1762 26.0831 18.9522C25.9707 19.1004 26.5571 18.1895 17.5 32.4014L9.04159 19.1291ZM17.5 37.4889C8.32269 37.4889 2.33333 34.7913 2.33333 32.8222C2.33333 31.4988 5.41084 29.3226 12.2304 28.4744L16.5161 35.1993C16.7303 35.5354 17.1013 35.7389 17.4999 35.7389C17.8985 35.7389 18.2696 35.5354 18.4837 35.1993L22.7694 28.4744C29.5891 29.3226 32.6667 31.4988 32.6667 32.8222C32.6667 34.7746 26.7312 37.4889 17.5 37.4889Z" fill="white"/>
<path d="M17.5033 7.07812C14.2868 7.07812 11.6699 9.69496 11.6699 12.9115C11.6699 16.128 14.2868 18.7448 17.5033 18.7448C20.7198 18.7448 23.3366 16.128 23.3366 12.9115C23.3366 9.69496 20.7198 7.07812 17.5033 7.07812ZM17.5033 16.4115C15.5734 16.4115 14.0033 14.8414 14.0033 12.9115C14.0033 10.9816 15.5734 9.41146 17.5033 9.41146C19.4332 9.41146 21.0033 10.9816 21.0033 12.9115C21.0033 14.8414 19.4332 16.4115 17.5033 16.4115Z" fill="white"/>
</svg>
