<svg width="155" height="26" viewBox="0 0 155 26" fill="none" xmlns="http://www.w3.org/2000/svg">
<path fill-rule="evenodd" clip-rule="evenodd" d="M4.49755 7.71316C2.93937 8.68369 1.43183 9.73087 0 10.8802L1.55766 12.8978C2.88923 11.8252 4.32157 10.8291 5.80405 9.90964L4.49755 7.71316ZM15.4268 2.78389C13.4922 3.39686 11.6076 4.11198 9.82382 4.90373L10.8541 7.25343C12.5627 6.48721 14.3465 5.82317 16.1804 5.23578L15.4268 2.78389ZM27.0851 0.408644C25.0747 0.612965 23.1149 0.919448 21.2058 1.30255L21.7082 3.83104C23.517 3.47348 25.4266 3.16699 27.3613 2.96267L27.0851 0.408644ZM34.9241 0C34.2959 -2.74021e-08 33.6427 -5.59566e-08 33.0145 0.0255402L33.0897 2.60511C33.6928 2.57957 34.321 2.57957 34.9241 2.57957C36.2055 2.57957 37.512 2.63065 38.8185 2.68173L38.9439 0.102161C37.6123 0.0255404 36.2557 5.82614e-08 34.9241 0ZM44.8236 0.587429L44.5469 3.14146C46.4314 3.37132 48.3411 3.65226 50.2507 4.00983L50.6778 1.4558C48.7181 1.09823 46.7583 0.81729 44.8236 0.587429ZM56.4814 2.63065L55.9289 5.15914C57.8135 5.59333 59.6724 6.05306 61.5319 6.56386L62.1852 4.06091C60.3006 3.5501 58.391 3.06484 56.4814 2.63065ZM67.8383 5.6444L67.1349 8.12183L67.1522 8.12704C69.0054 8.68717 70.8591 9.24742 72.6873 9.833L73.4414 7.35561C71.5819 6.76817 69.7224 6.20631 67.8383 5.6444ZM79.0188 9.14342L78.2653 11.5953L83.8432 13.3576L84.5967 10.9057L79.0188 9.14342ZM90.1496 12.6169L89.4457 15.0943C90.9094 15.5307 92.373 15.9517 93.8247 16.3692C94.2421 16.4893 94.6586 16.6091 95.0738 16.7289L95.7271 14.226C93.8681 13.7151 92.0086 13.1788 90.1496 12.6169ZM101.381 15.6562L100.803 18.1591C101.149 18.2539 101.495 18.3344 101.846 18.4157C102.156 18.4877 102.469 18.5604 102.788 18.6444C104.044 18.9254 105.3 19.1807 106.581 19.4106L107.034 16.8821C105.777 16.6523 104.546 16.3969 103.315 16.1159C102.99 16.0396 102.671 15.9633 102.352 15.887C102.03 15.8101 101.709 15.7331 101.381 15.6562ZM112.737 17.7761L112.41 20.3301C114.37 20.5855 116.355 20.7898 118.29 20.9175L118.466 18.3379C116.581 18.2102 114.672 18.0314 112.737 17.7761ZM129.923 18.2613C128.064 18.4146 126.154 18.5167 124.194 18.5167V21.0963C126.204 21.0963 128.214 20.9941 130.124 20.8409L129.923 18.2613ZM141.154 16.2181C139.37 16.7289 137.511 17.1886 135.601 17.5206L136.053 20.0491C138.038 19.6916 139.998 19.2318 141.857 18.6955L141.154 16.2181ZM149.861 12.7638C148.779 13.3244 147.66 13.8526 146.531 14.3281L147.511 16.7289C148.508 16.3043 149.49 15.8504 150.45 15.3672L146.882 25.0804L149.269 25.9999L154.596 11.4675L139.973 7.12562L139.244 9.60305L149.861 12.7638Z" fill="#B68C5A"/>
</svg>
