<svg width="56" height="60" viewBox="0 0 56 60" fill="none" xmlns="http://www.w3.org/2000/svg">
<path d="M22.082 2.34375C22.7292 2.34375 23.2539 1.81908 23.2539 1.17188C23.2539 0.524666 22.7292 0 22.082 0C21.4348 0 20.9102 0.524666 20.9102 1.17188C20.9102 1.81908 21.4348 2.34375 22.082 2.34375Z" fill="#B68C5A"/>
<path d="M34.1827 21.6289C34.8299 21.6289 35.3545 21.1041 35.3545 20.457C35.3545 19.8098 34.8299 19.2852 34.1827 19.2852H30.2466C29.5994 19.2852 29.0747 19.8098 29.0747 20.457V30.1687C29.0747 30.8159 29.5994 31.3406 30.2466 31.3406C30.8938 31.3406 31.4185 30.8159 31.4185 30.1687V26.3927H33.87C34.5172 26.3927 35.0419 25.868 35.0419 25.2208C35.0419 24.5737 34.5172 24.0489 33.87 24.0489H31.4185V21.6289H34.1827Z" fill="#B68C5A"/>
<path d="M18.8154 30.8909C19.035 31.1089 19.3317 31.2311 19.641 31.2311H19.6454C19.7266 31.2308 21.6438 31.2235 22.4098 31.21C25.2528 31.1603 27.3164 28.68 27.3164 25.3123C27.3164 21.7721 25.3048 19.3936 22.3106 19.3936H19.6217C19.3106 19.3936 19.0121 19.5174 18.7923 19.7376C18.5724 19.9579 18.4493 20.2565 18.4499 20.5677C18.4721 20.8061 18.4067 29.9184 18.473 30.1368C18.4919 30.4208 18.6122 30.6894 18.8154 30.8909ZM22.3106 21.7374C24.2734 21.7374 24.9726 23.5842 24.9726 25.3125C24.9726 27.0589 24.1674 28.8354 22.3687 28.8669C22.0107 28.8731 21.3763 28.8781 20.8089 28.8815C20.799 26.1588 20.8011 24.5441 20.7957 21.7374H22.3106Z" fill="#B68C5A"/>
<path d="M9.9816 19.2492C9.35196 19.2369 8.79883 19.7924 8.80973 20.4211V30.2044C8.80973 30.8515 9.33438 31.3763 9.9816 31.3763C10.6288 31.3763 11.1535 30.8515 11.1535 30.2044V27.1204C11.7161 27.1174 12.3482 27.1147 12.7057 27.1147C14.9041 27.1147 16.6926 25.3505 16.6926 23.1819C16.6926 21.0134 14.9041 19.2491 12.7057 19.2491L9.9816 19.2492ZM14.3487 23.1819C14.3487 24.0432 13.5964 24.771 12.7056 24.771C12.3494 24.771 11.7256 24.7737 11.1659 24.7766C11.1586 23.4464 11.1611 22.9614 11.1569 21.593H12.7056C13.5964 21.593 14.3487 22.3207 14.3487 23.1819Z" fill="#B68C5A"/>
<path d="M43.7617 34.2621V10.5469C43.7617 10.2361 43.6382 9.93809 43.4185 9.71824L34.0435 0.343242C33.8238 0.123516 33.5256 0 33.2148 0H27.3566C26.7094 0 26.1848 0.524648 26.1848 1.17188C26.1848 1.8191 26.7094 2.34375 27.3566 2.34375H32.043V9.375C32.043 10.6673 33.0944 11.7188 34.3867 11.7188H41.418V34.283C34.913 34.9318 29.8164 40.4365 29.8164 47.1094C29.8164 47.9096 29.8904 48.6928 30.0305 49.4531H2.74609V2.34375H16.8074C17.4546 2.34375 17.9793 1.8191 17.9793 1.17188C17.9793 0.524648 17.4546 0 16.8074 0H2.74609C1.45375 0 0.402344 1.05141 0.402344 2.34375V57.6562C0.402344 58.9486 1.45375 60 2.74609 60H42.5898C42.5978 60 42.6054 59.9989 42.6134 59.9988C42.6447 59.9991 42.6757 60 42.707 60C49.8149 60 55.5977 54.2173 55.5977 47.1094C55.5977 40.3566 50.3781 34.8005 43.7617 34.2621ZM34.3867 4.00102L39.7606 9.375H34.3867V4.00102ZM2.74609 57.6562V51.7969H30.6988C31.6296 54.1731 33.2464 56.2076 35.3041 57.6562H2.74609ZM42.707 57.6562C36.8915 57.6562 32.1602 52.9249 32.1602 47.1094C32.1602 41.2938 36.8915 36.5625 42.707 36.5625C48.5226 36.5625 53.2539 41.2938 53.2539 47.1094C53.2539 52.9249 48.5226 57.6562 42.707 57.6562Z" fill="#B68C5A"/>
<path d="M45.1658 48.8525L43.8788 50.1395V41.25C43.8788 40.6029 43.3541 40.0781 42.7069 40.0781C42.0597 40.0781 41.535 40.6029 41.535 41.25V50.1395L40.2481 48.8525C39.7904 48.3952 39.0484 48.395 38.5908 48.8525C38.1332 49.3102 38.1331 50.0522 38.5907 50.5099L41.8782 53.7975C42.098 54.0172 42.396 54.1407 42.7068 54.1407C43.0176 54.1407 43.3157 54.0172 43.5354 53.7975L46.8229 50.5099C47.2805 50.0523 47.2805 49.3103 46.8229 48.8525C46.3654 48.395 45.6234 48.395 45.1658 48.8525Z" fill="#B68C5A"/>
</svg>
