<svg width="35" height="36" viewBox="0 0 35 36" fill="none" xmlns="http://www.w3.org/2000/svg">
<path d="M27.6758 21.7127C26.9582 20.9656 26.0927 20.5661 25.1754 20.5661C24.2654 20.5661 23.3925 20.9582 22.6453 21.7053L20.3077 24.0356C20.1153 23.9321 19.923 23.8359 19.738 23.7397C19.4717 23.6066 19.2202 23.4808 19.0057 23.3476C16.8159 21.9569 14.8259 20.1444 12.9173 17.7993C11.9926 16.6305 11.3712 15.6466 10.9199 14.6479C11.5265 14.0931 12.0888 13.516 12.6362 12.9612C12.8433 12.7541 13.0505 12.5395 13.2576 12.3324C14.8111 10.7789 14.8111 8.76669 13.2576 7.21316L11.238 5.19358C11.0087 4.96425 10.772 4.72752 10.55 4.49079C10.1062 4.03213 9.64011 3.55868 9.15926 3.11481C8.44167 2.40463 7.58354 2.02734 6.68101 2.02734C5.77849 2.02734 4.90555 2.40463 4.16578 3.11481C4.15838 3.12221 4.15838 3.12221 4.15098 3.12961L1.63575 5.66703C0.68884 6.61394 0.148805 7.76799 0.0304406 9.10698C-0.147105 11.2671 0.489101 13.2793 0.977352 14.5961C2.17579 17.8289 3.96604 20.825 6.63662 24.0356C9.87684 27.9046 13.7754 30.9599 18.2289 33.1127C19.9304 33.919 22.2015 34.8733 24.7389 35.0361C24.8943 35.0435 25.057 35.0509 25.205 35.0509C26.9138 35.0509 28.349 34.4369 29.4735 33.2162C29.4809 33.2014 29.4956 33.194 29.503 33.1792C29.8877 32.7132 30.3316 32.2915 30.7977 31.8402C31.1158 31.5369 31.4413 31.2188 31.7594 30.8859C32.4917 30.124 32.8764 29.2362 32.8764 28.3263C32.8764 27.409 32.4843 26.5287 31.7372 25.7889L27.6758 21.7127ZM30.3242 29.5026C30.3168 29.5026 30.3168 29.51 30.3242 29.5026C30.0357 29.8133 29.7398 30.0944 29.4217 30.4051C28.9408 30.8637 28.4526 31.3446 27.9939 31.8846C27.2467 32.6836 26.3664 33.0609 25.2124 33.0609C25.1014 33.0609 24.983 33.0609 24.8721 33.0535C22.6749 32.9129 20.6332 32.0548 19.1018 31.3224C14.9147 29.2954 11.238 26.4177 8.18275 22.7706C5.66012 19.7301 3.97344 16.919 2.85638 13.9007C2.16839 12.0587 1.91686 10.6235 2.02783 9.26973C2.10181 8.4042 2.43471 7.68662 3.04872 7.0726L5.57135 4.54997C5.93384 4.20968 6.31852 4.02473 6.69581 4.02473C7.16186 4.02473 7.53915 4.30585 7.77588 4.54258C7.78328 4.54997 7.79067 4.55737 7.79807 4.56477C8.24933 4.98644 8.6784 5.42291 9.12966 5.88897C9.35899 6.12569 9.59572 6.36242 9.83245 6.60655L11.852 8.62613C12.6362 9.41029 12.6362 10.1353 11.852 10.9194C11.6375 11.134 11.4304 11.3485 11.2158 11.5556C10.5944 12.1918 10.0026 12.7837 9.35899 13.3607C9.3442 13.3755 9.3294 13.3829 9.32201 13.3977C8.6858 14.0339 8.80416 14.6553 8.93732 15.077C8.94472 15.0992 8.95212 15.1213 8.95952 15.1435C9.48476 16.416 10.2245 17.6144 11.349 19.0422L11.3564 19.0495C13.3982 21.5648 15.5509 23.5252 17.9256 25.0269C18.2289 25.2193 18.5396 25.3746 18.8355 25.5226C19.1018 25.6557 19.3533 25.7815 19.5679 25.9147C19.5975 25.9294 19.6271 25.9516 19.6567 25.9664C19.9082 26.0922 20.1449 26.1514 20.389 26.1514C21.003 26.1514 21.3877 25.7667 21.5135 25.6409L24.0435 23.1109C24.295 22.8594 24.6945 22.5561 25.1606 22.5561C25.6192 22.5561 25.9965 22.8446 26.2258 23.0961C26.2332 23.1035 26.2332 23.1035 26.2406 23.1109L30.3168 27.1871C31.0788 27.9416 31.0788 28.7184 30.3242 29.5026Z" fill="white"/>
<path d="M18.9178 8.33762C20.856 8.66312 22.6166 9.58044 24.0222 10.986C25.4278 12.3916 26.3377 14.1522 26.6706 16.0904C26.752 16.5787 27.1736 16.919 27.6545 16.919C27.7137 16.919 27.7655 16.9116 27.8246 16.9042C28.3721 16.8154 28.7346 16.2976 28.6458 15.7502C28.2463 13.4051 27.1366 11.2671 25.4426 9.57304C23.7485 7.87896 21.6105 6.76929 19.2655 6.36982C18.718 6.28104 18.2076 6.64353 18.1114 7.18357C18.0152 7.7236 18.3703 8.24884 18.9178 8.33762Z" fill="white"/>
<path d="M34.9854 15.4617C34.327 11.6001 32.5072 8.08616 29.7108 5.28982C26.9145 2.49347 23.4005 0.673625 19.5389 0.0152256C18.9989 -0.080945 18.4884 0.288942 18.3923 0.828977C18.3035 1.37641 18.666 1.88685 19.2134 1.98303C22.6608 2.56745 25.8048 4.20235 28.3052 6.69539C30.8057 9.19582 32.4332 12.3399 33.0176 15.7872C33.099 16.2755 33.5207 16.6158 34.0015 16.6158C34.0607 16.6158 34.1125 16.6084 34.1717 16.601C34.7117 16.5196 35.0816 16.0017 34.9854 15.4617Z" fill="white"/>
</svg>
