<svg width="42" height="60" viewBox="0 0 42 60" fill="none" xmlns="http://www.w3.org/2000/svg">
<path fill-rule="evenodd" clip-rule="evenodd" d="M39.6797 60.0001H1.38286C0.621185 60.0001 0 59.379 0 58.6172V8.95317C0 8.1915 0.621051 7.57031 1.38286 7.57031H12.1759C12.5626 7.57031 12.879 7.88672 12.879 8.27344V11.6251H28.1718V8.27344C28.1718 7.88672 28.4882 7.57031 28.8749 7.57031H39.6679C40.4296 7.57031 41.0508 8.19136 41.0508 8.95317V58.6172C41.0626 59.379 40.4414 60.0001 39.6797 60.0001ZM1.4063 58.5938H39.6564V8.97666H29.5899V11.6368C29.5899 12.3985 28.9688 13.0196 28.207 13.0196H12.8674C12.1057 13.0196 11.4845 12.3986 11.4845 11.6368L11.4846 8.97666H1.40637L1.4063 58.5938Z" fill="#B68C5A"/>
<path fill-rule="evenodd" clip-rule="evenodd" d="M28.1953 13.0313H12.8672C12.1056 13.0313 11.4844 12.4102 11.4844 11.6484L11.4845 5.75389C11.4845 4.99221 12.1056 4.37102 12.8674 4.37102L15.5157 4.37116C15.8438 1.91021 17.9767 0 20.5312 0C23.0859 0 25.207 1.91021 25.5586 4.37116H28.2069C28.9686 4.37116 29.5898 4.99221 29.5898 5.75402V11.6369C29.5898 12.3984 28.9687 13.0313 28.1953 13.0313ZM12.879 11.625H28.1717V5.77742H24.8905C24.5038 5.77742 24.1874 5.46101 24.1874 5.07429C24.1874 3.04698 22.5468 1.40625 20.5194 1.40625C18.4922 1.40625 16.8515 3.04683 16.8515 5.07429C16.8515 5.46101 16.5351 5.77742 16.1484 5.77742H12.8672V11.625H12.879Z" fill="#B68C5A"/>
<path fill-rule="evenodd" clip-rule="evenodd" d="M20.5311 8.56635C19.2187 8.56635 18.1523 7.49989 18.1523 6.18747C18.1523 4.87492 19.2188 3.80859 20.5311 3.80859C21.8436 3.80859 22.91 4.87505 22.91 6.18747C22.91 7.49988 21.8436 8.56635 20.5311 8.56635ZM20.5311 5.22648C20.0039 5.22648 19.5586 5.66013 19.5586 6.1991C19.5586 6.72644 19.9922 7.17171 20.5311 7.17171C21.0701 7.17171 21.5037 6.73807 21.5037 6.1991C21.5037 5.66013 21.0584 5.22648 20.5311 5.22648Z" fill="#B68C5A"/>
<path fill-rule="evenodd" clip-rule="evenodd" d="M35.2732 55.1133H16.8516C16.4648 55.1133 16.1484 54.7969 16.1484 54.4102V52.582C16.1484 51.3985 17.1094 50.4375 18.293 50.4375H33.8318C35.0154 50.4375 35.9764 51.3985 35.9764 52.582V54.4102C35.9764 54.7969 35.66 55.1133 35.2732 55.1133ZM17.5547 53.7071H34.5701V52.582C34.5701 52.1719 34.2419 51.8438 33.8318 51.8438H18.293C17.8829 51.8438 17.5547 52.1719 17.5547 52.582L17.5547 53.7071Z" fill="#B68C5A"/>
<path fill-rule="evenodd" clip-rule="evenodd" d="M32.1679 51.8438H19.9688C19.582 51.8438 19.2656 51.5274 19.2656 51.1406V49.3125C19.2656 48.129 20.2266 47.168 21.41 47.168H30.7265C31.91 47.168 32.871 48.129 32.871 49.3125V51.1406C32.871 51.5274 32.5546 51.8438 32.1679 51.8438ZM20.6717 50.4375H31.4648V49.3125C31.4648 48.9024 31.1366 48.5742 30.7265 48.5742H21.41C20.9999 48.5742 20.6717 48.9024 20.6717 49.3125L20.6717 50.4375Z" fill="#B68C5A"/>
<path fill-rule="evenodd" clip-rule="evenodd" d="M22.8628 42.2111C22.6167 42.2111 22.3823 42.0822 22.2533 41.8595L18.8433 35.9532C18.6441 35.6134 18.7612 35.1915 19.1012 34.9922L23.0619 32.707C23.226 32.6133 23.4135 32.5898 23.6011 32.6367C23.7768 32.6837 23.9292 32.8007 24.0229 32.9649L27.4331 38.8712C27.6323 39.211 27.5152 39.6329 27.1752 39.8322L23.2143 42.1173C23.1089 42.1877 22.9799 42.2111 22.8628 42.2111ZM20.4134 35.8595L23.1205 40.5471L25.8627 38.965L23.1556 34.2775L20.4134 35.8595Z" fill="#B68C5A"/>
<path fill-rule="evenodd" clip-rule="evenodd" d="M18.4464 36.7617C18.3175 36.7617 18.1769 36.7499 18.0479 36.7031C17.6494 36.5977 17.3214 36.3398 17.122 35.9882L16.7236 35.2969C16.5244 34.9453 16.4657 34.5352 16.5712 34.1367C16.6766 33.7382 16.9345 33.4102 17.2861 33.2109L22.4539 30.2226C22.8055 30.0234 23.2156 29.9647 23.6141 30.0702C24.0126 30.1757 24.3406 30.4335 24.5399 30.7851L24.9384 31.4764C25.3603 32.203 25.1142 33.1406 24.3759 33.5624L19.1964 36.5624C18.9621 36.703 18.7042 36.7617 18.4464 36.7617ZM23.2041 31.4531C23.1923 31.4531 23.1689 31.4531 23.1456 31.4648L17.9777 34.4531C17.9425 34.4765 17.9308 34.5 17.9191 34.5234C17.9074 34.5468 17.9074 34.582 17.9309 34.6171L18.3294 35.3085C18.3528 35.3437 18.3763 35.3554 18.3997 35.3671C18.4231 35.3788 18.4583 35.3788 18.4934 35.3553L23.6613 32.367C23.7198 32.3318 23.7316 32.2615 23.7082 32.203L23.3097 31.5116C23.2863 31.4765 23.2628 31.4647 23.2394 31.4531C23.2275 31.4531 23.2159 31.4531 23.2041 31.4531Z" fill="#B68C5A"/>
<path fill-rule="evenodd" clip-rule="evenodd" d="M23.0731 44.7888C22.9442 44.7888 22.8036 44.777 22.6746 44.7302C22.2761 44.6248 21.9481 44.3669 21.7488 44.0153L21.3503 43.324C20.9284 42.5975 21.1745 41.6599 21.9128 41.238L27.0808 38.2497C27.8073 37.8278 28.7449 38.0739 29.1668 38.8122L29.5652 39.5036C29.7644 39.8551 29.8231 40.2652 29.7176 40.6637C29.6122 41.0622 29.3543 41.3902 29.0027 41.5896L23.8348 44.5661C23.6004 44.7185 23.3308 44.7888 23.0731 44.7888ZM27.8308 39.4684C27.8074 39.4684 27.7957 39.4684 27.7723 39.4802L22.6043 42.4685C22.5457 42.5036 22.534 42.5739 22.5574 42.6325L22.9558 43.3238C22.9792 43.359 23.0028 43.3708 23.0262 43.3824C23.0496 43.3942 23.0847 43.3942 23.1199 43.3706L28.2879 40.3941C28.3464 40.3589 28.3699 40.2886 28.3348 40.2301L27.9363 39.5387C27.9129 39.4919 27.8777 39.4684 27.8308 39.4684Z" fill="#B68C5A"/>
<path fill-rule="evenodd" clip-rule="evenodd" d="M7.28789 48.7735C7.10034 48.7735 6.90117 48.7501 6.71362 48.6914C6.13935 48.539 5.67069 48.1759 5.37768 47.6601C4.76825 46.6054 5.13158 45.2577 6.18628 44.6484L20.0613 36.6445C20.2253 36.5508 20.4127 36.5273 20.6003 36.5742C20.7761 36.6212 20.9285 36.7382 21.0222 36.9024L22.5221 39.504C22.7213 39.8438 22.6042 40.2657 22.2643 40.465L8.38934 48.4689C8.04954 48.668 7.67461 48.7735 7.28789 48.7735ZM6.8894 45.8671C6.50268 46.0899 6.37382 46.582 6.59639 46.957C6.70185 47.1445 6.87764 47.2734 7.08858 47.332C7.29951 47.3905 7.51045 47.3553 7.698 47.2499L20.9634 39.5975L20.1667 38.2147L6.8894 45.8671Z" fill="#B68C5A"/>
<path fill-rule="evenodd" clip-rule="evenodd" d="M10.0425 47.4137C9.79644 47.4137 9.56211 47.2848 9.43311 47.0621L7.93315 44.4605C7.73398 44.1207 7.85108 43.6989 8.19101 43.4996C8.53081 43.3004 8.95269 43.4175 9.152 43.7574L10.652 46.359C10.8511 46.6988 10.734 47.1207 10.3941 47.32C10.2769 47.3785 10.1596 47.4137 10.0425 47.4137Z" fill="#B68C5A"/>
<path fill-rule="evenodd" clip-rule="evenodd" d="M32.5781 17.918H8.48438C8.09766 17.918 7.78125 17.6016 7.78125 17.2148C7.78125 16.8281 8.09766 16.5117 8.48438 16.5117H32.5781C32.9648 16.5117 33.2812 16.8281 33.2812 17.2148C33.2812 17.6016 32.9648 17.918 32.5781 17.918Z" fill="#B68C5A"/>
<path fill-rule="evenodd" clip-rule="evenodd" d="M32.5781 22.7461H8.48438C8.09766 22.7461 7.78125 22.4297 7.78125 22.043C7.78125 21.6563 8.09766 21.3398 8.48438 21.3398L32.5781 21.34C32.9648 21.34 33.2812 21.6564 33.2812 22.0431C33.2812 22.4298 32.9648 22.7461 32.5781 22.7461Z" fill="#B68C5A"/>
<path fill-rule="evenodd" clip-rule="evenodd" d="M27.8085 27.5859H8.48438C8.09766 27.5859 7.78125 27.2695 7.78125 26.8828C7.78125 26.4961 8.09766 26.1797 8.48438 26.1797H27.8085C28.1952 26.1797 28.5117 26.4961 28.5117 26.8828C28.5117 27.2695 28.2069 27.5859 27.8085 27.5859Z" fill="#B68C5A"/>
</svg>
