<svg width="35" height="35" viewBox="0 0 35 35" fill="none" xmlns="http://www.w3.org/2000/svg">
<path d="M34.4872 24.1698H28.9164C28.3353 23.6044 27.5846 23.1728 26.6701 22.8828C25.4149 22.485 24.2424 22.4902 23.9121 22.5015C23.6002 22.5103 23.3033 22.3738 23.1199 22.1311L20.4862 18.647C20.0546 18.0757 19.3935 17.74 18.6983 17.7089V4.51171H25.6565L22.1003 15.3585H21.9037C21.7069 15.3585 21.518 15.4437 21.3855 15.5924C21.2473 15.7474 21.1819 15.9563 21.2059 16.1656C21.4236 18.0589 23.6779 19.4868 26.4496 19.4868C29.2212 19.4868 31.4755 18.0589 31.6933 16.1657C31.7173 15.9563 31.6519 15.7474 31.5136 15.5924C31.3811 15.4437 31.1922 15.3585 30.9954 15.3585H30.8042L27.4078 4.51171H28.4409C29.3636 4.51171 30.1143 3.76106 30.1143 2.83547C30.1143 1.91276 29.3636 1.16211 28.4409 1.16211H18.4225C17.9057 0.458144 17.0729 0 16.1346 0C15.1964 0 14.3635 0.458144 13.8468 1.16211H8.83939C8.55625 1.16211 8.3267 1.39159 8.3267 1.6748C8.3267 1.95801 8.55625 2.1875 8.83939 2.1875H13.3736C13.3245 2.3962 13.2977 2.61344 13.2977 2.83691C13.2977 3.06037 13.3245 3.27762 13.3736 3.48632H5.51071C5.50913 3.48632 5.50756 3.48632 5.50599 3.48632H3.82879C3.47148 3.48632 3.18075 3.19559 3.18075 2.83547C3.18075 2.47816 3.47148 2.1875 3.82879 2.1875H6.5257C6.80885 2.1875 7.0384 1.95801 7.0384 1.6748C7.0384 1.39159 6.80885 1.16211 6.5257 1.16211H3.82879C2.90601 1.16211 2.15536 1.91276 2.15536 2.83828C2.15536 3.76106 2.90601 4.51171 3.82879 4.51171H4.45551L0.898644 15.3585H0.702726C0.50592 15.3585 0.316975 15.4437 0.184495 15.5924C0.0462724 15.7474 -0.0192157 15.9563 0.00491511 16.1656C0.222639 18.0589 2.47692 19.4868 5.24862 19.4868C8.02031 19.4868 10.2746 18.0589 10.4924 16.1655C10.5164 15.9562 10.4509 15.7473 10.3127 15.5923C10.1802 15.4437 9.99131 15.3585 9.79451 15.3585H9.60331L6.20681 4.51171H13.5714V24.0324H12.697C12.0697 24.0324 11.4622 24.2193 10.9475 24.5652L8.17542 22.3901C7.36666 21.7555 6.2913 21.6866 5.42963 22.1245L4.48005 21.6289C3.22922 20.9764 1.67979 21.4635 1.02634 22.714C0.709084 23.3203 0.64715 24.0136 0.851886 24.666C1.05642 25.3178 1.50267 25.8507 2.10819 26.1665L9.49092 30.0186C9.57767 30.0636 9.66715 30.1019 9.75718 30.1366L11.9617 31.8663C12.0556 31.9399 12.1671 31.9757 12.2779 31.9757C12.43 31.9757 12.5804 31.9084 12.6816 31.7795C12.8564 31.5567 12.8175 31.2344 12.5947 31.0596L5.64517 25.6068C5.32279 25.3539 5.11839 24.9907 5.06958 24.5842C5.02078 24.178 5.13336 23.7771 5.38643 23.4553C5.90944 22.7904 6.87666 22.6745 7.54248 23.1968L10.638 25.6256C10.6388 25.6262 10.6396 25.6269 10.6404 25.6275L15.5868 29.5084C15.7623 29.6462 16.0067 29.6546 16.1914 29.5292C16.2297 29.5032 19.2104 27.4932 22.0891 26.4766C22.0917 26.4756 22.0943 26.4747 22.097 26.4737C22.9226 26.1826 23.7395 25.9733 24.476 25.9164C26.1652 25.7859 27.6419 26.221 28.6361 27.1415C29.5072 27.9479 29.9677 29.0856 29.9677 30.4318C29.9677 30.715 30.1971 30.9445 30.4804 30.9445C30.7636 30.9445 30.9931 30.715 30.9931 30.4318C30.9931 28.7926 30.419 27.3946 29.3327 26.389C28.1265 25.2723 26.3744 24.7409 24.3971 24.894C23.6866 24.9489 22.9205 25.1258 22.1472 25.3749C21.6344 24.6365 20.8348 24.1571 19.939 24.0537L18.6984 22.4188V18.7349C19.0763 18.7644 19.4325 18.9531 19.6683 19.265L22.302 22.7491C22.6862 23.2578 23.3013 23.5478 23.9472 23.5261C24.3109 23.5133 27.5414 23.4693 28.7947 25.6683C28.8892 25.8343 29.0624 25.9272 29.2405 25.9272C29.3266 25.9272 29.4138 25.9056 29.4939 25.8599C29.7286 25.7261 29.817 25.4352 29.7028 25.195H33.9745V28.4355C33.9745 28.7187 34.204 28.9482 34.4872 28.9482C34.7704 28.9482 34.9999 28.7187 34.9999 28.4355V24.6825C34.9999 24.3993 34.7704 24.1698 34.4872 24.1698ZM5.43688 26.7466L2.58247 25.2573C2.21989 25.0682 1.95274 24.7491 1.83031 24.3589C1.70768 23.9681 1.74486 23.5526 1.93511 23.189C2.32694 22.4389 3.25601 22.1468 4.00585 22.5379L4.57159 22.8332C4.15548 23.3685 3.97064 24.033 4.05151 24.7065C4.13299 25.3851 4.47417 25.9913 5.01223 26.4135L5.43688 26.7466ZM26.4496 18.4613C24.459 18.4613 22.7037 17.5562 22.3011 16.3838H30.5979C30.1954 17.5562 28.4401 18.4613 26.4496 18.4613ZM23.1794 15.3585L26.5298 5.13925L29.7296 15.3585H23.1794ZM28.4409 2.1875C28.7982 2.1875 29.0889 2.47823 29.0889 2.83828C29.0889 3.19566 28.7982 3.48632 28.4409 3.48632H26.7118C26.7102 3.48632 26.7086 3.48632 26.7071 3.48632H26.3731C26.3718 3.48632 26.3705 3.48632 26.3692 3.48632H18.8956C18.9447 3.27762 18.9715 3.06037 18.9715 2.83691C18.9715 2.61344 18.9447 2.3962 18.8956 2.1875H28.4409ZM16.1346 1.02539C17.1335 1.02539 17.9461 1.83804 17.9461 2.83691C17.9461 3.83577 17.1335 4.64843 16.1346 4.64843C15.1358 4.64843 14.3231 3.83577 14.3231 2.83691C14.3231 1.83804 15.1358 1.02539 16.1346 1.02539ZM5.24855 18.4613C3.25799 18.4613 1.5028 17.5562 1.1001 16.3838H9.397C8.99436 17.5562 7.2391 18.4613 5.24855 18.4613ZM1.97769 15.3585L5.3288 5.13918L8.5287 15.3585H1.97769ZM14.5967 5.21895C15.0402 5.5062 15.5681 5.67382 16.1346 5.67382C16.7014 5.67382 17.2294 5.50606 17.6729 5.21861V18.2727V18.2739V24.0323H14.5967V5.21895ZM21.129 25.7403C18.8639 26.6315 16.72 27.9611 15.9291 28.4737L11.8192 25.2491C12.0924 25.1242 12.3911 25.0578 12.697 25.0578H19.5726C20.1766 25.0578 20.7353 25.3099 21.129 25.7403Z" fill="white"/>
<path d="M34.4874 30.1104C34.2042 30.1104 33.9747 30.3398 33.9747 30.623V32.0693L28.7366 32.2412C28.7178 32.2419 28.6992 32.2436 28.6809 32.2462C28.6802 32.2463 28.6794 32.2463 28.6787 32.2464L17.0654 33.958C16.9916 33.9688 16.9161 33.9744 16.8412 33.9744C16.4988 33.9744 16.1618 33.858 15.8926 33.6468L14.3155 32.4093C14.0927 32.2344 13.7705 32.2734 13.5957 32.4962C13.4209 32.7189 13.4598 33.0413 13.6826 33.216L15.2598 34.4536C15.7088 34.8057 16.2705 34.9997 16.8413 34.9997C16.9661 34.9997 17.0919 34.9905 17.215 34.9724L28.7995 33.2651L30.2117 33.2188C30.212 33.2188 30.2123 33.2187 30.2125 33.2187L34.5043 33.0778C34.7808 33.0687 35.0002 32.842 35.0002 32.5654V30.623C35.0001 30.3398 34.7707 30.1104 34.4874 30.1104Z" fill="white"/>
</svg>
