<svg width="25" height="29" viewBox="0 0 25 29" fill="none" xmlns="http://www.w3.org/2000/svg">
<path d="M22.5962 2.40385C22.5962 1.05779 21.5384 0 20.1923 0H2.40385C1.05779 0 0 1.05779 0 2.40385V6.25H3.84615V26.4423C3.84615 27.7884 4.90394 28.8462 6.25 28.8462H22.5962C23.9422 28.8462 25 27.7884 25 26.4423V24.0385H22.5962V2.40385ZM3.84615 5.28846H0.961538V2.40385C0.961538 1.58644 1.58644 0.961538 2.40385 0.961538C3.22125 0.961538 3.84615 1.58644 3.84615 2.40385V5.28846ZM4.80769 26.4423V2.40385C4.80769 1.87495 4.61543 1.39418 4.32692 0.961538H20.1923C21.0097 0.961538 21.6346 1.58644 21.6346 2.40385V24.0385H7.69231V26.4423C7.69231 27.2597 7.0674 27.8846 6.25 27.8846C5.4326 27.8846 4.80769 27.2597 4.80769 26.4423ZM24.0385 25V26.4423C24.0385 27.2597 23.4136 27.8846 22.5962 27.8846H8.17308C8.50971 27.452 8.65385 26.9712 8.65385 26.4423V25H24.0385Z" fill="white"/>
<path d="M16.8271 15.3848H20.6733V16.3463H16.8271V15.3848Z" fill="white"/>
<path d="M5.76953 15.3848H15.8657V16.3463H5.76953V15.3848Z" fill="white"/>
<path d="M11.0576 17.3076H20.673V18.2692H11.0576V17.3076Z" fill="white"/>
<path d="M5.76953 17.3076H10.0965V18.2692H5.76953V17.3076Z" fill="white"/>
<path d="M14.4229 21.1543H20.6729V22.1158H14.4229V21.1543Z" fill="white"/>
<path d="M5.76953 21.1543H13.4618V22.1158H5.76953V21.1543Z" fill="white"/>
<path d="M12.4036 9.80742L12.9806 10.1922L13.5576 9.80742C15.2882 8.65362 16.346 6.68242 16.346 4.61521V3.02853L12.9806 1.92285L9.61523 3.02853V4.61521C9.61523 6.68242 10.673 8.65362 12.4036 9.80742ZM10.5768 3.70179L12.9806 2.88439L15.3845 3.70179V4.61521C15.3845 6.39391 14.5192 8.02871 13.0287 9.03814H12.9806L12.9325 8.99025C11.4421 8.02871 10.5768 6.34602 10.5768 4.56708V3.70179Z" fill="white"/>
<path d="M14.4232 4.85601L13.4617 4.75977C13.3654 5.57717 12.9328 6.34644 12.2598 6.82721L12.7887 7.64438C13.7021 6.97135 14.327 5.96169 14.4232 4.85601Z" fill="white"/>
<path d="M8.6543 19.2305H20.6735V20.192H8.6543V19.2305Z" fill="white"/>
<path d="M5.76953 19.2305H7.69261V20.192H5.76953V19.2305Z" fill="white"/>
<path d="M11.0576 13.4619H20.673V14.4235H11.0576V13.4619Z" fill="white"/>
<path d="M5.76953 13.4619H10.0965V14.4235H5.76953V13.4619Z" fill="white"/>
<path d="M9.61523 11.0576H16.346V12.0192H9.61523V11.0576Z" fill="white"/>
</svg>
