<svg width="1920" height="219" viewBox="0 0 1920 219" fill="none" xmlns="http://www.w3.org/2000/svg">
<path opacity="0.4" fill-rule="evenodd" clip-rule="evenodd" d="M1916.71 113.389C1920.06 115.052 1923.41 116.738 1926.77 118.445L1927.23 117.554C1924.05 115.94 1920.88 114.346 1917.72 112.772C1921.75 110.291 1925.6 107.837 1929.27 105.417L1928.73 104.582C1924.9 107.102 1920.87 109.66 1916.66 112.247C1530.84 -79.3605 1234.44 17.2187 1132.64 90.9174C1019.8 57.9068 828.141 47.3448 568.374 141.194C318.108 69.6905 110.329 79.6067 17.5999 96.7546C9.85835 93.6065 2.54959 90.5284 -4.30009 87.5413L-4.69982 88.4579C1.73122 91.2624 8.56619 94.147 15.7834 97.0942C8.16092 98.5349 1.34526 100.023 -4.62122 101.514L-4.37869 102.484C1.96491 100.899 9.27295 99.3167 17.4942 97.7911C94.9847 129.278 215.623 167.711 353.221 192.062C245.279 203.753 113.091 200.437 -6.8212 154.533L-7.17871 155.467C114.177 201.923 248.053 204.826 356.739 192.68C360.001 193.251 363.273 193.813 366.554 194.368C523.711 220.914 701.609 228.507 862.096 186.491C869.429 185.533 880.523 183.415 895.095 179.858C988.79 175.271 1089.13 156.689 1181.21 113.454C1182.65 112.806 1184.16 112.154 1185.74 111.501C1202.23 119.055 1215.57 126.898 1225.7 134.402L1225.72 134.417L1225.74 134.429C1364.26 216.901 1510.39 229.24 1636.75 211.17C1708.75 200.872 1774.35 180.699 1828.48 157.995C1862.05 159.345 1896.31 158.69 1927.07 154.495L1926.93 153.504C1896.89 157.601 1863.49 158.314 1830.65 157.079C1864.24 142.868 1893.34 127.709 1916.71 113.389ZM1915.66 112.864C1531.22 -77.8232 1235.87 17.9001 1133.85 91.2744C1153.62 97.1154 1170.95 103.643 1185.77 110.411C1250.55 83.8581 1430.43 55.1368 1675.13 138.516C1705.9 145.014 1765.92 154.461 1828.3 156.987C1862.41 142.665 1891.96 127.341 1915.66 112.864ZM1826.12 157.896C1764.4 155.241 1705.32 145.917 1674.9 139.489L1674.87 139.482L1674.84 139.473C1431.38 56.5095 1252.25 84.6418 1187.01 110.983C1203.16 118.44 1216.27 126.172 1226.28 133.583C1364.55 215.9 1510.42 228.225 1636.6 210.18C1707.65 200.02 1772.45 180.233 1826.12 157.896ZM1184.5 110.935C1169.73 104.242 1152.48 97.7888 1132.83 92.0158C1132.65 92.145 1132.47 92.2742 1132.3 92.4032L1132.25 92.4328L1132.21 92.4537C1027.61 140.642 947.513 166.612 900.176 178.594C992.301 173.592 1090.53 154.927 1180.79 112.547L1180.79 112.544C1181.98 112.009 1183.22 111.472 1184.5 110.935ZM1131.57 91.6481C1019.07 58.9495 828.385 48.5855 570.016 141.664C572.72 142.44 575.428 143.225 578.141 144.02L578.147 144.021C632.1 160.59 727.002 178.908 836.305 179.987C855.46 180.176 875.056 179.836 894.951 178.864C941.412 167.513 1023.33 141.493 1131.57 91.6481ZM566.767 141.775C318.607 71.1176 112.466 80.5446 19.3261 97.4548C97.4389 129.062 218.701 167.518 356.77 191.671C431.479 183.311 494.262 167.837 532.828 154.53C544.266 150.081 555.579 145.831 566.767 141.775ZM360.271 192.279C433.587 183.825 495.136 168.594 533.163 155.472L533.172 155.469L533.181 155.466C545.06 150.845 556.803 146.44 568.409 142.244C571.552 143.143 574.701 144.054 577.857 144.979C631.905 161.576 726.901 179.907 836.295 180.987C853.787 181.16 871.648 180.891 889.769 180.104C877.7 182.93 868.357 184.666 861.935 185.504L861.904 185.508L861.873 185.516C701.568 227.491 523.813 219.917 366.721 193.382C364.567 193.018 362.417 192.65 360.271 192.279Z" fill="#B68C5A"/>
</svg>
