<svg width="15" height="18" viewBox="0 0 15 18" fill="none" xmlns="http://www.w3.org/2000/svg">
<path d="M12.1791 11.5924C11.3534 11.5924 10.6094 11.949 10.0931 12.5162L5.44889 9.63986C5.57288 9.32245 5.64165 8.9777 5.64165 8.61703C5.64165 8.25624 5.57288 7.91148 5.44889 7.59421L10.0931 4.7177C10.6094 5.28493 11.3534 5.64165 12.1791 5.64165C13.7346 5.64165 15 4.37623 15 2.82076C15 1.26529 13.7346 0 12.1791 0C10.6236 0 9.35822 1.26542 9.35822 2.82089C9.35822 3.18156 9.42712 3.52631 9.55098 3.84372L4.90691 6.72009C4.39056 6.15286 3.64662 5.79614 2.82089 5.79614C1.26542 5.79614 0 7.06169 0 8.61703C0 10.1725 1.26542 11.4379 2.82089 11.4379C3.64662 11.4379 4.39056 11.0813 4.90691 10.514L9.55098 13.3904C9.42712 13.7078 9.35822 14.0525 9.35822 14.4133C9.35822 15.9687 10.6236 17.2341 12.1791 17.2341C13.7346 17.2341 15 15.9687 15 14.4133C15 12.8578 13.7346 11.5924 12.1791 11.5924ZM10.3868 2.82089C10.3868 1.83265 11.1909 1.02861 12.1791 1.02861C13.1674 1.02861 13.9714 1.83265 13.9714 2.82089C13.9714 3.80914 13.1674 4.61317 12.1791 4.61317C11.1909 4.61317 10.3868 3.80914 10.3868 2.82089ZM2.82089 10.4093C1.83251 10.4093 1.02848 9.60528 1.02848 8.61703C1.02848 7.62879 1.83251 6.82476 2.82089 6.82476C3.80914 6.82476 4.61304 7.62879 4.61304 8.61703C4.61304 9.60528 3.80914 10.4093 2.82089 10.4093ZM10.3868 14.4132C10.3868 13.4249 11.1909 12.6209 12.1791 12.6209C13.1674 12.6209 13.9714 13.4249 13.9714 14.4132C13.9714 15.4014 13.1674 16.2055 12.1791 16.2055C11.1909 16.2055 10.3868 15.4014 10.3868 14.4132Z" fill="white"/>
</svg>
