<svg width="170" height="55" viewBox="0 0 170 55" fill="none" xmlns="http://www.w3.org/2000/svg">
<line y1="0.5" x2="170" y2="0.5" stroke="white"/>
<g clip-path="url(#clip0_148_27)">
<mask id="path-2-inside-1_148_27" fill="white">
<path fill-rule="evenodd" clip-rule="evenodd" d="M20.7257 14.4814C16.6032 6.33997 8.88977 0 -0.235897 0H-213C-224.046 0 -233 8.9543 -233 20V295C-233 306.046 -224.046 315 -213 315H383C394.046 315 403 306.046 403 295V20C403 8.95431 394.046 0 383 0H170.236C161.11 0 153.397 6.33998 149.274 14.4814C137.402 37.9278 113.078 54 85 54C56.922 54 32.5978 37.9278 20.7257 14.4814Z"/>
</mask>
<path d="M20.7257 14.4814L19.8335 14.9332L20.7257 14.4814ZM-213 1H-0.235897V-1H-213V1ZM-232 20C-232 9.50659 -223.493 1 -213 1V-1C-224.598 -1 -234 8.40202 -234 20H-232ZM-232 295V20H-234V295H-232ZM-213 314C-223.493 314 -232 305.493 -232 295H-234C-234 306.598 -224.598 316 -213 316V314ZM383 314H-213V316H383V314ZM402 295C402 305.493 393.493 314 383 314V316C394.598 316 404 306.598 404 295H402ZM402 20V295H404V20H402ZM383 1C393.493 1 402 9.50659 402 20H404C404 8.40202 394.598 -1 383 -1V1ZM170.236 1H383V-1H170.236V1ZM148.382 14.0297C136.674 37.1529 112.687 53 85 53V55C113.469 55 138.131 38.7027 150.166 14.9332L148.382 14.0297ZM85 53C57.3134 53 33.3263 37.1529 21.6178 14.0297L19.8335 14.9332C31.8693 38.7027 56.5306 55 85 55V53ZM170.236 -1C160.62 -1 152.617 5.66608 148.382 14.0297L150.166 14.9332C154.176 7.01388 161.6 1 170.236 1V-1ZM-0.235897 1C8.39999 1 15.8235 7.01387 19.8335 14.9332L21.6178 14.0297C17.3828 5.66607 9.37956 -1 -0.235897 -1V1Z" fill="#011C1A" mask="url(#path-2-inside-1_148_27)"/>
</g>
<defs>
<clipPath id="clip0_148_27">
<rect width="170" height="55" fill="white"/>
</clipPath>
</defs>
</svg>
