<svg width="35" height="31" viewBox="0 0 35 31" fill="none" xmlns="http://www.w3.org/2000/svg">
<path d="M34.4715 17.7907L32.2481 12.7912C32.1996 12.5645 31.9989 12.3948 31.7581 12.3948H27.2527C27.0412 11.7468 26.4316 11.2777 25.7141 11.2777C24.9967 11.2777 24.3871 11.7476 24.1756 12.3948H19.6702C19.4294 12.3948 19.2287 12.5645 19.1802 12.7912L17.3857 16.8258C16.7987 16.6318 16.2995 16.4771 15.9834 16.3817V14.8281C17.6015 13.6742 18.0547 12.0938 18.1759 11.4424C19.4728 10.75 19.63 9.71231 19.579 9.06845C19.8006 8.39364 20.8057 4.94019 19.0639 2.45839C17.9192 0.826989 15.8647 0 12.9573 0C10.0499 0 8.05973 0.821972 6.91248 2.44334C5.15482 4.92849 6.11978 8.4112 6.35391 9.14788C6.32966 9.28753 6.31544 9.42383 6.31293 9.55344C6.3029 10.0635 6.46596 10.5075 6.78622 10.837C7.11902 11.1798 7.54966 11.3337 7.8741 11.4031C8.05137 12.8915 8.87418 13.9225 9.77977 14.6199V16.5523C9.29394 16.6987 8.37748 16.9846 7.36904 17.3408C7.13909 17.422 6.90579 17.5072 6.675 17.5942H6.67333C6.61229 17.6051 6.5571 17.6277 6.50693 17.6569C5.25181 18.1319 4.27682 18.5776 3.60871 18.9814L3.58613 18.9948C2.52166 19.6044 1.8084 20.5535 1.39866 21.2417C0.273992 23.1289 -0.175876 25.6383 0.0616009 28.7004C0.131004 29.591 0.896951 30.2892 1.80421 30.2892H10.2556C10.2556 30.2892 10.2589 30.2892 10.2606 30.2892H10.2648H11.8276C11.8276 30.2892 11.8301 30.2892 11.8309 30.2892H11.8359H13.9139C13.9139 30.2892 13.9172 30.2892 13.9189 30.2892H13.9222H23.9565C24.781 30.2892 25.4758 29.6855 25.6865 28.7857C26.0018 27.4353 26.0737 26.1308 25.9023 24.8983H27.1114C27.6374 24.8983 28.0647 24.471 28.0647 23.945V23.1323C28.0647 22.6063 27.6374 22.179 27.1114 22.179H26.2133V14.4343C26.7025 14.2745 27.0897 13.8874 27.2502 13.3974H30.9947L29.0413 17.7899C28.7253 17.9655 28.5112 18.3025 28.5112 18.6888V18.9814C28.5112 20.77 29.9662 22.2258 31.7556 22.2258C33.545 22.2258 35 20.7709 35 18.9814V18.6888C35 18.3025 34.7859 17.9655 34.4699 17.7899L34.4715 17.7907ZM24.1756 13.3982C24.3353 13.8874 24.7224 14.2745 25.2124 14.4351V22.1799H25.0711C24.393 20.806 23.4949 19.8778 22.8928 19.3594C22.9071 19.2356 22.9154 19.1102 22.9154 18.9831V18.6905C22.9154 18.3041 22.7014 17.9671 22.3853 17.7915L20.4319 13.3991H24.1764L24.1756 13.3982ZM19.6702 14.1575L21.228 17.6603H18.1115L19.6693 14.1575H19.6702ZM17.4292 18.6896C17.4292 18.6754 17.4409 18.6645 17.4543 18.6645H21.8852C21.8995 18.6645 21.9103 18.6762 21.9103 18.6896V18.9823C21.9103 20.2182 20.9052 21.2233 19.6693 21.2233C18.4335 21.2233 17.4284 20.2182 17.4284 18.9823V18.6896H17.4292ZM7.05798 7.69376C7.05212 7.70045 7.04627 7.70797 7.04042 7.7155C6.81381 6.45453 6.69842 4.47945 7.73362 3.01947C8.68185 1.68157 10.4387 1.00342 12.9564 1.00342C15.4742 1.00342 17.2929 1.68575 18.2386 3.03118C19.2178 4.42259 19.1359 6.27475 18.9226 7.50979C18.8507 7.42367 18.7746 7.33921 18.6918 7.2581C16.8899 5.48706 17.5053 3.88827 17.5304 3.82556C17.614 3.62905 17.5638 3.40244 17.4066 3.25862C17.2494 3.1148 17.0178 3.0872 16.8305 3.18838C13.8495 4.79804 9.21283 3.22685 9.166 3.21096C8.9971 3.15242 8.80895 3.18838 8.67349 3.30545C8.53803 3.42251 8.47531 3.60313 8.50876 3.77956C8.85745 5.5966 7.65334 7.00056 7.07386 7.67536L7.05714 7.69459L7.05798 7.69376ZM8.84491 10.9407C8.83571 10.6739 8.61747 10.4615 8.35072 10.4557C8.17512 10.4523 7.2988 10.3921 7.31552 9.5735C7.31803 9.46731 7.33308 9.34941 7.36068 9.22481C7.42841 8.92212 7.58645 8.61858 7.81891 8.34765L7.83563 8.32842C8.38919 7.68289 9.59831 6.27391 9.5749 4.37911C10.9354 4.74369 13.9114 5.34407 16.4091 4.46607C16.3773 5.33236 16.6281 6.63765 17.9878 7.97388C18.3189 8.29916 18.5196 8.67878 18.5689 9.07263C18.6567 9.77503 18.3105 10.2918 17.5103 10.6513C17.3439 10.7258 17.231 10.8872 17.216 11.0686C17.2093 11.1464 17.0312 12.9893 15.1748 14.1625C14.7935 14.4033 14.3604 14.6023 13.8871 14.7537C13.2449 14.9585 12.5484 14.9343 11.9254 14.686C11.4956 14.5137 11.0382 14.2879 10.6109 13.9936C10.5842 13.9702 10.5541 13.9484 10.5223 13.9309C9.63009 13.2895 8.88923 12.3388 8.84324 10.9423L8.84491 10.9407ZM14.9792 15.4051V16.7262L14.7241 18.8577C14.1547 19.4681 13.5535 19.7741 12.9397 19.775C12.0299 19.7708 11.2765 19.1019 11.0182 18.8418L10.784 16.9002V15.2604C11.0583 15.4051 11.3209 15.523 11.555 15.6166C12.0166 15.8014 12.5091 15.8934 13.0016 15.8934C13.403 15.8934 13.806 15.8315 14.1932 15.7086C14.4666 15.6216 14.7292 15.5196 14.9792 15.4059V15.4051ZM1.80338 29.2858C1.41622 29.2858 1.09011 28.9939 1.06084 28.6227C0.576692 22.3814 3.25249 20.3428 4.08366 19.8661C4.10206 19.8553 4.11711 19.8469 4.12714 19.841C4.65728 19.5199 5.41403 19.1646 6.37899 18.7833L7.01951 22.2978C7.05212 22.4784 7.18173 22.6272 7.3565 22.6841L8.15506 22.9466L7.62073 23.8347C7.54046 23.9676 7.52708 24.1298 7.5831 24.2745L9.52724 29.2866H1.80338V29.2858ZM10.6034 29.2858L8.60743 24.1399L9.33909 22.9241C9.4177 22.7936 9.43275 22.6339 9.37923 22.4909C9.32572 22.3479 9.21032 22.2367 9.06566 22.1891L7.95353 21.8236L7.33308 18.4204C7.45684 18.3752 7.58059 18.3309 7.70351 18.2874C8.56061 17.9839 9.34997 17.7339 9.85419 17.5792L11.2657 29.2866H10.6034V29.2858ZM13.474 29.2858H12.2766L11.1862 20.2449C11.6503 20.5276 12.2465 20.7726 12.9255 20.7776H12.9464C13.505 20.7776 14.041 20.617 14.5502 20.3009L13.474 29.2858ZM15.1054 29.2858H14.485L15.6924 19.2114C15.71 19.1537 15.7167 19.0943 15.7133 19.035L15.9082 17.4077C16.1883 17.4939 16.5571 17.6093 16.9752 17.7472L16.9559 17.7907C16.6398 17.9663 16.4258 18.3033 16.4258 18.6896V18.9823C16.4258 20.0718 16.966 21.036 17.7921 21.6246L17.7562 21.8228L16.644 22.1891C16.4994 22.2367 16.384 22.3479 16.3305 22.4909C16.2769 22.6339 16.292 22.7936 16.3706 22.9241L17.1014 24.1399L15.1054 29.2858ZM24.7116 28.5575C24.633 28.8936 24.388 29.2858 23.9582 29.2858H16.1816L18.1257 24.2737C18.1818 24.129 18.1676 23.9668 18.0881 23.8338L17.5546 22.9458L18.3532 22.6832C18.528 22.6255 18.6567 22.4775 18.6902 22.2969L18.7286 22.087C19.0272 22.1782 19.3432 22.2267 19.671 22.2267C20.9412 22.2267 22.0416 21.4933 22.5743 20.4272C23.0066 20.847 23.5233 21.449 23.9707 22.2442C23.6153 22.3831 23.3619 22.7276 23.3619 23.1323V23.945C23.3619 24.471 23.7892 24.8983 24.3152 24.8983H24.8905C25.0703 26.0481 25.0117 27.2773 24.7124 28.5575H24.7116ZM27.0629 23.1833V23.8949H24.3645V23.1833H24.745C24.745 23.1833 24.75 23.1833 24.7534 23.1833H24.7642H27.0629ZM25.7141 13.5128C25.3747 13.5128 25.0987 13.2368 25.0987 12.8973C25.0987 12.5579 25.3747 12.2819 25.7141 12.2819C26.0536 12.2819 26.3296 12.5579 26.3296 12.8973C26.3296 13.2368 26.0536 13.5128 25.7141 13.5128ZM31.7573 14.1583L33.3151 17.6611H30.1986L31.7573 14.1583ZM33.9982 18.9831C33.9982 20.219 32.9931 21.2241 31.7573 21.2241C30.5214 21.2241 29.5163 20.219 29.5163 18.9831V18.6905C29.5163 18.6762 29.528 18.6654 29.5414 18.6654H33.9723C33.9865 18.6654 33.9974 18.6771 33.9974 18.6905V18.9831H33.9982Z" fill="white"/>
</svg>
